<svg width="1000" height="800" viewBox="0 0 1000 800" xmlns="http://www.w3.org/2000/svg" role="img" aria-label="Krishank Intelligence Dashboard">
  <defs>
    <linearGradient id="bg" x1="0%" y1="0%" x2="100%" y2="100%">
      <stop offset="0%" stop-color="#010604"/>
      <stop offset="100%" stop-color="#02100a"/>
    </linearGradient>
    <linearGradient id="sweepGrad" x1="0%" y1="0%" x2="100%" y2="0%">
      <stop offset="0%" stop-color="#5dffa8" stop-opacity="0"/>
      <stop offset="50%" stop-color="#5dffa8" stop-opacity="0.05"/>
      <stop offset="100%" stop-color="#5dffa8" stop-opacity="0"/>
    </linearGradient>
  </defs>

  <style>
    <![CDATA[
      text { font-family: ui-monospace, 'JetBrains Mono', 'Courier New', monospace; }
      .mast-title { fill: #eafff5; font-size: 20px; font-weight: 800; letter-spacing: 1.5px; }
      .mast-sub { fill: #4f8a75; font-size: 10.5px; letter-spacing: 1.5px; }
      .panel-title { fill: #5dffa8; font-size: 10.5px; font-weight: 700; letter-spacing: 1.2px; }
      .panel-text { fill: #d8ffe9; }
      .panel-value { fill: #eafff5; font-weight: 800; }
      .panel-dim { fill: #4f8a75; }
    ]]>
  </style>

  <rect x="0" y="0" width="1000" height="800" fill="url(#bg)"/>
  <g><line x1="0" y1="0" x2="0" y2="800" stroke="#0d3226" stroke-width="0.5" opacity="0.35"/><line x1="40" y1="0" x2="40" y2="800" stroke="#0d3226" stroke-width="0.5" opacity="0.35"/><line x1="80" y1="0" x2="80" y2="800" stroke="#0d3226" stroke-width="0.5" opacity="0.35"/><line x1="120" y1="0" x2="120" y2="800" stroke="#0d3226" stroke-width="0.5" opacity="0.35"/><line x1="160" y1="0" x2="160" y2="800" stroke="#0d3226" stroke-width="0.5" opacity="0.35"/><line x1="200" y1="0" x2="200" y2="800" stroke="#0d3226" stroke-width="0.5" opacity="0.35"/><line x1="240" y1="0" x2="240" y2="800" stroke="#0d3226" stroke-width="0.5" opacity="0.35"/><line x1="280" y1="0" x2="280" y2="800" stroke="#0d3226" stroke-width="0.5" opacity="0.35"/><line x1="320" y1="0" x2="320" y2="800" stroke="#0d3226" stroke-width="0.5" opacity="0.35"/><line x1="360" y1="0" x2="360" y2="800" stroke="#0d3226" stroke-width="0.5" opacity="0.35"/><line x1="400" y1="0" x2="400" y2="800" stroke="#0d3226" stroke-width="0.5" opacity="0.35"/><line x1="440" y1="0" x2="440" y2="800" stroke="#0d3226" stroke-width="0.5" opacity="0.35"/><line x1="480" y1="0" x2="480" y2="800" stroke="#0d3226" stroke-width="0.5" opacity="0.35"/><line x1="520" y1="0" x2="520" y2="800" stroke="#0d3226" stroke-width="0.5" opacity="0.35"/><line x1="560" y1="0" x2="560" y2="800" stroke="#0d3226" stroke-width="0.5" opacity="0.35"/><line x1="600" y1="0" x2="600" y2="800" stroke="#0d3226" stroke-width="0.5" opacity="0.35"/><line x1="640" y1="0" x2="640" y2="800" stroke="#0d3226" stroke-width="0.5" opacity="0.35"/><line x1="680" y1="0" x2="680" y2="800" stroke="#0d3226" stroke-width="0.5" opacity="0.35"/><line x1="720" y1="0" x2="720" y2="800" stroke="#0d3226" stroke-width="0.5" opacity="0.35"/><line x1="760" y1="0" x2="760" y2="800" stroke="#0d3226" stroke-width="0.5" opacity="0.35"/><line x1="800" y1="0" x2="800" y2="800" stroke="#0d3226" stroke-width="0.5" opacity="0.35"/><line x1="840" y1="0" x2="840" y2="800" stroke="#0d3226" stroke-width="0.5" opacity="0.35"/><line x1="880" y1="0" x2="880" y2="800" stroke="#0d3226" stroke-width="0.5" opacity="0.35"/><line x1="920" y1="0" x2="920" y2="800" stroke="#0d3226" stroke-width="0.5" opacity="0.35"/><line x1="960" y1="0" x2="960" y2="800" stroke="#0d3226" stroke-width="0.5" opacity="0.35"/><line x1="0" y1="0" x2="1000" y2="0" stroke="#0d3226" stroke-width="0.5" opacity="0.35"/><line x1="0" y1="40" x2="1000" y2="40" stroke="#0d3226" stroke-width="0.5" opacity="0.35"/><line x1="0" y1="80" x2="1000" y2="80" stroke="#0d3226" stroke-width="0.5" opacity="0.35"/><line x1="0" y1="120" x2="1000" y2="120" stroke="#0d3226" stroke-width="0.5" opacity="0.35"/><line x1="0" y1="160" x2="1000" y2="160" stroke="#0d3226" stroke-width="0.5" opacity="0.35"/><line x1="0" y1="200" x2="1000" y2="200" stroke="#0d3226" stroke-width="0.5" opacity="0.35"/><line x1="0" y1="240" x2="1000" y2="240" stroke="#0d3226" stroke-width="0.5" opacity="0.35"/><line x1="0" y1="280" x2="1000" y2="280" stroke="#0d3226" stroke-width="0.5" opacity="0.35"/><line x1="0" y1="320" x2="1000" y2="320" stroke="#0d3226" stroke-width="0.5" opacity="0.35"/><line x1="0" y1="360" x2="1000" y2="360" stroke="#0d3226" stroke-width="0.5" opacity="0.35"/><line x1="0" y1="400" x2="1000" y2="400" stroke="#0d3226" stroke-width="0.5" opacity="0.35"/><line x1="0" y1="440" x2="1000" y2="440" stroke="#0d3226" stroke-width="0.5" opacity="0.35"/><line x1="0" y1="480" x2="1000" y2="480" stroke="#0d3226" stroke-width="0.5" opacity="0.35"/><line x1="0" y1="520" x2="1000" y2="520" stroke="#0d3226" stroke-width="0.5" opacity="0.35"/><line x1="0" y1="560" x2="1000" y2="560" stroke="#0d3226" stroke-width="0.5" opacity="0.35"/><line x1="0" y1="600" x2="1000" y2="600" stroke="#0d3226" stroke-width="0.5" opacity="0.35"/><line x1="0" y1="640" x2="1000" y2="640" stroke="#0d3226" stroke-width="0.5" opacity="0.35"/><line x1="0" y1="680" x2="1000" y2="680" stroke="#0d3226" stroke-width="0.5" opacity="0.35"/><line x1="0" y1="720" x2="1000" y2="720" stroke="#0d3226" stroke-width="0.5" opacity="0.35"/><line x1="0" y1="760" x2="1000" y2="760" stroke="#0d3226" stroke-width="0.5" opacity="0.35"/></g>

  
  <text x="20" y="34" class="mast-title">KRISHANK INTELLIGENCE DASHBOARD</text>
  <text x="20" y="54" class="mast-sub">FOUNDER OPS // KMATS // RPM // MUMBAI, IN</text>
  <g>
    <circle cx="944" cy="40" r="15" fill="none" stroke="#1f5c47" stroke-width="1.4"/>
    <circle cx="944" cy="40" r="1.6" fill="#5dffa8"/>
    <line x1="944" y1="40" x2="944" y2="28" stroke="#5dffa8" stroke-width="1.4" stroke-linecap="round">
      <animateTransform attributeName="transform" type="rotate" from="0 944 40" to="360 944 40" dur="9s" repeatCount="indefinite"/>
    </line>
    <text x="944" y="69" text-anchor="middle" class="panel-dim" font-size="8" letter-spacing="1">LIVE</text>
  </g>
  <line x1="20" y1="70" x2="980" y2="70" stroke="#1f5c47" stroke-width="1"/>

  <rect x="20" y="96" width="220" height="210" rx="8" fill="#061b14" stroke="#1f5c47" stroke-width="1"/><path d="M20,106 V96 H30" fill="none" stroke="#5dffa8" stroke-width="1.6"/><path d="M230,96 H240 V106" fill="none" stroke="#5dffa8" stroke-width="1.6"/><path d="M240,296 V306 H230" fill="none" stroke="#5dffa8" stroke-width="1.6"/><path d="M30,306 H20 V296" fill="none" stroke="#5dffa8" stroke-width="1.6"/><text x="36" y="118" class="panel-title">SYSTEM STATUS</text><text x="36" y="146" class="panel-text" font-size="11.5">FOUNDER</text><text x="200" y="146" text-anchor="end" font-size="10.5" fill="#22c76e" font-weight="700">✓</text><text x="36" y="173" class="panel-text" font-size="11.5">KMATS</text><text x="200" y="173" text-anchor="end" font-size="10.5" fill="#22c76e" font-weight="700">ONLINE</text><circle cx="224" cy="169" r="2.6" fill="#22c76e"><animate attributeName="opacity" values="1;0.3;1" dur="1.6s" begin="0.48s" repeatCount="indefinite"/></circle><text x="36" y="200" class="panel-text" font-size="11.5">RPM</text><text x="200" y="200" text-anchor="end" font-size="10.5" fill="#7dd3fc" font-weight="700">BUILDING</text><circle cx="224" cy="196" r="2.6" fill="#7dd3fc"><animate attributeName="opacity" values="1;0.3;1" dur="2.1s" begin="0.63s" repeatCount="indefinite"/></circle><text x="36" y="227" class="panel-text" font-size="11.5">GITHUB</text><text x="200" y="227" text-anchor="end" font-size="10.5" fill="#22c76e" font-weight="700">CONNECTED</text><circle cx="224" cy="223" r="2.6" fill="#22c76e"><animate attributeName="opacity" values="1;0.3;1" dur="2.6s" begin="0.78s" repeatCount="indefinite"/></circle><text x="36" y="254" class="panel-text" font-size="11.5">AWS</text><text x="200" y="254" text-anchor="end" font-size="10.5" fill="#22c76e" font-weight="700">ONLINE</text><circle cx="224" cy="250" r="2.6" fill="#22c76e"><animate attributeName="opacity" values="1;0.3;1" dur="3.1s" begin="0.9299999999999999s" repeatCount="indefinite"/></circle><rect x="256" y="96" width="470" height="210" rx="8" fill="#061b14" stroke="#1f5c47" stroke-width="1"/><path d="M256,106 V96 H266" fill="none" stroke="#5dffa8" stroke-width="1.6"/><path d="M716,96 H726 V106" fill="none" stroke="#5dffa8" stroke-width="1.6"/><path d="M726,296 V306 H716" fill="none" stroke="#5dffa8" stroke-width="1.6"/><path d="M266,306 H256 V296" fill="none" stroke="#5dffa8" stroke-width="1.6"/><text x="272" y="118" class="panel-title">CONTRIBUTION ACTIVITY</text><!--HEATMAP_START--><rect x="279.0" y="136.0" width="6.4" height="6.4" rx="1.2" fill="#0d2b21"/><rect x="279.0" y="144.0" width="6.4" height="6.4" rx="1.2" fill="#0d2b21"/><rect x="279.0" y="152.0" width="6.4" height="6.4" rx="1.2" fill="#0d2b21"/><rect x="279.0" y="160.0" width="6.4" height="6.4" rx="1.2" fill="#0d2b21"/><rect x="279.0" y="168.0" width="6.4" height="6.4" rx="1.2" fill="#0d2b21"/><rect x="279.0" y="176.0" width="6.4" height="6.4" rx="1.2" fill="#0d2b21"/><rect x="279.0" y="184.0" width="6.4" height="6.4" rx="1.2" fill="#0d2b21"/><rect x="287.0" y="136.0" width="6.4" height="6.4" rx="1.2" fill="#0d2b21"/><rect x="287.0" y="144.0" width="6.4" height="6.4" rx="1.2" fill="#0d2b21"/><rect x="287.0" y="152.0" width="6.4" height="6.4" rx="1.2" fill="#0d2b21"/><rect x="287.0" y="160.0" width="6.4" height="6.4" rx="1.2" fill="#0d2b21"/><rect x="287.0" y="168.0" width="6.4" height="6.4" rx="1.2" fill="#0d2b21"/><rect x="287.0" y="176.0" width="6.4" height="6.4" rx="1.2" fill="#0d2b21"/><rect x="287.0" y="184.0" width="6.4" height="6.4" rx="1.2" fill="#0d2b21"/><rect x="295.0" y="136.0" width="6.4" height="6.4" rx="1.2" fill="#0d2b21"/><rect x="295.0" y="144.0" width="6.4" height="6.4" rx="1.2" fill="#0d2b21"/><rect x="295.0" y="152.0" width="6.4" height="6.4" rx="1.2" fill="#0d2b21"/><rect x="295.0" y="160.0" width="6.4" height="6.4" rx="1.2" fill="#0d2b21"/><rect x="295.0" y="168.0" width="6.4" height="6.4" rx="1.2" fill="#0d2b21"/><rect x="295.0" y="176.0" width="6.4" height="6.4" rx="1.2" fill="#0d2b21"/><rect x="295.0" y="184.0" width="6.4" height="6.4" rx="1.2" fill="#0d2b21"/><rect x="303.0" y="136.0" width="6.4" height="6.4" rx="1.2" fill="#0d2b21"/><rect x="303.0" y="144.0" width="6.4" height="6.4" rx="1.2" fill="#0d2b21"/><rect x="303.0" y="152.0" width="6.4" height="6.4" rx="1.2" fill="#0d2b21"/><rect x="303.0" y="160.0" width="6.4" height="6.4" rx="1.2" fill="#0d2b21"/><rect x="303.0" y="168.0" width="6.4" height="6.4" rx="1.2" fill="#0d2b21"/><rect x="303.0" y="176.0" width="6.4" height="6.4" rx="1.2" fill="#0d2b21"/><rect x="303.0" y="184.0" width="6.4" height="6.4" rx="1.2" fill="#0d2b21"/><rect x="311.0" y="136.0" width="6.4" height="6.4" rx="1.2" fill="#0d2b21"/><rect x="311.0" y="144.0" width="6.4" height="6.4" rx="1.2" fill="#0d2b21"/><rect x="311.0" y="152.0" width="6.4" height="6.4" rx="1.2" fill="#0d2b21"/><rect x="311.0" y="160.0" width="6.4" height="6.4" rx="1.2" fill="#0d2b21"/><rect x="311.0" y="168.0" width="6.4" height="6.4" rx="1.2" fill="#0d2b21"/><rect x="311.0" y="176.0" width="6.4" height="6.4" rx="1.2" fill="#0d2b21"/><rect x="311.0" y="184.0" width="6.4" height="6.4" rx="1.2" fill="#0d2b21"/><rect x="319.0" y="136.0" width="6.4" height="6.4" rx="1.2" fill="#0d2b21"/><rect x="319.0" y="144.0" width="6.4" height="6.4" rx="1.2" fill="#0d2b21"/><rect x="319.0" y="152.0" width="6.4" height="6.4" rx="1.2" fill="#0d2b21"/><rect x="319.0" y="160.0" width="6.4" height="6.4" rx="1.2" fill="#0d2b21"/><rect x="319.0" y="168.0" width="6.4" height="6.4" rx="1.2" fill="#0d2b21"/><rect x="319.0" y="176.0" width="6.4" height="6.4" rx="1.2" fill="#0d2b21"/><rect x="319.0" y="184.0" width="6.4" height="6.4" rx="1.2" fill="#0d2b21"/><rect x="327.0" y="136.0" width="6.4" height="6.4" rx="1.2" fill="#0d2b21"/><rect x="327.0" y="144.0" width="6.4" height="6.4" rx="1.2" fill="#0d2b21"/><rect x="327.0" y="152.0" width="6.4" height="6.4" rx="1.2" fill="#0d2b21"/><rect x="327.0" y="160.0" width="6.4" height="6.4" rx="1.2" fill="#0d2b21"/><rect x="327.0" y="168.0" width="6.4" height="6.4" rx="1.2" fill="#0d2b21"/><rect x="327.0" y="176.0" width="6.4" height="6.4" rx="1.2" fill="#0d2b21"/><rect x="327.0" y="184.0" width="6.4" height="6.4" rx="1.2" fill="#0d2b21"/><rect x="335.0" y="136.0" width="6.4" height="6.4" rx="1.2" fill="#0d2b21"/><rect x="335.0" y="144.0" width="6.4" height="6.4" rx="1.2" fill="#0d2b21"/><rect x="335.0" y="152.0" width="6.4" height="6.4" rx="1.2" fill="#0d2b21"/><rect x="335.0" y="160.0" width="6.4" height="6.4" rx="1.2" fill="#0d2b21"/><rect x="335.0" y="168.0" width="6.4" height="6.4" rx="1.2" fill="#0d2b21"/><rect x="335.0" y="176.0" width="6.4" height="6.4" rx="1.2" fill="#0d2b21"/><rect x="335.0" y="184.0" width="6.4" height="6.4" rx="1.2" fill="#0d2b21"/><rect x="343.0" y="136.0" width="6.4" height="6.4" rx="1.2" fill="#0d2b21"/><rect x="343.0" y="144.0" width="6.4" height="6.4" rx="1.2" fill="#0d2b21"/><rect x="343.0" y="152.0" width="6.4" height="6.4" rx="1.2" fill="#159a5c"/><rect x="343.0" y="160.0" width="6.4" height="6.4" rx="1.2" fill="#0f5c3f"/><rect x="343.0" y="168.0" width="6.4" height="6.4" rx="1.2" fill="#0d2b21"/><rect x="343.0" y="176.0" width="6.4" height="6.4" rx="1.2" fill="#0d2b21"/><rect x="343.0" y="184.0" width="6.4" height="6.4" rx="1.2" fill="#0d2b21"/><rect x="351.0" y="136.0" width="6.4" height="6.4" rx="1.2" fill="#0d2b21"/><rect x="351.0" y="144.0" width="6.4" height="6.4" rx="1.2" fill="#0f5c3f"/><rect x="351.0" y="152.0" width="6.4" height="6.4" rx="1.2" fill="#0f5c3f"/><rect x="351.0" y="160.0" width="6.4" height="6.4" rx="1.2" fill="#0f5c3f"/><rect x="351.0" y="168.0" width="6.4" height="6.4" rx="1.2" fill="#0d2b21"/><rect x="351.0" y="176.0" width="6.4" height="6.4" rx="1.2" fill="#0f5c3f"/><rect x="351.0" y="184.0" width="6.4" height="6.4" rx="1.2" fill="#0f5c3f"/><rect x="359.0" y="136.0" width="6.4" height="6.4" rx="1.2" fill="#0d2b21"/><rect x="359.0" y="144.0" width="6.4" height="6.4" rx="1.2" fill="#22c76e"/><rect x="359.0" y="152.0" width="6.4" height="6.4" rx="1.2" fill="#0d2b21"/><rect x="359.0" y="160.0" width="6.4" height="6.4" rx="1.2" fill="#0d2b21"/><rect x="359.0" y="168.0" width="6.4" height="6.4" rx="1.2" fill="#0d2b21"/><rect x="359.0" y="176.0" width="6.4" height="6.4" rx="1.2" fill="#0d2b21"/><rect x="359.0" y="184.0" width="6.4" height="6.4" rx="1.2" fill="#0d2b21"/><rect x="367.0" y="136.0" width="6.4" height="6.4" rx="1.2" fill="#0d2b21"/><rect x="367.0" y="144.0" width="6.4" height="6.4" rx="1.2" fill="#0f5c3f"/><rect x="367.0" y="152.0" width="6.4" height="6.4" rx="1.2" fill="#0d2b21"/><rect x="367.0" y="160.0" width="6.4" height="6.4" rx="1.2" fill="#0d2b21"/><rect x="367.0" y="168.0" width="6.4" height="6.4" rx="1.2" fill="#0d2b21"/><rect x="367.0" y="176.0" width="6.4" height="6.4" rx="1.2" fill="#0d2b21"/><rect x="367.0" y="184.0" width="6.4" height="6.4" rx="1.2" fill="#0d2b21"/><rect x="375.0" y="136.0" width="6.4" height="6.4" rx="1.2" fill="#0d2b21"/><rect x="375.0" y="144.0" width="6.4" height="6.4" rx="1.2" fill="#0f5c3f"/><rect x="375.0" y="152.0" width="6.4" height="6.4" rx="1.2" fill="#0d2b21"/><rect x="375.0" y="160.0" width="6.4" height="6.4" rx="1.2" fill="#0d2b21"/><rect x="375.0" y="168.0" width="6.4" height="6.4" rx="1.2" fill="#0f5c3f"/><rect x="375.0" y="176.0" width="6.4" height="6.4" rx="1.2" fill="#22c76e"/><rect x="375.0" y="184.0" width="6.4" height="6.4" rx="1.2" fill="#0d2b21"/><rect x="383.0" y="136.0" width="6.4" height="6.4" rx="1.2" fill="#0d2b21"/><rect x="383.0" y="144.0" width="6.4" height="6.4" rx="1.2" fill="#159a5c"/><rect x="383.0" y="152.0" width="6.4" height="6.4" rx="1.2" fill="#0d2b21"/><rect x="383.0" y="160.0" width="6.4" height="6.4" rx="1.2" fill="#0d2b21"/><rect x="383.0" y="168.0" width="6.4" height="6.4" rx="1.2" fill="#0d2b21"/><rect x="383.0" y="176.0" width="6.4" height="6.4" rx="1.2" fill="#0d2b21"/><rect x="383.0" y="184.0" width="6.4" height="6.4" rx="1.2" fill="#0d2b21"/><rect x="391.0" y="136.0" width="6.4" height="6.4" rx="1.2" fill="#0d2b21"/><rect x="391.0" y="144.0" width="6.4" height="6.4" rx="1.2" fill="#0d2b21"/><rect x="391.0" y="152.0" width="6.4" height="6.4" rx="1.2" fill="#0d2b21"/><rect x="391.0" y="160.0" width="6.4" height="6.4" rx="1.2" fill="#0d2b21"/><rect x="391.0" y="168.0" width="6.4" height="6.4" rx="1.2" fill="#0d2b21"/><rect x="391.0" y="176.0" width="6.4" height="6.4" rx="1.2" fill="#0d2b21"/><rect x="391.0" y="184.0" width="6.4" height="6.4" rx="1.2" fill="#0f5c3f"/><rect x="399.0" y="136.0" width="6.4" height="6.4" rx="1.2" fill="#0d2b21"/><rect x="399.0" y="144.0" width="6.4" height="6.4" rx="1.2" fill="#0d2b21"/><rect x="399.0" y="152.0" width="6.4" height="6.4" rx="1.2" fill="#0d2b21"/><rect x="399.0" y="160.0" width="6.4" height="6.4" rx="1.2" fill="#0d2b21"/><rect x="399.0" y="168.0" width="6.4" height="6.4" rx="1.2" fill="#0d2b21"/><rect x="399.0" y="176.0" width="6.4" height="6.4" rx="1.2" fill="#0f5c3f"/><rect x="399.0" y="184.0" width="6.4" height="6.4" rx="1.2" fill="#0d2b21"/><rect x="407.0" y="136.0" width="6.4" height="6.4" rx="1.2" fill="#0d2b21"/><rect x="407.0" y="144.0" width="6.4" height="6.4" rx="1.2" fill="#159a5c"/><rect x="407.0" y="152.0" width="6.4" height="6.4" rx="1.2" fill="#0d2b21"/><rect x="407.0" y="160.0" width="6.4" height="6.4" rx="1.2" fill="#159a5c"/><rect x="407.0" y="168.0" width="6.4" height="6.4" rx="1.2" fill="#5dffa8"/><rect x="407.0" y="176.0" width="6.4" height="6.4" rx="1.2" fill="#0f5c3f"/><rect x="407.0" y="184.0" width="6.4" height="6.4" rx="1.2" fill="#159a5c"/><rect x="415.0" y="136.0" width="6.4" height="6.4" rx="1.2" fill="#0f5c3f"/><rect x="415.0" y="144.0" width="6.4" height="6.4" rx="1.2" fill="#5dffa8"/><rect x="415.0" y="152.0" width="6.4" height="6.4" rx="1.2" fill="#0d2b21"/><rect x="415.0" y="160.0" width="6.4" height="6.4" rx="1.2" fill="#0d2b21"/><rect x="415.0" y="168.0" width="6.4" height="6.4" rx="1.2" fill="#0d2b21"/><rect x="415.0" y="176.0" width="6.4" height="6.4" rx="1.2" fill="#0d2b21"/><rect x="415.0" y="184.0" width="6.4" height="6.4" rx="1.2" fill="#159a5c"/><rect x="423.0" y="136.0" width="6.4" height="6.4" rx="1.2" fill="#0d2b21"/><rect x="423.0" y="144.0" width="6.4" height="6.4" rx="1.2" fill="#0f5c3f"/><rect x="423.0" y="152.0" width="6.4" height="6.4" rx="1.2" fill="#0f5c3f"/><rect x="423.0" y="160.0" width="6.4" height="6.4" rx="1.2" fill="#0d2b21"/><rect x="423.0" y="168.0" width="6.4" height="6.4" rx="1.2" fill="#0d2b21"/><rect x="423.0" y="176.0" width="6.4" height="6.4" rx="1.2" fill="#22c76e"/><rect x="423.0" y="184.0" width="6.4" height="6.4" rx="1.2" fill="#0d2b21"/><rect x="431.0" y="136.0" width="6.4" height="6.4" rx="1.2" fill="#0d2b21"/><rect x="431.0" y="144.0" width="6.4" height="6.4" rx="1.2" fill="#159a5c"/><rect x="431.0" y="152.0" width="6.4" height="6.4" rx="1.2" fill="#0f5c3f"/><rect x="431.0" y="160.0" width="6.4" height="6.4" rx="1.2" fill="#22c76e"/><rect x="431.0" y="168.0" width="6.4" height="6.4" rx="1.2" fill="#22c76e"/><rect x="431.0" y="176.0" width="6.4" height="6.4" rx="1.2" fill="#0d2b21"/><rect x="431.0" y="184.0" width="6.4" height="6.4" rx="1.2" fill="#0d2b21"/><rect x="439.0" y="136.0" width="6.4" height="6.4" rx="1.2" fill="#0d2b21"/><rect x="439.0" y="144.0" width="6.4" height="6.4" rx="1.2" fill="#0d2b21"/><rect x="439.0" y="152.0" width="6.4" height="6.4" rx="1.2" fill="#0d2b21"/><rect x="439.0" y="160.0" width="6.4" height="6.4" rx="1.2" fill="#22c76e"/><rect x="439.0" y="168.0" width="6.4" height="6.4" rx="1.2" fill="#159a5c"/><rect x="439.0" y="176.0" width="6.4" height="6.4" rx="1.2" fill="#0d2b21"/><rect x="439.0" y="184.0" width="6.4" height="6.4" rx="1.2" fill="#0d2b21"/><rect x="447.0" y="136.0" width="6.4" height="6.4" rx="1.2" fill="#0d2b21"/><rect x="447.0" y="144.0" width="6.4" height="6.4" rx="1.2" fill="#0d2b21"/><rect x="447.0" y="152.0" width="6.4" height="6.4" rx="1.2" fill="#0d2b21"/><rect x="447.0" y="160.0" width="6.4" height="6.4" rx="1.2" fill="#0d2b21"/><rect x="447.0" y="168.0" width="6.4" height="6.4" rx="1.2" fill="#22c76e"/><rect x="447.0" y="176.0" width="6.4" height="6.4" rx="1.2" fill="#0d2b21"/><rect x="447.0" y="184.0" width="6.4" height="6.4" rx="1.2" fill="#0d2b21"/><rect x="455.0" y="136.0" width="6.4" height="6.4" rx="1.2" fill="#0d2b21"/><rect x="455.0" y="144.0" width="6.4" height="6.4" rx="1.2" fill="#159a5c"/><rect x="455.0" y="152.0" width="6.4" height="6.4" rx="1.2" fill="#159a5c"/><rect x="455.0" y="160.0" width="6.4" height="6.4" rx="1.2" fill="#159a5c"/><rect x="455.0" y="168.0" width="6.4" height="6.4" rx="1.2" fill="#0f5c3f"/><rect x="455.0" y="176.0" width="6.4" height="6.4" rx="1.2" fill="#0f5c3f"/><rect x="455.0" y="184.0" width="6.4" height="6.4" rx="1.2" fill="#0d2b21"/><rect x="463.0" y="136.0" width="6.4" height="6.4" rx="1.2" fill="#0d2b21"/><rect x="463.0" y="144.0" width="6.4" height="6.4" rx="1.2" fill="#159a5c"/><rect x="463.0" y="152.0" width="6.4" height="6.4" rx="1.2" fill="#0f5c3f"/><rect x="463.0" y="160.0" width="6.4" height="6.4" rx="1.2" fill="#0f5c3f"/><rect x="463.0" y="168.0" width="6.4" height="6.4" rx="1.2" fill="#5dffa8"/><rect x="463.0" y="176.0" width="6.4" height="6.4" rx="1.2" fill="#0f5c3f"/><rect x="463.0" y="184.0" width="6.4" height="6.4" rx="1.2" fill="#0d2b21"/><rect x="471.0" y="136.0" width="6.4" height="6.4" rx="1.2" fill="#0d2b21"/><rect x="471.0" y="144.0" width="6.4" height="6.4" rx="1.2" fill="#0d2b21"/><rect x="471.0" y="152.0" width="6.4" height="6.4" rx="1.2" fill="#0d2b21"/><rect x="471.0" y="160.0" width="6.4" height="6.4" rx="1.2" fill="#0d2b21"/><rect x="471.0" y="168.0" width="6.4" height="6.4" rx="1.2" fill="#0d2b21"/><rect x="471.0" y="176.0" width="6.4" height="6.4" rx="1.2" fill="#0d2b21"/><rect x="471.0" y="184.0" width="6.4" height="6.4" rx="1.2" fill="#0d2b21"/><rect x="479.0" y="136.0" width="6.4" height="6.4" rx="1.2" fill="#0d2b21"/><rect x="479.0" y="144.0" width="6.4" height="6.4" rx="1.2" fill="#159a5c"/><rect x="479.0" y="152.0" width="6.4" height="6.4" rx="1.2" fill="#0d2b21"/><rect x="479.0" y="160.0" width="6.4" height="6.4" rx="1.2" fill="#159a5c"/><rect x="479.0" y="168.0" width="6.4" height="6.4" rx="1.2" fill="#0f5c3f"/><rect x="479.0" y="176.0" width="6.4" height="6.4" rx="1.2" fill="#22c76e"/><rect x="479.0" y="184.0" width="6.4" height="6.4" rx="1.2" fill="#159a5c"/><rect x="487.0" y="136.0" width="6.4" height="6.4" rx="1.2" fill="#0d2b21"/><rect x="487.0" y="144.0" width="6.4" height="6.4" rx="1.2" fill="#159a5c"/><rect x="487.0" y="152.0" width="6.4" height="6.4" rx="1.2" fill="#0d2b21"/><rect x="487.0" y="160.0" width="6.4" height="6.4" rx="1.2" fill="#0f5c3f"/><rect x="487.0" y="168.0" width="6.4" height="6.4" rx="1.2" fill="#22c76e"/><rect x="487.0" y="176.0" width="6.4" height="6.4" rx="1.2" fill="#22c76e"/><rect x="487.0" y="184.0" width="6.4" height="6.4" rx="1.2" fill="#159a5c"/><rect x="495.0" y="136.0" width="6.4" height="6.4" rx="1.2" fill="#159a5c"/><rect x="495.0" y="144.0" width="6.4" height="6.4" rx="1.2" fill="#0f5c3f"/><rect x="495.0" y="152.0" width="6.4" height="6.4" rx="1.2" fill="#5dffa8"/><rect x="495.0" y="160.0" width="6.4" height="6.4" rx="1.2" fill="#0f5c3f"/><rect x="495.0" y="168.0" width="6.4" height="6.4" rx="1.2" fill="#0f5c3f"/><rect x="495.0" y="176.0" width="6.4" height="6.4" rx="1.2" fill="#159a5c"/><rect x="495.0" y="184.0" width="6.4" height="6.4" rx="1.2" fill="#5dffa8"/><rect x="503.0" y="136.0" width="6.4" height="6.4" rx="1.2" fill="#0d2b21"/><rect x="503.0" y="144.0" width="6.4" height="6.4" rx="1.2" fill="#22c76e"/><rect x="503.0" y="152.0" width="6.4" height="6.4" rx="1.2" fill="#159a5c"/><rect x="503.0" y="160.0" width="6.4" height="6.4" rx="1.2" fill="#159a5c"/><rect x="503.0" y="168.0" width="6.4" height="6.4" rx="1.2" fill="#0d2b21"/><rect x="503.0" y="176.0" width="6.4" height="6.4" rx="1.2" fill="#0f5c3f"/><rect x="503.0" y="184.0" width="6.4" height="6.4" rx="1.2" fill="#0f5c3f"/><rect x="511.0" y="136.0" width="6.4" height="6.4" rx="1.2" fill="#22c76e"/><rect x="511.0" y="144.0" width="6.4" height="6.4" rx="1.2" fill="#5dffa8"/><rect x="511.0" y="152.0" width="6.4" height="6.4" rx="1.2" fill="#22c76e"/><rect x="511.0" y="160.0" width="6.4" height="6.4" rx="1.2" fill="#22c76e"/><rect x="511.0" y="168.0" width="6.4" height="6.4" rx="1.2" fill="#0d2b21"/><rect x="511.0" y="176.0" width="6.4" height="6.4" rx="1.2" fill="#159a5c"/><rect x="511.0" y="184.0" width="6.4" height="6.4" rx="1.2" fill="#0f5c3f"/><rect x="519.0" y="136.0" width="6.4" height="6.4" rx="1.2" fill="#0f5c3f"/><rect x="519.0" y="144.0" width="6.4" height="6.4" rx="1.2" fill="#0f5c3f"/><rect x="519.0" y="152.0" width="6.4" height="6.4" rx="1.2" fill="#0d2b21"/><rect x="519.0" y="160.0" width="6.4" height="6.4" rx="1.2" fill="#159a5c"/><rect x="519.0" y="168.0" width="6.4" height="6.4" rx="1.2" fill="#5dffa8"/><rect x="519.0" y="176.0" width="6.4" height="6.4" rx="1.2" fill="#0d2b21"/><rect x="519.0" y="184.0" width="6.4" height="6.4" rx="1.2" fill="#0d2b21"/><rect x="527.0" y="136.0" width="6.4" height="6.4" rx="1.2" fill="#0d2b21"/><rect x="527.0" y="144.0" width="6.4" height="6.4" rx="1.2" fill="#0d2b21"/><rect x="527.0" y="152.0" width="6.4" height="6.4" rx="1.2" fill="#0d2b21"/><rect x="527.0" y="160.0" width="6.4" height="6.4" rx="1.2" fill="#0d2b21"/><rect x="527.0" y="168.0" width="6.4" height="6.4" rx="1.2" fill="#22c76e"/><rect x="527.0" y="176.0" width="6.4" height="6.4" rx="1.2" fill="#0d2b21"/><rect x="527.0" y="184.0" width="6.4" height="6.4" rx="1.2" fill="#0f5c3f"/><rect x="535.0" y="136.0" width="6.4" height="6.4" rx="1.2" fill="#0d2b21"/><rect x="535.0" y="144.0" width="6.4" height="6.4" rx="1.2" fill="#0f5c3f"/><rect x="535.0" y="152.0" width="6.4" height="6.4" rx="1.2" fill="#0d2b21"/><rect x="535.0" y="160.0" width="6.4" height="6.4" rx="1.2" fill="#0d2b21"/><rect x="535.0" y="168.0" width="6.4" height="6.4" rx="1.2" fill="#0f5c3f"/><rect x="535.0" y="176.0" width="6.4" height="6.4" rx="1.2" fill="#0d2b21"/><rect x="535.0" y="184.0" width="6.4" height="6.4" rx="1.2" fill="#0d2b21"/><rect x="543.0" y="136.0" width="6.4" height="6.4" rx="1.2" fill="#0d2b21"/><rect x="543.0" y="144.0" width="6.4" height="6.4" rx="1.2" fill="#5dffa8"/><rect x="543.0" y="152.0" width="6.4" height="6.4" rx="1.2" fill="#0d2b21"/><rect x="543.0" y="160.0" width="6.4" height="6.4" rx="1.2" fill="#0d2b21"/><rect x="543.0" y="168.0" width="6.4" height="6.4" rx="1.2" fill="#159a5c"/><rect x="543.0" y="176.0" width="6.4" height="6.4" rx="1.2" fill="#0d2b21"/><rect x="543.0" y="184.0" width="6.4" height="6.4" rx="1.2" fill="#0f5c3f"/><rect x="551.0" y="136.0" width="6.4" height="6.4" rx="1.2" fill="#159a5c"/><rect x="551.0" y="144.0" width="6.4" height="6.4" rx="1.2" fill="#0d2b21"/><rect x="551.0" y="152.0" width="6.4" height="6.4" rx="1.2" fill="#5dffa8"/><rect x="551.0" y="160.0" width="6.4" height="6.4" rx="1.2" fill="#0d2b21"/><rect x="551.0" y="168.0" width="6.4" height="6.4" rx="1.2" fill="#0f5c3f"/><rect x="551.0" y="176.0" width="6.4" height="6.4" rx="1.2" fill="#159a5c"/><rect x="551.0" y="184.0" width="6.4" height="6.4" rx="1.2" fill="#159a5c"/><rect x="559.0" y="136.0" width="6.4" height="6.4" rx="1.2" fill="#5dffa8"/><rect x="559.0" y="144.0" width="6.4" height="6.4" rx="1.2" fill="#0d2b21"/><rect x="559.0" y="152.0" width="6.4" height="6.4" rx="1.2" fill="#0d2b21"/><rect x="559.0" y="160.0" width="6.4" height="6.4" rx="1.2" fill="#0d2b21"/><rect x="559.0" y="168.0" width="6.4" height="6.4" rx="1.2" fill="#159a5c"/><rect x="559.0" y="176.0" width="6.4" height="6.4" rx="1.2" fill="#0d2b21"/><rect x="559.0" y="184.0" width="6.4" height="6.4" rx="1.2" fill="#0d2b21"/><rect x="567.0" y="136.0" width="6.4" height="6.4" rx="1.2" fill="#159a5c"/><rect x="567.0" y="144.0" width="6.4" height="6.4" rx="1.2" fill="#0d2b21"/><rect x="567.0" y="152.0" width="6.4" height="6.4" rx="1.2" fill="#0d2b21"/><rect x="567.0" y="160.0" width="6.4" height="6.4" rx="1.2" fill="#22c76e"/><rect x="567.0" y="168.0" width="6.4" height="6.4" rx="1.2" fill="#22c76e"/><rect x="567.0" y="176.0" width="6.4" height="6.4" rx="1.2" fill="#22c76e"/><rect x="567.0" y="184.0" width="6.4" height="6.4" rx="1.2" fill="#5dffa8"/><rect x="575.0" y="136.0" width="6.4" height="6.4" rx="1.2" fill="#5dffa8"/><rect x="575.0" y="144.0" width="6.4" height="6.4" rx="1.2" fill="#5dffa8"/><rect x="575.0" y="152.0" width="6.4" height="6.4" rx="1.2" fill="#5dffa8"/><rect x="575.0" y="160.0" width="6.4" height="6.4" rx="1.2" fill="#5dffa8"/><rect x="575.0" y="168.0" width="6.4" height="6.4" rx="1.2" fill="#5dffa8"/><rect x="575.0" y="176.0" width="6.4" height="6.4" rx="1.2" fill="#5dffa8"/><rect x="575.0" y="184.0" width="6.4" height="6.4" rx="1.2" fill="#0d2b21"/><rect x="583.0" y="136.0" width="6.4" height="6.4" rx="1.2" fill="#0d2b21"/><rect x="583.0" y="144.0" width="6.4" height="6.4" rx="1.2" fill="#159a5c"/><rect x="583.0" y="152.0" width="6.4" height="6.4" rx="1.2" fill="#0f5c3f"/><rect x="583.0" y="160.0" width="6.4" height="6.4" rx="1.2" fill="#0f5c3f"/><rect x="583.0" y="168.0" width="6.4" height="6.4" rx="1.2" fill="#0f5c3f"/><rect x="583.0" y="176.0" width="6.4" height="6.4" rx="1.2" fill="#159a5c"/><rect x="583.0" y="184.0" width="6.4" height="6.4" rx="1.2" fill="#0d2b21"/><rect x="591.0" y="136.0" width="6.4" height="6.4" rx="1.2" fill="#0d2b21"/><rect x="591.0" y="144.0" width="6.4" height="6.4" rx="1.2" fill="#0d2b21"/><rect x="591.0" y="152.0" width="6.4" height="6.4" rx="1.2" fill="#0d2b21"/><rect x="591.0" y="160.0" width="6.4" height="6.4" rx="1.2" fill="#159a5c"/><rect x="591.0" y="168.0" width="6.4" height="6.4" rx="1.2" fill="#0f5c3f"/><rect x="591.0" y="176.0" width="6.4" height="6.4" rx="1.2" fill="#0d2b21"/><rect x="591.0" y="184.0" width="6.4" height="6.4" rx="1.2" fill="#0d2b21"/><rect x="599.0" y="136.0" width="6.4" height="6.4" rx="1.2" fill="#0d2b21"/><rect x="599.0" y="144.0" width="6.4" height="6.4" rx="1.2" fill="#0d2b21"/><rect x="599.0" y="152.0" width="6.4" height="6.4" rx="1.2" fill="#0f5c3f"/><rect x="599.0" y="160.0" width="6.4" height="6.4" rx="1.2" fill="#22c76e"/><rect x="599.0" y="168.0" width="6.4" height="6.4" rx="1.2" fill="#159a5c"/><rect x="599.0" y="176.0" width="6.4" height="6.4" rx="1.2" fill="#0f5c3f"/><rect x="599.0" y="184.0" width="6.4" height="6.4" rx="1.2" fill="#0f5c3f"/><rect x="607.0" y="136.0" width="6.4" height="6.4" rx="1.2" fill="#0d2b21"/><rect x="607.0" y="144.0" width="6.4" height="6.4" rx="1.2" fill="#22c76e"/><rect x="607.0" y="152.0" width="6.4" height="6.4" rx="1.2" fill="#22c76e"/><rect x="607.0" y="160.0" width="6.4" height="6.4" rx="1.2" fill="#159a5c"/><rect x="607.0" y="168.0" width="6.4" height="6.4" rx="1.2" fill="#0d2b21"/><rect x="607.0" y="176.0" width="6.4" height="6.4" rx="1.2" fill="#0d2b21"/><rect x="607.0" y="184.0" width="6.4" height="6.4" rx="1.2" fill="#0d2b21"/><rect x="615.0" y="136.0" width="6.4" height="6.4" rx="1.2" fill="#0d2b21"/><rect x="615.0" y="144.0" width="6.4" height="6.4" rx="1.2" fill="#0d2b21"/><rect x="615.0" y="152.0" width="6.4" height="6.4" rx="1.2" fill="#159a5c"/><rect x="615.0" y="160.0" width="6.4" height="6.4" rx="1.2" fill="#0d2b21"/><rect x="615.0" y="168.0" width="6.4" height="6.4" rx="1.2" fill="#0d2b21"/><rect x="615.0" y="176.0" width="6.4" height="6.4" rx="1.2" fill="#159a5c"/><rect x="615.0" y="184.0" width="6.4" height="6.4" rx="1.2" fill="#0d2b21"/><rect x="623.0" y="136.0" width="6.4" height="6.4" rx="1.2" fill="#0f5c3f"/><rect x="623.0" y="144.0" width="6.4" height="6.4" rx="1.2" fill="#0d2b21"/><rect x="623.0" y="152.0" width="6.4" height="6.4" rx="1.2" fill="#0d2b21"/><rect x="623.0" y="160.0" width="6.4" height="6.4" rx="1.2" fill="#0d2b21"/><rect x="623.0" y="168.0" width="6.4" height="6.4" rx="1.2" fill="#0d2b21"/><rect x="623.0" y="176.0" width="6.4" height="6.4" rx="1.2" fill="#0d2b21"/><rect x="623.0" y="184.0" width="6.4" height="6.4" rx="1.2" fill="#0d2b21"/><rect x="631.0" y="136.0" width="6.4" height="6.4" rx="1.2" fill="#0d2b21"/><rect x="631.0" y="144.0" width="6.4" height="6.4" rx="1.2" fill="#0d2b21"/><rect x="631.0" y="152.0" width="6.4" height="6.4" rx="1.2" fill="#0d2b21"/><rect x="631.0" y="160.0" width="6.4" height="6.4" rx="1.2" fill="#0d2b21"/><rect x="631.0" y="168.0" width="6.4" height="6.4" rx="1.2" fill="#0d2b21"/><rect x="631.0" y="176.0" width="6.4" height="6.4" rx="1.2" fill="#0d2b21"/><rect x="631.0" y="184.0" width="6.4" height="6.4" rx="1.2" fill="#0d2b21"/><rect x="639.0" y="136.0" width="6.4" height="6.4" rx="1.2" fill="#0d2b21"/><rect x="639.0" y="144.0" width="6.4" height="6.4" rx="1.2" fill="#0d2b21"/><rect x="639.0" y="152.0" width="6.4" height="6.4" rx="1.2" fill="#0d2b21"/><rect x="639.0" y="160.0" width="6.4" height="6.4" rx="1.2" fill="#0d2b21"/><rect x="639.0" y="168.0" width="6.4" height="6.4" rx="1.2" fill="#0d2b21"/><rect x="639.0" y="176.0" width="6.4" height="6.4" rx="1.2" fill="#0d2b21"/><rect x="639.0" y="184.0" width="6.4" height="6.4" rx="1.2" fill="#0d2b21"/><rect x="647.0" y="136.0" width="6.4" height="6.4" rx="1.2" fill="#0d2b21"/><rect x="647.0" y="144.0" width="6.4" height="6.4" rx="1.2" fill="#0d2b21"/><rect x="647.0" y="152.0" width="6.4" height="6.4" rx="1.2" fill="#0d2b21"/><rect x="647.0" y="160.0" width="6.4" height="6.4" rx="1.2" fill="#0d2b21"/><rect x="647.0" y="168.0" width="6.4" height="6.4" rx="1.2" fill="#0d2b21"/><rect x="647.0" y="176.0" width="6.4" height="6.4" rx="1.2" fill="#0d2b21"/><rect x="647.0" y="184.0" width="6.4" height="6.4" rx="1.2" fill="#0d2b21"/><rect x="655.0" y="136.0" width="6.4" height="6.4" rx="1.2" fill="#0d2b21"/><rect x="655.0" y="144.0" width="6.4" height="6.4" rx="1.2" fill="#0d2b21"/><rect x="655.0" y="152.0" width="6.4" height="6.4" rx="1.2" fill="#0d2b21"/><rect x="655.0" y="160.0" width="6.4" height="6.4" rx="1.2" fill="#0d2b21"/><rect x="655.0" y="168.0" width="6.4" height="6.4" rx="1.2" fill="#0d2b21"/><rect x="655.0" y="176.0" width="6.4" height="6.4" rx="1.2" fill="#0d2b21"/><rect x="655.0" y="184.0" width="6.4" height="6.4" rx="1.2" fill="#0d2b21"/><rect x="663.0" y="136.0" width="6.4" height="6.4" rx="1.2" fill="#0d2b21"/><rect x="663.0" y="144.0" width="6.4" height="6.4" rx="1.2" fill="#0d2b21"/><rect x="663.0" y="152.0" width="6.4" height="6.4" rx="1.2" fill="#0d2b21"/><rect x="663.0" y="160.0" width="6.4" height="6.4" rx="1.2" fill="#0d2b21"/><rect x="663.0" y="168.0" width="6.4" height="6.4" rx="1.2" fill="#0d2b21"/><rect x="663.0" y="176.0" width="6.4" height="6.4" rx="1.2" fill="#0d2b21"/><rect x="663.0" y="184.0" width="6.4" height="6.4" rx="1.2" fill="#0d2b21"/><rect x="671.0" y="136.0" width="6.4" height="6.4" rx="1.2" fill="#0f5c3f"/><rect x="671.0" y="144.0" width="6.4" height="6.4" rx="1.2" fill="#0d2b21"/><rect x="671.0" y="152.0" width="6.4" height="6.4" rx="1.2" fill="#0f5c3f"/><rect x="671.0" y="160.0" width="6.4" height="6.4" rx="1.2" fill="#159a5c"/><rect x="671.0" y="168.0" width="6.4" height="6.4" rx="1.2" fill="#0d2b21"/><rect x="671.0" y="176.0" width="6.4" height="6.4" rx="1.2" fill="#0f5c3f"/><rect x="671.0" y="184.0" width="6.4" height="6.4" rx="1.2" fill="#0d2b21"/><rect x="679.0" y="136.0" width="6.4" height="6.4" rx="1.2" fill="#159a5c"/><rect x="679.0" y="144.0" width="6.4" height="6.4" rx="1.2" fill="#159a5c"/><rect x="679.0" y="152.0" width="6.4" height="6.4" rx="1.2" fill="#0d2b21"/><rect x="679.0" y="160.0" width="6.4" height="6.4" rx="1.2" fill="#0d2b21"/><rect x="679.0" y="168.0" width="6.4" height="6.4" rx="1.2" fill="#0d2b21"/><rect x="679.0" y="176.0" width="6.4" height="6.4" rx="1.2" fill="#5dffa8"/><rect x="679.0" y="184.0" width="6.4" height="6.4" rx="1.2" fill="#0d2b21"/><rect x="687.0" y="136.0" width="6.4" height="6.4" rx="1.2" fill="#0d2b21"/><rect x="687.0" y="144.0" width="6.4" height="6.4" rx="1.2" fill="#0f5c3f"/><rect x="687.0" y="152.0" width="6.4" height="6.4" rx="1.2" fill="#0f5c3f"/><rect x="687.0" y="160.0" width="6.4" height="6.4" rx="1.2" fill="#22c76e"/><rect x="687.0" y="168.0" width="6.4" height="6.4" rx="1.2" fill="#0f5c3f"/><rect x="687.0" y="176.0" width="6.4" height="6.4" rx="1.2" fill="#0d2b21"/><rect x="687.0" y="184.0" width="6.4" height="6.4" rx="1.2" fill="#0d2b21"/><rect x="695.0" y="136.0" width="6.4" height="6.4" rx="1.2" fill="#0d2b21"/><rect x="695.0" y="144.0" width="6.4" height="6.4" rx="1.2" fill="#0f5c3f"/><rect x="695.0" y="152.0" width="6.4" height="6.4" rx="1.2" fill="#0d2b21"/><rect x="695.0" y="160.0" width="6.4" height="6.4" rx="1.2" fill="#0d2b21"/><rect x="695.0" y="168.0" width="6.4" height="6.4" rx="1.2" fill="#159a5c"/><rect x="695.0" y="176.0" width="6.4" height="6.4" rx="1.2" fill="#0d2b21"/><!--HEATMAP_END--><text x="272" y="212" class="panel-value" font-size="20"><!--CTOTAL_START-->706<!--CTOTAL_END--></text><text x="272" y="228" class="panel-dim" font-size="9.5">CONTRIBUTIONS · LAST 365D (PUBLIC)</text><text x="572" y="228" class="panel-dim" font-size="8.5">LESS</text><rect x="606" y="220" width="7" height="7" rx="1" fill="#0d2b21"/><rect x="617" y="220" width="7" height="7" rx="1" fill="#0f5c3f"/><rect x="628" y="220" width="7" height="7" rx="1" fill="#159a5c"/><rect x="639" y="220" width="7" height="7" rx="1" fill="#22c76e"/><rect x="650" y="220" width="7" height="7" rx="1" fill="#5dffa8"/><text x="665" y="228" class="panel-dim" font-size="8.5">MORE</text><rect x="742" y="96" width="238" height="210" rx="8" fill="#061b14" stroke="#1f5c47" stroke-width="1"/><path d="M742,106 V96 H752" fill="none" stroke="#5dffa8" stroke-width="1.6"/><path d="M970,96 H980 V106" fill="none" stroke="#5dffa8" stroke-width="1.6"/><path d="M980,296 V306 H970" fill="none" stroke="#5dffa8" stroke-width="1.6"/><path d="M752,306 H742 V296" fill="none" stroke="#5dffa8" stroke-width="1.6"/><text x="758" y="118" class="panel-title">LANGUAGE MIX</text><!--LANGMIX_START--><path d="M820.00,140.00 A52,52 0 0 1 870.23,178.54 L848.98,184.24 A30,30 0 0 0 820.00,162.00 Z" fill="#e34c26" opacity="0.92" stroke="#04100b" stroke-width="1"/><path d="M870.23,178.54 A52,52 0 0 1 856.77,228.77 L841.21,213.21 A30,30 0 0 0 848.98,184.24 Z" fill="#563d7c" opacity="0.92" stroke="#04100b" stroke-width="1"/><path d="M856.77,228.77 A52,52 0 0 1 806.54,242.23 L812.24,220.98 A30,30 0 0 0 841.21,213.21 Z" fill="#3572A5" opacity="0.92" stroke="#04100b" stroke-width="1"/><path d="M806.54,242.23 A52,52 0 0 1 769.77,205.46 L791.02,199.76 A30,30 0 0 0 812.24,220.98 Z" fill="#3178c6" opacity="0.92" stroke="#04100b" stroke-width="1"/><path d="M769.77,205.46 A52,52 0 0 1 783.23,155.23 L798.79,170.79 A30,30 0 0 0 791.02,199.76 Z" fill="#f1e05a" opacity="0.92" stroke="#04100b" stroke-width="1"/><path d="M783.23,155.23 A52,52 0 0 1 794.00,146.97 L805.00,166.02 A30,30 0 0 0 798.79,170.79 Z" fill="#4F5D95" opacity="0.92" stroke="#04100b" stroke-width="1"/><path d="M794.00,146.97 A52,52 0 0 1 806.54,141.77 L812.24,163.02 A30,30 0 0 0 805.00,166.02 Z" fill="#89e051" opacity="0.92" stroke="#04100b" stroke-width="1"/><path d="M806.54,141.77 A52,52 0 0 1 820.00,140.00 L820.00,162.00 A30,30 0 0 0 812.24,163.02 Z" fill="#AA6746" opacity="0.92" stroke="#04100b" stroke-width="1"/><text x="820" y="190" text-anchor="middle" class="panel-value" font-size="17">25</text><text x="820" y="204" text-anchor="middle" class="panel-dim" font-size="8">REPOS</text><circle cx="892" cy="148.0" r="3.4" fill="#e34c26"/><text x="902" y="151.5" class="panel-text" font-size="10.5">HTML</text><text x="964" y="151.5" text-anchor="end" class="panel-dim" font-size="10">5</text><circle cx="892" cy="164.5" r="3.4" fill="#563d7c"/><text x="902" y="168.0" class="panel-text" font-size="10.5">CSS</text><text x="964" y="168.0" text-anchor="end" class="panel-dim" font-size="10">4</text><circle cx="892" cy="181.0" r="3.4" fill="#3572A5"/><text x="902" y="184.5" class="panel-text" font-size="10.5">Python</text><text x="964" y="184.5" text-anchor="end" class="panel-dim" font-size="10">4</text><circle cx="892" cy="197.5" r="3.4" fill="#3178c6"/><text x="902" y="201.0" class="panel-text" font-size="10.5">TypeScript</text><text x="964" y="201.0" text-anchor="end" class="panel-dim" font-size="10">4</text><circle cx="892" cy="214.0" r="3.4" fill="#f1e05a"/><text x="902" y="217.5" class="panel-text" font-size="10.5">JavaScript</text><text x="964" y="217.5" text-anchor="end" class="panel-dim" font-size="10">4</text><circle cx="892" cy="230.5" r="3.4" fill="#4F5D95"/><text x="902" y="234.0" class="panel-text" font-size="10.5">PHP</text><text x="964" y="234.0" text-anchor="end" class="panel-dim" font-size="10">1</text><circle cx="892" cy="247.0" r="3.4" fill="#89e051"/><text x="902" y="250.5" class="panel-text" font-size="10.5">Shell</text><text x="964" y="250.5" text-anchor="end" class="panel-dim" font-size="10">1</text><circle cx="892" cy="263.5" r="3.4" fill="#AA6746"/><text x="902" y="267.0" class="panel-text" font-size="10.5">Solidity</text><text x="964" y="267.0" text-anchor="end" class="panel-dim" font-size="10">1</text><!--LANGMIX_END--><rect x="20" y="322" width="220" height="210" rx="8" fill="#061b14" stroke="#1f5c47" stroke-width="1"/><path d="M20,332 V322 H30" fill="none" stroke="#5dffa8" stroke-width="1.6"/><path d="M230,322 H240 V332" fill="none" stroke="#5dffa8" stroke-width="1.6"/><path d="M240,522 V532 H230" fill="none" stroke="#5dffa8" stroke-width="1.6"/><path d="M30,532 H20 V522" fill="none" stroke="#5dffa8" stroke-width="1.6"/><text x="36" y="344" class="panel-title">MONTHLY ACTIVITY</text><!--MONTHLY_START--><rect x="37.0" y="502.0" width="11.5" height="0.0" rx="1.5" fill="#22c76e" opacity="0.50"/><text x="42.2" y="515" text-anchor="middle" class="panel-dim" font-size="7.6">07</text><rect x="51.5" y="502.0" width="11.5" height="0.0" rx="1.5" fill="#22c76e" opacity="0.50"/><text x="56.7" y="515" text-anchor="middle" class="panel-dim" font-size="7.6">08</text><rect x="65.9" y="493.0" width="11.5" height="9.0" rx="1.5" fill="#22c76e" opacity="0.53"/><text x="71.1" y="515" text-anchor="middle" class="panel-dim" font-size="7.6">09</text><rect x="80.3" y="495.0" width="11.5" height="7.0" rx="1.5" fill="#22c76e" opacity="0.53"/><text x="85.5" y="515" text-anchor="middle" class="panel-dim" font-size="7.6">10</text><rect x="94.8" y="450.8" width="11.5" height="51.2" rx="1.5" fill="#22c76e" opacity="0.70"/><text x="100.0" y="515" text-anchor="middle" class="panel-dim" font-size="7.6">11</text><rect x="109.2" y="472.2" width="11.5" height="29.8" rx="1.5" fill="#22c76e" opacity="0.62"/><text x="114.5" y="515" text-anchor="middle" class="panel-dim" font-size="7.6">12</text><rect x="123.7" y="454.3" width="11.5" height="47.7" rx="1.5" fill="#22c76e" opacity="0.69"/><text x="128.9" y="515" text-anchor="middle" class="panel-dim" font-size="7.6">01</text><rect x="138.1" y="464.2" width="11.5" height="37.8" rx="1.5" fill="#22c76e" opacity="0.65"/><text x="143.3" y="515" text-anchor="middle" class="panel-dim" font-size="7.6">02</text><rect x="152.6" y="412.0" width="11.5" height="90.0" rx="1.5" fill="#22c76e" opacity="0.85"/><text x="157.8" y="515" text-anchor="middle" class="panel-dim" font-size="7.6">03</text><rect x="167.0" y="447.8" width="11.5" height="54.2" rx="1.5" fill="#22c76e" opacity="0.71"/><text x="172.2" y="515" text-anchor="middle" class="panel-dim" font-size="7.6">04</text><rect x="181.5" y="497.5" width="11.5" height="4.5" rx="1.5" fill="#22c76e" opacity="0.52"/><text x="186.7" y="515" text-anchor="middle" class="panel-dim" font-size="7.6">05</text><rect x="195.9" y="495.0" width="11.5" height="7.0" rx="1.5" fill="#22c76e" opacity="0.53"/><text x="201.1" y="515" text-anchor="middle" class="panel-dim" font-size="7.6">06</text><rect x="210.4" y="489.1" width="11.5" height="12.9" rx="1.5" fill="#22c76e" opacity="0.55"/><text x="215.6" y="515" text-anchor="middle" class="panel-dim" font-size="7.6">07</text><!--MONTHLY_END--><text x="36" y="524" class="panel-dim" font-size="9">MONTHLY CONTRIBUTIONS · LAST 12M</text><rect x="256" y="322" width="470" height="210" rx="8" fill="#061b14" stroke="#1f5c47" stroke-width="1"/><path d="M256,332 V322 H266" fill="none" stroke="#5dffa8" stroke-width="1.6"/><path d="M716,322 H726 V332" fill="none" stroke="#5dffa8" stroke-width="1.6"/><path d="M726,522 V532 H716" fill="none" stroke="#5dffa8" stroke-width="1.6"/><path d="M266,532 H256 V522" fill="none" stroke="#5dffa8" stroke-width="1.6"/><text x="272" y="344" class="panel-title">GLOBAL REACH</text><g transform="translate(272,362)"><path d="M275.8,87.6L274.4,89.7L271.5,89.5L270.1,88.5L272.9,88.7ZM298.5,79.0L294.5,79.6L293.9,81.4L292.4,81.5L292.9,82.1L291.7,83.1L288.7,83.6L286.7,84.8L281.4,84.6L282.6,83.7L281.3,83.4L281.1,81.3L281.9,80.3L283.6,80.6L287.4,78.8L291.7,79.1L293.6,78.0L294.6,79.4ZM231.5,74.7L232.7,76.2L231.8,77.0L230.6,76.5L230.5,75.0ZM263.8,77.7L260.4,76.7L260.1,75.9L261.8,75.8ZM236.3,111.1L236.3,112.5L233.8,112.5L233.9,114.6L235.5,115.5L221.3,115.3L222.3,112.8L223.8,111.7L223.1,110.4L223.3,109.5L222.0,108.1L226.9,108.0L228.5,109.4L233.6,108.9L234.1,111.3ZM130.3,118.6L136.5,120.7L135.3,122.1L138.8,122.2L140.7,120.9L141.3,121.8L136.2,124.5L135.4,127.2L137.6,129.1L136.6,130.2L130.7,130.8L130.6,132.5L127.3,132.5L127.5,133.5L129.1,134.0L127.5,134.0L128.3,134.2L126.7,136.0L124.3,136.9L126.4,138.0L126.5,138.7L123.9,140.7L122.6,140.7L123.3,140.8L122.1,142.3L123.2,143.1L119.0,142.7L117.0,140.3L119.3,137.5L119.7,136.2L118.8,135.8L119.9,135.6L119.1,135.5L118.7,133.9L119.2,131.4L120.3,130.6L119.9,129.2L121.5,127.2L120.7,124.9L121.8,122.9L123.4,121.9L123.1,120.3L124.6,119.8L125.0,118.8ZM123.0,145.7L123.0,143.4L125.4,145.1L126.9,145.8ZM227.7,69.2L227.1,70.7L224.7,71.3L218.6,70.5L222.9,70.3L222.6,69.6L225.3,68.8ZM388.4,133.5L388.0,132.4L383.9,132.3L385.0,134.3L386.6,134.8ZM394.8,122.8L394.0,120.8L391.2,118.7L385.9,116.3L384.6,113.8L382.8,113.4L381.3,111.0L378.8,115.5L372.6,113.7L374.4,112.1L373.9,111.8L368.3,111.3L369.3,111.9L366.7,112.1L365.2,113.4L365.5,113.9L363.6,114.0L362.2,113.0L359.1,114.1L359.6,114.7L358.2,114.7L358.1,115.4L357.3,114.7L354.9,116.8L346.1,118.7L345.7,120.1L346.6,121.4L345.4,121.3L348.5,125.3L347.6,127.2L349.5,127.8L367.3,125.1L371.1,125.9L372.9,127.7L375.5,125.9L375.6,126.7L374.4,128.0L375.8,127.1L376.0,128.2L377.3,128.1L378.7,130.0L382.5,130.8L384.2,130.0L386.0,131.0L390.3,129.7L392.0,126.7L394.0,125.1ZM266.4,75.3L268.6,76.6L267.6,76.6L266.7,78.1L265.7,77.1L263.9,77.7L263.6,77.1L262.0,75.7ZM227.6,72.3L230.6,72.6L230.8,73.7L230.1,73.8L229.5,74.6L228.5,74.3L226.2,72.7ZM320.2,90.1L319.8,90.9L317.8,89.0L317.7,89.9L316.1,90.3L315.5,88.5L314.6,88.3L315.4,87.9L314.7,87.4L315.1,86.9L320.0,88.1L318.4,89.0L319.8,89.0ZM212.8,66.4L214.7,67.5L214.0,68.3L212.8,67.9L210.0,66.8ZM207.2,94.8L209.7,96.9L203.5,97.3L203.5,97.8L201.2,98.1L200.2,97.7L200.5,96.8L203.8,95.2ZM241.9,73.6L240.6,74.7L241.2,75.1L235.0,75.5L234.3,74.9L235.1,74.1L234.3,73.6L234.7,73.2ZM244.3,105.8L244.6,106.3L242.8,106.8L242.5,105.9ZM211.3,96.9L210.3,100.3L208.9,100.0L208.1,97.3L210.4,96.4ZM135.8,117.2L131.4,116.9L130.3,118.6L128.3,119.0L126.0,118.3L124.0,119.0L121.8,115.3L122.8,114.7L122.0,114.2L122.5,113.0L122.9,112.2L121.9,111.2L127.0,110.4L127.5,111.8L133.0,113.0L133.4,114.6L135.6,114.6L136.6,115.9ZM137.9,103.0L142.3,102.9L144.0,101.6L145.9,103.5L142.5,105.2L144.7,104.9L145.3,105.5L146.6,105.4L146.2,105.9L149.0,104.7L152.3,105.4L152.3,106.3L158.1,106.1L163.6,107.5L164.4,108.9L163.7,110.1L159.4,112.4L159.1,115.6L156.8,118.4L147.4,120.7L147.3,123.0L143.3,125.6L145.1,124.4L144.2,124.1L142.2,126.6L141.5,126.8L142.0,126.1L140.2,125.1L136.5,124.2L141.1,122.0L141.0,121.0L140.2,120.9L140.5,120.2L139.2,119.8L138.7,118.6L136.1,118.5L135.9,116.9L136.6,115.9L135.6,114.6L133.4,114.6L133.0,113.0L127.5,111.8L127.0,110.4L120.6,111.2L120.7,110.2L118.7,110.6L116.5,109.0L117.8,107.5L121.4,107.0L122.1,105.0L121.3,103.9L122.4,103.9L121.5,103.2L124.5,102.9L126.9,103.8L129.4,102.9L127.7,101.6L130.1,102.0L133.3,101.0L134.1,101.8L134.0,103.2ZM146.3,104.4L147.8,104.5L146.5,105.2L144.9,105.0ZM319.0,86.1L319.5,86.7L316.3,86.8L315.5,86.5L316.9,85.7ZM237.8,115.6L242.9,118.6L237.0,121.0L235.2,120.7L232.3,121.8L231.4,118.4L232.6,118.4L232.6,116.0ZM241.4,61.4L244.7,62.0L244.6,62.9L247.0,64.4L245.3,64.6L245.8,65.7L244.3,66.6L241.9,66.3L235.8,66.3L235.3,65.5L236.2,65.0L235.7,63.8L238.4,63.6L239.5,61.9ZM122.0,3.2L125.7,3.7L123.2,5.1L127.5,3.8L129.1,4.3L129.6,6.1L131.9,6.1L131.6,7.3L122.9,11.2L127.7,10.6L121.9,14.8L120.5,14.3L121.0,15.4L118.8,15.8L120.6,15.9L119.6,17.1L116.0,16.7L117.1,17.1L117.2,18.0L112.9,18.0L115.9,19.0L115.8,19.6L110.8,19.5L115.9,20.6L113.5,21.3L115.0,21.9L114.0,22.9L111.5,23.1L111.0,24.8L107.1,24.3L107.5,24.8L106.9,25.2L111.2,25.9L111.2,27.0L108.1,28.1L107.9,27.3L106.0,26.6L106.4,27.3L103.9,26.7L103.9,27.6L102.8,27.7L101.2,27.0L98.8,27.5L98.7,26.5L98.7,27.4L97.4,27.2L98.6,25.6L100.8,25.3L99.4,24.1L99.6,23.4L101.3,23.5L103.1,24.8L104.7,24.6L105.9,22.9L104.3,24.3L102.9,24.4L102.6,23.6L102.3,23.1L103.9,22.4L103.1,22.2L103.3,21.3L102.3,22.6L101.5,22.7L101.9,21.9L99.9,22.4L100.8,20.5L107.0,19.8L103.7,19.8L104.7,19.6L101.3,16.8L101.2,15.3L104.6,15.4L108.5,17.7L105.5,15.1L112.9,13.0L110.7,12.6L112.9,10.7L107.9,13.8L105.6,14.1L106.4,13.3L102.8,14.3L101.2,13.5L105.1,11.8L102.0,12.3L99.3,13.7L97.9,12.7L103.1,11.3L97.3,12.3L96.9,11.7L97.8,11.4L97.3,11.1L99.8,10.2L96.4,10.8L97.1,9.8L94.9,9.6L99.2,7.7L102.9,8.2L101.0,7.1L103.1,6.1L105.9,7.8L106.0,7.0L109.8,8.8L106.1,6.3L107.1,5.7L106.5,5.2L108.1,5.5L107.9,4.4L110.6,4.9L108.9,3.8L112.0,3.8L114.0,5.6L114.4,5.1L112.6,3.3L115.9,3.2L118.1,4.7L117.1,3.8L117.9,2.9L120.2,3.8L120.0,2.9ZM94.6,11.9L96.1,14.0L97.8,14.4L98.3,15.7L99.1,15.9L98.7,14.7L99.7,14.9L99.4,15.9L100.6,16.7L100.2,17.8L102.2,17.7L102.9,18.8L99.8,20.8L99.3,19.8L99.3,21.2L98.4,21.1L98.4,22.3L96.8,21.0L97.5,22.4L96.3,21.9L96.1,22.5L93.6,21.7L94.6,21.2L92.9,21.0L91.8,19.8L95.3,18.5L90.6,18.8L90.0,18.0L91.5,17.2L89.7,17.4L88.6,15.8L91.2,16.1L91.7,15.6L89.1,15.1L90.1,14.9L89.6,13.6L92.1,14.2L90.1,13.1L90.8,12.2L92.9,12.0L91.8,11.0ZM80.5,18.7L81.5,20.1L82.6,19.5L85.1,21.1L85.7,23.3L84.3,23.4L83.1,22.3L78.7,21.7L80.5,20.6L79.5,20.5L79.6,19.8L78.7,20.4L78.0,18.7ZM89.3,21.3L90.9,21.7L90.7,22.9L88.3,23.5L87.5,22.6L88.4,22.4L87.0,21.9L86.7,20.5ZM72.6,20.9L73.2,21.9L70.6,22.1L68.6,21.6L71.7,20.5ZM71.9,22.6L72.9,22.7L71.4,23.4L72.2,23.6L72.2,24.3L69.8,24.9L68.6,24.3L68.5,23.2ZM90.2,23.5L92.8,23.7L92.5,24.5L89.6,24.4L89.3,23.8ZM79.1,25.4L77.9,24.8L77.2,23.7L77.8,23.7ZM65.6,24.8L64.7,25.4L65.0,26.8L63.3,27.8L62.4,26.5L61.4,28.2L60.7,27.7L60.8,28.6L59.7,29.0L59.2,28.1L57.1,28.7L56.6,28.2L57.2,27.5L61.3,25.0L64.1,24.9L64.5,24.3ZM91.6,26.1L92.9,26.5L92.6,27.4L95.3,26.7L96.2,27.2L95.1,27.3L97.8,27.7L95.2,28.0L98.2,29.9L98.5,29.4L101.8,30.1L104.3,29.0L108.7,29.5L109.7,30.4L108.6,31.0L109.8,31.3L108.7,31.3L108.8,32.1L105.4,32.0L104.8,31.3L104.8,32.1L103.7,32.2L98.8,32.3L98.7,31.5L97.4,32.1L95.0,31.9L93.1,27.6L90.4,27.8L88.5,26.6L89.7,25.6ZM74.5,28.4L76.2,29.4L76.7,28.4L77.8,28.7L77.5,30.6L76.1,31.2L73.8,30.9L68.7,32.5L67.1,31.8L71.1,30.4L67.9,30.9L68.2,30.0L67.5,30.0L67.0,30.9L65.7,30.8L63.1,30.4L66.1,29.4L63.7,29.5L66.3,28.8L64.3,28.7L64.8,28.0L66.6,28.1L65.3,27.9L65.6,27.4L69.1,28.0L71.1,29.7L73.5,29.8L72.0,27.5L73.8,26.3ZM87.5,27.3L87.2,29.2L87.9,30.0L87.1,31.0L84.4,31.0L83.8,30.1L85.6,29.3L81.5,29.8L82.3,28.8L83.5,29.1L82.0,27.8L82.5,27.3L84.8,28.7L84.5,28.2L85.2,28.2L83.6,27.1L86.0,27.3L86.2,26.7ZM81.9,28.5L81.5,29.1L79.8,28.7L79.3,28.1L80.9,27.7ZM62.2,29.6L60.9,29.5L62.2,28.7L63.2,28.3ZM92.5,31.0L92.5,31.9L91.3,31.9L89.1,31.1L90.9,29.5ZM60.5,33.2L63.2,32.9L65.8,34.7L61.5,36.3L60.0,37.3L59.4,38.8L56.4,39.6L55.3,38.4L53.0,37.8L55.5,34.0L54.4,32.6L58.4,32.2ZM93.0,33.1L96.4,33.7L94.3,36.2L91.7,36.2L92.6,36.7L91.9,37.7L90.5,37.7L90.0,34.2L91.1,34.2L90.8,33.3ZM84.6,33.6L88.1,33.8L88.0,34.8L86.6,35.8L89.0,36.6L88.8,38.1L86.7,38.1L86.9,38.9L85.6,39.0L81.3,36.2L82.0,35.5L83.1,36.3L84.5,35.9L84.0,35.2L84.9,35.2L82.8,34.6L84.0,34.7L83.5,33.9ZM101.1,39.7L103.2,39.7L103.4,38.5L101.9,37.8L103.9,37.7L102.2,36.3L103.9,36.1L102.4,35.4L105.6,34.1L107.1,34.1L108.4,35.4L108.8,36.2L107.6,37.1L108.4,36.8L108.0,37.9L109.3,36.8L110.8,38.0L110.7,37.0L112.1,37.4L111.0,36.8L111.9,36.2L114.9,36.8L114.1,38.3L116.2,37.8L115.0,38.3L115.6,38.4L115.2,39.3L116.6,38.2L116.2,39.0L117.5,39.2L117.8,38.4L119.0,38.6L119.8,39.3L118.1,40.1L120.6,39.7L119.0,40.8L119.8,40.7L119.6,41.4L121.4,40.0L123.3,40.7L121.3,41.6L122.9,41.7L123.7,41.1L124.6,41.6L124.7,42.1L122.3,42.5L125.4,43.1L122.2,43.7L125.3,44.4L125.1,45.1L126.0,44.7L125.7,45.4L127.6,45.1L128.9,45.9L127.8,46.2L129.9,46.4L129.0,47.1L131.0,46.7L132.0,47.4L130.5,47.8L131.1,48.3L130.3,49.0L129.3,48.6L129.2,50.0L127.0,48.8L128.1,47.9L126.4,48.4L125.0,47.4L123.9,47.7L124.6,48.5L122.9,48.1L123.6,48.6L125.4,50.2L126.9,50.3L127.4,50.8L126.7,51.0L128.2,51.8L127.9,52.5L127.2,51.7L127.9,52.9L127.3,53.3L122.7,51.8L126.3,53.9L125.9,54.4L119.7,52.7L118.9,52.2L119.7,52.0L117.3,50.5L111.8,50.9L111.3,50.3L112.4,49.2L114.7,50.2L114.3,49.5L117.0,49.2L115.9,48.1L118.6,46.4L117.3,44.6L115.5,43.3L113.3,44.0L114.3,42.9L110.3,40.5L109.8,40.9L110.6,41.6L107.2,41.4L108.0,42.1L98.3,40.7L97.5,39.6L100.4,39.7L97.1,38.8L97.8,35.4L99.7,34.1L102.9,33.9L101.0,36.2L101.5,38.0L103.0,39.1ZM109.7,34.2L112.5,34.6L113.9,35.9L109.7,36.2L108.1,34.4ZM78.2,35.8L76.2,34.5L77.9,34.0L79.1,34.5ZM66.9,36.5L69.1,35.7L70.9,36.3L70.4,37.1L72.2,36.4L71.6,35.6L72.4,35.7L75.1,38.5L75.7,38.0L74.6,35.3L76.7,35.2L78.0,36.1L79.1,39.6L83.4,41.4L83.4,42.2L81.9,41.9L80.4,42.3L80.9,42.7L82.5,43.1L81.1,43.8L76.5,42.7L73.1,44.0L68.9,44.4L67.9,43.1L64.5,42.7L63.7,41.5L70.4,41.1L62.2,39.8L65.9,38.8L61.6,38.4L62.5,36.4L66.7,34.8L67.5,35.5ZM115.6,72.5L106.0,75.2L105.3,74.9L107.0,73.9L107.5,72.8L107.0,72.3L109.5,72.6L108.1,71.7L103.6,71.2L103.2,69.8L100.9,69.0L99.0,68.8L97.0,69.8L90.6,68.5L56.4,68.8L56.3,68.2L55.3,68.2L55.5,67.7L54.3,67.8L54.2,67.0L50.8,66.7L52.0,66.1L50.6,66.2L51.1,65.5L52.0,65.8L51.6,65.0L50.3,66.1L50.3,64.9L49.0,64.2L50.5,64.5L49.8,63.9L48.5,64.5L47.6,64.1L48.4,63.5L47.5,63.1L48.5,62.2L47.9,62.6L47.8,61.4L45.7,60.9L41.8,57.3L38.9,58.1L36.9,56.3L34.5,56.4L34.5,42.3L41.5,44.0L40.7,43.2L42.6,42.2L42.9,43.0L48.4,41.3L44.1,43.9L45.8,42.7L46.8,43.1L49.4,42.1L50.8,41.2L50.4,40.6L53.2,42.8L54.6,41.4L54.9,42.8L57.7,42.0L66.3,43.7L67.6,44.5L66.1,45.5L72.3,45.2L74.9,46.4L74.3,46.7L75.7,47.8L74.9,45.5L77.6,44.2L74.0,44.7L77.1,43.6L79.2,45.1L82.8,45.7L86.0,45.6L86.3,45.0L87.8,45.8L86.3,44.6L87.8,44.3L89.0,44.6L88.7,45.1L89.6,44.7L89.1,46.0L90.3,46.8L89.0,46.7L89.8,47.4L90.4,46.2L90.2,45.1L92.7,44.1L92.2,43.4L91.3,43.8L92.6,42.6L88.9,41.3L89.7,40.6L89.0,39.3L91.1,37.8L95.0,41.3L94.0,41.2L94.5,41.6L93.3,42.2L96.3,42.6L95.4,42.9L96.6,44.7L97.8,43.0L99.1,43.6L99.6,44.6L98.9,45.3L100.1,46.5L102.2,44.0L103.2,43.8L102.4,41.9L105.9,42.2L107.4,43.1L106.7,43.6L107.5,44.0L106.0,44.4L107.5,46.2L105.9,47.5L104.8,47.8L103.2,46.8L104.5,48.0L100.9,47.6L101.8,48.2L100.0,49.4L95.2,48.5L100.5,49.8L99.2,51.1L96.8,51.2L96.6,51.9L92.4,51.2L96.0,52.7L94.0,53.1L94.5,53.4L93.8,53.9L93.0,53.7L91.1,56.1L90.8,57.9L91.6,58.9L93.0,58.4L93.9,60.0L93.5,60.5L96.2,60.1L102.5,62.6L106.2,62.6L106.3,64.8L108.4,66.2L108.1,66.7L110.5,66.7L111.0,65.6L109.5,63.0L113.3,61.1L112.9,59.5L110.9,58.4L112.4,57.3L112.1,55.7L111.3,55.7L112.1,54.8L111.4,53.8L112.3,53.4L115.7,54.0L116.8,53.5L119.6,55.3L121.9,55.4L121.7,56.7L120.5,56.7L122.1,57.6L121.1,58.3L123.3,58.3L122.5,59.3L125.8,58.3L126.2,58.7L128.1,56.4L129.4,57.8L128.7,58.0L130.1,58.4L129.2,58.8L130.4,58.7L129.6,59.2L131.2,59.3L130.5,59.8L131.9,60.4L130.5,60.6L133.2,61.8L132.8,62.6L136.7,63.1L133.2,64.5L135.8,63.5L138.6,64.4L138.1,65.3L138.8,65.7L133.7,67.5L125.6,67.6L121.7,69.6L120.1,69.3L121.3,70.0ZM87.8,42.3L90.4,43.8L88.8,44.4L86.0,43.6L85.2,43.3L87.0,42.6L86.8,42.0ZM114.4,44.6L115.1,44.9L115.0,46.1L113.0,46.4L112.6,45.3ZM103.1,49.5L108.8,51.7L107.8,52.2L104.7,51.3L102.7,52.6L102.1,51.8L100.3,52.0L101.5,51.2L102.0,48.7ZM106.7,52.9L104.5,53.8L105.0,52.9ZM139.1,66.3L137.5,68.2L138.2,67.7L139.3,68.7L141.4,68.5L140.8,69.4L142.1,69.1L141.1,70.0L142.3,69.6L142.3,70.7L140.7,70.9L140.7,69.9L138.7,70.8L139.9,70.1L134.4,70.0L137.2,66.8ZM51.4,67.2L53.5,67.5L56.0,69.1L52.6,68.4L50.0,67.2ZM124.9,72.4L124.0,71.9L124.0,70.6L122.3,70.3L120.3,72.3L115.6,72.5L125.5,68.7L128.4,68.9L125.4,69.7L127.6,70.2L127.1,70.6L128.0,71.4L132.3,72.3L126.9,73.8L126.1,73.0L129.5,72.2L127.6,72.2L127.9,71.7ZM128.9,71.2L129.9,71.4L128.5,71.2L128.7,70.6ZM240.5,101.1L243.2,101.4L245.2,102.9L243.6,103.8L242.2,105.8L243.1,108.2L244.6,109.4L241.7,110.1L241.7,111.6L243.4,112.0L243.4,112.8L236.8,111.3L234.1,111.3L233.6,108.9L228.5,109.4L227.0,108.0L221.9,107.9L226.5,106.6L226.8,105.6L228.7,104.6L230.3,101.2L234.4,101.7ZM234.9,97.4L235.7,98.7L240.5,101.1L234.4,101.7L230.8,101.0L229.7,102.1L227.1,102.4L226.7,102.8L224.9,101.3L224.6,100.4L225.6,99.7L229.7,99.2ZM229.7,102.1L228.7,104.6L226.8,105.6L226.4,106.7L221.7,107.4L220.6,106.7L222.2,105.5L224.6,105.3L223.9,104.4L224.6,103.7L223.1,103.5L223.2,102.9L226.6,103.2L227.3,102.1ZM218.6,70.2L219.7,70.8L219.3,71.4L215.7,71.7L214.3,71.5L215.5,70.3ZM200.2,97.7L203.7,98.3L203.9,99.1L203.0,100.1L203.5,101.0L197.7,101.5L197.8,100.6L196.4,100.2L196.9,98.9L197.6,99.0L197.0,97.9ZM124.8,119.0L124.6,119.8L123.1,120.3L123.4,121.9L121.8,122.9L120.7,124.9L121.5,127.2L119.9,129.2L120.3,130.6L119.2,131.4L118.7,133.9L119.1,135.5L119.9,135.6L118.8,135.8L119.7,136.2L119.3,137.5L117.0,140.3L118.9,142.7L123.2,143.1L120.4,143.5L119.8,144.7L118.4,144.1L119.8,143.5L117.6,144.0L119.5,143.3L116.4,143.3L116.1,142.8L118.2,143.0L118.0,142.3L117.0,142.7L115.2,141.5L116.7,141.6L115.7,140.9L116.7,140.3L115.7,138.8L117.2,138.9L115.6,138.5L116.3,138.4L116.1,137.6L114.4,137.6L116.5,136.4L116.0,137.1L116.8,136.7L116.6,137.4L116.8,136.4L118.1,135.7L117.3,135.3L118.5,133.0L116.5,132.7L117.4,131.1L116.9,129.6L119.6,126.0L119.5,123.3L121.2,118.1L120.8,116.0L122.4,115.8L123.9,119.0ZM123.0,143.4L123.0,145.7L119.0,145.4L121.0,145.4L120.3,144.9L120.7,144.4L121.0,145.1L122.5,145.2L121.2,144.8L122.1,144.2L120.9,144.1L120.9,143.5ZM121.7,145.8L123.2,145.8L123.7,146.6L122.6,146.3ZM225.9,99.5L224.6,100.5L226.6,103.2L219.2,102.9L218.8,101.7L217.5,101.3L218.9,100.0L221.5,99.8L224.8,97.0L224.2,96.0L226.1,98.0L224.0,98.2ZM342.6,91.4L341.5,92.5L339.9,92.3L340.6,91.5ZM358.0,64.3L360.6,64.8L362.9,68.0L366.6,69.0L367.1,70.0L371.2,69.4L371.8,70.0L369.8,72.4L367.1,72.7L367.5,73.9L366.6,74.7L365.8,74.3L363.7,75.6L362.0,75.4L355.7,77.7L355.1,77.7L356.5,76.4L356.0,76.0L351.0,77.5L350.9,78.1L352.6,79.0L357.0,78.9L352.7,80.9L356.0,83.2L353.8,83.1L356.0,83.8L354.0,84.3L356.3,84.6L355.6,84.9L356.1,84.9L355.7,85.7L352.7,87.3L353.3,87.8L349.4,89.5L345.8,89.3L345.8,89.9L342.0,90.5L341.6,91.3L341.4,90.4L338.2,90.4L335.7,89.2L331.3,89.8L331.3,90.7L328.3,90.0L328.6,89.4L327.9,89.3L327.8,88.6L326.2,88.4L327.6,87.4L327.6,86.2L324.7,85.6L324.4,84.9L315.7,86.4L303.3,83.5L302.8,82.6L303.8,82.7L303.5,81.3L297.9,79.1L298.8,78.9L298.4,78.0L297.2,77.9L297.4,76.8L305.1,75.1L305.8,74.1L305.4,72.8L304.6,72.6L307.9,72.4L308.5,70.5L311.5,70.6L311.8,69.4L314.3,68.7L317.4,70.1L318.3,71.1L318.1,72.3L323.6,73.2L324.8,74.5L335.3,75.5L340.8,74.7L343.9,73.7L343.2,73.1L343.8,72.5L345.9,72.7L350.6,71.1L353.6,71.0L351.9,69.8L348.2,69.6L349.7,68.0L352.8,67.8L354.6,65.7L353.8,65.0ZM119.7,96.8L117.2,98.5L118.9,99.8L124.4,100.4L124.0,101.4L124.6,102.1L124.0,102.5L125.2,103.5L124.5,102.9L121.5,103.2L122.4,103.9L121.3,103.9L122.1,105.0L121.4,106.9L120.4,106.6L121.3,106.0L120.0,105.7L117.7,105.8L115.5,104.4L110.3,103.2L112.7,101.8L111.7,99.7L112.3,98.8L113.0,99.3L115.4,97.2ZM104.7,97.4L106.0,98.2L105.6,99.2L104.5,98.5L101.9,97.4ZM106.9,89.3L116.2,91.2L112.9,91.5L106.9,89.6L103.1,90.2ZM225.1,67.0L230.0,68.2L227.1,69.0L224.1,69.2L222.1,68.1L221.7,67.5ZM218.9,62.9L220.3,63.8L223.7,63.6L225.3,66.6L221.7,67.6L223.9,69.0L222.6,69.7L222.9,70.3L219.4,70.4L216.2,70.1L216.9,68.8L214.7,68.4L214.1,66.8L214.2,66.0L215.5,65.6L215.8,64.1L218.9,64.2L217.5,63.4L217.6,62.8ZM218.9,62.9L216.9,62.0L216.9,60.9L218.3,60.4L217.1,60.6L218.6,60.1L219.9,59.5L219.5,60.8L220.3,61.0L218.7,62.1ZM119.2,92.7L119.4,91.5L121.8,92.0L123.0,92.6ZM217.4,79.3L216.1,81.7L218.0,83.0L218.9,85.1L218.5,87.2L221.6,89.1L214.1,91.8L211.0,92.1L200.8,87.9L196.3,86.4L196.3,85.4L202.5,83.8L202.3,83.3L205.5,82.9L204.2,80.7L208.5,79.6ZM114.9,104.3L114.5,105.2L110.3,107.4L108.5,107.1L108.8,106.6L109.3,105.6L107.9,105.6L109.1,103.7L110.5,103.4ZM248.8,83.5L249.6,84.9L248.8,86.1L246.5,84.8L250.7,88.8L250.6,89.5L252.0,90.1L238.9,90.1L237.5,90.1L237.4,83.4ZM241.2,57.4L240.4,59.8L237.7,59.2L236.7,59.4L237.0,58.8L236.0,58.8L235.7,57.8ZM196.3,86.4L196.3,87.3L192.3,87.3L192.2,89.1L190.3,90.5L186.0,90.9L189.3,87.2L190.8,86.2ZM259.7,96.2L256.0,95.1L251.6,95.2L252.0,94.1L254.2,92.8L255.6,94.7ZM204.8,73.9L210.9,75.2L207.8,76.1L206.6,77.2L207.2,77.8L204.4,79.4L200.1,80.0L198.6,79.0L197.9,79.1L198.4,77.6L197.7,77.1L199.3,75.5L196.1,75.2L195.7,74.1ZM254.0,95.1L256.9,95.3L258.8,96.4L258.1,97.3L259.4,97.3L260.7,98.6L265.6,99.2L261.9,101.2L254.0,102.0L251.0,101.5L247.3,99.3L248.7,98.9L248.9,97.6L251.6,95.2ZM242.4,43.4L241.7,43.6L241.9,44.6L243.6,45.7L242.5,47.0L243.7,48.7L243.2,50.0L244.3,51.3L243.6,51.8L245.5,52.9L245.2,53.4L240.9,56.1L235.1,57.0L233.2,56.0L233.4,54.8L232.8,53.3L233.3,52.5L237.9,50.1L238.0,49.2L236.0,48.1L235.9,45.2L232.2,43.4L233.4,43.0L234.4,43.9L237.5,44.2L238.8,42.2L240.9,41.5L242.6,42.2ZM135.0,141.9L136.1,142.1L135.7,142.5L134.1,142.9ZM210.5,67.1L216.9,68.8L214.3,71.4L215.2,71.2L215.7,72.2L215.1,72.5L216.1,73.6L214.4,74.2L211.7,73.8L210.2,74.8L205.2,74.2L205.6,72.0L206.3,72.5L205.5,71.3L201.1,69.3L205.3,69.2L204.7,68.2L206.9,68.5L209.1,66.9ZM223.2,102.9L223.1,103.5L224.6,103.7L223.9,104.4L224.7,104.6L224.5,105.5L221.1,105.7L221.5,106.6L220.8,106.6L217.6,104.6L219.2,104.1L218.7,103.6L220.8,103.6L220.8,102.8ZM199.2,62.4L200.2,63.3L198.5,63.3L197.0,63.3ZM203.1,58.6L201.9,59.7L204.8,59.9L202.9,61.1L203.7,61.3L202.3,61.4L204.3,61.7L206.8,63.6L207.1,64.2L206.1,64.0L207.3,64.5L207.0,64.9L209.1,65.4L207.5,66.4L208.7,66.7L207.3,67.1L200.1,67.8L204.0,66.1L202.2,66.3L200.5,66.0L201.9,65.5L201.9,64.9L201.2,65.0L201.7,64.7L203.6,64.5L202.6,63.1L203.2,62.7L200.9,63.0L201.3,61.6L200.7,61.3L199.9,62.3L200.6,60.7L199.4,60.7L200.8,58.6ZM263.7,75.2L263.8,75.9L258.0,75.4L256.1,73.8ZM143.8,101.7L142.3,102.9L140.6,102.6L140.3,101.2L141.0,100.6ZM206.9,97.2L207.6,100.0L208.4,100.4L203.6,101.1L203.0,100.1L203.9,99.1L203.5,97.3ZM170.3,0.3L175.4,1.9L167.8,2.9L167.8,3.4L176.2,2.5L177.0,3.9L180.4,4.9L180.5,5.6L178.7,6.7L170.4,7.9L170.8,8.4L176.2,8.2L177.2,9.5L178.7,8.1L180.9,7.8L181.0,9.9L178.6,13.3L182.9,9.8L185.6,10.8L188.1,8.9L193.0,10.4L189.3,12.5L189.2,13.4L186.5,14.1L187.5,14.7L186.8,15.3L183.2,15.3L182.3,16.2L183.7,19.1L181.1,20.9L180.4,23.8L181.4,23.2L183.1,23.8L181.7,24.1L181.9,24.6L184.4,25.1L184.5,26.1L179.3,26.7L180.7,27.8L182.4,28.0L183.1,29.2L183.1,30.6L179.8,30.8L181.3,30.9L181.4,31.9L182.5,31.1L183.4,32.2L181.7,33.1L180.1,32.9L180.1,32.1L179.7,32.7L179.9,33.5L182.0,33.8L181.9,34.6L179.6,35.1L175.7,33.8L176.6,34.5L173.6,34.7L174.5,35.1L173.2,35.4L177.4,34.8L180.0,35.8L179.7,37.5L177.5,36.7L176.8,35.6L174.3,36.3L176.6,35.9L176.2,37.0L180.1,38.3L179.5,39.0L180.3,38.8L180.6,40.7L179.6,40.8L179.5,40.0L178.4,40.8L176.9,39.3L173.8,38.5L175.5,39.4L172.2,39.8L172.6,40.3L171.4,40.8L174.4,40.8L173.5,41.7L175.7,41.0L179.7,41.6L174.6,44.0L169.1,45.1L167.4,44.4L167.6,45.2L164.6,47.7L160.8,49.0L161.4,47.9L160.3,47.8L160.8,48.0L159.8,48.4L160.2,48.8L157.8,49.1L158.5,49.5L156.7,49.9L157.8,50.7L156.1,51.0L157.4,51.8L156.3,52.7L155.4,52.5L155.7,53.2L154.4,53.2L155.4,53.4L155.4,54.4L154.3,56.1L153.2,56.0L154.0,56.9L151.5,56.5L152.2,55.9L150.6,56.0L150.8,55.2L148.5,55.9L147.7,55.3L146.7,54.7L147.2,54.1L145.4,53.5L146.1,52.7L145.3,53.1L143.9,51.7L145.5,51.1L143.9,51.2L144.1,50.7L145.7,50.4L144.6,49.6L144.8,50.3L143.3,50.9L142.7,49.4L144.5,48.7L141.9,49.0L141.7,48.3L144.3,47.0L141.4,48.2L142.9,47.0L141.3,46.8L141.2,46.1L145.0,46.0L141.2,45.9L141.9,44.8L144.3,44.6L141.7,44.7L142.1,44.1L144.4,44.1L144.5,43.2L145.4,43.1L144.5,43.1L145.4,41.6L143.0,41.5L140.3,40.3L145.0,40.9L143.6,39.7L144.6,39.7L142.1,39.4L143.6,38.4L141.6,38.6L141.3,37.0L141.0,38.8L139.0,38.7L139.9,37.0L139.0,37.4L139.0,36.8L140.0,35.9L138.9,35.6L139.3,34.9L138.3,34.4L138.2,33.1L137.0,33.1L138.2,32.2L135.3,30.2L135.4,29.3L129.5,27.6L125.0,28.0L125.2,28.6L123.4,28.3L122.0,27.5L123.6,26.8L119.9,25.6L125.8,25.0L125.9,24.2L121.4,24.3L120.7,23.8L121.2,23.4L118.2,22.6L118.1,21.7L126.4,19.2L128.5,15.9L125.2,16.0L125.0,14.7L128.0,12.4L129.9,12.9L130.0,11.5L131.8,11.9L132.1,9.3L133.0,8.5L134.4,8.7L137.7,10.9L134.5,8.1L140.2,6.5L141.3,7.4L141.5,9.7L142.1,6.7L144.7,8.6L146.4,8.5L144.7,6.4L145.8,5.9L152.2,9.1L152.7,5.9L151.2,4.6L156.4,4.6L150.5,4.0L150.5,3.0L154.3,1.9L156.4,2.8L157.6,1.5L160.3,3.3L160.6,2.5L159.6,1.3L160.8,0.6ZM152.1,7.8L149.8,6.5L149.1,5.0L152.0,5.9ZM175.8,39.9L174.9,40.8L172.7,40.8L173.2,39.9ZM142.5,41.7L143.2,42.6L141.1,42.5L139.9,42.3L140.5,41.7L140.0,41.2ZM193.0,96.4L195.8,96.4L196.7,97.1L197.6,99.0L195.9,99.7L195.4,99.2L193.9,99.0L193.2,98.0L190.7,98.6L188.5,97.4L190.2,96.2ZM220.8,102.9L220.8,103.6L218.7,103.6L218.9,102.8ZM239.1,75.4L238.9,76.2L236.0,76.2L236.7,76.7L236.2,76.8L234.6,76.4L235.5,77.5L234.6,77.7L236.4,78.6L234.7,78.8L235.3,79.6L233.8,79.3L233.1,78.3L235.3,78.3L231.8,77.3L232.6,76.1ZM161.6,144.9L162.8,145.7L160.5,144.8ZM97.9,92.9L97.8,94.2L99.0,94.3L96.8,95.6L94.2,94.6L96.3,94.0L95.2,93.3L95.7,92.9ZM190.2,96.2L190.2,96.8L188.5,96.9L186.5,96.4ZM137.0,100.8L136.0,101.7L137.9,103.0L133.9,103.0L133.6,101.1L131.9,100.5L133.5,98.9ZM105.2,94.7L100.5,96.0L99.1,95.4L97.7,95.1L99.5,94.2ZM227.2,71.2L230.7,72.3L226.3,72.4L227.8,73.8L223.5,72.1L225.7,72.1ZM119.2,91.6L119.2,92.7L116.3,92.6L118.5,92.4L117.2,91.6ZM234.0,69.4L234.9,69.8L232.8,71.4L228.2,71.7L226.6,70.8L227.2,70.0ZM351.6,109.5L352.6,109.8L350.5,110.0L349.8,109.6ZM338.3,108.0L344.6,108.6L346.9,109.2L346.7,109.7L337.1,108.9L335.7,108.5ZM365.6,106.1L366.9,106.7L364.4,106.3ZM370.2,104.7L372.2,106.4L375.5,105.2L379.4,105.9L379.4,110.0L378.3,109.3L376.8,109.5L377.2,108.8L376.5,108.4L370.6,106.2L369.5,106.8L368.4,106.0L370.7,105.6L367.2,105.1ZM359.7,103.6L354.1,104.0L353.8,104.5L354.5,105.1L357.9,104.8L355.4,105.4L357.2,107.0L355.7,107.3L354.8,106.5L354.9,105.9L354.0,106.1L354.2,107.8L353.4,107.8L353.1,106.5L352.3,106.2L354.0,103.7ZM363.2,103.7L364.3,103.3L363.8,103.8L364.6,104.1L363.4,104.1L364.0,104.8L362.8,103.6L363.5,102.9ZM349.5,101.5L350.7,101.6L350.1,102.0L352.5,103.7L351.2,103.6L348.8,106.5L343.7,106.3L341.8,106.1L340.4,103.3L347.0,103.4L348.4,101.6ZM325.0,101.0L332.4,104.1L333.5,104.0L334.9,105.9L336.5,106.1L336.3,107.9L332.4,106.9L327.5,103.1L323.7,101.3L323.5,100.8ZM198.1,62.6L197.0,63.3L199.4,63.7L199.2,65.6L195.0,66.4L194.3,65.7L196.2,65.1L194.8,65.3L196.0,64.6L194.6,64.4L195.2,64.0L194.7,63.5ZM250.7,82.5L249.7,82.9L249.6,83.5L250.3,83.4L249.9,84.4L249.6,84.9L248.8,83.6L249.9,82.2L250.8,82.0ZM303.2,83.1L306.0,84.3L304.9,85.3L313.0,87.0L314.6,87.1L315.3,85.9L316.0,86.8L319.5,86.7L319.0,86.1L324.8,85.0L324.7,85.6L326.0,85.8L325.7,86.6L323.3,86.9L322.1,88.8L321.1,88.7L320.7,90.1L319.8,88.9L318.4,89.0L320.0,88.1L315.0,86.9L314.7,87.4L315.7,87.9L314.6,88.3L315.5,88.6L315.9,90.3L315.3,90.2L314.5,89.8L313.1,91.2L305.2,94.3L304.6,97.8L303.5,98.3L304.1,98.5L301.1,99.0L296.6,93.8L295.8,91.6L296.4,90.3L295.2,89.9L295.0,90.7L293.2,90.9L291.3,89.9L293.2,89.4L290.3,88.8L293.8,88.5L292.0,86.6L294.9,86.0L299.1,82.9L297.5,82.1L297.4,81.0L302.4,80.4L303.5,81.3L303.8,82.7L302.8,82.6ZM261.7,79.1L263.5,80.2L262.5,81.5L265.4,83.2L266.3,84.5L265.3,84.4L261.6,85.1L254.7,82.8L254.4,82.0L257.1,81.2L257.5,79.6ZM261.8,77.1L263.4,77.7L265.7,77.1L267.0,78.7L270.3,79.5L276.3,78.2L281.7,79.5L281.0,82.2L281.3,83.4L282.5,83.8L281.4,84.6L284.4,86.6L282.6,87.2L282.1,88.0L277.1,87.5L276.3,86.6L272.6,86.8L269.7,85.8L268.2,84.3L266.2,84.5L264.9,82.7L262.5,81.5L263.6,80.2L261.0,78.5L260.8,77.3ZM187.9,48.0L189.1,47.8L188.5,48.2L190.3,49.1L190.3,49.9L184.6,52.2L179.2,51.6L180.5,50.5L177.6,50.1L179.6,49.7L180.0,49.2L177.0,49.1L178.5,48.8L177.8,48.6L178.3,48.1L179.5,48.5L179.0,47.7L180.8,48.4L181.1,49.5L182.2,48.2L184.8,48.8L184.6,48.2ZM223.7,71.1L223.9,72.0L222.0,72.1L222.1,73.2L229.4,76.9L227.7,76.4L227.2,77.0L228.0,77.6L226.2,78.5L226.8,77.7L226.1,76.8L220.6,74.8L218.3,73.1L216.1,73.6L215.3,71.8L221.8,70.6ZM218.7,76.1L218.6,77.5L217.5,77.7L217.4,76.9L217.0,76.0ZM226.0,78.2L225.4,79.5L222.6,78.8ZM112.5,92.5L113.7,92.8L112.6,92.9L111.1,92.6ZM254.8,82.9L252.2,83.4L253.4,84.1L251.1,85.1L249.7,85.0L250.0,84.0L250.7,82.5L254.4,82.0ZM382.9,73.3L384.7,73.1L384.5,73.7L385.3,73.9L382.1,75.1L378.8,74.6L379.5,75.3L378.3,75.6L378.0,74.7L379.9,74.0L380.2,72.2ZM379.7,75.7L380.6,77.3L379.4,78.3L378.6,80.6L374.3,80.7L372.9,81.9L372.5,81.0L370.8,81.1L367.1,81.3L369.5,80.4L373.0,80.3L374.3,78.9L376.1,79.0L377.9,77.7L378.6,75.8ZM371.3,81.3L371.7,81.7L371.1,82.1L369.0,82.1ZM367.4,81.8L368.4,82.3L367.6,83.5L366.2,83.1L366.7,82.6L365.5,82.0ZM258.2,101.8L257.1,102.5L257.1,104.8L257.7,105.3L255.1,107.2L248.4,104.9L248.7,103.9L249.7,103.1L248.5,101.6L250.1,100.8L253.5,102.0ZM305.1,75.0L297.1,77.2L291.7,77.2L294.7,76.6L296.4,76.1L292.8,75.5L294.3,74.5L296.8,74.8L297.7,74.1ZM334.7,97.7L333.1,97.4L332.1,95.7L337.3,95.1L338.5,94.9L338.4,96.4ZM366.6,74.7L365.6,76.1L363.0,77.0L363.7,78.1L360.3,78.6L359.5,78.3L360.5,77.9L360.0,77.1L359.1,76.7L361.9,75.4L363.7,75.6L365.8,74.3ZM361.8,78.6L364.0,77.9L365.4,79.9L362.3,81.1L361.4,81.0L362.0,80.1L361.3,79.4L362.3,79.3ZM265.6,84.5L265.7,85.5L263.9,85.1ZM313.8,68.7L311.8,69.4L311.5,70.6L308.5,70.5L307.9,72.4L304.6,72.6L305.4,72.8L305.8,74.1L305.0,75.0L297.7,74.1L296.8,74.8L294.1,74.5L290.7,76.3L288.5,75.8L287.8,74.3L286.3,73.6L282.8,73.8L278.6,72.0L275.4,72.5L275.4,75.7L273.1,74.8L271.2,75.3L271.3,74.5L268.4,73.0L272.0,72.2L271.9,70.8L266.3,71.0L266.8,70.9L266.3,70.4L264.0,69.2L265.1,67.5L266.6,67.9L266.4,67.2L269.1,66.1L272.2,66.4L273.7,67.3L281.5,67.2L282.2,66.5L280.4,65.9L282.9,64.8L281.8,64.5L281.8,63.7L291.3,62.2L293.5,62.3L293.9,63.5L297.0,63.7L296.7,64.3L300.9,63.3L300.5,63.7L304.8,67.1L308.9,66.9ZM331.9,89.8L333.1,90.8L334.9,91.0L335.3,91.4L334.0,91.9L338.3,94.1L338.3,95.0L335.9,95.1L336.2,94.3L334.1,92.6L330.4,93.0L330.7,91.7L329.5,91.0L331.5,90.6L331.1,89.9ZM304.8,98.1L307.1,99.7L305.7,100.5L304.6,100.0L305.3,98.3ZM196.6,99.5L196.4,100.2L197.8,100.6L197.7,101.5L193.1,100.1L193.6,99.5L195.0,98.9L195.4,99.6ZM242.1,124.1L240.9,124.5L240.0,123.8L240.5,123.6L242.0,123.0L242.9,123.5ZM239.5,61.9L238.4,63.6L235.3,63.4L232.9,62.4L233.0,61.3L237.3,61.1ZM240.4,59.8L241.4,61.3L240.7,61.8L235.3,61.1L232.7,61.5L233.5,59.7L235.9,60.4L237.7,59.2ZM237.7,83.3L237.2,84.3L237.5,91.4L236.3,91.8L226.5,89.1L224.4,89.7L221.6,89.1L219.3,88.2L218.5,87.2L218.9,86.6L218.3,84.4L221.0,82.1L230.3,84.3L231.5,83.8L231.6,82.9L233.4,82.3ZM204.2,80.7L205.5,82.9L202.3,83.3L202.5,83.8L198.7,84.8L196.4,85.4L196.3,86.2L190.8,86.2L194.9,84.6L195.6,82.6L198.5,81.5L199.7,80.2ZM241.5,72.1L241.3,70.7L239.5,69.5L242.5,69.8L243.8,71.2L242.4,71.2ZM267.5,112.1L268.7,114.0L267.7,114.1L264.7,120.3L260.8,120.5L259.9,118.6L260.7,117.7L261.3,114.6L264.6,114.1ZM230.4,73.8L231.8,74.4L230.6,75.1L229.5,74.7ZM234.3,74.9L235.1,75.3L234.7,75.8L232.2,75.9L232.4,75.1ZM212.1,92.0L212.1,93.7L211.2,94.5L203.8,95.2L201.7,96.0L200.2,97.7L197.2,97.9L195.3,96.5L192.9,96.6L191.9,94.9L200.2,94.4L198.9,88.0L201.1,88.0ZM330.6,90.4L326.0,92.4L327.9,93.9L327.1,94.8L328.8,96.8L327.5,97.9L327.9,96.9L326.5,93.7L325.4,93.2L323.6,94.3L322.2,94.1L322.6,93.1L321.7,92.1L319.7,90.6L323.3,86.9L325.7,86.6L326.2,85.6L327.7,86.9L326.3,88.8L327.8,88.6L328.7,89.4L328.3,90.0ZM349.7,68.0L348.4,69.9L351.9,69.8L353.6,71.0L350.6,71.1L345.9,72.7L343.8,72.5L343.2,73.1L343.8,73.7L342.0,74.5L335.3,75.5L324.8,74.5L323.6,73.2L318.1,72.3L318.1,70.7L315.3,69.6L314.3,68.9L314.8,68.4L319.9,67.0L326.0,68.1L327.1,67.6L326.6,66.8L327.9,65.7L331.8,66.5L333.3,67.7L337.5,67.5L339.8,68.5L342.4,68.7L346.7,67.6ZM201.1,88.0L198.9,88.0L200.2,94.4L192.9,94.3L192.2,94.9L189.5,93.7L187.7,93.8L186.7,94.2L187.3,92.6L186.2,90.6L191.0,90.5L190.9,89.5L192.3,89.1L192.3,87.3L196.3,87.3L196.3,86.4ZM249.7,111.6L249.0,112.0L249.2,112.7L250.8,113.7L250.1,115.2L248.8,114.4L249.2,113.5L247.1,112.8L248.1,110.9L247.2,110.2L248.9,110.4ZM88.1,87.4L87.3,89.7L87.9,90.4L87.4,90.1L89.8,92.3L95.0,92.5L96.7,90.7L100.8,90.5L99.5,92.6L95.7,92.9L95.2,93.3L96.3,94.0L94.8,94.0L94.1,95.0L91.5,93.9L87.4,94.1L78.6,91.9L77.7,91.2L78.3,90.4L77.6,89.7L73.3,87.6L73.5,87.1L69.8,85.2L68.7,83.6L66.4,83.1L66.9,84.5L73.1,89.1L72.4,89.5L69.9,88.2L69.5,87.2L66.3,86.1L67.5,85.6L63.7,82.6L66.6,82.5L71.1,83.5L76.8,83.2L80.7,85.2L83.0,84.7L85.7,87.0ZM350.7,101.6L348.6,101.5L347.0,103.3L345.9,103.5L341.9,103.6L341.0,103.0L343.0,103.4L343.6,102.5L348.0,101.5L349.8,99.9L352.8,100.9ZM331.8,100.3L333.4,101.2L333.5,102.4L334.5,103.4L330.5,102.0L329.5,100.1L330.6,100.7ZM247.2,121.8L246.2,121.8L245.2,118.7L247.3,117.1L247.2,114.9L244.1,114.4L243.9,113.8L249.0,113.4L248.8,114.4L250.1,115.2L250.9,113.7L249.2,112.7L249.3,111.6L256.4,110.9L256.9,113.6L255.7,114.7L249.3,116.9L250.4,119.8L247.1,120.9ZM235.5,115.5L237.8,115.6L235.9,116.1L232.6,116.0L232.6,118.4L231.4,118.4L231.4,122.9L227.1,123.0L225.6,122.1L224.6,118.7L221.3,115.3ZM225.3,89.4L226.5,91.2L225.9,93.5L223.6,95.6L218.7,96.2L213.7,95.5L212.0,95.7L211.3,96.9L209.8,96.7L207.2,94.8L211.7,94.3L212.1,92.0L221.6,89.1ZM223.6,95.6L224.8,97.0L221.0,100.1L219.4,99.9L217.1,101.4L213.5,101.0L210.3,100.3L210.3,98.6L211.6,97.7L211.2,97.0L212.0,95.7L218.7,96.2ZM105.2,94.7L104.6,97.4L102.0,97.2L99.7,96.1ZM215.8,64.5L212.8,64.9L212.2,66.4L211.2,66.3L214.0,66.9ZM244.7,42.0L242.4,43.4L242.6,42.2L239.4,41.8L237.5,44.2L234.4,43.9L233.0,43.0L231.6,43.4L231.4,44.6L229.3,44.2L228.9,45.2L227.5,45.3L225.9,47.9L224.7,48.2L223.6,50.5L224.2,51.1L221.6,52.4L221.8,54.5L222.7,55.0L221.2,58.1L219.9,57.1L216.9,59.1L213.9,58.6L214.8,57.3L213.4,57.3L215.5,56.1L213.2,57.2L213.9,55.9L213.1,55.4L216.3,55.2L213.2,55.3L213.0,54.3L215.2,54.3L213.3,54.2L214.2,53.6L216.9,53.2L215.2,53.2L216.2,52.7L217.5,53.0L216.9,52.6L217.4,52.0L220.9,51.7L218.7,51.7L222.5,49.6L221.8,49.4L222.6,48.2L224.1,47.9L223.0,48.0L223.1,47.4L225.8,46.5L224.6,46.4L225.2,45.9L226.0,46.3L225.1,45.5L228.4,44.4L227.2,44.2L230.4,42.1L231.1,42.0L231.0,42.7L231.8,41.7L231.5,42.9L232.3,42.5L232.2,41.8L233.8,41.9L233.1,41.2L234.7,40.9L235.5,41.7L237.2,39.7L238.5,40.1L237.6,41.4L239.4,39.9L239.5,40.9L240.0,40.7L240.7,39.6L241.7,39.8L241.4,41.2L242.2,40.0L244.8,40.9L242.2,41.4ZM226.2,44.2L225.3,44.7L224.4,44.7L226.4,43.0ZM314.7,86.0L314.6,87.0L313.7,87.1L305.2,85.5L305.3,84.7L306.8,84.2L312.1,86.0ZM418.9,127.7L422.3,129.8L425.3,129.9L421.8,132.9L420.5,132.8L421.3,132.0L419.5,131.2L420.5,130.8L420.9,129.4ZM418.7,132.8L420.2,132.7L418.0,134.7L418.6,135.0L416.4,135.4L415.8,136.8L414.5,137.4L412.7,137.3L410.6,136.9L411.2,136.1L416.1,134.2L417.9,132.3ZM271.9,93.7L270.5,92.1L274.2,91.4L275.4,88.1L280.1,89.9L277.7,91.3L277.7,92.1ZM112.3,98.8L111.7,99.7L111.0,99.2L111.8,99.1L110.2,98.6L108.5,99.1L109.0,99.6L107.8,99.3L105.6,99.2L105.7,98.2ZM121.4,106.9L117.8,107.5L116.4,109.0L118.7,110.6L120.7,110.2L120.6,111.2L121.9,111.2L122.9,112.2L122.0,114.2L122.8,114.7L121.4,115.9L115.1,114.1L112.8,112.0L109.4,108.7L107.7,108.1L108.1,106.6L110.3,107.4L114.5,105.2L115.0,104.3L117.7,105.8L121.2,105.9L120.4,106.6ZM392.7,107.0L393.3,107.0L392.9,107.7L391.0,108.2L388.4,107.8ZM383.2,106.7L387.4,108.1L387.0,108.9L391.4,110.7L387.7,110.6L385.6,109.4L382.6,109.0L380.9,109.4L382.3,109.9L379.4,110.0L379.4,105.9ZM355.1,92.4L356.5,92.5L356.8,93.3L355.4,94.5L355.9,95.3L358.4,95.5L358.3,96.1L353.8,94.8L353.4,93.9L354.2,94.0L354.4,92.4ZM361.1,98.4L361.8,99.7L361.3,100.3L360.7,99.7L360.4,100.7L358.0,99.4L356.2,99.9L356.6,99.2ZM298.5,79.2L302.1,80.4L297.4,81.0L297.5,82.1L299.1,82.8L298.2,83.7L294.9,86.0L292.0,86.6L293.8,88.5L289.9,88.8L288.1,87.6L282.2,87.9L284.4,86.5L281.4,84.6L287.9,84.6L288.7,83.6L291.7,83.1L292.9,82.1L292.4,81.5L293.9,81.5L294.5,79.7ZM230.9,63.3L235.6,63.6L236.2,65.0L235.3,65.5L236.4,67.3L234.8,68.8L229.6,67.9L225.1,67.0L224.3,63.8L228.8,62.9ZM197.0,75.3L199.4,75.5L197.7,77.1L198.4,77.6L197.8,78.6L195.9,79.2L196.4,78.1L195.6,77.9L196.2,77.5L195.4,77.8L196.1,75.3ZM135.8,117.2L136.1,118.5L138.6,118.6L139.2,119.8L140.6,119.8L139.5,121.8L135.3,122.1L136.5,120.7L130.4,118.6L131.4,116.9ZM241.5,72.1L243.3,72.3L241.9,73.6L238.1,73.7L235.0,73.5L232.4,72.0L231.7,71.5L234.2,70.0L239.6,69.5L241.3,70.7ZM231.1,71.5L234.7,72.9L234.3,73.6L235.0,74.1L233.4,74.8L230.4,73.8L230.9,73.4L230.0,71.8ZM270.0,37.6L270.0,38.6L272.3,38.7L273.2,39.5L272.2,40.0L273.7,40.4L277.4,40.3L274.9,38.2L274.7,36.6L276.0,35.2L274.1,34.8L272.2,35.2L271.3,37.1ZM275.1,11.7L277.2,11.9L278.4,10.5L276.8,10.2L274.8,11.2ZM273.5,13.3L275.8,13.9L277.4,13.2L273.9,12.0ZM267.0,14.3L264.0,15.2L265.5,15.4L265.3,16.0L266.6,15.7L266.6,15.0L270.2,13.7L268.3,12.7L267.2,13.2ZM266.8,42.5L266.0,43.5L267.1,43.8L268.4,43.1ZM262.5,14.2L263.7,14.6L265.4,13.4L266.5,13.9L264.9,13.0ZM284.1,12.6L283.4,13.2L284.5,13.6L286.4,13.2L286.9,12.2L285.9,11.6ZM278.1,12.1L276.9,12.4L278.2,13.4L279.0,13.1ZM279.5,14.0L279.9,14.7L281.6,14.7L283.1,13.3L280.0,13.1ZM279.9,42.2L280.9,41.8L279.1,40.8L278.5,41.1ZM286.7,27.2L281.8,27.8L275.3,30.7L276.1,31.2L274.9,32.0L275.6,32.3L272.7,34.0L273.4,34.9L276.6,34.9L278.5,32.3L282.0,30.3L290.3,27.8L291.3,26.6L290.1,25.9ZM276.8,14.4L277.1,15.8L278.1,15.5L279.3,14.8ZM234.7,63.1L232.5,62.3L230.9,63.3ZM326.3,15.7L323.1,15.9L320.8,18.1L323.2,19.6L328.7,20.2L329.0,19.4L328.1,18.8L328.9,18.7L329.3,17.1L327.5,16.1L326.4,17.1ZM329.6,20.9L328.6,23.0L335.2,21.8L335.5,20.3L333.2,19.5L332.2,20.3L333.0,18.7L331.3,18.5ZM321.4,16.9L319.7,16.1L318.4,16.6L319.7,17.4ZM383.9,68.9L382.1,65.9L381.6,63.3L380.2,65.6L380.8,67.6L380.7,71.7L381.3,71.0L382.6,71.3L381.3,70.0L382.0,68.6ZM319.0,15.3L321.5,16.2L325.8,15.4L325.7,14.0L326.6,13.4L325.0,12.1L323.3,11.3L320.8,12.5L320.2,13.3L321.0,13.3ZM374.5,30.5L377.1,31.9L377.8,31.2L382.0,31.1L381.0,29.3L381.8,29.3L381.5,30.2L382.3,30.9L384.0,30.2L384.7,29.7L382.7,28.9L380.0,28.2L379.0,29.5L376.7,28.0L375.2,28.7ZM386.6,30.9L389.9,31.6L391.4,30.7L390.0,30.5L386.2,29.6L385.7,30.6ZM425.6,40.1L429.8,39.6L429.3,38.8L427.0,38.7ZM377.8,34.7L382.1,35.2L382.3,34.5L380.5,33.6ZM439.6,48.2L434.8,46.6L433.8,46.7L434.4,48.0L433.3,47.4L432.8,45.7L422.1,41.8L415.5,41.4L415.1,42.3L416.1,43.4L414.4,43.8L412.2,42.1L405.5,42.3L403.7,44.3L404.3,43.6L403.8,42.4L402.4,42.0L402.5,40.7L401.1,39.9L393.5,40.1L389.1,38.4L390.4,38.0L389.8,37.4L387.1,37.1L384.5,38.4L385.2,37.3L385.7,37.9L386.5,37.2L383.6,37.4L385.8,36.8L379.2,35.9L379.5,36.5L377.1,37.1L378.4,37.4L377.4,37.9L378.2,38.8L376.0,38.6L375.7,39.5L373.4,38.5L370.5,38.9L369.2,37.9L367.4,40.2L363.2,36.9L365.1,37.6L365.1,36.9L364.0,36.6L365.0,36.3L364.2,35.9L364.8,35.4L359.3,34.0L357.9,34.3L358.1,35.2L356.8,35.9L352.4,35.4L351.8,34.4L346.5,34.4L345.4,36.1L346.0,36.4L345.3,36.0L345.2,33.6L344.1,34.1L341.8,33.4L341.1,34.0L342.4,34.1L335.5,36.1L345.1,31.0L346.0,30.0L344.5,28.9L345.9,29.7L346.2,28.7L342.9,26.6L337.1,27.2L338.3,26.0L334.4,25.5L336.7,24.7L334.2,23.7L330.5,25.9L330.4,27.1L331.2,27.4L327.9,27.2L329.0,28.2L328.7,29.1L329.0,28.5L327.6,27.9L325.0,28.8L321.0,28.3L320.6,28.8L322.0,28.8L313.4,30.6L313.9,31.2L311.9,31.9L313.6,32.6L312.1,32.7L314.1,33.9L312.1,34.7L313.0,35.4L311.9,34.7L313.2,33.7L305.5,34.4L305.8,36.7L309.1,38.4L308.6,39.5L309.4,40.6L308.6,41.5L308.5,40.0L307.4,40.5L308.6,38.3L302.9,36.9L301.7,37.4L302.6,37.9L299.9,37.9L303.6,39.8L299.6,39.2L299.0,38.9L299.4,36.6L298.4,36.1L298.7,37.5L296.3,38.9L297.9,40.6L296.9,42.0L297.2,43.1L301.9,43.6L301.8,45.6L303.5,45.9L301.3,45.5L301.4,44.4L300.5,43.5L298.8,43.7L297.9,44.5L298.4,45.6L295.1,48.0L291.4,47.2L294.5,47.3L297.0,44.4L295.7,43.5L295.9,39.8L294.9,38.9L296.0,36.3L294.4,35.8L291.8,35.8L290.5,38.4L288.5,39.6L289.2,40.3L288.8,42.5L291.5,43.5L290.7,44.6L285.5,42.5L281.4,41.9L280.5,42.4L281.5,43.5L280.0,44.6L279.2,44.4L279.2,43.4L272.1,44.7L273.6,43.5L272.8,43.5L271.0,44.6L266.6,45.3L265.2,46.9L263.8,47.1L261.9,46.1L264.1,45.4L263.1,44.4L260.0,44.0L261.0,44.7L260.9,48.4L258.6,47.6L255.7,49.0L256.4,50.3L255.6,50.6L252.1,49.7L251.7,50.2L253.5,51.3L252.7,51.7L249.8,50.8L249.4,48.5L246.0,46.6L254.2,48.3L257.3,47.1L257.1,45.7L250.8,43.1L247.5,43.3L247.9,42.7L246.6,42.6L247.3,42.2L246.1,41.7L241.7,43.6L242.0,44.8L243.6,45.7L242.5,47.0L243.8,48.7L243.2,50.0L244.3,51.3L243.6,51.8L245.5,52.9L241.0,56.1L243.9,56.8L241.3,57.1L240.5,58.3L240.8,60.6L241.5,61.5L244.8,62.0L244.6,62.9L247.0,64.4L245.2,64.8L245.8,65.7L248.2,65.5L250.5,67.5L256.0,68.3L255.6,69.9L253.7,70.4L255.0,70.7L253.1,71.0L254.0,71.5L251.8,72.4L255.8,73.9L259.5,74.2L265.1,75.8L266.4,75.3L264.1,73.0L265.0,71.9L267.2,71.4L264.0,69.4L265.0,67.5L266.6,67.9L266.4,67.2L269.1,66.1L272.2,66.4L273.7,67.3L281.5,67.2L282.2,66.5L280.4,65.9L282.9,64.8L281.8,64.5L281.8,63.7L291.3,62.2L293.5,62.3L293.9,63.5L297.0,63.7L296.7,64.3L300.9,63.3L300.5,63.7L304.8,67.1L308.9,66.9L313.9,68.7L319.9,67.0L326.0,68.1L327.1,67.6L326.6,66.8L327.9,65.7L331.8,66.5L333.3,67.7L337.5,67.5L339.8,68.5L342.3,68.7L346.7,67.6L351.1,68.3L352.8,67.8L354.5,65.9L353.8,65.0L358.1,64.2L360.6,64.8L362.9,68.0L366.6,69.0L367.1,70.0L371.6,69.5L369.7,72.4L367.1,72.7L367.5,73.9L366.7,74.8L368.3,74.0L369.8,74.5L372.2,73.8L378.3,69.4L380.0,65.7L379.2,64.7L379.9,64.5L377.9,63.5L374.8,64.2L375.3,63.4L374.3,64.0L374.3,63.1L372.3,62.8L381.0,57.8L388.8,57.7L390.0,57.1L393.1,57.7L392.0,58.2L396.7,57.8L395.7,57.0L399.5,54.4L403.0,54.3L402.4,55.6L403.1,55.5L402.8,56.0L406.4,54.7L406.7,53.4L409.2,53.5L407.8,53.8L407.2,55.6L398.8,59.5L397.7,60.8L397.2,62.4L398.7,66.9L400.3,66.0L400.8,64.8L402.7,64.7L402.7,63.5L405.2,62.9L404.7,62.1L405.7,61.1L406.7,61.3L406.0,60.1L406.6,59.5L405.0,59.1L407.2,56.7L410.4,56.2L410.3,57.0L413.9,56.0L415.3,56.8L423.5,53.1L426.0,53.7L426.6,53.1L424.9,50.9L422.3,50.1L420.4,50.4L426.4,50.2L427.9,49.1L427.5,48.1L428.9,47.8L428.4,48.4L429.0,49.2L431.9,49.2L432.7,50.2L435.5,51.0L436.4,50.8L435.6,50.2L436.6,49.9L435.9,48.9L438.0,49.2L437.6,48.7L438.5,49.0ZM344.0,32.2L343.3,32.6L344.2,33.1L345.6,32.5ZM244.3,104.9L244.7,105.7L242.8,105.9L242.2,105.8L242.7,105.3ZM263.9,85.1L266.2,85.5L271.2,89.5L275.0,90.1L274.2,91.4L266.9,92.4L264.6,93.5L262.2,93.2L260.0,93.1L259.3,93.8L255.0,90.8L254.0,88.9L249.3,85.8L249.7,85.0L253.4,84.1L252.2,83.4L254.8,82.9ZM245.4,90.0L252.0,90.1L252.8,92.2L254.2,92.8L252.2,93.4L251.1,96.2L248.6,98.3L247.5,97.5L247.6,96.5L246.2,96.7L246.6,97.3L245.1,98.1L239.6,98.3L238.5,97.7L235.9,98.8L233.6,96.2L235.0,94.4L236.3,94.3L236.3,91.4L237.5,91.4L237.5,90.1ZM236.5,48.7L234.3,48.6L233.1,49.4L233.3,50.7L232.3,51.6L228.2,53.5L228.0,55.9L230.2,57.1L226.6,57.4L229.7,57.6L226.8,58.5L227.6,58.6L227.2,60.3L225.7,61.4L222.7,62.2L222.2,61.2L222.7,60.8L220.6,58.0L221.3,58.0L222.7,55.0L221.8,54.6L221.6,52.4L224.2,51.1L223.6,50.5L224.7,48.2L225.9,47.9L227.5,45.3L228.9,45.2L229.3,44.2L231.4,44.6L232.2,43.4L235.9,45.2ZM227.2,71.2L225.7,72.1L223.7,71.8L223.7,71.1ZM233.4,21.1L234.2,22.2L235.6,22.5L235.2,22.9L237.4,23.6L234.4,24.9L234.7,24.2L232.5,24.5L233.4,23.1L231.7,21.4ZM220.7,21.0L221.8,22.2L220.6,21.5L219.9,20.1ZM227.5,16.6L228.8,17.0L228.6,18.4L229.5,17.7L229.8,18.9L232.2,19.4L233.1,20.6L231.0,21.0L227.4,27.0L224.1,24.4L227.6,23.2L224.2,23.6L223.7,22.8L227.7,21.8L227.4,21.0L225.8,21.4L225.8,20.5L224.9,20.7L224.9,21.6L223.0,22.2L220.9,19.9L222.1,19.9L221.6,18.8L220.7,19.3L220.0,17.1L223.7,16.8L222.3,17.8L224.0,18.6L224.8,17.0L226.9,19.8L226.3,17.3L226.8,16.1ZM246.7,15.8L245.5,15.9L247.4,15.4ZM232.5,15.3L234.2,16.1L235.1,14.5L235.2,15.6L236.7,14.9L240.0,15.8L240.2,16.6L238.3,18.4L235.0,19.0L234.9,18.4L231.3,17.9L232.4,17.2L229.4,16.8L230.0,16.1L228.9,15.7L230.6,15.8L230.9,14.5ZM234.5,68.7L234.0,69.4L229.1,70.0L227.6,69.4L228.7,68.9L230.7,68.2ZM194.4,98.9L192.9,99.9L190.7,98.6L193.2,98.0ZM191.9,94.9L193.0,96.4L186.5,96.4L188.7,95.7L185.5,94.9L187.1,93.7L189.5,93.7ZM257.7,105.3L257.1,104.8L257.1,102.5L261.9,101.2L265.6,99.2L260.7,98.6L259.1,97.6L259.8,97.0L261.1,97.7L269.1,96.7L269.8,97.7L265.6,101.4ZM140.7,100.9L140.4,102.7L137.3,102.7L136.0,101.7L137.2,100.5ZM248.5,98.1L248.7,98.9L247.3,99.3L250.1,100.8L247.9,101.9L241.4,101.5L238.9,99.9L236.5,98.9L237.7,97.8L245.1,98.1L246.6,97.3L246.2,96.7L247.6,96.5L247.5,97.5ZM97.7,95.1L99.5,95.8L96.8,95.6ZM258.8,79.1L257.5,79.7L257.0,81.2L252.0,82.8L250.7,82.5L251.3,81.6L250.7,80.3L251.8,79.4ZM236.3,91.8L236.3,94.3L235.0,94.4L233.6,96.2L234.9,97.4L229.8,99.1L225.9,99.5L224.0,98.2L226.1,98.0L223.4,95.1L225.9,93.5L226.5,91.2L225.3,89.4L226.5,89.1ZM208.1,97.3L209.1,100.3L207.6,99.6L206.9,97.2ZM329.4,91.2L330.7,91.7L330.4,93.1L334.1,92.6L336.2,94.3L335.5,95.2L332.1,95.7L332.8,96.9L329.3,95.8L328.2,98.1L329.4,98.9L329.8,99.7L331.8,100.3L330.6,100.7L327.1,99.0L328.8,96.8L327.1,94.8L327.9,93.9L326.0,92.4L326.8,91.6ZM293.7,76.6L291.7,77.2L297.0,77.2L298.8,78.9L294.7,79.5L294.3,78.5L293.5,78.1L290.1,79.2L290.5,78.2L289.3,77.4L291.9,76.1ZM288.3,78.9L283.2,80.6L281.9,80.3L281.7,79.5L276.9,78.2L272.9,78.9L272.8,77.6L271.4,76.5L273.5,76.1L272.7,75.0L271.6,75.8L271.2,75.3L271.8,75.0L276.7,75.7L278.6,74.5L288.4,78.4ZM221.0,82.1L218.6,84.3L216.1,81.7L217.1,79.8L218.1,79.1L220.5,79.1L219.8,79.9L220.5,80.6L219.2,81.5ZM241.2,75.1L242.4,76.0L239.0,76.7L239.7,76.3L239.2,76.0L239.5,75.2ZM257.7,75.5L259.3,75.5L261.8,77.1L260.8,77.3L261.7,79.1L248.2,79.8L240.5,79.4L241.5,79.2L239.1,78.2L240.2,78.1L239.9,77.2L238.9,77.2L239.7,76.5L247.8,75.1L253.9,76.0ZM354.9,89.7L354.6,90.1L353.8,89.3L354.7,88.2L356.1,88.1ZM244.7,104.9L248.5,104.9L254.9,107.2L254.4,108.1L255.3,108.7L255.0,109.6L256.4,110.9L249.5,111.4L248.9,110.4L244.9,109.7L243.1,108.2L242.9,107.1L244.6,106.3ZM253.7,70.6L250.0,71.2L249.8,71.9L251.5,72.5L248.2,73.0L246.7,72.2L248.0,71.5L245.9,71.4L246.8,71.1L245.8,70.5L245.9,71.0L242.1,72.3L241.5,72.1L242.4,71.2L243.8,71.2L242.6,69.8L234.2,69.4L234.7,68.3L236.4,67.3L235.9,66.2L244.3,66.6L244.8,65.8L248.2,65.5L250.5,67.5L256.0,68.3L255.6,69.9ZM248.4,104.9L243.1,105.1L243.6,103.8L245.2,103.0L244.6,102.4L249.1,102.0L249.7,103.2ZM34.5,42.3L34.5,56.4L36.9,56.3L38.9,58.1L41.5,57.2L45.7,60.9L47.8,61.4L47.7,62.6L46.9,62.9L46.7,61.4L45.3,62.0L46.1,61.3L43.7,60.2L44.1,59.4L42.1,58.7L41.4,57.5L41.7,58.9L40.4,58.0L39.4,58.0L40.5,58.7L39.9,58.9L36.0,57.4L37.0,57.0L36.4,56.8L30.7,56.8L30.0,55.9L28.5,56.2L27.7,55.8L28.0,55.4L26.2,55.2L25.3,55.7L26.0,56.2L25.4,56.8L21.4,57.8L22.2,57.1L21.2,57.1L21.8,55.9L24.6,55.7L23.4,55.3L24.3,54.8L19.8,56.4L20.2,56.8L18.4,57.8L19.3,58.3L14.3,60.8L7.2,62.8L14.4,59.8L15.2,57.9L12.7,58.1L12.6,58.7L10.8,58.0L8.6,58.5L9.3,57.9L8.3,56.4L8.9,55.9L6.8,57.0L4.7,56.1L7.1,55.8L4.5,55.4L3.8,54.4L5.9,52.5L9.9,52.0L9.4,50.8L10.2,50.3L3.8,50.5L2.8,49.7L3.7,49.5L1.4,48.9L5.8,47.5L6.8,47.5L6.8,48.3L10.0,48.1L8.4,46.9L9.3,47.7L11.0,47.6L7.0,46.7L3.0,44.6L3.7,43.6L6.5,43.4L9.0,41.0L11.1,40.5L11.4,41.1L11.7,40.2L13.8,40.0L15.6,38.9L16.7,39.5L16.2,40.1L17.5,39.6L20.7,40.0L21.1,40.8L31.8,41.4ZM20.0,59.4L20.6,59.9L18.1,60.3L18.0,59.8ZM43.6,61.2L45.3,62.1L44.7,62.1L45.5,63.0L44.9,62.7L43.5,61.8ZM92.7,69.2L97.4,69.8L94.4,71.0L98.5,70.5L104.3,71.6L100.6,71.7L99.5,72.6L100.1,72.7L99.4,74.1L100.1,75.4L101.4,74.8L101.5,72.8L103.0,71.8L105.0,72.4L104.3,73.6L105.8,73.5L106.1,74.5L104.9,75.3L106.1,75.6L110.1,74.7L110.3,74.0L113.7,73.8L115.2,72.5L119.5,72.5L122.3,70.3L123.7,70.5L125.0,72.7L121.0,73.7L120.1,74.8L121.4,75.4L116.5,75.8L115.5,77.6L114.6,77.2L115.1,76.8L114.5,77.1L115.2,78.1L114.1,79.1L114.4,78.5L113.6,77.8L114.2,77.2L113.3,77.4L113.6,78.3L112.7,77.7L113.5,79.0L112.5,79.0L114.6,80.1L114.1,79.5L113.1,79.8L114.3,80.1L112.7,80.4L113.5,80.9L108.1,82.7L107.3,83.6L109.0,86.8L107.9,87.9L105.8,86.3L105.9,85.3L104.2,84.4L96.6,84.2L97.6,84.5L97.6,85.2L90.7,84.7L87.4,86.3L87.9,87.4L85.7,87.0L83.0,84.7L80.7,85.2L76.8,83.2L71.1,83.5L63.7,82.6L59.4,81.1L57.1,78.8L58.3,78.4L56.5,78.4L54.9,76.6L55.3,71.4L56.3,71.5L55.2,71.4L54.4,69.4L56.8,69.6L56.3,70.3L57.1,69.8L56.9,70.6L57.4,69.8L56.8,68.8L90.6,68.5ZM141.7,126.8L139.8,127.7L136.2,127.3L135.5,126.8L136.4,124.2L141.2,125.6L142.0,126.1ZM293.7,74.9L292.8,75.5L296.4,76.1L294.6,76.7L291.8,76.2L289.4,77.2L290.5,78.2L289.8,79.1L283.2,76.5L278.6,74.5L276.7,75.7L275.4,75.7L275.4,72.5L278.4,72.0L282.8,73.8L286.3,73.6L287.8,74.3L288.5,75.8L290.6,76.3ZM133.5,98.9L131.9,100.5L132.8,101.2L130.1,102.0L127.7,101.6L129.4,102.9L126.9,103.8L124.0,102.5L124.6,102.1L124.0,101.4L124.4,100.4L120.4,99.8L118.9,99.8L117.2,98.5L119.7,96.8L118.9,97.0L119.4,97.5L118.8,98.1L119.8,98.5L119.5,97.3L121.6,97.0L121.3,96.6L123.6,97.6L131.3,97.5L130.0,97.6L132.6,98.4L131.6,98.8ZM339.0,90.4L337.4,90.8L336.1,92.1L340.0,94.5L340.5,96.9L335.5,98.8L334.7,97.7L338.4,96.4L338.3,94.1L334.0,91.9L335.3,91.4L334.9,91.0L333.1,90.8L331.9,89.8L335.7,89.2ZM271.9,93.7L260.8,96.3L259.1,94.6L259.8,93.6L264.6,93.5L266.9,92.4L270.5,92.1ZM245.2,118.7L246.0,121.2L244.6,121.7L247.2,121.8L246.7,122.7L240.1,126.6L231.0,127.6L229.4,127.2L228.8,126.1L229.2,125.3L228.2,124.4L227.1,123.0L231.4,122.9L231.4,120.3L232.3,121.8L233.4,121.8L235.2,120.7L238.1,121.0L242.6,118.6ZM242.1,124.1L242.9,123.5L242.0,123.0L240.5,123.6L240.0,123.8L240.9,124.5ZM247.2,110.2L248.1,110.9L246.9,112.9L247.6,113.2L243.9,113.8L239.7,115.8L234.0,114.8L233.8,112.5L236.3,112.5L236.3,111.9L236.3,111.1L240.2,111.6L243.3,112.8L243.4,112.0L241.6,111.5L242.3,109.6ZM245.2,118.7L241.3,118.1L239.0,116.8L237.8,115.6L241.1,115.0L243.3,114.2L247.2,114.9L247.3,117.1Z" fill="#0d2b21" fill-opacity="0.55" stroke="#2a7a5e" stroke-width="0.6" stroke-linejoin="round"/><path d="M296.0,92.0 Q176.6,56.5 57.2,78.5" fill="none" stroke="#5dffa8" stroke-width="0.7" opacity="0.28"/><circle cx="57.2" cy="78.5" r="2.2" fill="#22c76e"/><path d="M296.0,92.0 Q206.2,54.1 116.4,76.1" fill="none" stroke="#5dffa8" stroke-width="0.7" opacity="0.28"/><circle cx="116.4" cy="76.1" r="2.2" fill="#22c76e"/><path d="M296.0,92.0 Q251.4,44.2 206.8,66.2" fill="none" stroke="#5dffa8" stroke-width="0.7" opacity="0.28"/><circle cx="206.8" cy="66.2" r="2.2" fill="#22c76e"/><path d="M296.0,92.0 Q285.3,65.8 274.6,87.8" fill="none" stroke="#5dffa8" stroke-width="0.7" opacity="0.28"/><circle cx="274.6" cy="87.8" r="2.2" fill="#22c76e"/><path d="M296.0,92.0 Q314.9,70.0 333.9,103.4" fill="none" stroke="#5dffa8" stroke-width="0.7" opacity="0.28"/><circle cx="333.9" cy="103.4" r="2.2" fill="#22c76e"/><path d="M296.0,92.0 Q343.9,70.0 391.9,127.0" fill="none" stroke="#5dffa8" stroke-width="0.7" opacity="0.28"/><circle cx="391.9" cy="127.0" r="2.2" fill="#22c76e"/><circle cx="296.0" cy="92.0" r="4" fill="none" stroke="#5dffa8" stroke-width="1.4" opacity="0"><animate attributeName="r" values="4;40" dur="3.9s" repeatCount="indefinite"/><animate attributeName="opacity" values="0.8;0" dur="3.9s" repeatCount="indefinite"/></circle><circle cx="296.0" cy="92.0" r="3.4" fill="#5dffa8"/><text x="303.0" y="95.0" fill="#5dffa8" font-size="7.5" letter-spacing="1">HQ</text></g><text x="272" y="520" class="panel-dim" font-size="9">HQ: MUMBAI, IN · NETWORK NODES ILLUSTRATIVE</text><rect x="742" y="322" width="238" height="210" rx="8" fill="#061b14" stroke="#1f5c47" stroke-width="1"/><path d="M742,332 V322 H752" fill="none" stroke="#5dffa8" stroke-width="1.6"/><path d="M970,322 H980 V332" fill="none" stroke="#5dffa8" stroke-width="1.6"/><path d="M980,522 V532 H970" fill="none" stroke="#5dffa8" stroke-width="1.6"/><path d="M752,532 H742 V522" fill="none" stroke="#5dffa8" stroke-width="1.6"/><text x="758" y="344" class="panel-title">LATEST COMMIT</text><rect x="756" y="356" width="210" height="140" rx="6" fill="#04100b" stroke="#1f5c47" stroke-width="1"/><text x="768" y="378" class="panel-dim" font-size="9.5">REPO</text><text x="768" y="394" class="panel-text" font-size="12" font-weight="700"><!--REPO_START-->Meraki<!--REPO_END--></text><text x="768" y="418" class="panel-dim" font-size="9.5">MESSAGE</text><text x="768" y="434" class="panel-text" font-size="11"><!--MSG_START-->HTML of Website Added<!--MSG_END--></text><text x="768" y="508" class="panel-dim" font-size="9.5"><!--TIME_START-->2026-07-13 13:30<!--TIME_END--></text><text x="964" y="508" text-anchor="end" font-size="8.5" fill="#5dffa8" letter-spacing="1">● AUTO-SYNCED</text><rect x="20" y="548" width="960" height="190" rx="8" fill="#061b14" stroke="#1f5c47" stroke-width="1"/><path d="M20,558 V548 H30" fill="none" stroke="#5dffa8" stroke-width="1.6"/><path d="M970,548 H980 V558" fill="none" stroke="#5dffa8" stroke-width="1.6"/><path d="M980,728 V738 H970" fill="none" stroke="#5dffa8" stroke-width="1.6"/><path d="M30,738 H20 V728" fill="none" stroke="#5dffa8" stroke-width="1.6"/><text x="36" y="570" class="panel-title">REPOSITORY ROSTER · MOST RECENTLY UPDATED</text><text x="964" y="570" text-anchor="end" class="panel-dim" font-size="9"><!--RMORE_START-->+18 MORE NOT SHOWN<!--RMORE_END--></text><text x="36" y="590" text-anchor="start" class="panel-dim" font-size="9" letter-spacing="0.6">REPOSITORY</text><text x="320" y="590" text-anchor="start" class="panel-dim" font-size="9" letter-spacing="0.6">LANGUAGE</text><text x="538" y="590" text-anchor="end" class="panel-dim" font-size="9" letter-spacing="0.6">STARS</text><text x="628" y="590" text-anchor="end" class="panel-dim" font-size="9" letter-spacing="0.6">FORKS</text><text x="962" y="590" text-anchor="end" class="panel-dim" font-size="9" letter-spacing="0.6">UPDATED</text><line x1="36" y1="598" x2="964" y2="598" stroke="#1f5c47" stroke-width="1" opacity="0.6"/><!--ROSTER_START--><text x="36" y="618" class="panel-text" font-size="10.5">rbrth_new</text><circle cx="314" cy="614.5" r="3" fill="#e34c26"/><text x="324" y="618" class="panel-text" font-size="10">HTML</text><text x="538" y="618" text-anchor="end" class="panel-text" font-size="10">1</text><text x="628" y="618" text-anchor="end" class="panel-text" font-size="10">0</text><text x="962" y="618" text-anchor="end" class="panel-dim" font-size="9.5">2026-06-14</text><text x="36" y="640" class="panel-text" font-size="10.5">ktsportfolio</text><circle cx="314" cy="636.5" r="3" fill="#3178c6"/><text x="324" y="640" class="panel-text" font-size="10">TypeScript</text><text x="538" y="640" text-anchor="end" class="panel-text" font-size="10">1</text><text x="628" y="640" text-anchor="end" class="panel-text" font-size="10">0</text><text x="962" y="640" text-anchor="end" class="panel-dim" font-size="9.5">2026-05-08</text><text x="36" y="662" class="panel-text" font-size="10.5">SpotterAI</text><circle cx="314" cy="658.5" r="3" fill="#e34c26"/><text x="324" y="662" class="panel-text" font-size="10">HTML</text><text x="538" y="662" text-anchor="end" class="panel-text" font-size="10">0</text><text x="628" y="662" text-anchor="end" class="panel-text" font-size="10">0</text><text x="962" y="662" text-anchor="end" class="panel-dim" font-size="9.5">2026-05-04</text><text x="36" y="684" class="panel-text" font-size="10.5">LIAT.AI---Frontend-Assignment</text><circle cx="314" cy="680.5" r="3" fill="#3178c6"/><text x="324" y="684" class="panel-text" font-size="10">TypeScript</text><text x="538" y="684" text-anchor="end" class="panel-text" font-size="10">0</text><text x="628" y="684" text-anchor="end" class="panel-text" font-size="10">0</text><text x="962" y="684" text-anchor="end" class="panel-dim" font-size="9.5">2026-04-28</text><text x="36" y="706" class="panel-text" font-size="10.5">nofeeswap</text><circle cx="314" cy="702.5" r="3" fill="#3572A5"/><text x="324" y="706" class="panel-text" font-size="10">Python</text><text x="538" y="706" text-anchor="end" class="panel-text" font-size="10">0</text><text x="628" y="706" text-anchor="end" class="panel-text" font-size="10">0</text><text x="962" y="706" text-anchor="end" class="panel-dim" font-size="9.5">2026-04-09</text><text x="36" y="728" class="panel-text" font-size="10.5">cloxide1</text><circle cx="314" cy="724.5" r="3" fill="#3178c6"/><text x="324" y="728" class="panel-text" font-size="10">TypeScript</text><text x="538" y="728" text-anchor="end" class="panel-text" font-size="10">0</text><text x="628" y="728" text-anchor="end" class="panel-text" font-size="10">0</text><text x="962" y="728" text-anchor="end" class="panel-dim" font-size="9.5">2026-03-18</text><!--ROSTER_END--><line x1="20" y1="748" x2="980" y2="748" stroke="#1f5c47" stroke-width="1"/>
  <text x="20" y="770" class="panel-text" font-size="10.5"><!--STATS_START-->25 REPOS · 7 STARS · 1 FORK · 706 CONTRIB/YR (PUBLIC) · 15 FOLLOWERS<!--STATS_END--></text>
  <text x="20" y="788" class="panel-dim" font-size="9.5">krishank.kmats.in &#160;·&#160; /in/krishank-shah-546989230 &#160;·&#160; @krishankshh &#160;·&#160; github.com/krishankshh</text>
  <text x="980" y="788" text-anchor="end" class="panel-dim" font-size="9">LAST SYNC: <!--SYNC_START-->Jul 16, 2026 20:25 UTC<!--SYNC_END--></text>


  <rect x="0" y="0" width="180" height="800" fill="url(#sweepGrad)">
    <animateTransform attributeName="transform" type="translate" values="-180,0; 1180,0" dur="7s" repeatCount="indefinite"/>
  </rect>
</svg>
