<svg width="1000" height="800" viewBox="0 0 1000 800" xmlns="http://www.w3.org/2000/svg" role="img" aria-label="Krishank Intelligence Dashboard">
  <defs>
    <linearGradient id="bg" x1="0%" y1="0%" x2="100%" y2="100%">
      <stop offset="0%" stop-color="#010604"/>
      <stop offset="100%" stop-color="#02100a"/>
    </linearGradient>
    <linearGradient id="sweepGrad" x1="0%" y1="0%" x2="100%" y2="0%">
      <stop offset="0%" stop-color="#5dffa8" stop-opacity="0"/>
      <stop offset="50%" stop-color="#5dffa8" stop-opacity="0.05"/>
      <stop offset="100%" stop-color="#5dffa8" stop-opacity="0"/>
    </linearGradient>
  </defs>

  <style>
    <![CDATA[
      text { font-family: ui-monospace, 'JetBrains Mono', 'Courier New', monospace; }
      .mast-title { fill: #eafff5; font-size: 20px; font-weight: 800; letter-spacing: 1.5px; }
      .mast-sub { fill: #4f8a75; font-size: 10.5px; letter-spacing: 1.5px; }
      .panel-title { fill: #5dffa8; font-size: 10.5px; font-weight: 700; letter-spacing: 1.2px; }
      .panel-text { fill: #d8ffe9; }
      .panel-value { fill: #eafff5; font-weight: 800; }
      .panel-dim { fill: #4f8a75; }
    ]]>
  </style>

  <rect x="0" y="0" width="1000" height="800" fill="url(#bg)"/>
  <g><line x1="0" y1="0" x2="0" y2="800" stroke="#0d3226" stroke-width="0.5" opacity="0.35"/><line x1="40" y1="0" x2="40" y2="800" stroke="#0d3226" stroke-width="0.5" opacity="0.35"/><line x1="80" y1="0" x2="80" y2="800" stroke="#0d3226" stroke-width="0.5" opacity="0.35"/><line x1="120" y1="0" x2="120" y2="800" stroke="#0d3226" stroke-width="0.5" opacity="0.35"/><line x1="160" y1="0" x2="160" y2="800" stroke="#0d3226" stroke-width="0.5" opacity="0.35"/><line x1="200" y1="0" x2="200" y2="800" stroke="#0d3226" stroke-width="0.5" opacity="0.35"/><line x1="240" y1="0" x2="240" y2="800" stroke="#0d3226" stroke-width="0.5" opacity="0.35"/><line x1="280" y1="0" x2="280" y2="800" stroke="#0d3226" stroke-width="0.5" opacity="0.35"/><line x1="320" y1="0" x2="320" y2="800" stroke="#0d3226" stroke-width="0.5" opacity="0.35"/><line x1="360" y1="0" x2="360" y2="800" stroke="#0d3226" stroke-width="0.5" opacity="0.35"/><line x1="400" y1="0" x2="400" y2="800" stroke="#0d3226" stroke-width="0.5" opacity="0.35"/><line x1="440" y1="0" x2="440" y2="800" stroke="#0d3226" stroke-width="0.5" opacity="0.35"/><line x1="480" y1="0" x2="480" y2="800" stroke="#0d3226" stroke-width="0.5" opacity="0.35"/><line x1="520" y1="0" x2="520" y2="800" stroke="#0d3226" stroke-width="0.5" opacity="0.35"/><line x1="560" y1="0" x2="560" y2="800" stroke="#0d3226" stroke-width="0.5" opacity="0.35"/><line x1="600" y1="0" x2="600" y2="800" stroke="#0d3226" stroke-width="0.5" opacity="0.35"/><line x1="640" y1="0" x2="640" y2="800" stroke="#0d3226" stroke-width="0.5" opacity="0.35"/><line x1="680" y1="0" x2="680" y2="800" stroke="#0d3226" stroke-width="0.5" opacity="0.35"/><line x1="720" y1="0" x2="720" y2="800" stroke="#0d3226" stroke-width="0.5" opacity="0.35"/><line x1="760" y1="0" x2="760" y2="800" stroke="#0d3226" stroke-width="0.5" opacity="0.35"/><line x1="800" y1="0" x2="800" y2="800" stroke="#0d3226" stroke-width="0.5" opacity="0.35"/><line x1="840" y1="0" x2="840" y2="800" stroke="#0d3226" stroke-width="0.5" opacity="0.35"/><line x1="880" y1="0" x2="880" y2="800" stroke="#0d3226" stroke-width="0.5" opacity="0.35"/><line x1="920" y1="0" x2="920" y2="800" stroke="#0d3226" stroke-width="0.5" opacity="0.35"/><line x1="960" y1="0" x2="960" y2="800" stroke="#0d3226" stroke-width="0.5" opacity="0.35"/><line x1="0" y1="0" x2="1000" y2="0" stroke="#0d3226" stroke-width="0.5" opacity="0.35"/><line x1="0" y1="40" x2="1000" y2="40" stroke="#0d3226" stroke-width="0.5" opacity="0.35"/><line x1="0" y1="80" x2="1000" y2="80" stroke="#0d3226" stroke-width="0.5" opacity="0.35"/><line x1="0" y1="120" x2="1000" y2="120" stroke="#0d3226" stroke-width="0.5" opacity="0.35"/><line x1="0" y1="160" x2="1000" y2="160" stroke="#0d3226" stroke-width="0.5" opacity="0.35"/><line x1="0" y1="200" x2="1000" y2="200" stroke="#0d3226" stroke-width="0.5" opacity="0.35"/><line x1="0" y1="240" x2="1000" y2="240" stroke="#0d3226" stroke-width="0.5" opacity="0.35"/><line x1="0" y1="280" x2="1000" y2="280" stroke="#0d3226" stroke-width="0.5" opacity="0.35"/><line x1="0" y1="320" x2="1000" y2="320" stroke="#0d3226" stroke-width="0.5" opacity="0.35"/><line x1="0" y1="360" x2="1000" y2="360" stroke="#0d3226" stroke-width="0.5" opacity="0.35"/><line x1="0" y1="400" x2="1000" y2="400" stroke="#0d3226" stroke-width="0.5" opacity="0.35"/><line x1="0" y1="440" x2="1000" y2="440" stroke="#0d3226" stroke-width="0.5" opacity="0.35"/><line x1="0" y1="480" x2="1000" y2="480" stroke="#0d3226" stroke-width="0.5" opacity="0.35"/><line x1="0" y1="520" x2="1000" y2="520" stroke="#0d3226" stroke-width="0.5" opacity="0.35"/><line x1="0" y1="560" x2="1000" y2="560" stroke="#0d3226" stroke-width="0.5" opacity="0.35"/><line x1="0" y1="600" x2="1000" y2="600" stroke="#0d3226" stroke-width="0.5" opacity="0.35"/><line x1="0" y1="640" x2="1000" y2="640" stroke="#0d3226" stroke-width="0.5" opacity="0.35"/><line x1="0" y1="680" x2="1000" y2="680" stroke="#0d3226" stroke-width="0.5" opacity="0.35"/><line x1="0" y1="720" x2="1000" y2="720" stroke="#0d3226" stroke-width="0.5" opacity="0.35"/><line x1="0" y1="760" x2="1000" y2="760" stroke="#0d3226" stroke-width="0.5" opacity="0.35"/></g>

  
  <text x="20" y="34" class="mast-title">KRISHANK INTELLIGENCE DASHBOARD</text>
  <text x="20" y="54" class="mast-sub">FOUNDER OPS // KMATS // RPM // MUMBAI, IN</text>
  <g>
    <circle cx="944" cy="40" r="15" fill="none" stroke="#1f5c47" stroke-width="1.4"/>
    <circle cx="944" cy="40" r="1.6" fill="#5dffa8"/>
    <line x1="944" y1="40" x2="944" y2="28" stroke="#5dffa8" stroke-width="1.4" stroke-linecap="round">
      <animateTransform attributeName="transform" type="rotate" from="0 944 40" to="360 944 40" dur="9s" repeatCount="indefinite"/>
    </line>
    <text x="944" y="69" text-anchor="middle" class="panel-dim" font-size="8" letter-spacing="1">LIVE</text>
  </g>
  <line x1="20" y1="70" x2="980" y2="70" stroke="#1f5c47" stroke-width="1"/>

  <rect x="20" y="96" width="220" height="210" rx="8" fill="#061b14" stroke="#1f5c47" stroke-width="1"/><path d="M20,106 V96 H30" fill="none" stroke="#5dffa8" stroke-width="1.6"/><path d="M230,96 H240 V106" fill="none" stroke="#5dffa8" stroke-width="1.6"/><path d="M240,296 V306 H230" fill="none" stroke="#5dffa8" stroke-width="1.6"/><path d="M30,306 H20 V296" fill="none" stroke="#5dffa8" stroke-width="1.6"/><text x="36" y="118" class="panel-title">SYSTEM STATUS</text><text x="36" y="146" class="panel-text" font-size="11.5">FOUNDER</text><text x="200" y="146" text-anchor="end" font-size="10.5" fill="#22c76e" font-weight="700">✓</text><text x="36" y="173" class="panel-text" font-size="11.5">KMATS</text><text x="200" y="173" text-anchor="end" font-size="10.5" fill="#22c76e" font-weight="700">ONLINE</text><circle cx="224" cy="169" r="2.6" fill="#22c76e"><animate attributeName="opacity" values="1;0.3;1" dur="1.6s" begin="0.48s" repeatCount="indefinite"/></circle><text x="36" y="200" class="panel-text" font-size="11.5">RPM</text><text x="200" y="200" text-anchor="end" font-size="10.5" fill="#7dd3fc" font-weight="700">BUILDING</text><circle cx="224" cy="196" r="2.6" fill="#7dd3fc"><animate attributeName="opacity" values="1;0.3;1" dur="2.1s" begin="0.63s" repeatCount="indefinite"/></circle><text x="36" y="227" class="panel-text" font-size="11.5">GITHUB</text><text x="200" y="227" text-anchor="end" font-size="10.5" fill="#22c76e" font-weight="700">CONNECTED</text><circle cx="224" cy="223" r="2.6" fill="#22c76e"><animate attributeName="opacity" values="1;0.3;1" dur="2.6s" begin="0.78s" repeatCount="indefinite"/></circle><text x="36" y="254" class="panel-text" font-size="11.5">AWS</text><text x="200" y="254" text-anchor="end" font-size="10.5" fill="#22c76e" font-weight="700">ONLINE</text><circle cx="224" cy="250" r="2.6" fill="#22c76e"><animate attributeName="opacity" values="1;0.3;1" dur="3.1s" begin="0.9299999999999999s" repeatCount="indefinite"/></circle><rect x="256" y="96" width="470" height="210" rx="8" fill="#061b14" stroke="#1f5c47" stroke-width="1"/><path d="M256,106 V96 H266" fill="none" stroke="#5dffa8" stroke-width="1.6"/><path d="M716,96 H726 V106" fill="none" stroke="#5dffa8" stroke-width="1.6"/><path d="M726,296 V306 H716" fill="none" stroke="#5dffa8" stroke-width="1.6"/><path d="M266,306 H256 V296" fill="none" stroke="#5dffa8" stroke-width="1.6"/><text x="272" y="118" class="panel-title">CONTRIBUTION ACTIVITY</text><!--HEATMAP_START--><rect x="279.0" y="136.0" width="6.4" height="6.4" rx="1.2" fill="#0d2b21"/><rect x="279.0" y="144.0" width="6.4" height="6.4" rx="1.2" fill="#0d2b21"/><rect x="279.0" y="152.0" width="6.4" height="6.4" rx="1.2" fill="#0d2b21"/><rect x="279.0" y="160.0" width="6.4" height="6.4" rx="1.2" fill="#0d2b21"/><rect x="279.0" y="168.0" width="6.4" height="6.4" rx="1.2" fill="#0d2b21"/><rect x="279.0" y="176.0" width="6.4" height="6.4" rx="1.2" fill="#0d2b21"/><rect x="279.0" y="184.0" width="6.4" height="6.4" rx="1.2" fill="#0d2b21"/><rect x="287.0" y="136.0" width="6.4" height="6.4" rx="1.2" fill="#0d2b21"/><rect x="287.0" y="144.0" width="6.4" height="6.4" rx="1.2" fill="#0d2b21"/><rect x="287.0" y="152.0" width="6.4" height="6.4" rx="1.2" fill="#0d2b21"/><rect x="287.0" y="160.0" width="6.4" height="6.4" rx="1.2" fill="#0d2b21"/><rect x="287.0" y="168.0" width="6.4" height="6.4" rx="1.2" fill="#0d2b21"/><rect x="287.0" y="176.0" width="6.4" height="6.4" rx="1.2" fill="#0d2b21"/><rect x="287.0" y="184.0" width="6.4" height="6.4" rx="1.2" fill="#0d2b21"/><rect x="295.0" y="136.0" width="6.4" height="6.4" rx="1.2" fill="#0d2b21"/><rect x="295.0" y="144.0" width="6.4" height="6.4" rx="1.2" fill="#0d2b21"/><rect x="295.0" y="152.0" width="6.4" height="6.4" rx="1.2" fill="#0d2b21"/><rect x="295.0" y="160.0" width="6.4" height="6.4" rx="1.2" fill="#0d2b21"/><rect x="295.0" y="168.0" width="6.4" height="6.4" rx="1.2" fill="#0d2b21"/><rect x="295.0" y="176.0" width="6.4" height="6.4" rx="1.2" fill="#0d2b21"/><rect x="295.0" y="184.0" width="6.4" height="6.4" rx="1.2" fill="#0d2b21"/><rect x="303.0" y="136.0" width="6.4" height="6.4" rx="1.2" fill="#0d2b21"/><rect x="303.0" y="144.0" width="6.4" height="6.4" rx="1.2" fill="#0d2b21"/><rect x="303.0" y="152.0" width="6.4" height="6.4" rx="1.2" fill="#0d2b21"/><rect x="303.0" y="160.0" width="6.4" height="6.4" rx="1.2" fill="#0d2b21"/><rect x="303.0" y="168.0" width="6.4" height="6.4" rx="1.2" fill="#0d2b21"/><rect x="303.0" y="176.0" width="6.4" height="6.4" rx="1.2" fill="#0d2b21"/><rect x="303.0" y="184.0" width="6.4" height="6.4" rx="1.2" fill="#0d2b21"/><rect x="311.0" y="136.0" width="6.4" height="6.4" rx="1.2" fill="#0d2b21"/><rect x="311.0" y="144.0" width="6.4" height="6.4" rx="1.2" fill="#0d2b21"/><rect x="311.0" y="152.0" width="6.4" height="6.4" rx="1.2" fill="#0d2b21"/><rect x="311.0" y="160.0" width="6.4" height="6.4" rx="1.2" fill="#0d2b21"/><rect x="311.0" y="168.0" width="6.4" height="6.4" rx="1.2" fill="#0d2b21"/><rect x="311.0" y="176.0" width="6.4" height="6.4" rx="1.2" fill="#0d2b21"/><rect x="311.0" y="184.0" width="6.4" height="6.4" rx="1.2" fill="#0d2b21"/><rect x="319.0" y="136.0" width="6.4" height="6.4" rx="1.2" fill="#0d2b21"/><rect x="319.0" y="144.0" width="6.4" height="6.4" rx="1.2" fill="#0d2b21"/><rect x="319.0" y="152.0" width="6.4" height="6.4" rx="1.2" fill="#0d2b21"/><rect x="319.0" y="160.0" width="6.4" height="6.4" rx="1.2" fill="#0d2b21"/><rect x="319.0" y="168.0" width="6.4" height="6.4" rx="1.2" fill="#0d2b21"/><rect x="319.0" y="176.0" width="6.4" height="6.4" rx="1.2" fill="#0d2b21"/><rect x="319.0" y="184.0" width="6.4" height="6.4" rx="1.2" fill="#0d2b21"/><rect x="327.0" y="136.0" width="6.4" height="6.4" rx="1.2" fill="#0d2b21"/><rect x="327.0" y="144.0" width="6.4" height="6.4" rx="1.2" fill="#0d2b21"/><rect x="327.0" y="152.0" width="6.4" height="6.4" rx="1.2" fill="#0d2b21"/><rect x="327.0" y="160.0" width="6.4" height="6.4" rx="1.2" fill="#0d2b21"/><rect x="327.0" y="168.0" width="6.4" height="6.4" rx="1.2" fill="#0d2b21"/><rect x="327.0" y="176.0" width="6.4" height="6.4" rx="1.2" fill="#0d2b21"/><rect x="327.0" y="184.0" width="6.4" height="6.4" rx="1.2" fill="#0d2b21"/><rect x="335.0" y="136.0" width="6.4" height="6.4" rx="1.2" fill="#0d2b21"/><rect x="335.0" y="144.0" width="6.4" height="6.4" rx="1.2" fill="#0d2b21"/><rect x="335.0" y="152.0" width="6.4" height="6.4" rx="1.2" fill="#159a5c"/><rect x="335.0" y="160.0" width="6.4" height="6.4" rx="1.2" fill="#0f5c3f"/><rect x="335.0" y="168.0" width="6.4" height="6.4" rx="1.2" fill="#0d2b21"/><rect x="335.0" y="176.0" width="6.4" height="6.4" rx="1.2" fill="#0d2b21"/><rect x="335.0" y="184.0" width="6.4" height="6.4" rx="1.2" fill="#0d2b21"/><rect x="343.0" y="136.0" width="6.4" height="6.4" rx="1.2" fill="#0d2b21"/><rect x="343.0" y="144.0" width="6.4" height="6.4" rx="1.2" fill="#0f5c3f"/><rect x="343.0" y="152.0" width="6.4" height="6.4" rx="1.2" fill="#0f5c3f"/><rect x="343.0" y="160.0" width="6.4" height="6.4" rx="1.2" fill="#0f5c3f"/><rect x="343.0" y="168.0" width="6.4" height="6.4" rx="1.2" fill="#0d2b21"/><rect x="343.0" y="176.0" width="6.4" height="6.4" rx="1.2" fill="#0f5c3f"/><rect x="343.0" y="184.0" width="6.4" height="6.4" rx="1.2" fill="#0f5c3f"/><rect x="351.0" y="136.0" width="6.4" height="6.4" rx="1.2" fill="#0d2b21"/><rect x="351.0" y="144.0" width="6.4" height="6.4" rx="1.2" fill="#22c76e"/><rect x="351.0" y="152.0" width="6.4" height="6.4" rx="1.2" fill="#0d2b21"/><rect x="351.0" y="160.0" width="6.4" height="6.4" rx="1.2" fill="#0d2b21"/><rect x="351.0" y="168.0" width="6.4" height="6.4" rx="1.2" fill="#0d2b21"/><rect x="351.0" y="176.0" width="6.4" height="6.4" rx="1.2" fill="#0d2b21"/><rect x="351.0" y="184.0" width="6.4" height="6.4" rx="1.2" fill="#0d2b21"/><rect x="359.0" y="136.0" width="6.4" height="6.4" rx="1.2" fill="#0d2b21"/><rect x="359.0" y="144.0" width="6.4" height="6.4" rx="1.2" fill="#0f5c3f"/><rect x="359.0" y="152.0" width="6.4" height="6.4" rx="1.2" fill="#0d2b21"/><rect x="359.0" y="160.0" width="6.4" height="6.4" rx="1.2" fill="#0d2b21"/><rect x="359.0" y="168.0" width="6.4" height="6.4" rx="1.2" fill="#0d2b21"/><rect x="359.0" y="176.0" width="6.4" height="6.4" rx="1.2" fill="#0d2b21"/><rect x="359.0" y="184.0" width="6.4" height="6.4" rx="1.2" fill="#0d2b21"/><rect x="367.0" y="136.0" width="6.4" height="6.4" rx="1.2" fill="#0d2b21"/><rect x="367.0" y="144.0" width="6.4" height="6.4" rx="1.2" fill="#0f5c3f"/><rect x="367.0" y="152.0" width="6.4" height="6.4" rx="1.2" fill="#0d2b21"/><rect x="367.0" y="160.0" width="6.4" height="6.4" rx="1.2" fill="#0d2b21"/><rect x="367.0" y="168.0" width="6.4" height="6.4" rx="1.2" fill="#0f5c3f"/><rect x="367.0" y="176.0" width="6.4" height="6.4" rx="1.2" fill="#22c76e"/><rect x="367.0" y="184.0" width="6.4" height="6.4" rx="1.2" fill="#0d2b21"/><rect x="375.0" y="136.0" width="6.4" height="6.4" rx="1.2" fill="#0d2b21"/><rect x="375.0" y="144.0" width="6.4" height="6.4" rx="1.2" fill="#159a5c"/><rect x="375.0" y="152.0" width="6.4" height="6.4" rx="1.2" fill="#0d2b21"/><rect x="375.0" y="160.0" width="6.4" height="6.4" rx="1.2" fill="#0d2b21"/><rect x="375.0" y="168.0" width="6.4" height="6.4" rx="1.2" fill="#0d2b21"/><rect x="375.0" y="176.0" width="6.4" height="6.4" rx="1.2" fill="#0d2b21"/><rect x="375.0" y="184.0" width="6.4" height="6.4" rx="1.2" fill="#0d2b21"/><rect x="383.0" y="136.0" width="6.4" height="6.4" rx="1.2" fill="#0d2b21"/><rect x="383.0" y="144.0" width="6.4" height="6.4" rx="1.2" fill="#0d2b21"/><rect x="383.0" y="152.0" width="6.4" height="6.4" rx="1.2" fill="#0d2b21"/><rect x="383.0" y="160.0" width="6.4" height="6.4" rx="1.2" fill="#0d2b21"/><rect x="383.0" y="168.0" width="6.4" height="6.4" rx="1.2" fill="#0d2b21"/><rect x="383.0" y="176.0" width="6.4" height="6.4" rx="1.2" fill="#0d2b21"/><rect x="383.0" y="184.0" width="6.4" height="6.4" rx="1.2" fill="#0f5c3f"/><rect x="391.0" y="136.0" width="6.4" height="6.4" rx="1.2" fill="#0d2b21"/><rect x="391.0" y="144.0" width="6.4" height="6.4" rx="1.2" fill="#0d2b21"/><rect x="391.0" y="152.0" width="6.4" height="6.4" rx="1.2" fill="#0d2b21"/><rect x="391.0" y="160.0" width="6.4" height="6.4" rx="1.2" fill="#0d2b21"/><rect x="391.0" y="168.0" width="6.4" height="6.4" rx="1.2" fill="#0d2b21"/><rect x="391.0" y="176.0" width="6.4" height="6.4" rx="1.2" fill="#0f5c3f"/><rect x="391.0" y="184.0" width="6.4" height="6.4" rx="1.2" fill="#0d2b21"/><rect x="399.0" y="136.0" width="6.4" height="6.4" rx="1.2" fill="#0d2b21"/><rect x="399.0" y="144.0" width="6.4" height="6.4" rx="1.2" fill="#159a5c"/><rect x="399.0" y="152.0" width="6.4" height="6.4" rx="1.2" fill="#0d2b21"/><rect x="399.0" y="160.0" width="6.4" height="6.4" rx="1.2" fill="#159a5c"/><rect x="399.0" y="168.0" width="6.4" height="6.4" rx="1.2" fill="#5dffa8"/><rect x="399.0" y="176.0" width="6.4" height="6.4" rx="1.2" fill="#0f5c3f"/><rect x="399.0" y="184.0" width="6.4" height="6.4" rx="1.2" fill="#159a5c"/><rect x="407.0" y="136.0" width="6.4" height="6.4" rx="1.2" fill="#0f5c3f"/><rect x="407.0" y="144.0" width="6.4" height="6.4" rx="1.2" fill="#5dffa8"/><rect x="407.0" y="152.0" width="6.4" height="6.4" rx="1.2" fill="#0d2b21"/><rect x="407.0" y="160.0" width="6.4" height="6.4" rx="1.2" fill="#0d2b21"/><rect x="407.0" y="168.0" width="6.4" height="6.4" rx="1.2" fill="#0d2b21"/><rect x="407.0" y="176.0" width="6.4" height="6.4" rx="1.2" fill="#0d2b21"/><rect x="407.0" y="184.0" width="6.4" height="6.4" rx="1.2" fill="#159a5c"/><rect x="415.0" y="136.0" width="6.4" height="6.4" rx="1.2" fill="#0d2b21"/><rect x="415.0" y="144.0" width="6.4" height="6.4" rx="1.2" fill="#0f5c3f"/><rect x="415.0" y="152.0" width="6.4" height="6.4" rx="1.2" fill="#0f5c3f"/><rect x="415.0" y="160.0" width="6.4" height="6.4" rx="1.2" fill="#0d2b21"/><rect x="415.0" y="168.0" width="6.4" height="6.4" rx="1.2" fill="#0d2b21"/><rect x="415.0" y="176.0" width="6.4" height="6.4" rx="1.2" fill="#22c76e"/><rect x="415.0" y="184.0" width="6.4" height="6.4" rx="1.2" fill="#0d2b21"/><rect x="423.0" y="136.0" width="6.4" height="6.4" rx="1.2" fill="#0d2b21"/><rect x="423.0" y="144.0" width="6.4" height="6.4" rx="1.2" fill="#159a5c"/><rect x="423.0" y="152.0" width="6.4" height="6.4" rx="1.2" fill="#0f5c3f"/><rect x="423.0" y="160.0" width="6.4" height="6.4" rx="1.2" fill="#22c76e"/><rect x="423.0" y="168.0" width="6.4" height="6.4" rx="1.2" fill="#22c76e"/><rect x="423.0" y="176.0" width="6.4" height="6.4" rx="1.2" fill="#0d2b21"/><rect x="423.0" y="184.0" width="6.4" height="6.4" rx="1.2" fill="#0d2b21"/><rect x="431.0" y="136.0" width="6.4" height="6.4" rx="1.2" fill="#0d2b21"/><rect x="431.0" y="144.0" width="6.4" height="6.4" rx="1.2" fill="#0d2b21"/><rect x="431.0" y="152.0" width="6.4" height="6.4" rx="1.2" fill="#0d2b21"/><rect x="431.0" y="160.0" width="6.4" height="6.4" rx="1.2" fill="#22c76e"/><rect x="431.0" y="168.0" width="6.4" height="6.4" rx="1.2" fill="#159a5c"/><rect x="431.0" y="176.0" width="6.4" height="6.4" rx="1.2" fill="#0d2b21"/><rect x="431.0" y="184.0" width="6.4" height="6.4" rx="1.2" fill="#0d2b21"/><rect x="439.0" y="136.0" width="6.4" height="6.4" rx="1.2" fill="#0d2b21"/><rect x="439.0" y="144.0" width="6.4" height="6.4" rx="1.2" fill="#0d2b21"/><rect x="439.0" y="152.0" width="6.4" height="6.4" rx="1.2" fill="#0d2b21"/><rect x="439.0" y="160.0" width="6.4" height="6.4" rx="1.2" fill="#0d2b21"/><rect x="439.0" y="168.0" width="6.4" height="6.4" rx="1.2" fill="#22c76e"/><rect x="439.0" y="176.0" width="6.4" height="6.4" rx="1.2" fill="#0d2b21"/><rect x="439.0" y="184.0" width="6.4" height="6.4" rx="1.2" fill="#0d2b21"/><rect x="447.0" y="136.0" width="6.4" height="6.4" rx="1.2" fill="#0d2b21"/><rect x="447.0" y="144.0" width="6.4" height="6.4" rx="1.2" fill="#159a5c"/><rect x="447.0" y="152.0" width="6.4" height="6.4" rx="1.2" fill="#159a5c"/><rect x="447.0" y="160.0" width="6.4" height="6.4" rx="1.2" fill="#159a5c"/><rect x="447.0" y="168.0" width="6.4" height="6.4" rx="1.2" fill="#0f5c3f"/><rect x="447.0" y="176.0" width="6.4" height="6.4" rx="1.2" fill="#0f5c3f"/><rect x="447.0" y="184.0" width="6.4" height="6.4" rx="1.2" fill="#0d2b21"/><rect x="455.0" y="136.0" width="6.4" height="6.4" rx="1.2" fill="#0d2b21"/><rect x="455.0" y="144.0" width="6.4" height="6.4" rx="1.2" fill="#159a5c"/><rect x="455.0" y="152.0" width="6.4" height="6.4" rx="1.2" fill="#0f5c3f"/><rect x="455.0" y="160.0" width="6.4" height="6.4" rx="1.2" fill="#0f5c3f"/><rect x="455.0" y="168.0" width="6.4" height="6.4" rx="1.2" fill="#5dffa8"/><rect x="455.0" y="176.0" width="6.4" height="6.4" rx="1.2" fill="#0f5c3f"/><rect x="455.0" y="184.0" width="6.4" height="6.4" rx="1.2" fill="#0d2b21"/><rect x="463.0" y="136.0" width="6.4" height="6.4" rx="1.2" fill="#0d2b21"/><rect x="463.0" y="144.0" width="6.4" height="6.4" rx="1.2" fill="#0d2b21"/><rect x="463.0" y="152.0" width="6.4" height="6.4" rx="1.2" fill="#0d2b21"/><rect x="463.0" y="160.0" width="6.4" height="6.4" rx="1.2" fill="#0d2b21"/><rect x="463.0" y="168.0" width="6.4" height="6.4" rx="1.2" fill="#0d2b21"/><rect x="463.0" y="176.0" width="6.4" height="6.4" rx="1.2" fill="#0d2b21"/><rect x="463.0" y="184.0" width="6.4" height="6.4" rx="1.2" fill="#0d2b21"/><rect x="471.0" y="136.0" width="6.4" height="6.4" rx="1.2" fill="#0d2b21"/><rect x="471.0" y="144.0" width="6.4" height="6.4" rx="1.2" fill="#159a5c"/><rect x="471.0" y="152.0" width="6.4" height="6.4" rx="1.2" fill="#0d2b21"/><rect x="471.0" y="160.0" width="6.4" height="6.4" rx="1.2" fill="#159a5c"/><rect x="471.0" y="168.0" width="6.4" height="6.4" rx="1.2" fill="#0f5c3f"/><rect x="471.0" y="176.0" width="6.4" height="6.4" rx="1.2" fill="#22c76e"/><rect x="471.0" y="184.0" width="6.4" height="6.4" rx="1.2" fill="#159a5c"/><rect x="479.0" y="136.0" width="6.4" height="6.4" rx="1.2" fill="#0d2b21"/><rect x="479.0" y="144.0" width="6.4" height="6.4" rx="1.2" fill="#159a5c"/><rect x="479.0" y="152.0" width="6.4" height="6.4" rx="1.2" fill="#0d2b21"/><rect x="479.0" y="160.0" width="6.4" height="6.4" rx="1.2" fill="#0f5c3f"/><rect x="479.0" y="168.0" width="6.4" height="6.4" rx="1.2" fill="#22c76e"/><rect x="479.0" y="176.0" width="6.4" height="6.4" rx="1.2" fill="#22c76e"/><rect x="479.0" y="184.0" width="6.4" height="6.4" rx="1.2" fill="#159a5c"/><rect x="487.0" y="136.0" width="6.4" height="6.4" rx="1.2" fill="#159a5c"/><rect x="487.0" y="144.0" width="6.4" height="6.4" rx="1.2" fill="#0f5c3f"/><rect x="487.0" y="152.0" width="6.4" height="6.4" rx="1.2" fill="#5dffa8"/><rect x="487.0" y="160.0" width="6.4" height="6.4" rx="1.2" fill="#0f5c3f"/><rect x="487.0" y="168.0" width="6.4" height="6.4" rx="1.2" fill="#0f5c3f"/><rect x="487.0" y="176.0" width="6.4" height="6.4" rx="1.2" fill="#159a5c"/><rect x="487.0" y="184.0" width="6.4" height="6.4" rx="1.2" fill="#5dffa8"/><rect x="495.0" y="136.0" width="6.4" height="6.4" rx="1.2" fill="#0d2b21"/><rect x="495.0" y="144.0" width="6.4" height="6.4" rx="1.2" fill="#22c76e"/><rect x="495.0" y="152.0" width="6.4" height="6.4" rx="1.2" fill="#159a5c"/><rect x="495.0" y="160.0" width="6.4" height="6.4" rx="1.2" fill="#159a5c"/><rect x="495.0" y="168.0" width="6.4" height="6.4" rx="1.2" fill="#0d2b21"/><rect x="495.0" y="176.0" width="6.4" height="6.4" rx="1.2" fill="#0f5c3f"/><rect x="495.0" y="184.0" width="6.4" height="6.4" rx="1.2" fill="#0f5c3f"/><rect x="503.0" y="136.0" width="6.4" height="6.4" rx="1.2" fill="#22c76e"/><rect x="503.0" y="144.0" width="6.4" height="6.4" rx="1.2" fill="#5dffa8"/><rect x="503.0" y="152.0" width="6.4" height="6.4" rx="1.2" fill="#22c76e"/><rect x="503.0" y="160.0" width="6.4" height="6.4" rx="1.2" fill="#22c76e"/><rect x="503.0" y="168.0" width="6.4" height="6.4" rx="1.2" fill="#0d2b21"/><rect x="503.0" y="176.0" width="6.4" height="6.4" rx="1.2" fill="#159a5c"/><rect x="503.0" y="184.0" width="6.4" height="6.4" rx="1.2" fill="#0f5c3f"/><rect x="511.0" y="136.0" width="6.4" height="6.4" rx="1.2" fill="#0f5c3f"/><rect x="511.0" y="144.0" width="6.4" height="6.4" rx="1.2" fill="#0f5c3f"/><rect x="511.0" y="152.0" width="6.4" height="6.4" rx="1.2" fill="#0d2b21"/><rect x="511.0" y="160.0" width="6.4" height="6.4" rx="1.2" fill="#159a5c"/><rect x="511.0" y="168.0" width="6.4" height="6.4" rx="1.2" fill="#5dffa8"/><rect x="511.0" y="176.0" width="6.4" height="6.4" rx="1.2" fill="#0d2b21"/><rect x="511.0" y="184.0" width="6.4" height="6.4" rx="1.2" fill="#0d2b21"/><rect x="519.0" y="136.0" width="6.4" height="6.4" rx="1.2" fill="#0d2b21"/><rect x="519.0" y="144.0" width="6.4" height="6.4" rx="1.2" fill="#0d2b21"/><rect x="519.0" y="152.0" width="6.4" height="6.4" rx="1.2" fill="#0d2b21"/><rect x="519.0" y="160.0" width="6.4" height="6.4" rx="1.2" fill="#0d2b21"/><rect x="519.0" y="168.0" width="6.4" height="6.4" rx="1.2" fill="#22c76e"/><rect x="519.0" y="176.0" width="6.4" height="6.4" rx="1.2" fill="#0d2b21"/><rect x="519.0" y="184.0" width="6.4" height="6.4" rx="1.2" fill="#0f5c3f"/><rect x="527.0" y="136.0" width="6.4" height="6.4" rx="1.2" fill="#0d2b21"/><rect x="527.0" y="144.0" width="6.4" height="6.4" rx="1.2" fill="#0f5c3f"/><rect x="527.0" y="152.0" width="6.4" height="6.4" rx="1.2" fill="#0d2b21"/><rect x="527.0" y="160.0" width="6.4" height="6.4" rx="1.2" fill="#0d2b21"/><rect x="527.0" y="168.0" width="6.4" height="6.4" rx="1.2" fill="#0f5c3f"/><rect x="527.0" y="176.0" width="6.4" height="6.4" rx="1.2" fill="#0d2b21"/><rect x="527.0" y="184.0" width="6.4" height="6.4" rx="1.2" fill="#0d2b21"/><rect x="535.0" y="136.0" width="6.4" height="6.4" rx="1.2" fill="#0d2b21"/><rect x="535.0" y="144.0" width="6.4" height="6.4" rx="1.2" fill="#5dffa8"/><rect x="535.0" y="152.0" width="6.4" height="6.4" rx="1.2" fill="#0d2b21"/><rect x="535.0" y="160.0" width="6.4" height="6.4" rx="1.2" fill="#0d2b21"/><rect x="535.0" y="168.0" width="6.4" height="6.4" rx="1.2" fill="#159a5c"/><rect x="535.0" y="176.0" width="6.4" height="6.4" rx="1.2" fill="#0d2b21"/><rect x="535.0" y="184.0" width="6.4" height="6.4" rx="1.2" fill="#0f5c3f"/><rect x="543.0" y="136.0" width="6.4" height="6.4" rx="1.2" fill="#159a5c"/><rect x="543.0" y="144.0" width="6.4" height="6.4" rx="1.2" fill="#0d2b21"/><rect x="543.0" y="152.0" width="6.4" height="6.4" rx="1.2" fill="#5dffa8"/><rect x="543.0" y="160.0" width="6.4" height="6.4" rx="1.2" fill="#0d2b21"/><rect x="543.0" y="168.0" width="6.4" height="6.4" rx="1.2" fill="#0f5c3f"/><rect x="543.0" y="176.0" width="6.4" height="6.4" rx="1.2" fill="#159a5c"/><rect x="543.0" y="184.0" width="6.4" height="6.4" rx="1.2" fill="#159a5c"/><rect x="551.0" y="136.0" width="6.4" height="6.4" rx="1.2" fill="#5dffa8"/><rect x="551.0" y="144.0" width="6.4" height="6.4" rx="1.2" fill="#0d2b21"/><rect x="551.0" y="152.0" width="6.4" height="6.4" rx="1.2" fill="#0d2b21"/><rect x="551.0" y="160.0" width="6.4" height="6.4" rx="1.2" fill="#0d2b21"/><rect x="551.0" y="168.0" width="6.4" height="6.4" rx="1.2" fill="#159a5c"/><rect x="551.0" y="176.0" width="6.4" height="6.4" rx="1.2" fill="#0d2b21"/><rect x="551.0" y="184.0" width="6.4" height="6.4" rx="1.2" fill="#0d2b21"/><rect x="559.0" y="136.0" width="6.4" height="6.4" rx="1.2" fill="#159a5c"/><rect x="559.0" y="144.0" width="6.4" height="6.4" rx="1.2" fill="#0d2b21"/><rect x="559.0" y="152.0" width="6.4" height="6.4" rx="1.2" fill="#0d2b21"/><rect x="559.0" y="160.0" width="6.4" height="6.4" rx="1.2" fill="#22c76e"/><rect x="559.0" y="168.0" width="6.4" height="6.4" rx="1.2" fill="#22c76e"/><rect x="559.0" y="176.0" width="6.4" height="6.4" rx="1.2" fill="#22c76e"/><rect x="559.0" y="184.0" width="6.4" height="6.4" rx="1.2" fill="#5dffa8"/><rect x="567.0" y="136.0" width="6.4" height="6.4" rx="1.2" fill="#5dffa8"/><rect x="567.0" y="144.0" width="6.4" height="6.4" rx="1.2" fill="#5dffa8"/><rect x="567.0" y="152.0" width="6.4" height="6.4" rx="1.2" fill="#5dffa8"/><rect x="567.0" y="160.0" width="6.4" height="6.4" rx="1.2" fill="#5dffa8"/><rect x="567.0" y="168.0" width="6.4" height="6.4" rx="1.2" fill="#5dffa8"/><rect x="567.0" y="176.0" width="6.4" height="6.4" rx="1.2" fill="#5dffa8"/><rect x="567.0" y="184.0" width="6.4" height="6.4" rx="1.2" fill="#0d2b21"/><rect x="575.0" y="136.0" width="6.4" height="6.4" rx="1.2" fill="#0d2b21"/><rect x="575.0" y="144.0" width="6.4" height="6.4" rx="1.2" fill="#159a5c"/><rect x="575.0" y="152.0" width="6.4" height="6.4" rx="1.2" fill="#0f5c3f"/><rect x="575.0" y="160.0" width="6.4" height="6.4" rx="1.2" fill="#0f5c3f"/><rect x="575.0" y="168.0" width="6.4" height="6.4" rx="1.2" fill="#0f5c3f"/><rect x="575.0" y="176.0" width="6.4" height="6.4" rx="1.2" fill="#159a5c"/><rect x="575.0" y="184.0" width="6.4" height="6.4" rx="1.2" fill="#0d2b21"/><rect x="583.0" y="136.0" width="6.4" height="6.4" rx="1.2" fill="#0d2b21"/><rect x="583.0" y="144.0" width="6.4" height="6.4" rx="1.2" fill="#0d2b21"/><rect x="583.0" y="152.0" width="6.4" height="6.4" rx="1.2" fill="#0d2b21"/><rect x="583.0" y="160.0" width="6.4" height="6.4" rx="1.2" fill="#159a5c"/><rect x="583.0" y="168.0" width="6.4" height="6.4" rx="1.2" fill="#0f5c3f"/><rect x="583.0" y="176.0" width="6.4" height="6.4" rx="1.2" fill="#0d2b21"/><rect x="583.0" y="184.0" width="6.4" height="6.4" rx="1.2" fill="#0d2b21"/><rect x="591.0" y="136.0" width="6.4" height="6.4" rx="1.2" fill="#0d2b21"/><rect x="591.0" y="144.0" width="6.4" height="6.4" rx="1.2" fill="#0d2b21"/><rect x="591.0" y="152.0" width="6.4" height="6.4" rx="1.2" fill="#0f5c3f"/><rect x="591.0" y="160.0" width="6.4" height="6.4" rx="1.2" fill="#22c76e"/><rect x="591.0" y="168.0" width="6.4" height="6.4" rx="1.2" fill="#159a5c"/><rect x="591.0" y="176.0" width="6.4" height="6.4" rx="1.2" fill="#0f5c3f"/><rect x="591.0" y="184.0" width="6.4" height="6.4" rx="1.2" fill="#0f5c3f"/><rect x="599.0" y="136.0" width="6.4" height="6.4" rx="1.2" fill="#0d2b21"/><rect x="599.0" y="144.0" width="6.4" height="6.4" rx="1.2" fill="#22c76e"/><rect x="599.0" y="152.0" width="6.4" height="6.4" rx="1.2" fill="#22c76e"/><rect x="599.0" y="160.0" width="6.4" height="6.4" rx="1.2" fill="#159a5c"/><rect x="599.0" y="168.0" width="6.4" height="6.4" rx="1.2" fill="#0d2b21"/><rect x="599.0" y="176.0" width="6.4" height="6.4" rx="1.2" fill="#0d2b21"/><rect x="599.0" y="184.0" width="6.4" height="6.4" rx="1.2" fill="#0d2b21"/><rect x="607.0" y="136.0" width="6.4" height="6.4" rx="1.2" fill="#0d2b21"/><rect x="607.0" y="144.0" width="6.4" height="6.4" rx="1.2" fill="#0d2b21"/><rect x="607.0" y="152.0" width="6.4" height="6.4" rx="1.2" fill="#159a5c"/><rect x="607.0" y="160.0" width="6.4" height="6.4" rx="1.2" fill="#0d2b21"/><rect x="607.0" y="168.0" width="6.4" height="6.4" rx="1.2" fill="#0d2b21"/><rect x="607.0" y="176.0" width="6.4" height="6.4" rx="1.2" fill="#159a5c"/><rect x="607.0" y="184.0" width="6.4" height="6.4" rx="1.2" fill="#0d2b21"/><rect x="615.0" y="136.0" width="6.4" height="6.4" rx="1.2" fill="#0f5c3f"/><rect x="615.0" y="144.0" width="6.4" height="6.4" rx="1.2" fill="#0d2b21"/><rect x="615.0" y="152.0" width="6.4" height="6.4" rx="1.2" fill="#0d2b21"/><rect x="615.0" y="160.0" width="6.4" height="6.4" rx="1.2" fill="#0d2b21"/><rect x="615.0" y="168.0" width="6.4" height="6.4" rx="1.2" fill="#0d2b21"/><rect x="615.0" y="176.0" width="6.4" height="6.4" rx="1.2" fill="#0d2b21"/><rect x="615.0" y="184.0" width="6.4" height="6.4" rx="1.2" fill="#0d2b21"/><rect x="623.0" y="136.0" width="6.4" height="6.4" rx="1.2" fill="#0d2b21"/><rect x="623.0" y="144.0" width="6.4" height="6.4" rx="1.2" fill="#0d2b21"/><rect x="623.0" y="152.0" width="6.4" height="6.4" rx="1.2" fill="#0d2b21"/><rect x="623.0" y="160.0" width="6.4" height="6.4" rx="1.2" fill="#0d2b21"/><rect x="623.0" y="168.0" width="6.4" height="6.4" rx="1.2" fill="#0d2b21"/><rect x="623.0" y="176.0" width="6.4" height="6.4" rx="1.2" fill="#0d2b21"/><rect x="623.0" y="184.0" width="6.4" height="6.4" rx="1.2" fill="#0d2b21"/><rect x="631.0" y="136.0" width="6.4" height="6.4" rx="1.2" fill="#0d2b21"/><rect x="631.0" y="144.0" width="6.4" height="6.4" rx="1.2" fill="#0d2b21"/><rect x="631.0" y="152.0" width="6.4" height="6.4" rx="1.2" fill="#0d2b21"/><rect x="631.0" y="160.0" width="6.4" height="6.4" rx="1.2" fill="#0d2b21"/><rect x="631.0" y="168.0" width="6.4" height="6.4" rx="1.2" fill="#0d2b21"/><rect x="631.0" y="176.0" width="6.4" height="6.4" rx="1.2" fill="#0d2b21"/><rect x="631.0" y="184.0" width="6.4" height="6.4" rx="1.2" fill="#0d2b21"/><rect x="639.0" y="136.0" width="6.4" height="6.4" rx="1.2" fill="#0d2b21"/><rect x="639.0" y="144.0" width="6.4" height="6.4" rx="1.2" fill="#0d2b21"/><rect x="639.0" y="152.0" width="6.4" height="6.4" rx="1.2" fill="#0d2b21"/><rect x="639.0" y="160.0" width="6.4" height="6.4" rx="1.2" fill="#0d2b21"/><rect x="639.0" y="168.0" width="6.4" height="6.4" rx="1.2" fill="#0d2b21"/><rect x="639.0" y="176.0" width="6.4" height="6.4" rx="1.2" fill="#0d2b21"/><rect x="639.0" y="184.0" width="6.4" height="6.4" rx="1.2" fill="#0d2b21"/><rect x="647.0" y="136.0" width="6.4" height="6.4" rx="1.2" fill="#0d2b21"/><rect x="647.0" y="144.0" width="6.4" height="6.4" rx="1.2" fill="#0d2b21"/><rect x="647.0" y="152.0" width="6.4" height="6.4" rx="1.2" fill="#0d2b21"/><rect x="647.0" y="160.0" width="6.4" height="6.4" rx="1.2" fill="#0d2b21"/><rect x="647.0" y="168.0" width="6.4" height="6.4" rx="1.2" fill="#0d2b21"/><rect x="647.0" y="176.0" width="6.4" height="6.4" rx="1.2" fill="#0d2b21"/><rect x="647.0" y="184.0" width="6.4" height="6.4" rx="1.2" fill="#0d2b21"/><rect x="655.0" y="136.0" width="6.4" height="6.4" rx="1.2" fill="#0d2b21"/><rect x="655.0" y="144.0" width="6.4" height="6.4" rx="1.2" fill="#0d2b21"/><rect x="655.0" y="152.0" width="6.4" height="6.4" rx="1.2" fill="#0d2b21"/><rect x="655.0" y="160.0" width="6.4" height="6.4" rx="1.2" fill="#0d2b21"/><rect x="655.0" y="168.0" width="6.4" height="6.4" rx="1.2" fill="#0d2b21"/><rect x="655.0" y="176.0" width="6.4" height="6.4" rx="1.2" fill="#0d2b21"/><rect x="655.0" y="184.0" width="6.4" height="6.4" rx="1.2" fill="#0d2b21"/><rect x="663.0" y="136.0" width="6.4" height="6.4" rx="1.2" fill="#0f5c3f"/><rect x="663.0" y="144.0" width="6.4" height="6.4" rx="1.2" fill="#0d2b21"/><rect x="663.0" y="152.0" width="6.4" height="6.4" rx="1.2" fill="#0f5c3f"/><rect x="663.0" y="160.0" width="6.4" height="6.4" rx="1.2" fill="#159a5c"/><rect x="663.0" y="168.0" width="6.4" height="6.4" rx="1.2" fill="#0d2b21"/><rect x="663.0" y="176.0" width="6.4" height="6.4" rx="1.2" fill="#0f5c3f"/><rect x="663.0" y="184.0" width="6.4" height="6.4" rx="1.2" fill="#0d2b21"/><rect x="671.0" y="136.0" width="6.4" height="6.4" rx="1.2" fill="#159a5c"/><rect x="671.0" y="144.0" width="6.4" height="6.4" rx="1.2" fill="#159a5c"/><rect x="671.0" y="152.0" width="6.4" height="6.4" rx="1.2" fill="#0d2b21"/><rect x="671.0" y="160.0" width="6.4" height="6.4" rx="1.2" fill="#0d2b21"/><rect x="671.0" y="168.0" width="6.4" height="6.4" rx="1.2" fill="#0d2b21"/><rect x="671.0" y="176.0" width="6.4" height="6.4" rx="1.2" fill="#5dffa8"/><rect x="671.0" y="184.0" width="6.4" height="6.4" rx="1.2" fill="#0d2b21"/><rect x="679.0" y="136.0" width="6.4" height="6.4" rx="1.2" fill="#0d2b21"/><rect x="679.0" y="144.0" width="6.4" height="6.4" rx="1.2" fill="#0f5c3f"/><rect x="679.0" y="152.0" width="6.4" height="6.4" rx="1.2" fill="#0f5c3f"/><rect x="679.0" y="160.0" width="6.4" height="6.4" rx="1.2" fill="#22c76e"/><rect x="679.0" y="168.0" width="6.4" height="6.4" rx="1.2" fill="#0f5c3f"/><rect x="679.0" y="176.0" width="6.4" height="6.4" rx="1.2" fill="#0d2b21"/><rect x="679.0" y="184.0" width="6.4" height="6.4" rx="1.2" fill="#0d2b21"/><rect x="687.0" y="136.0" width="6.4" height="6.4" rx="1.2" fill="#0d2b21"/><rect x="687.0" y="144.0" width="6.4" height="6.4" rx="1.2" fill="#0f5c3f"/><rect x="687.0" y="152.0" width="6.4" height="6.4" rx="1.2" fill="#0d2b21"/><rect x="687.0" y="160.0" width="6.4" height="6.4" rx="1.2" fill="#0d2b21"/><rect x="687.0" y="168.0" width="6.4" height="6.4" rx="1.2" fill="#159a5c"/><rect x="687.0" y="176.0" width="6.4" height="6.4" rx="1.2" fill="#22c76e"/><rect x="687.0" y="184.0" width="6.4" height="6.4" rx="1.2" fill="#0d2b21"/><rect x="695.0" y="136.0" width="6.4" height="6.4" rx="1.2" fill="#0d2b21"/><rect x="695.0" y="144.0" width="6.4" height="6.4" rx="1.2" fill="#0f5c3f"/><rect x="695.0" y="152.0" width="6.4" height="6.4" rx="1.2" fill="#0d2b21"/><!--HEATMAP_END--><text x="272" y="212" class="panel-value" font-size="20"><!--CTOTAL_START-->715<!--CTOTAL_END--></text><text x="272" y="228" class="panel-dim" font-size="9.5">CONTRIBUTIONS · LAST 365D (PUBLIC)</text><text x="572" y="228" class="panel-dim" font-size="8.5">LESS</text><rect x="606" y="220" width="7" height="7" rx="1" fill="#0d2b21"/><rect x="617" y="220" width="7" height="7" rx="1" fill="#0f5c3f"/><rect x="628" y="220" width="7" height="7" rx="1" fill="#159a5c"/><rect x="639" y="220" width="7" height="7" rx="1" fill="#22c76e"/><rect x="650" y="220" width="7" height="7" rx="1" fill="#5dffa8"/><text x="665" y="228" class="panel-dim" font-size="8.5">MORE</text><rect x="742" y="96" width="238" height="210" rx="8" fill="#061b14" stroke="#1f5c47" stroke-width="1"/><path d="M742,106 V96 H752" fill="none" stroke="#5dffa8" stroke-width="1.6"/><path d="M970,96 H980 V106" fill="none" stroke="#5dffa8" stroke-width="1.6"/><path d="M980,296 V306 H970" fill="none" stroke="#5dffa8" stroke-width="1.6"/><path d="M752,306 H742 V296" fill="none" stroke="#5dffa8" stroke-width="1.6"/><text x="758" y="118" class="panel-title">LANGUAGE MIX</text><!--LANGMIX_START--><path d="M820.00,140.00 A52,52 0 0 1 871.90,188.73 L849.94,190.12 A30,30 0 0 0 820.00,162.00 Z" fill="#e34c26" opacity="0.92" stroke="#04100b" stroke-width="1"/><path d="M871.90,188.73 A52,52 0 0 1 839.14,240.35 L831.04,219.89 A30,30 0 0 0 849.94,190.12 Z" fill="#3572A5" opacity="0.92" stroke="#04100b" stroke-width="1"/><path d="M839.14,240.35 A52,52 0 0 1 789.44,234.07 L802.37,216.27 A30,30 0 0 0 831.04,219.89 Z" fill="#563d7c" opacity="0.92" stroke="#04100b" stroke-width="1"/><path d="M789.44,234.07 A52,52 0 0 1 768.10,188.73 L790.06,190.12 A30,30 0 0 0 802.37,216.27 Z" fill="#3178c6" opacity="0.92" stroke="#04100b" stroke-width="1"/><path d="M768.10,188.73 A52,52 0 0 1 794.95,146.43 L805.55,165.71 A30,30 0 0 0 790.06,190.12 Z" fill="#f1e05a" opacity="0.92" stroke="#04100b" stroke-width="1"/><path d="M794.95,146.43 A52,52 0 0 1 807.07,141.63 L812.54,162.94 A30,30 0 0 0 805.55,165.71 Z" fill="#4F5D95" opacity="0.92" stroke="#04100b" stroke-width="1"/><path d="M807.07,141.63 A52,52 0 0 1 820.00,140.00 L820.00,162.00 A30,30 0 0 0 812.54,162.94 Z" fill="#AA6746" opacity="0.92" stroke="#04100b" stroke-width="1"/><text x="820" y="190" text-anchor="middle" class="panel-value" font-size="17">26</text><text x="820" y="204" text-anchor="middle" class="panel-dim" font-size="8">REPOS</text><circle cx="892" cy="148.0" r="3.4" fill="#e34c26"/><text x="902" y="151.5" class="panel-text" font-size="10.5">HTML</text><text x="964" y="151.5" text-anchor="end" class="panel-dim" font-size="10">6</text><circle cx="892" cy="164.5" r="3.4" fill="#3572A5"/><text x="902" y="168.0" class="panel-text" font-size="10.5">Python</text><text x="964" y="168.0" text-anchor="end" class="panel-dim" font-size="10">5</text><circle cx="892" cy="181.0" r="3.4" fill="#563d7c"/><text x="902" y="184.5" class="panel-text" font-size="10.5">CSS</text><text x="964" y="184.5" text-anchor="end" class="panel-dim" font-size="10">4</text><circle cx="892" cy="197.5" r="3.4" fill="#3178c6"/><text x="902" y="201.0" class="panel-text" font-size="10.5">TypeScript</text><text x="964" y="201.0" text-anchor="end" class="panel-dim" font-size="10">4</text><circle cx="892" cy="214.0" r="3.4" fill="#f1e05a"/><text x="902" y="217.5" class="panel-text" font-size="10.5">JavaScript</text><text x="964" y="217.5" text-anchor="end" class="panel-dim" font-size="10">4</text><circle cx="892" cy="230.5" r="3.4" fill="#4F5D95"/><text x="902" y="234.0" class="panel-text" font-size="10.5">PHP</text><text x="964" y="234.0" text-anchor="end" class="panel-dim" font-size="10">1</text><circle cx="892" cy="247.0" r="3.4" fill="#AA6746"/><text x="902" y="250.5" class="panel-text" font-size="10.5">Solidity</text><text x="964" y="250.5" text-anchor="end" class="panel-dim" font-size="10">1</text><!--LANGMIX_END--><rect x="20" y="322" width="220" height="210" rx="8" fill="#061b14" stroke="#1f5c47" stroke-width="1"/><path d="M20,332 V322 H30" fill="none" stroke="#5dffa8" stroke-width="1.6"/><path d="M230,322 H240 V332" fill="none" stroke="#5dffa8" stroke-width="1.6"/><path d="M240,522 V532 H230" fill="none" stroke="#5dffa8" stroke-width="1.6"/><path d="M30,532 H20 V522" fill="none" stroke="#5dffa8" stroke-width="1.6"/><text x="36" y="344" class="panel-title">MONTHLY ACTIVITY</text><!--MONTHLY_START--><rect x="37.0" y="502.0" width="11.5" height="0.0" rx="1.5" fill="#22c76e" opacity="0.50"/><text x="42.2" y="515" text-anchor="middle" class="panel-dim" font-size="7.6">07</text><rect x="51.5" y="502.0" width="11.5" height="0.0" rx="1.5" fill="#22c76e" opacity="0.50"/><text x="56.7" y="515" text-anchor="middle" class="panel-dim" font-size="7.6">08</text><rect x="65.9" y="493.0" width="11.5" height="9.0" rx="1.5" fill="#22c76e" opacity="0.53"/><text x="71.1" y="515" text-anchor="middle" class="panel-dim" font-size="7.6">09</text><rect x="80.3" y="495.0" width="11.5" height="7.0" rx="1.5" fill="#22c76e" opacity="0.53"/><text x="85.5" y="515" text-anchor="middle" class="panel-dim" font-size="7.6">10</text><rect x="94.8" y="450.8" width="11.5" height="51.2" rx="1.5" fill="#22c76e" opacity="0.70"/><text x="100.0" y="515" text-anchor="middle" class="panel-dim" font-size="7.6">11</text><rect x="109.2" y="472.2" width="11.5" height="29.8" rx="1.5" fill="#22c76e" opacity="0.62"/><text x="114.5" y="515" text-anchor="middle" class="panel-dim" font-size="7.6">12</text><rect x="123.7" y="454.3" width="11.5" height="47.7" rx="1.5" fill="#22c76e" opacity="0.69"/><text x="128.9" y="515" text-anchor="middle" class="panel-dim" font-size="7.6">01</text><rect x="138.1" y="464.2" width="11.5" height="37.8" rx="1.5" fill="#22c76e" opacity="0.65"/><text x="143.3" y="515" text-anchor="middle" class="panel-dim" font-size="7.6">02</text><rect x="152.6" y="412.0" width="11.5" height="90.0" rx="1.5" fill="#22c76e" opacity="0.85"/><text x="157.8" y="515" text-anchor="middle" class="panel-dim" font-size="7.6">03</text><rect x="167.0" y="447.8" width="11.5" height="54.2" rx="1.5" fill="#22c76e" opacity="0.71"/><text x="172.2" y="515" text-anchor="middle" class="panel-dim" font-size="7.6">04</text><rect x="181.5" y="497.5" width="11.5" height="4.5" rx="1.5" fill="#22c76e" opacity="0.52"/><text x="186.7" y="515" text-anchor="middle" class="panel-dim" font-size="7.6">05</text><rect x="195.9" y="495.0" width="11.5" height="7.0" rx="1.5" fill="#22c76e" opacity="0.53"/><text x="201.1" y="515" text-anchor="middle" class="panel-dim" font-size="7.6">06</text><rect x="210.4" y="484.6" width="11.5" height="17.4" rx="1.5" fill="#22c76e" opacity="0.57"/><text x="215.6" y="515" text-anchor="middle" class="panel-dim" font-size="7.6">07</text><!--MONTHLY_END--><text x="36" y="524" class="panel-dim" font-size="9">MONTHLY CONTRIBUTIONS · LAST 12M</text><rect x="256" y="322" width="470" height="210" rx="8" fill="#061b14" stroke="#1f5c47" stroke-width="1"/><path d="M256,332 V322 H266" fill="none" stroke="#5dffa8" stroke-width="1.6"/><path d="M716,322 H726 V332" fill="none" stroke="#5dffa8" stroke-width="1.6"/><path d="M726,522 V532 H716" fill="none" stroke="#5dffa8" stroke-width="1.6"/><path d="M266,532 H256 V522" fill="none" stroke="#5dffa8" stroke-width="1.6"/><text x="272" y="344" class="panel-title">GLOBAL REACH</text><g transform="translate(272,362)"><path d="M248.8,87.6L248.1,89.7L246.6,89.5L245.9,88.5L247.3,88.7ZM260.6,79.0L258.5,79.6L257.0,83.1L254.5,84.8L251.7,84.6L252.3,83.7L251.7,83.4L251.6,81.3L252.0,80.3L252.9,80.6L254.8,78.8L257.0,79.1L258.1,78.0L258.6,79.4ZM225.9,74.7L226.6,76.2L226.1,77.0L225.5,76.5ZM242.6,77.7L240.9,76.7L240.7,75.9L241.6,75.8ZM228.4,111.1L228.4,112.5L227.1,112.5L227.2,114.6L228.0,115.5L220.7,115.3L222.0,111.7L221.6,110.4L221.0,108.1L223.6,108.0L224.4,109.4L227.0,108.9L227.3,111.3ZM173.7,118.6L176.8,120.7L176.2,122.1L178.0,122.2L179.0,120.9L179.3,121.8L176.7,124.5L176.3,127.2L177.4,129.1L176.9,130.2L173.9,130.8L173.8,132.5L172.1,132.5L173.0,134.0L172.2,134.0L171.8,136.0L170.6,136.9L171.7,138.7L169.7,140.7L169.4,142.3L170.0,143.1L167.8,142.7L166.7,140.3L168.3,135.6L167.7,133.9L169.1,127.2L168.7,124.9L170.9,118.8ZM169.9,145.7L169.9,143.4L171.1,145.1L171.9,145.8ZM224.0,69.2L223.7,70.7L222.5,71.3L219.3,70.5L221.5,70.3L221.4,69.6L222.7,68.8ZM307.0,133.5L306.8,132.4L304.7,132.3L305.3,134.3L306.1,134.8ZM310.3,122.8L308.5,118.7L305.7,116.3L303.4,111.0L302.1,115.5L298.9,113.7L299.6,111.8L296.7,111.3L297.1,111.9L295.8,112.1L295.2,113.9L294.2,114.0L293.5,113.0L291.4,114.7L289.7,116.8L285.2,118.7L285.5,121.4L284.8,121.3L286.4,125.3L286.0,127.2L286.9,127.8L296.2,125.1L298.1,125.9L299.0,127.7L300.4,125.9L299.8,128.0L300.5,127.1L302.0,130.0L304.0,130.8L304.8,130.0L305.8,131.0L308.0,129.7ZM244.0,75.3L245.1,76.6L244.1,78.1L243.6,77.1L242.7,77.7L242.5,77.1L241.7,75.7ZM224.0,72.3L225.5,72.6L225.2,73.8L224.9,74.6L224.4,74.3L223.2,72.7ZM271.8,90.1L271.6,90.9L270.5,89.0L270.5,89.9L269.7,90.3L269.3,87.9L269.1,86.9L271.7,88.1L270.9,89.0L271.6,89.0ZM216.3,66.4L217.3,67.5L216.9,68.3L216.3,67.9L214.9,66.8ZM213.4,94.8L214.7,96.9L211.5,97.3L211.5,97.8L210.3,98.1L209.9,96.8ZM231.3,73.6L231.0,75.1L227.8,75.5L227.6,73.2ZM215.5,96.9L215.0,100.3L214.3,100.0L213.8,97.3L215.0,96.4ZM176.5,117.2L174.2,116.9L173.7,118.6L172.6,119.0L171.4,118.3L170.4,119.0L169.2,115.3L169.6,113.0L169.3,111.2L171.9,110.4L172.2,111.8L175.0,113.0L175.2,114.6L176.4,114.6ZM177.6,103.0L179.8,102.9L180.7,101.6L181.7,103.5L180.0,105.2L181.1,104.9L182.1,105.4L181.9,105.9L183.3,104.7L185.0,105.4L185.0,106.3L188.0,106.1L190.8,107.5L191.3,108.9L188.7,112.4L188.5,115.6L187.3,118.4L182.5,120.7L182.4,123.0L180.4,125.6L181.3,124.4L180.8,124.1L179.8,126.6L176.8,124.2L179.2,122.0L178.9,120.2L178.0,118.6L176.6,118.5L176.9,115.9L176.4,114.6L175.2,114.6L175.0,113.0L172.2,111.8L171.9,110.4L168.6,111.2L168.7,110.2L167.6,110.6L166.5,109.0L167.2,107.5L169.0,107.0L169.1,103.2L170.7,102.9L171.9,103.8L173.2,102.9L172.3,101.6L173.5,102.0L175.2,101.0L175.5,103.2ZM229.2,115.6L231.8,118.6L228.8,121.0L227.8,120.7L226.3,121.8L225.9,118.4L226.5,118.4L226.5,116.0ZM231.0,61.4L232.8,62.0L233.9,64.4L233.1,64.6L233.3,65.7L232.6,66.6L231.3,66.3L228.2,66.3L227.9,65.5L228.1,63.8L229.5,63.6L230.1,61.9ZM169.3,3.2L171.3,3.7L170.0,5.1L172.2,3.8L173.0,4.3L173.3,6.1L174.4,6.1L174.3,7.3L169.8,11.2L172.3,10.6L169.3,14.8L168.6,14.3L168.8,15.4L167.7,15.8L168.6,15.9L168.1,17.1L166.2,16.7L166.9,18.0L164.6,18.0L166.1,19.6L163.6,19.5L166.2,20.6L165.0,21.3L165.7,21.9L165.2,22.9L163.9,23.1L163.6,24.8L161.6,24.3L161.5,25.2L163.8,25.9L163.8,27.0L162.2,28.1L161.1,26.6L161.3,27.3L160.0,26.7L159.4,27.7L158.6,27.0L157.4,27.5L157.3,26.5L157.3,27.4L156.6,27.2L157.3,25.6L158.4,25.3L157.8,23.4L159.6,24.8L160.4,24.6L161.0,22.9L160.2,24.3L159.3,23.6L160.0,22.4L159.7,21.3L159.2,22.6L158.9,21.9L157.9,22.4L158.4,20.5L161.6,19.8L159.9,19.8L160.4,19.6L158.6,16.8L158.6,15.3L160.3,15.4L162.4,17.7L160.8,15.1L164.7,13.0L163.5,12.6L164.7,10.7L162.0,13.8L160.9,14.1L161.3,13.3L159.4,14.3L158.6,13.5L160.6,11.8L157.6,13.7L156.9,12.7L159.6,11.3L156.6,12.3L156.6,11.1L157.9,10.2L156.1,10.8L156.5,9.8L155.3,9.6L157.6,7.7L159.5,8.2L158.5,7.1L159.6,6.1L163.0,8.8L161.1,6.3L161.3,5.2L162.1,5.5L162.0,4.4L163.5,4.9L162.6,3.8L164.2,3.8L165.2,5.6L164.5,3.3L166.2,3.2L167.3,4.7L167.2,2.9L168.4,3.8L168.3,2.9ZM155.2,11.9L157.1,15.7L157.3,14.7L157.8,14.9L158.1,17.8L159.1,17.7L159.5,18.8L157.9,20.8L157.6,19.8L157.1,22.3L156.3,21.0L156.7,22.4L156.1,21.9L156.0,22.5L154.7,21.7L155.2,21.2L153.7,19.8L155.5,18.5L153.1,18.8L152.8,18.0L153.6,17.2L152.7,17.4L152.1,15.8L153.4,16.1L153.7,15.6L152.3,15.1L152.6,13.6L153.9,14.2L152.9,13.1L154.3,12.0L153.7,11.0ZM147.9,18.7L148.4,20.1L149.0,19.5L150.3,21.1L150.6,23.3L149.2,22.3L147.0,21.7L147.9,20.6L147.4,19.8L146.9,20.4L146.6,18.7ZM152.4,21.3L153.3,21.7L153.1,22.9L151.9,23.5L151.5,22.6L151.1,20.5ZM143.8,20.9L144.1,21.9L142.8,22.1L141.7,21.6ZM143.4,22.6L144.0,22.7L143.2,23.4L143.6,24.3L142.3,24.9L141.7,23.2ZM140.2,24.8L139.9,26.8L139.0,27.8L138.5,26.5L137.7,28.6L137.1,29.0L136.9,28.1L135.8,28.7L135.9,27.5L138.0,25.0L139.6,24.3ZM153.6,26.1L154.1,27.4L155.5,26.7L156.0,27.2L155.5,27.3L156.8,27.7L155.5,28.0L157.0,29.9L157.2,29.4L158.9,30.1L160.2,29.0L162.5,29.5L163.0,30.4L162.4,31.0L163.1,31.3L162.5,32.1L160.8,32.0L160.5,31.3L159.9,32.2L157.4,32.3L157.3,31.5L156.6,32.1L155.4,31.9L154.4,27.6L153.0,27.8L152.0,26.6L152.7,25.6ZM144.8,28.4L145.7,29.4L145.9,28.4L146.5,28.7L145.6,31.2L144.5,30.9L141.8,32.5L141.0,31.8L143.0,30.4L141.4,30.9L141.2,30.0L140.3,30.8L138.9,30.4L140.5,29.4L139.2,29.5L140.6,28.8L139.5,28.7L140.7,28.1L140.2,27.4L142.0,28.0L143.1,29.7L144.3,29.8L143.5,27.5L144.5,26.3ZM151.5,27.3L151.3,31.0L149.9,31.0L149.6,30.1L150.6,29.3L148.4,29.8L148.8,28.8L149.4,29.1L148.9,27.3L150.1,28.7L149.5,27.1L150.7,27.3L150.9,26.7ZM154.1,31.0L153.5,31.9L152.3,31.1L153.3,29.5ZM137.6,33.2L139.0,32.9L140.3,34.7L138.1,36.3L137.0,38.8L135.4,39.6L134.9,38.4L133.7,37.8L135.0,34.0L134.4,32.6L136.5,32.2ZM154.4,33.1L156.1,33.7L155.0,36.2L153.7,36.2L153.8,37.7L153.1,37.7L152.8,34.2ZM150.0,33.6L151.8,33.8L151.0,35.8L152.3,36.6L152.2,38.1L151.1,38.1L150.5,39.0L148.3,36.2L148.7,35.5L149.2,36.3L150.0,35.9L150.2,35.2L149.1,34.6L149.7,34.7ZM158.5,39.7L159.6,39.7L158.9,37.8L160.0,37.7L159.1,36.3L160.0,36.1L159.2,35.4L160.9,34.1L161.7,34.1L162.3,35.4L162.1,37.9L162.8,36.8L163.6,38.0L164.1,36.2L165.7,36.8L165.3,38.3L166.3,37.8L165.8,39.3L166.6,38.2L167.0,39.2L167.2,38.4L167.8,38.6L168.2,39.3L167.3,40.1L168.6,39.7L168.1,41.4L169.0,40.0L170.0,40.7L169.0,41.6L170.2,41.1L170.7,41.6L169.5,42.5L171.1,43.1L169.4,43.7L171.1,44.4L171.0,45.1L171.4,44.7L171.3,45.4L172.2,45.1L172.9,45.9L172.4,46.2L173.4,46.4L173.0,47.1L174.0,46.7L174.5,47.4L173.7,47.8L173.6,49.0L173.1,48.6L173.1,50.0L171.9,48.8L172.5,47.9L171.6,48.4L170.9,47.4L170.3,47.7L170.7,48.5L169.8,48.1L170.2,48.6L172.5,51.8L172.1,53.3L169.7,51.8L171.4,54.4L168.2,52.7L166.9,50.5L164.1,50.9L164.4,49.2L165.6,50.2L165.3,49.5L166.8,49.2L166.2,48.1L167.6,46.4L166.9,44.6L166.0,43.3L164.8,44.0L165.4,42.9L163.3,40.5L163.4,41.6L161.7,41.4L162.1,42.1L157.1,40.7L156.7,39.6L158.2,39.7L156.5,38.8L156.9,35.4L157.8,34.1L159.5,33.9L158.5,36.2L159.5,39.1ZM163.0,34.2L164.5,34.6L165.2,35.9L163.0,36.2L162.1,34.4ZM140.9,36.5L142.0,35.7L142.9,36.3L142.7,37.1L143.7,35.7L145.1,38.5L144.8,35.3L145.9,35.2L147.2,39.6L149.4,41.4L149.4,42.2L148.6,41.9L148.1,42.7L148.9,43.1L148.2,43.8L145.8,42.7L144.1,44.0L141.9,44.4L141.4,43.1L139.6,42.7L139.2,41.5L142.7,41.1L138.4,39.8L140.4,38.8L138.1,38.4L138.6,36.4L140.8,34.8ZM166.0,72.5L161.1,75.2L161.6,72.3L162.9,72.6L162.2,71.7L159.8,71.2L159.6,69.8L158.5,69.0L157.5,68.8L156.4,69.8L153.1,68.5L135.5,68.8L134.3,67.0L132.5,66.7L133.0,65.0L132.3,66.1L132.0,63.9L131.4,64.5L130.9,64.1L131.4,62.2L131.0,62.6L131.0,61.4L129.9,60.9L127.9,57.3L126.4,58.1L125.3,56.3L124.1,56.4L124.1,42.3L127.8,44.0L127.3,43.2L128.3,42.2L128.4,43.0L131.3,41.3L129.1,43.9L130.0,42.7L130.5,43.1L131.8,42.1L132.4,40.6L133.8,42.8L134.5,41.4L134.7,42.8L136.1,42.0L140.6,43.7L141.2,44.5L140.5,45.5L143.7,45.2L145.4,47.8L145.0,45.5L146.4,44.2L144.5,44.7L146.1,43.6L147.2,45.1L149.1,45.7L150.9,45.0L151.7,45.8L150.9,44.6L151.7,44.3L152.1,45.1L152.6,44.7L152.7,47.4L153.0,46.2L152.9,45.1L154.2,44.1L153.9,43.4L153.5,43.8L154.1,42.6L152.2,41.3L152.3,39.3L153.4,37.8L155.4,41.3L154.5,42.2L156.1,42.6L155.6,42.9L156.2,44.7L156.8,43.0L157.5,43.6L158.0,46.5L159.6,43.8L159.2,41.9L161.0,42.2L161.8,43.1L161.9,44.0L161.1,44.4L161.9,46.2L161.0,47.5L160.5,47.8L159.6,46.8L160.3,48.0L158.4,47.6L158.9,48.2L158.0,49.4L155.5,48.5L158.3,49.8L156.2,51.9L154.0,51.2L155.9,52.7L154.3,53.7L153.2,57.9L153.6,58.9L154.4,58.4L154.6,60.5L156.0,60.1L159.3,62.6L161.2,62.6L162.1,66.7L163.4,66.7L162.9,63.0L164.9,61.1L163.6,58.4L164.4,57.3L163.8,55.7L164.3,53.4L166.1,54.0L166.7,53.5L168.1,55.3L169.3,55.4L169.2,56.7L168.6,56.7L169.4,57.6L168.9,58.3L170.0,58.3L169.6,59.3L171.5,58.7L172.5,56.4L174.9,62.6L177.0,63.1L175.1,64.5L176.5,63.5L177.9,64.4L178.0,65.7L175.4,67.5L171.2,67.6L169.2,69.6L168.4,69.3L169.0,70.0ZM151.7,42.3L153.0,43.8L152.2,44.4L150.7,43.6L151.2,42.0ZM159.6,49.5L162.5,51.7L162.0,52.2L160.4,51.3L159.4,52.6L159.0,51.8L158.1,52.0L159.0,48.7ZM178.2,66.3L177.3,68.2L177.7,67.7L178.3,68.7L179.4,68.5L179.8,70.7L179.0,70.9L179.0,69.9L178.0,70.8L178.6,70.1L175.8,70.0L177.2,66.8ZM132.9,67.2L135.3,69.1L133.5,68.4L132.1,67.2ZM170.8,72.4L170.4,70.6L169.5,70.3L168.5,72.3L166.0,72.5L171.2,68.7L172.6,68.9L171.1,69.7L172.3,70.2L172.5,71.4L174.7,72.3L171.9,73.8L171.5,73.0L173.2,72.2L172.2,72.2L172.4,71.7ZM230.6,101.1L232.0,101.4L233.0,102.9L231.5,105.8L232.7,109.4L231.2,110.1L232.1,112.8L228.7,111.3L227.3,111.3L227.0,108.9L224.4,109.4L223.6,108.0L221.0,107.9L223.4,106.6L225.3,101.2L227.4,101.7ZM227.7,97.4L230.6,101.1L227.4,101.7L225.6,101.0L225.0,102.1L223.7,102.4L222.6,101.3L222.9,99.7ZM225.0,102.1L223.3,106.7L220.9,107.4L220.3,106.7L221.1,105.5L222.4,105.3L221.7,102.9L223.4,103.2L223.8,102.1ZM219.3,70.2L219.7,71.4L217.8,71.7L217.0,71.5L217.7,70.3ZM209.8,97.7L211.6,98.3L211.5,101.0L208.5,101.5L208.5,100.6L207.8,100.2L208.1,97.9ZM170.8,119.0L168.7,124.9L169.1,127.2L167.7,133.9L168.3,135.6L166.7,140.3L167.8,142.7L170.0,143.1L168.5,143.5L168.2,144.7L167.5,144.1L168.2,143.5L167.1,144.0L168.1,143.3L166.5,143.3L166.3,142.8L167.4,143.0L167.3,142.3L166.8,142.7L165.8,141.5L166.6,141.6L166.1,138.8L166.9,138.9L166.1,138.5L166.3,137.6L165.4,137.6L166.5,136.4L166.6,137.4L167.3,135.7L167.5,133.0L166.5,132.7L166.7,129.6L168.1,126.0L168.7,116.0L169.6,115.8ZM169.9,143.4L169.9,145.7L167.8,145.4L168.8,145.4L168.7,144.4L168.9,145.1L169.6,145.2L168.8,143.5ZM223.0,99.5L222.4,100.5L223.4,103.2L219.6,102.9L218.7,101.3L219.4,100.0L220.8,99.8L222.5,97.0L222.1,96.0L223.2,98.0L222.1,98.2ZM291.3,64.3L292.7,64.8L293.9,68.0L295.8,69.0L296.0,70.0L298.1,69.4L298.4,70.0L297.4,72.4L296.1,72.7L295.8,74.7L295.4,74.3L294.3,75.6L293.4,75.4L290.2,77.7L290.3,76.0L287.7,77.5L288.6,79.0L290.8,78.9L288.6,80.9L290.3,83.2L289.1,83.1L290.3,83.8L289.2,84.3L290.4,84.6L288.9,87.8L286.9,89.5L285.0,89.3L282.9,91.3L282.7,90.4L281.1,90.4L279.8,89.2L277.5,89.8L277.5,90.7L275.8,89.3L274.9,88.4L275.6,86.2L274.0,84.9L269.4,86.4L263.0,83.5L263.2,81.3L260.3,79.1L260.0,76.8L264.0,75.1L263.7,72.6L265.4,72.4L265.7,70.5L267.3,70.6L267.5,69.4L268.7,68.7L270.4,70.1L270.7,72.3L273.5,73.2L274.2,74.5L279.6,75.5L282.4,74.7L284.0,73.7L284.0,72.5L285.1,72.7L287.5,71.1L289.0,71.0L288.2,69.8L286.3,69.6L287.0,68.0L288.6,67.8L289.6,65.7L289.2,65.0ZM168.2,96.8L166.9,98.5L167.7,99.8L170.6,100.4L171.0,103.5L170.7,102.9L169.1,103.2L169.0,106.9L168.3,105.7L167.1,105.8L166.0,104.4L163.3,103.2L164.5,101.8L164.3,98.8L164.7,99.3L165.9,97.2ZM160.4,97.4L161.1,98.2L160.9,99.2L160.3,98.5L159.0,97.4ZM161.5,89.3L166.4,91.2L164.7,91.5L161.5,89.6L159.6,90.2ZM222.6,67.0L225.1,68.2L223.7,69.0L222.1,69.2L221.1,68.1L220.9,67.5ZM219.4,62.9L220.2,63.8L221.9,63.6L222.7,66.6L220.9,67.6L222.0,69.0L221.5,70.3L219.7,70.4L218.0,70.1L218.4,68.8L217.3,68.4L217.0,66.8L217.8,64.1L219.4,64.2L218.7,63.4ZM219.4,62.9L218.4,62.0L219.1,60.4L218.5,60.6L219.3,60.1L220.0,59.5L220.2,61.0ZM167.9,92.7L168.0,91.5L169.3,92.0L169.9,92.6ZM218.7,79.3L218.0,81.7L219.5,85.1L219.2,87.2L220.8,89.1L215.4,92.1L210.1,87.9L207.8,86.4L207.8,85.4L212.5,82.9L211.9,80.7L214.1,79.6ZM165.7,104.3L163.3,107.4L162.5,106.6L162.8,105.6L162.1,105.6L162.7,103.7L163.4,103.4ZM234.9,83.5L234.9,86.1L233.7,84.8L236.6,90.1L229.8,90.1L229.0,90.1L229.0,83.4ZM231.0,57.4L230.5,59.8L229.2,59.2L228.6,59.4L228.1,57.8ZM207.8,86.4L207.8,87.3L205.7,87.3L205.7,89.1L204.6,90.5L202.4,90.9L204.1,87.2L204.9,86.2ZM240.5,96.2L238.6,95.1L236.3,95.2L236.5,94.1L237.7,92.8L238.4,94.7ZM212.1,73.9L215.3,75.2L213.7,76.1L213.4,77.8L211.9,79.4L209.7,80.0L208.9,79.0L208.5,77.1L209.3,75.5L207.7,75.2L207.5,74.1ZM237.5,95.1L239.1,95.3L240.0,96.4L239.7,97.3L241.1,98.6L243.6,99.2L241.7,101.2L237.6,102.0L236.0,101.5L234.1,99.3L236.3,95.2ZM231.6,43.4L232.2,51.8L233.0,53.4L230.8,56.1L227.8,57.0L226.8,56.0L226.9,54.8L226.9,52.5L229.2,50.1L229.3,49.2L228.3,48.1L228.2,45.2L226.3,43.4L226.9,43.0L227.4,43.9L229.0,44.2L230.8,41.5L231.7,42.2ZM215.1,67.1L218.4,68.8L217.0,71.4L217.5,71.2L218.0,73.6L217.1,74.2L215.7,73.8L214.9,74.8L212.3,74.2L212.5,71.3L210.2,69.3L212.4,69.2L212.1,68.2L213.2,68.5L214.4,66.9ZM221.7,102.9L222.3,105.5L220.6,105.7L220.4,106.6L218.8,104.6L219.3,103.6L220.4,103.6L220.4,102.8ZM211.3,58.6L210.6,59.7L212.1,59.9L210.9,61.4L211.9,61.7L213.3,64.9L214.4,65.4L213.4,67.1L209.7,67.8L211.7,66.1L210.8,66.3L209.9,66.0L210.6,64.7L211.5,64.5L211.3,62.7L210.2,63.0L210.4,61.6L209.6,62.3L210.0,60.7L209.4,60.7L210.1,58.6ZM242.6,75.2L242.6,75.9L239.6,75.4L238.6,73.8ZM180.6,101.7L179.8,102.9L179.0,102.6L179.2,100.6ZM213.2,97.2L214.0,100.4L211.5,101.1L211.5,97.3ZM194.3,0.3L197.0,1.9L193.0,3.4L197.4,2.5L197.8,3.9L199.5,4.9L198.6,6.7L194.4,7.9L194.6,8.4L197.4,8.2L197.9,9.5L198.7,8.1L199.8,7.8L199.8,9.9L198.6,13.3L200.8,9.8L202.2,10.8L203.5,8.9L206.0,10.4L204.1,13.4L202.7,14.1L202.8,15.3L201.0,15.3L200.5,16.2L201.3,19.1L199.9,20.9L199.5,23.8L200.1,23.2L200.9,23.8L200.3,24.6L201.6,25.1L201.7,26.1L199.0,26.7L200.9,29.2L200.9,30.6L199.2,30.8L200.0,30.9L200.1,31.9L200.6,31.1L201.1,32.2L200.2,33.1L199.4,32.1L199.1,32.7L200.3,34.6L199.1,35.1L197.1,33.8L197.6,34.5L196.0,34.7L196.5,35.1L195.8,35.4L198.0,34.8L199.3,35.8L199.2,37.5L197.7,35.6L196.4,36.3L197.6,35.9L197.4,37.0L199.4,38.3L199.7,40.7L199.1,40.0L198.5,40.8L197.7,39.3L196.1,38.5L197.0,39.4L195.3,39.8L194.9,40.8L196.4,40.8L195.9,41.7L197.1,41.0L199.2,41.6L196.5,44.0L193.7,45.1L192.8,44.4L191.4,47.7L189.4,49.0L189.7,47.9L189.1,47.8L189.1,48.8L187.9,49.1L188.2,49.5L187.3,49.9L187.9,50.7L187.0,51.0L187.6,51.8L186.1,53.2L186.6,54.4L186.0,56.1L185.5,56.0L185.9,56.9L184.6,56.5L185.0,55.9L184.1,56.0L184.3,55.2L183.0,55.9L182.6,55.3L180.7,51.7L181.6,50.4L181.0,49.6L180.3,50.9L180.0,49.4L181.0,48.7L179.6,49.0L180.9,47.0L179.4,48.2L180.1,47.0L179.2,46.1L181.3,46.0L179.3,45.9L179.7,44.8L180.9,44.6L179.5,44.7L179.7,44.1L180.9,44.1L181.5,43.1L181.4,41.6L178.8,40.3L181.2,40.9L181.0,39.7L179.7,39.4L180.5,38.4L179.5,38.6L179.3,37.0L179.1,38.8L178.1,38.7L178.7,35.9L177.7,33.1L177.1,33.1L177.7,32.2L176.3,29.3L173.2,27.6L170.9,28.0L171.0,28.6L170.1,28.3L169.3,27.5L170.2,26.8L168.3,25.6L171.3,25.0L171.3,24.2L169.0,24.3L167.3,21.7L171.6,19.2L172.7,15.9L171.0,16.0L170.9,14.7L172.5,12.4L173.4,12.9L173.5,11.5L174.4,11.9L175.1,8.5L177.5,10.9L175.8,8.1L178.8,6.5L179.4,9.7L179.7,6.7L181.1,8.6L181.9,8.5L181.1,6.4L181.6,5.9L185.0,9.1L185.2,5.9L184.5,4.6L187.1,4.6L184.1,4.0L184.1,3.0L186.1,1.9L187.1,2.8L187.7,1.5L189.1,3.3L188.8,1.3L189.4,0.6ZM184.9,7.8L183.4,5.0L184.9,5.9ZM179.9,41.7L180.3,42.6L179.2,42.5L178.6,42.3L178.7,41.2ZM206.1,96.4L207.5,96.4L207.9,97.1L208.4,99.0L207.5,99.7L207.3,99.2L206.2,98.0L204.9,98.6L203.7,97.4L204.6,96.2ZM229.9,75.4L229.8,76.2L228.3,76.2L228.4,76.8L227.6,76.4L227.5,77.7L228.5,78.6L227.6,78.8L227.9,79.6L227.1,79.3L226.8,78.3L227.9,78.3L226.1,77.3L226.5,76.1ZM156.9,92.9L156.8,94.2L157.5,94.3L156.3,95.6L155.0,94.6L156.1,94.0L155.7,92.9ZM177.1,100.8L176.6,101.7L177.6,103.0L175.5,103.0L175.3,101.1L174.4,100.5L175.3,98.9ZM160.7,94.7L158.2,96.0L157.5,95.4L156.8,95.1L157.7,94.2ZM223.7,71.2L225.5,72.3L223.2,72.4L224.1,73.8L221.8,72.1L223.0,72.1ZM227.2,69.4L227.7,69.8L226.6,71.4L224.3,71.7L223.4,70.8L223.7,70.0ZM281.1,108.0L284.4,108.6L285.5,109.7L280.5,108.9L279.8,108.5ZM297.6,104.7L298.7,106.4L300.4,105.2L302.4,105.9L302.4,110.0L301.1,109.5L300.9,108.4L297.9,106.2L297.2,106.8L296.7,106.0L297.9,105.6L296.1,105.1ZM292.2,103.6L289.3,104.0L289.5,105.1L291.3,104.8L290.0,105.4L290.9,107.0L290.2,107.3L289.7,106.5L289.3,106.1L288.9,107.8L288.4,106.2L289.3,103.7ZM286.9,101.5L288.5,103.7L287.8,103.6L286.6,106.5L284.0,106.3L283.0,106.1L282.2,103.3L285.6,103.4ZM274.3,101.0L278.7,104.0L279.4,105.9L280.2,106.1L280.1,107.9L278.1,106.9L273.6,101.3L273.5,100.8ZM208.7,62.6L208.1,63.3L209.4,63.7L209.3,65.6L207.1,66.4L206.7,65.7L207.7,65.1L207.0,65.3L207.6,64.6L206.9,64.4L206.9,63.5ZM235.9,82.5L235.5,84.4L234.9,83.6ZM263.0,83.1L264.4,84.3L263.9,85.3L268.1,87.0L268.9,87.1L269.2,85.9L269.6,86.8L271.4,86.7L271.2,86.1L274.2,85.0L274.6,86.6L273.4,86.9L272.0,90.1L271.6,88.9L270.9,89.0L271.7,88.1L269.1,86.9L269.2,90.2L268.8,89.8L268.1,91.2L264.0,94.3L263.5,98.5L261.9,99.0L259.6,93.8L259.5,90.3L258.9,89.9L257.8,90.9L256.9,89.9L257.8,89.4L256.3,88.8L258.2,88.5L257.2,86.6L258.7,86.0L260.9,82.9L260.0,81.0L262.6,80.4ZM241.6,79.1L242.5,80.2L242.0,81.5L243.5,83.2L243.9,84.5L243.4,84.4L241.5,85.1L237.9,82.8L239.4,79.6ZM241.6,77.1L242.4,77.7L243.6,77.1L244.3,78.7L246.0,79.5L249.1,78.2L251.9,79.5L251.5,82.2L252.3,83.8L251.7,84.6L253.3,86.6L252.4,87.2L252.1,88.0L249.5,87.5L249.1,86.6L247.2,86.8L244.9,84.3L243.9,84.5L242.0,81.5L242.5,80.2L241.2,78.5ZM203.4,48.0L204.0,47.8L204.7,49.9L201.7,52.2L198.9,51.6L199.6,50.5L198.1,50.1L199.1,49.7L199.3,49.2L197.8,49.1L198.4,48.1L199.1,48.5L198.8,47.7L199.9,49.5L200.5,48.2L201.8,48.8L201.7,48.2ZM221.9,71.1L221.1,73.2L224.9,76.9L224.0,76.4L224.1,77.6L223.2,78.5L223.2,76.8L220.3,74.8L219.1,73.1L218.0,73.6L217.6,71.8L220.9,70.6ZM238.0,82.9L236.6,83.4L237.3,84.1L236.1,85.1L235.3,85.0L235.5,84.0L235.8,82.5L237.8,82.0ZM304.2,73.3L305.1,73.1L305.4,73.9L303.8,75.1L302.1,74.6L302.4,75.3L301.8,75.6L301.6,74.7L302.6,74.0L302.8,72.2ZM302.5,75.7L303.0,77.3L302.0,80.6L299.7,80.7L299.0,81.9L298.8,81.0L297.9,81.1L296.0,81.3L299.1,80.3L299.8,78.9L300.7,79.0ZM296.2,81.8L296.3,83.5L295.6,83.1L295.2,82.0ZM239.7,101.8L239.2,102.5L239.5,105.3L238.1,107.2L234.7,104.9L234.8,103.9L235.4,103.1L234.7,101.6L235.5,100.8L237.3,102.0ZM264.0,75.0L259.9,77.2L257.1,77.2L258.6,76.6L259.5,76.1L257.6,75.5L258.4,74.5L259.7,74.8L260.2,74.1ZM279.3,97.7L277.9,95.7L280.6,95.1L281.2,94.9L281.2,96.4ZM295.8,74.7L293.9,77.0L294.3,78.1L292.5,78.6L292.3,77.1L291.9,76.7L293.4,75.4L294.3,75.6L295.4,74.3ZM293.3,78.6L294.4,77.9L295.2,79.9L293.6,81.1ZM268.5,68.7L267.5,69.4L267.3,70.6L265.7,70.5L265.4,72.4L263.7,72.6L264.0,75.0L260.2,74.1L259.7,74.8L258.3,74.5L256.6,76.3L255.4,75.8L254.3,73.6L252.4,73.8L250.3,72.0L248.6,72.5L248.6,75.7L247.5,74.8L246.4,75.3L245.0,73.0L246.9,72.2L246.8,70.8L243.9,71.0L242.7,69.2L243.3,67.5L244.1,67.9L245.4,66.1L247.0,66.4L247.7,67.3L251.8,67.2L252.2,66.5L251.2,65.9L252.5,64.8L252.0,63.7L256.9,62.2L258.0,62.3L258.2,63.5L259.8,63.7L259.7,64.3L261.8,63.3L263.8,67.1L265.9,66.9ZM277.8,89.8L281.1,94.1L281.2,95.0L279.9,95.1L279.0,92.6L277.0,93.0L276.6,91.0ZM263.8,98.1L265.0,99.7L264.3,100.5ZM207.9,99.5L208.5,101.5L206.1,100.1L206.4,99.5L207.1,98.9ZM230.1,61.9L229.5,63.6L227.9,63.4L226.7,62.4L226.7,61.3L229.0,61.1ZM230.5,59.8L230.7,61.8L227.9,61.1L226.6,61.5L227.0,59.7L228.2,60.4L229.1,59.2ZM229.2,83.3L229.0,91.4L228.4,91.8L223.4,89.1L222.3,89.7L220.8,89.1L219.7,88.2L219.4,86.6L219.1,84.4L220.5,82.1L225.3,84.3L226.9,82.3ZM211.9,80.7L212.5,82.9L209.0,84.8L207.8,86.2L204.9,86.2L207.0,84.6L207.4,82.6L209.5,80.2ZM231.1,72.1L230.1,69.5L231.6,69.8L232.3,71.2ZM244.6,112.1L245.2,114.0L243.1,120.3L241.1,120.5L241.0,117.7L241.3,114.6L243.0,114.1ZM215.9,92.0L215.5,94.5L211.6,95.2L209.8,97.7L208.2,97.9L207.3,96.5L206.0,96.6L205.5,94.9L209.8,94.4L209.1,88.0L210.2,88.0ZM277.2,90.4L274.8,92.4L276.2,96.8L275.6,97.9L275.0,93.7L274.5,93.2L273.6,94.3L272.8,94.1L272.6,92.1L271.5,90.6L273.4,86.9L274.6,86.6L274.9,85.6L275.7,86.9L274.9,88.8L275.7,88.6L276.0,90.0ZM287.0,68.0L286.3,69.9L288.2,69.8L289.0,71.0L287.5,71.1L285.1,72.7L284.0,72.5L284.0,73.7L283.0,74.5L279.6,75.5L274.2,74.5L273.5,73.2L270.7,72.3L270.7,70.7L269.2,69.6L269.0,68.4L271.6,67.0L274.8,68.1L275.8,65.7L277.8,66.5L278.6,67.7L280.7,67.5L281.9,68.5L285.5,67.6ZM210.2,88.0L209.1,88.0L209.8,94.4L206.0,94.3L205.6,94.9L203.3,93.8L202.8,94.2L202.5,90.6L205.0,90.5L205.7,87.3L207.8,87.3L207.8,86.4ZM235.4,111.6L235.6,115.2L235.1,113.5L234.0,112.8L234.1,110.2L235.0,110.4ZM151.8,87.4L151.5,90.1L152.7,92.3L155.4,92.5L156.2,90.7L158.4,90.5L157.7,92.6L155.7,92.9L156.1,94.0L155.3,94.0L155.0,95.0L153.6,93.9L151.5,94.1L146.9,91.9L146.4,89.7L144.3,87.1L141.8,83.6L140.6,83.1L144.1,89.1L143.7,89.5L140.6,86.1L141.2,85.6L139.2,82.6L140.7,82.5L143.1,83.5L146.0,83.2L148.0,85.2L149.2,84.7L150.6,87.0ZM287.6,101.6L286.5,101.5L285.1,103.5L283.0,103.6L282.6,103.0L283.6,103.4L283.9,102.5L286.2,101.5L287.1,99.9L288.6,100.9ZM277.8,100.3L279.2,103.4L277.1,102.0L276.6,100.1L277.2,100.7ZM234.0,121.8L233.0,118.7L234.1,117.1L234.1,114.9L232.4,113.8L235.0,113.4L235.6,115.2L235.9,113.7L235.1,111.6L238.8,110.9L239.1,113.6L235.2,116.9L235.7,119.8L234.0,120.9ZM228.0,115.5L229.2,115.6L228.2,116.1L226.5,116.0L225.9,122.9L223.7,123.0L220.7,115.3ZM222.7,89.4L223.0,93.5L221.9,95.6L219.3,96.2L216.7,95.5L215.5,96.9L214.7,96.7L213.4,94.8L215.7,94.3L215.9,92.0L220.8,89.1ZM221.9,95.6L222.5,97.0L220.5,100.1L219.7,99.9L218.5,101.4L216.7,101.0L215.0,100.3L215.9,95.7L219.3,96.2ZM160.7,94.7L160.4,97.4L159.0,97.2L157.8,96.1ZM217.8,64.5L216.3,64.9L215.4,66.3L216.9,66.9ZM232.8,42.0L231.6,43.4L231.7,42.2L230.0,41.8L229.0,44.2L227.4,43.9L226.7,43.0L225.9,44.6L224.8,44.2L223.9,45.3L222.4,48.2L222.2,51.1L220.8,52.4L221.4,55.0L220.6,58.1L220.0,57.1L218.4,59.1L216.9,58.6L217.3,57.3L216.6,57.3L217.7,56.1L216.5,57.2L216.4,55.4L218.1,55.2L216.5,55.3L216.4,54.3L217.5,54.3L216.5,54.2L217.0,53.6L218.4,53.2L217.5,53.2L218.0,52.7L218.7,53.0L218.7,52.0L220.4,51.7L219.3,51.7L221.3,49.6L221.3,48.2L222.1,47.9L221.6,47.4L223.0,46.5L222.4,46.4L222.7,45.9L223.1,46.3L222.6,45.5L224.4,44.4L223.7,44.2L225.4,42.1L225.7,42.7L226.1,41.7L225.9,42.9L226.3,41.8L227.1,41.9L226.8,41.2L227.6,40.9L228.0,41.7L228.9,39.7L229.6,40.1L229.1,41.4L230.7,39.6L231.1,41.2L231.5,40.0L232.8,40.9L231.4,41.4ZM269.0,86.0L268.4,87.1L264.0,85.5L264.9,84.2L267.6,86.0ZM322.8,127.7L324.6,129.8L326.1,129.9L324.3,132.9L323.1,131.2L323.8,129.4ZM322.7,132.8L323.5,132.7L322.7,135.0L321.5,135.4L320.5,137.4L319.6,137.3L318.5,136.9L318.8,136.1L321.4,134.2L322.3,132.3ZM246.8,93.7L246.1,92.1L248.0,91.4L248.6,88.1L251.1,89.9L249.8,92.1ZM164.3,98.8L164.0,99.7L163.3,98.6L162.6,99.6L162.0,99.3L160.9,99.2L160.9,98.2ZM169.0,106.9L167.2,107.5L166.5,109.0L167.6,110.6L168.7,110.2L168.6,111.2L169.8,112.2L169.1,115.9L165.8,114.1L164.6,112.0L162.0,108.1L162.2,106.6L163.3,107.4L165.7,104.3L167.1,105.8L168.9,105.9ZM309.3,107.0L309.4,107.7L308.4,108.2L307.0,107.8ZM304.4,106.7L308.6,110.7L306.7,110.6L305.6,109.4L304.1,109.0L303.1,109.4L303.9,109.9L302.4,110.0L302.4,105.9ZM289.8,92.4L290.7,93.3L290.2,95.3L291.5,95.5L291.5,96.1L289.2,94.8ZM292.9,98.4L293.3,99.7L292.6,100.7L291.3,99.4L290.4,99.9L290.6,99.2ZM260.6,79.2L262.4,80.4L260.0,81.0L260.9,82.8L260.4,83.7L258.7,86.0L257.2,86.6L258.2,88.5L256.1,88.8L255.2,87.6L252.2,87.9L253.3,86.5L251.7,84.6L255.1,84.6L255.5,83.6L257.0,83.1L257.4,81.5L258.2,81.5L258.5,79.7ZM225.6,63.3L228.1,63.6L228.5,67.3L227.7,68.8L225.0,67.9L222.6,67.0L222.2,63.8L224.5,62.9ZM208.1,75.3L209.3,75.5L208.6,78.6L207.6,79.2L207.3,77.8ZM176.5,117.2L176.6,118.5L178.0,118.6L178.2,119.8L179.0,119.8L178.4,121.8L176.2,122.1L176.8,120.7L173.7,118.6L174.2,116.9ZM231.1,72.1L232.0,72.3L231.3,73.6L229.4,73.7L227.7,73.5L226.4,72.0L226.1,71.5L227.3,70.0L230.1,69.5ZM225.7,71.5L227.6,72.9L227.8,74.1L226.9,74.8L225.4,73.8L225.2,71.8ZM245.9,37.6L245.9,38.6L247.0,38.7L247.0,40.0L247.8,40.4L249.7,40.3L248.4,38.2L248.9,35.2L248.0,34.8L247.0,35.2ZM248.5,11.7L249.6,11.9L250.2,10.5L249.3,10.2ZM247.6,13.3L248.9,13.9L249.6,13.2L247.8,12.0ZM244.3,14.3L242.7,15.2L243.4,16.0L244.1,15.7L245.9,13.7L244.9,12.7ZM241.9,14.2L242.6,14.6L243.5,13.4L244.0,13.9L243.2,13.0ZM253.2,12.6L253.3,13.6L254.6,12.2L254.1,11.6ZM250.7,14.0L251.8,14.7L252.6,13.3L251.0,13.1ZM254.5,27.2L251.9,27.8L248.6,30.7L248.7,32.3L247.2,34.0L247.6,34.9L249.3,34.9L252.0,30.3L256.3,27.8L256.8,26.6L256.3,25.9ZM274.9,15.7L273.3,15.9L272.1,18.1L273.3,19.6L276.2,20.2L276.5,17.1L275.6,16.1L275.0,17.1ZM276.6,20.9L276.2,23.0L279.5,21.8L279.7,20.3L278.5,19.5L278.0,20.3L278.4,18.7L277.5,18.5ZM304.7,68.9L303.5,63.3L303.1,67.6L303.1,71.7L303.4,71.0L304.0,71.3L303.4,70.0L303.7,68.6ZM271.2,15.3L272.5,16.2L274.7,15.4L275.1,13.4L274.3,12.1L273.4,11.3L272.1,12.5ZM299.9,30.5L301.2,31.9L301.6,31.2L303.7,31.1L303.2,29.3L303.9,30.9L304.7,30.2L305.1,29.7L304.1,28.9L302.7,28.2L302.2,29.5L301.0,28.0ZM306.1,30.9L307.8,31.6L308.6,30.7L307.9,30.5L305.9,29.6ZM326.3,40.1L328.4,39.6L328.2,38.8L327.0,38.7ZM301.6,34.7L303.8,35.2L303.9,34.5L303.0,33.6ZM333.5,48.2L331.0,46.6L330.5,46.7L330.8,48.0L330.0,45.7L324.5,41.8L321.0,41.4L321.3,43.4L320.5,43.8L319.4,42.1L315.9,42.3L314.9,44.3L315.0,42.4L313.6,39.9L309.7,40.1L307.4,38.4L307.8,37.4L306.3,37.1L305.0,38.4L306.1,37.2L304.6,37.4L305.7,36.8L302.3,35.9L302.4,36.5L301.2,37.1L301.9,37.4L301.7,38.8L300.6,38.6L300.5,39.5L299.3,38.5L297.8,38.9L297.1,37.9L296.2,40.2L294.0,36.9L295.0,37.6L294.9,35.4L292.0,34.0L290.7,35.9L288.5,35.4L288.1,34.4L285.4,34.4L285.1,36.4L284.7,33.6L284.1,34.1L283.0,33.4L282.6,34.0L283.3,34.1L279.7,36.1L284.6,31.0L285.1,30.0L284.4,28.9L285.0,29.7L285.2,28.7L283.5,26.6L280.5,27.2L281.2,26.0L279.1,25.5L280.3,24.7L279.0,23.7L277.1,25.9L277.5,27.4L275.8,27.2L276.2,29.1L275.6,27.9L274.3,28.8L272.2,28.3L272.0,28.8L272.7,28.8L268.3,30.6L268.5,31.2L267.5,31.9L268.6,33.9L267.6,34.7L268.0,35.4L267.5,34.7L268.2,33.7L264.2,34.4L264.3,36.7L266.1,38.4L265.8,41.5L265.7,40.0L265.2,40.5L265.8,38.3L262.9,36.9L262.2,37.4L262.7,37.9L261.3,37.9L263.2,39.8L261.1,39.2L260.5,36.1L260.7,37.5L259.5,38.9L260.3,40.6L259.9,43.1L262.3,43.6L262.3,45.6L263.1,45.9L262.0,45.5L261.6,43.5L260.7,43.7L260.5,45.6L258.8,48.0L256.9,47.2L258.5,47.3L259.8,44.4L258.7,38.9L259.3,36.3L258.5,35.8L257.1,35.8L255.4,39.6L255.5,42.5L257.0,43.5L256.6,44.6L253.8,42.5L251.8,41.9L251.0,44.6L250.6,43.4L246.9,44.7L247.3,43.5L246.4,44.6L244.1,45.3L242.6,47.1L241.6,46.1L242.8,45.4L242.3,44.4L240.6,44.0L241.1,48.4L239.9,47.6L238.4,49.0L238.4,50.6L236.6,49.7L236.9,51.7L235.4,50.8L235.2,48.5L233.4,46.6L237.7,48.3L239.3,47.1L239.2,45.7L235.9,43.1L234.2,43.3L233.5,41.7L231.2,43.6L232.2,45.7L231.6,47.0L232.2,51.8L233.2,52.9L230.8,56.1L232.3,56.8L231.0,57.1L230.7,60.6L231.1,61.5L232.8,62.0L233.9,64.4L233.0,64.8L233.3,65.7L234.6,65.5L235.8,67.5L238.6,68.3L238.4,69.9L237.4,70.4L238.1,70.7L236.4,72.4L240.4,74.2L243.3,75.8L244.0,75.3L242.8,73.0L244.4,71.4L242.8,69.4L243.3,67.5L244.1,67.9L245.4,66.1L247.0,66.4L247.7,67.3L251.8,67.2L252.2,66.5L251.2,65.9L252.5,64.8L252.0,63.7L256.9,62.2L258.0,62.3L258.2,63.5L259.8,63.7L259.7,64.3L261.8,63.3L263.8,67.1L265.9,66.9L268.5,68.7L271.6,67.0L274.8,68.1L275.8,65.7L277.8,66.5L278.6,67.7L280.7,67.5L281.9,68.5L285.5,67.6L287.8,68.3L289.5,65.9L289.2,65.0L291.4,64.2L292.7,64.8L293.9,68.0L295.8,69.0L296.0,70.0L298.4,69.5L297.4,72.4L296.0,72.7L295.8,74.8L296.7,74.0L297.4,74.5L301.8,69.4L302.7,65.7L301.6,63.5L300.0,64.2L300.3,63.4L299.7,64.0L299.7,63.1L298.7,62.8L303.2,57.8L307.3,57.7L307.8,57.1L309.4,57.7L308.9,58.2L311.3,57.8L310.8,57.0L312.8,54.4L314.6,54.3L314.5,56.0L316.3,54.7L316.5,53.4L317.8,53.5L317.1,53.8L316.7,55.6L311.9,60.8L312.3,66.9L313.4,64.8L314.4,64.7L314.4,63.5L315.7,62.9L316.0,61.1L316.5,61.3L316.4,59.5L315.6,59.1L316.8,56.7L318.4,56.2L318.4,57.0L320.2,56.0L320.9,56.8L325.2,53.1L326.5,53.7L325.9,50.9L324.5,50.1L323.6,50.4L326.7,50.2L328.0,47.8L328.0,49.2L329.5,49.2L331.4,51.0L331.6,48.9L332.7,49.2ZM242.7,85.1L243.9,85.5L246.5,89.5L248.4,90.1L248.0,91.4L244.3,92.4L243.1,93.5L241.8,93.2L240.7,93.1L240.3,93.8L235.1,85.8L235.3,85.0L237.3,84.1L236.6,83.4L238.0,82.9ZM233.1,90.0L236.6,90.1L237.7,92.8L236.7,93.4L234.8,98.3L234.2,96.5L233.0,98.1L230.1,98.3L229.6,97.7L228.2,98.8L227.1,96.2L228.4,94.3L229.0,90.1ZM228.5,48.7L227.4,48.6L226.4,51.6L224.3,53.5L224.2,55.9L225.2,57.1L223.4,57.4L225.0,57.6L223.5,58.5L223.7,60.3L222.9,61.4L221.4,62.2L220.3,58.0L221.4,55.0L220.8,52.4L222.2,51.1L222.4,48.2L223.9,45.3L224.8,44.2L225.9,44.6L226.3,43.4L228.2,45.2ZM226.9,21.1L229.0,23.6L227.5,24.9L227.6,24.2L226.5,24.5L226.9,23.1L226.0,21.4ZM223.9,16.6L224.5,17.0L224.4,18.4L224.9,17.7L226.8,20.6L225.7,21.0L223.8,27.0L222.1,24.4L223.9,23.2L222.2,23.6L221.9,22.8L224.0,21.8L223.8,21.0L223.0,21.4L222.5,20.7L221.6,22.2L220.0,17.1L221.9,16.8L221.2,17.8L222.1,18.6L222.5,17.0L223.6,19.8L223.3,17.3L223.5,16.1ZM226.5,15.3L227.3,16.1L227.8,14.5L227.9,15.6L228.6,14.9L230.3,15.8L229.5,18.4L227.7,19.0L227.7,18.4L225.8,17.9L226.4,17.2L224.8,16.8L224.6,15.7L225.5,15.8L225.7,14.5ZM227.5,68.7L224.7,70.0L223.9,69.4L224.5,68.9L225.5,68.2ZM206.8,98.9L206.0,99.9L204.9,98.6L206.1,98.0ZM205.5,94.9L206.1,96.4L202.7,96.4L203.8,95.7L202.2,94.9L203.0,93.7L204.2,93.7ZM239.5,105.3L239.2,102.5L243.6,99.2L241.1,98.6L240.2,97.6L240.6,97.0L241.2,97.7L245.4,96.7L245.7,97.7L243.6,101.4ZM179.0,100.9L178.9,102.7L177.3,102.7L176.6,101.7L177.2,100.5ZM234.7,98.1L234.1,99.3L235.6,100.8L234.4,101.9L231.1,101.5L229.7,99.9L228.5,98.9L229.1,97.8L232.9,98.1L234.2,96.5ZM240.0,79.1L239.1,81.2L236.5,82.8L235.9,82.5L236.2,81.6L236.4,79.4ZM228.4,91.8L228.4,94.3L227.1,96.2L227.7,97.4L225.1,99.1L223.0,99.5L222.1,98.2L223.2,98.0L221.8,95.1L223.0,93.5L222.7,89.4L223.4,89.1ZM213.8,97.3L214.4,100.3L213.6,99.6L213.2,97.2ZM276.5,91.2L277.2,91.7L277.1,93.1L279.0,92.6L280.0,94.3L279.7,95.2L277.9,95.7L278.3,96.9L276.5,95.8L275.9,98.1L276.6,98.9L277.8,100.3L277.2,100.7L275.4,99.0L276.2,96.8L274.8,92.4ZM258.1,76.6L257.1,77.2L259.8,77.2L260.7,78.9L258.6,79.5L258.4,78.5L258.0,78.1L256.2,79.2L255.8,77.4L257.1,76.1ZM255.3,78.9L252.6,80.6L249.4,78.2L247.3,78.9L246.6,76.5L247.6,76.1L247.2,75.0L246.7,75.8L246.8,75.0L249.3,75.7L250.3,74.5ZM220.5,82.1L219.3,84.3L218.0,81.7L218.5,79.8L219.0,79.1L220.2,79.1L219.6,81.5ZM231.0,75.1L231.6,76.0L229.8,76.7L229.9,76.0L230.1,75.2ZM239.5,75.5L240.3,75.5L241.6,77.1L241.6,79.1L234.6,79.8L230.6,79.4L231.1,79.2L229.9,78.2L230.4,78.1L229.8,77.2L230.2,76.5L234.4,75.1L237.5,76.0ZM289.7,89.7L289.2,89.3L289.6,88.2L290.3,88.1ZM232.7,104.9L234.7,104.9L238.0,107.2L238.8,110.9L235.2,111.4L235.0,110.4L232.9,109.7L231.9,108.2ZM237.4,70.6L235.5,71.2L236.3,72.5L234.6,73.0L233.8,72.2L234.5,71.5L233.4,71.4L233.3,70.5L231.4,72.3L231.6,71.2L232.3,71.2L231.7,69.8L227.3,69.4L228.5,67.3L228.2,66.2L232.6,66.6L232.8,65.8L234.6,65.5L235.8,67.5L238.6,68.3L238.4,69.9ZM234.7,104.9L232.0,105.1L232.7,102.4L235.0,102.0ZM124.1,42.3L124.1,56.4L125.3,56.3L126.4,58.1L127.8,57.2L129.9,60.9L131.0,61.4L130.9,62.6L130.4,61.4L129.7,62.0L130.1,61.3L127.7,57.5L127.9,58.9L127.2,58.0L126.7,58.0L126.9,58.9L124.9,57.4L125.1,56.8L122.1,56.8L119.9,55.2L119.4,56.8L117.3,57.8L117.6,55.9L119.0,55.7L118.4,55.3L118.9,54.8L116.5,56.4L115.8,57.8L116.3,58.3L113.7,60.8L110.0,62.8L113.7,59.8L114.1,57.9L112.9,58.1L112.8,58.7L111.9,58.0L110.8,58.5L110.9,55.9L109.8,57.0L108.7,56.1L110.0,55.8L108.6,55.4L108.3,54.4L109.3,52.5L111.4,52.0L111.6,50.3L108.2,50.5L108.2,49.5L107.0,48.9L109.3,47.5L109.8,48.3L111.5,48.1L110.6,46.9L112.0,47.6L107.8,44.6L108.2,43.6L109.7,43.4L110.9,41.0L112.0,40.5L112.2,41.1L112.3,40.2L114.3,38.9L114.7,40.1L115.3,39.6L117.0,40.0L117.2,40.8L122.7,41.4ZM154.2,69.2L156.6,69.8L155.1,71.0L157.2,70.5L160.2,71.6L158.3,71.7L157.7,72.6L158.0,75.4L159.5,71.8L160.6,72.4L160.2,73.6L161.0,73.5L160.5,75.3L161.1,75.6L163.3,74.0L165.1,73.8L165.9,72.5L168.0,72.5L169.5,70.3L170.2,70.5L170.9,72.7L168.8,73.7L168.3,74.8L169.0,75.4L166.5,75.8L165.3,79.1L165.3,77.2L165.0,78.3L164.6,77.7L165.0,79.0L165.5,80.1L165.2,79.5L164.7,79.8L165.4,80.1L164.6,80.4L164.9,80.9L161.8,83.6L162.7,86.8L162.0,87.9L160.1,84.4L156.2,84.2L156.8,85.2L153.2,84.7L151.5,86.3L151.7,87.4L150.6,87.0L149.2,84.7L148.0,85.2L146.0,83.2L143.1,83.5L139.2,82.6L137.0,81.1L135.8,78.8L136.4,78.4L135.5,78.4L134.7,76.6L135.4,71.5L134.4,69.4L135.6,69.6L135.7,70.6L135.6,68.8L153.1,68.5ZM179.5,126.8L178.6,127.7L176.7,127.3L176.8,124.2L179.3,125.6ZM258.1,74.9L257.6,75.5L259.5,76.1L258.6,76.7L257.1,76.2L255.9,77.2L256.1,79.1L252.7,76.5L250.3,74.5L248.6,75.7L248.6,72.5L250.2,72.0L252.4,73.8L254.3,73.6L255.4,75.8L256.5,76.3ZM175.3,98.9L174.4,100.5L174.9,101.2L173.5,102.0L172.3,101.6L173.2,102.9L171.9,103.8L170.4,102.5L170.6,100.4L168.5,99.8L167.7,99.8L166.9,98.5L168.2,96.8L167.7,98.1L168.2,98.5L168.1,97.3L169.0,96.6L170.2,97.6L174.1,97.5L173.5,97.6L174.8,98.4L174.3,98.8ZM281.5,90.4L280.0,92.1L282.0,94.5L282.3,96.9L279.7,98.8L279.3,97.7L281.2,96.4L281.1,94.1L277.8,89.8L279.8,89.2ZM246.8,93.7L241.1,96.3L240.2,94.6L240.6,93.6L243.1,93.5L244.3,92.4L246.1,92.1ZM233.0,118.7L233.5,121.2L232.7,121.7L234.0,121.8L233.8,122.7L230.4,126.6L225.7,127.6L224.9,127.2L224.2,124.4L223.7,123.0L225.9,122.9L225.9,120.3L226.9,121.8L227.8,120.7L229.3,121.0L231.7,118.6ZM234.1,110.2L234.2,113.2L230.2,115.8L227.3,114.8L227.1,112.5L228.4,112.5L228.4,111.9L228.4,111.1L230.4,111.6L232.0,112.8L232.1,112.0L231.2,111.5L231.5,109.6ZM233.0,118.7L231.0,118.1L229.8,116.8L229.2,115.6L230.9,115.0L232.0,114.2L234.1,114.9L234.1,117.1Z" fill="#0d2b21" fill-opacity="0.55" stroke="#2a7a5e" stroke-width="0.6" stroke-linejoin="round"/><path d="M259.3,92.0 Q197.6,56.5 135.8,78.5" fill="none" stroke="#5dffa8" stroke-width="0.7" opacity="0.28"/><circle cx="135.8" cy="78.5" r="2.2" fill="#22c76e"/><path d="M259.3,92.0 Q212.9,54.1 166.4,76.1" fill="none" stroke="#5dffa8" stroke-width="0.7" opacity="0.28"/><circle cx="166.4" cy="76.1" r="2.2" fill="#22c76e"/><path d="M259.3,92.0 Q236.2,44.2 213.2,66.2" fill="none" stroke="#5dffa8" stroke-width="0.7" opacity="0.28"/><circle cx="213.2" cy="66.2" r="2.2" fill="#22c76e"/><path d="M259.3,92.0 Q253.8,65.8 248.2,87.8" fill="none" stroke="#5dffa8" stroke-width="0.7" opacity="0.28"/><circle cx="248.2" cy="87.8" r="2.2" fill="#22c76e"/><path d="M259.3,92.0 Q269.1,70.0 278.9,103.4" fill="none" stroke="#5dffa8" stroke-width="0.7" opacity="0.28"/><circle cx="278.9" cy="103.4" r="2.2" fill="#22c76e"/><path d="M259.3,92.0 Q284.1,70.0 308.9,127.0" fill="none" stroke="#5dffa8" stroke-width="0.7" opacity="0.28"/><circle cx="308.9" cy="127.0" r="2.2" fill="#22c76e"/><circle cx="259.3" cy="92.0" r="4" fill="none" stroke="#5dffa8" stroke-width="1.4" opacity="0"><animate attributeName="r" values="4;40" dur="3.9s" repeatCount="indefinite"/><animate attributeName="opacity" values="0.8;0" dur="3.9s" repeatCount="indefinite"/></circle><circle cx="259.3" cy="92.0" r="3.4" fill="#5dffa8"/><text x="266.3" y="95.0" fill="#5dffa8" font-size="7.5" letter-spacing="1">HQ</text></g><text x="272" y="520" class="panel-dim" font-size="9">HQ: MUMBAI, IN · NETWORK NODES ILLUSTRATIVE</text><rect x="742" y="322" width="238" height="210" rx="8" fill="#061b14" stroke="#1f5c47" stroke-width="1"/><path d="M742,332 V322 H752" fill="none" stroke="#5dffa8" stroke-width="1.6"/><path d="M970,322 H980 V332" fill="none" stroke="#5dffa8" stroke-width="1.6"/><path d="M980,522 V532 H970" fill="none" stroke="#5dffa8" stroke-width="1.6"/><path d="M752,532 H742 V522" fill="none" stroke="#5dffa8" stroke-width="1.6"/><text x="758" y="344" class="panel-title">LATEST COMMIT</text><rect x="756" y="356" width="210" height="140" rx="6" fill="#04100b" stroke="#1f5c47" stroke-width="1"/><text x="768" y="378" class="panel-dim" font-size="9.5">REPO</text><text x="768" y="394" class="panel-text" font-size="12" font-weight="700"><!--REPO_START-->Meraki<!--REPO_END--></text><text x="768" y="418" class="panel-dim" font-size="9.5">MESSAGE</text><text x="768" y="434" class="panel-text" font-size="11"><!--MSG_START-->HTML of Website Added<!--MSG_END--></text><text x="768" y="508" class="panel-dim" font-size="9.5"><!--TIME_START-->2026-07-13 13:30<!--TIME_END--></text><text x="964" y="508" text-anchor="end" font-size="8.5" fill="#5dffa8" letter-spacing="1">● AUTO-SYNCED</text><rect x="20" y="548" width="960" height="190" rx="8" fill="#061b14" stroke="#1f5c47" stroke-width="1"/><path d="M20,558 V548 H30" fill="none" stroke="#5dffa8" stroke-width="1.6"/><path d="M970,548 H980 V558" fill="none" stroke="#5dffa8" stroke-width="1.6"/><path d="M980,728 V738 H970" fill="none" stroke="#5dffa8" stroke-width="1.6"/><path d="M30,738 H20 V728" fill="none" stroke="#5dffa8" stroke-width="1.6"/><text x="36" y="570" class="panel-title">REPOSITORY ROSTER · MOST RECENTLY UPDATED</text><text x="964" y="570" text-anchor="end" class="panel-dim" font-size="9"><!--RMORE_START-->+19 MORE NOT SHOWN<!--RMORE_END--></text><text x="36" y="590" text-anchor="start" class="panel-dim" font-size="9" letter-spacing="0.6">REPOSITORY</text><text x="320" y="590" text-anchor="start" class="panel-dim" font-size="9" letter-spacing="0.6">LANGUAGE</text><text x="538" y="590" text-anchor="end" class="panel-dim" font-size="9" letter-spacing="0.6">STARS</text><text x="628" y="590" text-anchor="end" class="panel-dim" font-size="9" letter-spacing="0.6">FORKS</text><text x="962" y="590" text-anchor="end" class="panel-dim" font-size="9" letter-spacing="0.6">UPDATED</text><line x1="36" y1="598" x2="964" y2="598" stroke="#1f5c47" stroke-width="1" opacity="0.6"/><!--ROSTER_START--><text x="36" y="618" class="panel-text" font-size="10.5">CH24</text><circle cx="314" cy="614.5" r="3" fill="#e34c26"/><text x="324" y="618" class="panel-text" font-size="10">HTML</text><text x="538" y="618" text-anchor="end" class="panel-text" font-size="10">0</text><text x="628" y="618" text-anchor="end" class="panel-text" font-size="10">0</text><text x="962" y="618" text-anchor="end" class="panel-dim" font-size="9.5">2026-07-20</text><text x="36" y="640" class="panel-text" font-size="10.5">rbrth_new</text><circle cx="314" cy="636.5" r="3" fill="#e34c26"/><text x="324" y="640" class="panel-text" font-size="10">HTML</text><text x="538" y="640" text-anchor="end" class="panel-text" font-size="10">1</text><text x="628" y="640" text-anchor="end" class="panel-text" font-size="10">0</text><text x="962" y="640" text-anchor="end" class="panel-dim" font-size="9.5">2026-06-14</text><text x="36" y="662" class="panel-text" font-size="10.5">ktsportfolio</text><circle cx="314" cy="658.5" r="3" fill="#3178c6"/><text x="324" y="662" class="panel-text" font-size="10">TypeScript</text><text x="538" y="662" text-anchor="end" class="panel-text" font-size="10">1</text><text x="628" y="662" text-anchor="end" class="panel-text" font-size="10">0</text><text x="962" y="662" text-anchor="end" class="panel-dim" font-size="9.5">2026-05-08</text><text x="36" y="684" class="panel-text" font-size="10.5">SpotterAI</text><circle cx="314" cy="680.5" r="3" fill="#e34c26"/><text x="324" y="684" class="panel-text" font-size="10">HTML</text><text x="538" y="684" text-anchor="end" class="panel-text" font-size="10">0</text><text x="628" y="684" text-anchor="end" class="panel-text" font-size="10">0</text><text x="962" y="684" text-anchor="end" class="panel-dim" font-size="9.5">2026-05-04</text><text x="36" y="706" class="panel-text" font-size="10.5">LIAT.AI---Frontend-Assignment</text><circle cx="314" cy="702.5" r="3" fill="#3178c6"/><text x="324" y="706" class="panel-text" font-size="10">TypeScript</text><text x="538" y="706" text-anchor="end" class="panel-text" font-size="10">0</text><text x="628" y="706" text-anchor="end" class="panel-text" font-size="10">0</text><text x="962" y="706" text-anchor="end" class="panel-dim" font-size="9.5">2026-04-28</text><text x="36" y="728" class="panel-text" font-size="10.5">nofeeswap</text><circle cx="314" cy="724.5" r="3" fill="#3572A5"/><text x="324" y="728" class="panel-text" font-size="10">Python</text><text x="538" y="728" text-anchor="end" class="panel-text" font-size="10">0</text><text x="628" y="728" text-anchor="end" class="panel-text" font-size="10">0</text><text x="962" y="728" text-anchor="end" class="panel-dim" font-size="9.5">2026-04-09</text><!--ROSTER_END--><line x1="20" y1="748" x2="980" y2="748" stroke="#1f5c47" stroke-width="1"/>
  <text x="20" y="770" class="panel-text" font-size="10.5"><!--STATS_START-->26 REPOS · 7 STARS · 1 FORK · 715 CONTRIB/YR (PUBLIC) · 15 FOLLOWERS<!--STATS_END--></text>
  <text x="20" y="788" class="panel-dim" font-size="9.5">krishank.kmats.in &#160;·&#160; /in/krishank-shah-546989230 &#160;·&#160; @krishankshh &#160;·&#160; github.com/krishankshh</text>
  <text x="980" y="788" text-anchor="end" class="panel-dim" font-size="9">LAST SYNC: <!--SYNC_START-->Jul 21, 2026 01:54 UTC<!--SYNC_END--></text>


  <rect x="0" y="0" width="180" height="800" fill="url(#sweepGrad)">
    <animateTransform attributeName="transform" type="translate" values="-180,0; 1180,0" dur="7s" repeatCount="indefinite"/>
  </rect>
</svg>
