<svg width="1000" height="800" viewBox="0 0 1000 800" xmlns="http://www.w3.org/2000/svg" role="img" aria-label="Krishank Intelligence Dashboard">
  <defs>
    <linearGradient id="bg" x1="0%" y1="0%" x2="100%" y2="100%">
      <stop offset="0%" stop-color="#010604"/>
      <stop offset="100%" stop-color="#02100a"/>
    </linearGradient>
    <linearGradient id="sweepGrad" x1="0%" y1="0%" x2="100%" y2="0%">
      <stop offset="0%" stop-color="#5dffa8" stop-opacity="0"/>
      <stop offset="50%" stop-color="#5dffa8" stop-opacity="0.05"/>
      <stop offset="100%" stop-color="#5dffa8" stop-opacity="0"/>
    </linearGradient>
  </defs>

  <style>
    <![CDATA[
      text { font-family: ui-monospace, 'JetBrains Mono', 'Courier New', monospace; }
      .mast-title { fill: #eafff5; font-size: 20px; font-weight: 800; letter-spacing: 1.5px; }
      .mast-sub { fill: #4f8a75; font-size: 10.5px; letter-spacing: 1.5px; }
      .panel-title { fill: #5dffa8; font-size: 10.5px; font-weight: 700; letter-spacing: 1.2px; }
      .panel-text { fill: #d8ffe9; }
      .panel-value { fill: #eafff5; font-weight: 800; }
      .panel-dim { fill: #4f8a75; }
    ]]>
  </style>

  <rect x="0" y="0" width="1000" height="800" fill="url(#bg)"/>
  <g><line x1="0" y1="0" x2="0" y2="800" stroke="#0d3226" stroke-width="0.5" opacity="0.35"/><line x1="40" y1="0" x2="40" y2="800" stroke="#0d3226" stroke-width="0.5" opacity="0.35"/><line x1="80" y1="0" x2="80" y2="800" stroke="#0d3226" stroke-width="0.5" opacity="0.35"/><line x1="120" y1="0" x2="120" y2="800" stroke="#0d3226" stroke-width="0.5" opacity="0.35"/><line x1="160" y1="0" x2="160" y2="800" stroke="#0d3226" stroke-width="0.5" opacity="0.35"/><line x1="200" y1="0" x2="200" y2="800" stroke="#0d3226" stroke-width="0.5" opacity="0.35"/><line x1="240" y1="0" x2="240" y2="800" stroke="#0d3226" stroke-width="0.5" opacity="0.35"/><line x1="280" y1="0" x2="280" y2="800" stroke="#0d3226" stroke-width="0.5" opacity="0.35"/><line x1="320" y1="0" x2="320" y2="800" stroke="#0d3226" stroke-width="0.5" opacity="0.35"/><line x1="360" y1="0" x2="360" y2="800" stroke="#0d3226" stroke-width="0.5" opacity="0.35"/><line x1="400" y1="0" x2="400" y2="800" stroke="#0d3226" stroke-width="0.5" opacity="0.35"/><line x1="440" y1="0" x2="440" y2="800" stroke="#0d3226" stroke-width="0.5" opacity="0.35"/><line x1="480" y1="0" x2="480" y2="800" stroke="#0d3226" stroke-width="0.5" opacity="0.35"/><line x1="520" y1="0" x2="520" y2="800" stroke="#0d3226" stroke-width="0.5" opacity="0.35"/><line x1="560" y1="0" x2="560" y2="800" stroke="#0d3226" stroke-width="0.5" opacity="0.35"/><line x1="600" y1="0" x2="600" y2="800" stroke="#0d3226" stroke-width="0.5" opacity="0.35"/><line x1="640" y1="0" x2="640" y2="800" stroke="#0d3226" stroke-width="0.5" opacity="0.35"/><line x1="680" y1="0" x2="680" y2="800" stroke="#0d3226" stroke-width="0.5" opacity="0.35"/><line x1="720" y1="0" x2="720" y2="800" stroke="#0d3226" stroke-width="0.5" opacity="0.35"/><line x1="760" y1="0" x2="760" y2="800" stroke="#0d3226" stroke-width="0.5" opacity="0.35"/><line x1="800" y1="0" x2="800" y2="800" stroke="#0d3226" stroke-width="0.5" opacity="0.35"/><line x1="840" y1="0" x2="840" y2="800" stroke="#0d3226" stroke-width="0.5" opacity="0.35"/><line x1="880" y1="0" x2="880" y2="800" stroke="#0d3226" stroke-width="0.5" opacity="0.35"/><line x1="920" y1="0" x2="920" y2="800" stroke="#0d3226" stroke-width="0.5" opacity="0.35"/><line x1="960" y1="0" x2="960" y2="800" stroke="#0d3226" stroke-width="0.5" opacity="0.35"/><line x1="0" y1="0" x2="1000" y2="0" stroke="#0d3226" stroke-width="0.5" opacity="0.35"/><line x1="0" y1="40" x2="1000" y2="40" stroke="#0d3226" stroke-width="0.5" opacity="0.35"/><line x1="0" y1="80" x2="1000" y2="80" stroke="#0d3226" stroke-width="0.5" opacity="0.35"/><line x1="0" y1="120" x2="1000" y2="120" stroke="#0d3226" stroke-width="0.5" opacity="0.35"/><line x1="0" y1="160" x2="1000" y2="160" stroke="#0d3226" stroke-width="0.5" opacity="0.35"/><line x1="0" y1="200" x2="1000" y2="200" stroke="#0d3226" stroke-width="0.5" opacity="0.35"/><line x1="0" y1="240" x2="1000" y2="240" stroke="#0d3226" stroke-width="0.5" opacity="0.35"/><line x1="0" y1="280" x2="1000" y2="280" stroke="#0d3226" stroke-width="0.5" opacity="0.35"/><line x1="0" y1="320" x2="1000" y2="320" stroke="#0d3226" stroke-width="0.5" opacity="0.35"/><line x1="0" y1="360" x2="1000" y2="360" stroke="#0d3226" stroke-width="0.5" opacity="0.35"/><line x1="0" y1="400" x2="1000" y2="400" stroke="#0d3226" stroke-width="0.5" opacity="0.35"/><line x1="0" y1="440" x2="1000" y2="440" stroke="#0d3226" stroke-width="0.5" opacity="0.35"/><line x1="0" y1="480" x2="1000" y2="480" stroke="#0d3226" stroke-width="0.5" opacity="0.35"/><line x1="0" y1="520" x2="1000" y2="520" stroke="#0d3226" stroke-width="0.5" opacity="0.35"/><line x1="0" y1="560" x2="1000" y2="560" stroke="#0d3226" stroke-width="0.5" opacity="0.35"/><line x1="0" y1="600" x2="1000" y2="600" stroke="#0d3226" stroke-width="0.5" opacity="0.35"/><line x1="0" y1="640" x2="1000" y2="640" stroke="#0d3226" stroke-width="0.5" opacity="0.35"/><line x1="0" y1="680" x2="1000" y2="680" stroke="#0d3226" stroke-width="0.5" opacity="0.35"/><line x1="0" y1="720" x2="1000" y2="720" stroke="#0d3226" stroke-width="0.5" opacity="0.35"/><line x1="0" y1="760" x2="1000" y2="760" stroke="#0d3226" stroke-width="0.5" opacity="0.35"/></g>

  
  <text x="20" y="34" class="mast-title">KRISHANK INTELLIGENCE DASHBOARD</text>
  <text x="20" y="54" class="mast-sub">FOUNDER OPS // KMATS // RPM // MUMBAI, IN</text>
  <g>
    <circle cx="944" cy="40" r="15" fill="none" stroke="#1f5c47" stroke-width="1.4"/>
    <circle cx="944" cy="40" r="1.6" fill="#5dffa8"/>
    <line x1="944" y1="40" x2="944" y2="28" stroke="#5dffa8" stroke-width="1.4" stroke-linecap="round">
      <animateTransform attributeName="transform" type="rotate" from="0 944 40" to="360 944 40" dur="9s" repeatCount="indefinite"/>
    </line>
    <text x="944" y="69" text-anchor="middle" class="panel-dim" font-size="8" letter-spacing="1">LIVE</text>
  </g>
  <line x1="20" y1="70" x2="980" y2="70" stroke="#1f5c47" stroke-width="1"/>

  <rect x="20" y="96" width="220" height="210" rx="8" fill="#061b14" stroke="#1f5c47" stroke-width="1"/><path d="M20,106 V96 H30" fill="none" stroke="#5dffa8" stroke-width="1.6"/><path d="M230,96 H240 V106" fill="none" stroke="#5dffa8" stroke-width="1.6"/><path d="M240,296 V306 H230" fill="none" stroke="#5dffa8" stroke-width="1.6"/><path d="M30,306 H20 V296" fill="none" stroke="#5dffa8" stroke-width="1.6"/><text x="36" y="118" class="panel-title">SYSTEM STATUS</text><text x="36" y="146" class="panel-text" font-size="11.5">FOUNDER</text><text x="200" y="146" text-anchor="end" font-size="10.5" fill="#22c76e" font-weight="700">✓</text><text x="36" y="173" class="panel-text" font-size="11.5">KMATS</text><text x="200" y="173" text-anchor="end" font-size="10.5" fill="#22c76e" font-weight="700">ONLINE</text><circle cx="224" cy="169" r="2.6" fill="#22c76e"><animate attributeName="opacity" values="1;0.3;1" dur="1.6s" begin="0.48s" repeatCount="indefinite"/></circle><text x="36" y="200" class="panel-text" font-size="11.5">RPM</text><text x="200" y="200" text-anchor="end" font-size="10.5" fill="#7dd3fc" font-weight="700">BUILDING</text><circle cx="224" cy="196" r="2.6" fill="#7dd3fc"><animate attributeName="opacity" values="1;0.3;1" dur="2.1s" begin="0.63s" repeatCount="indefinite"/></circle><text x="36" y="227" class="panel-text" font-size="11.5">GITHUB</text><text x="200" y="227" text-anchor="end" font-size="10.5" fill="#22c76e" font-weight="700">CONNECTED</text><circle cx="224" cy="223" r="2.6" fill="#22c76e"><animate attributeName="opacity" values="1;0.3;1" dur="2.6s" begin="0.78s" repeatCount="indefinite"/></circle><text x="36" y="254" class="panel-text" font-size="11.5">AWS</text><text x="200" y="254" text-anchor="end" font-size="10.5" fill="#22c76e" font-weight="700">ONLINE</text><circle cx="224" cy="250" r="2.6" fill="#22c76e"><animate attributeName="opacity" values="1;0.3;1" dur="3.1s" begin="0.9299999999999999s" repeatCount="indefinite"/></circle><rect x="256" y="96" width="470" height="210" rx="8" fill="#061b14" stroke="#1f5c47" stroke-width="1"/><path d="M256,106 V96 H266" fill="none" stroke="#5dffa8" stroke-width="1.6"/><path d="M716,96 H726 V106" fill="none" stroke="#5dffa8" stroke-width="1.6"/><path d="M726,296 V306 H716" fill="none" stroke="#5dffa8" stroke-width="1.6"/><path d="M266,306 H256 V296" fill="none" stroke="#5dffa8" stroke-width="1.6"/><text x="272" y="118" class="panel-title">CONTRIBUTION ACTIVITY</text><!--HEATMAP_START--><rect x="279.0" y="136.0" width="6.4" height="6.4" rx="1.2" fill="#0d2b21"/><rect x="279.0" y="144.0" width="6.4" height="6.4" rx="1.2" fill="#0d2b21"/><rect x="279.0" y="152.0" width="6.4" height="6.4" rx="1.2" fill="#0d2b21"/><rect x="279.0" y="160.0" width="6.4" height="6.4" rx="1.2" fill="#0d2b21"/><rect x="279.0" y="168.0" width="6.4" height="6.4" rx="1.2" fill="#0d2b21"/><rect x="279.0" y="176.0" width="6.4" height="6.4" rx="1.2" fill="#0d2b21"/><rect x="279.0" y="184.0" width="6.4" height="6.4" rx="1.2" fill="#0d2b21"/><rect x="287.0" y="136.0" width="6.4" height="6.4" rx="1.2" fill="#0d2b21"/><rect x="287.0" y="144.0" width="6.4" height="6.4" rx="1.2" fill="#0d2b21"/><rect x="287.0" y="152.0" width="6.4" height="6.4" rx="1.2" fill="#0d2b21"/><rect x="287.0" y="160.0" width="6.4" height="6.4" rx="1.2" fill="#0d2b21"/><rect x="287.0" y="168.0" width="6.4" height="6.4" rx="1.2" fill="#0d2b21"/><rect x="287.0" y="176.0" width="6.4" height="6.4" rx="1.2" fill="#0d2b21"/><rect x="287.0" y="184.0" width="6.4" height="6.4" rx="1.2" fill="#0d2b21"/><rect x="295.0" y="136.0" width="6.4" height="6.4" rx="1.2" fill="#0d2b21"/><rect x="295.0" y="144.0" width="6.4" height="6.4" rx="1.2" fill="#0d2b21"/><rect x="295.0" y="152.0" width="6.4" height="6.4" rx="1.2" fill="#0d2b21"/><rect x="295.0" y="160.0" width="6.4" height="6.4" rx="1.2" fill="#0d2b21"/><rect x="295.0" y="168.0" width="6.4" height="6.4" rx="1.2" fill="#0d2b21"/><rect x="295.0" y="176.0" width="6.4" height="6.4" rx="1.2" fill="#0d2b21"/><rect x="295.0" y="184.0" width="6.4" height="6.4" rx="1.2" fill="#0d2b21"/><rect x="303.0" y="136.0" width="6.4" height="6.4" rx="1.2" fill="#0d2b21"/><rect x="303.0" y="144.0" width="6.4" height="6.4" rx="1.2" fill="#0d2b21"/><rect x="303.0" y="152.0" width="6.4" height="6.4" rx="1.2" fill="#0d2b21"/><rect x="303.0" y="160.0" width="6.4" height="6.4" rx="1.2" fill="#0d2b21"/><rect x="303.0" y="168.0" width="6.4" height="6.4" rx="1.2" fill="#0d2b21"/><rect x="303.0" y="176.0" width="6.4" height="6.4" rx="1.2" fill="#0d2b21"/><rect x="303.0" y="184.0" width="6.4" height="6.4" rx="1.2" fill="#0d2b21"/><rect x="311.0" y="136.0" width="6.4" height="6.4" rx="1.2" fill="#0d2b21"/><rect x="311.0" y="144.0" width="6.4" height="6.4" rx="1.2" fill="#0d2b21"/><rect x="311.0" y="152.0" width="6.4" height="6.4" rx="1.2" fill="#0d2b21"/><rect x="311.0" y="160.0" width="6.4" height="6.4" rx="1.2" fill="#0d2b21"/><rect x="311.0" y="168.0" width="6.4" height="6.4" rx="1.2" fill="#0d2b21"/><rect x="311.0" y="176.0" width="6.4" height="6.4" rx="1.2" fill="#0d2b21"/><rect x="311.0" y="184.0" width="6.4" height="6.4" rx="1.2" fill="#0d2b21"/><rect x="319.0" y="136.0" width="6.4" height="6.4" rx="1.2" fill="#0d2b21"/><rect x="319.0" y="144.0" width="6.4" height="6.4" rx="1.2" fill="#0d2b21"/><rect x="319.0" y="152.0" width="6.4" height="6.4" rx="1.2" fill="#0d2b21"/><rect x="319.0" y="160.0" width="6.4" height="6.4" rx="1.2" fill="#0d2b21"/><rect x="319.0" y="168.0" width="6.4" height="6.4" rx="1.2" fill="#0d2b21"/><rect x="319.0" y="176.0" width="6.4" height="6.4" rx="1.2" fill="#0d2b21"/><rect x="319.0" y="184.0" width="6.4" height="6.4" rx="1.2" fill="#0d2b21"/><rect x="327.0" y="136.0" width="6.4" height="6.4" rx="1.2" fill="#0d2b21"/><rect x="327.0" y="144.0" width="6.4" height="6.4" rx="1.2" fill="#0d2b21"/><rect x="327.0" y="152.0" width="6.4" height="6.4" rx="1.2" fill="#0d2b21"/><rect x="327.0" y="160.0" width="6.4" height="6.4" rx="1.2" fill="#0d2b21"/><rect x="327.0" y="168.0" width="6.4" height="6.4" rx="1.2" fill="#0d2b21"/><rect x="327.0" y="176.0" width="6.4" height="6.4" rx="1.2" fill="#0d2b21"/><rect x="327.0" y="184.0" width="6.4" height="6.4" rx="1.2" fill="#0d2b21"/><rect x="335.0" y="136.0" width="6.4" height="6.4" rx="1.2" fill="#0d2b21"/><rect x="335.0" y="144.0" width="6.4" height="6.4" rx="1.2" fill="#0d2b21"/><rect x="335.0" y="152.0" width="6.4" height="6.4" rx="1.2" fill="#0d2b21"/><rect x="335.0" y="160.0" width="6.4" height="6.4" rx="1.2" fill="#0d2b21"/><rect x="335.0" y="168.0" width="6.4" height="6.4" rx="1.2" fill="#0d2b21"/><rect x="335.0" y="176.0" width="6.4" height="6.4" rx="1.2" fill="#0d2b21"/><rect x="335.0" y="184.0" width="6.4" height="6.4" rx="1.2" fill="#0d2b21"/><rect x="343.0" y="136.0" width="6.4" height="6.4" rx="1.2" fill="#0d2b21"/><rect x="343.0" y="144.0" width="6.4" height="6.4" rx="1.2" fill="#0d2b21"/><rect x="343.0" y="152.0" width="6.4" height="6.4" rx="1.2" fill="#159a5c"/><rect x="343.0" y="160.0" width="6.4" height="6.4" rx="1.2" fill="#0f5c3f"/><rect x="343.0" y="168.0" width="6.4" height="6.4" rx="1.2" fill="#0d2b21"/><rect x="343.0" y="176.0" width="6.4" height="6.4" rx="1.2" fill="#0d2b21"/><rect x="343.0" y="184.0" width="6.4" height="6.4" rx="1.2" fill="#0d2b21"/><rect x="351.0" y="136.0" width="6.4" height="6.4" rx="1.2" fill="#0d2b21"/><rect x="351.0" y="144.0" width="6.4" height="6.4" rx="1.2" fill="#0f5c3f"/><rect x="351.0" y="152.0" width="6.4" height="6.4" rx="1.2" fill="#0f5c3f"/><rect x="351.0" y="160.0" width="6.4" height="6.4" rx="1.2" fill="#0f5c3f"/><rect x="351.0" y="168.0" width="6.4" height="6.4" rx="1.2" fill="#0d2b21"/><rect x="351.0" y="176.0" width="6.4" height="6.4" rx="1.2" fill="#0f5c3f"/><rect x="351.0" y="184.0" width="6.4" height="6.4" rx="1.2" fill="#0f5c3f"/><rect x="359.0" y="136.0" width="6.4" height="6.4" rx="1.2" fill="#0d2b21"/><rect x="359.0" y="144.0" width="6.4" height="6.4" rx="1.2" fill="#22c76e"/><rect x="359.0" y="152.0" width="6.4" height="6.4" rx="1.2" fill="#0d2b21"/><rect x="359.0" y="160.0" width="6.4" height="6.4" rx="1.2" fill="#0d2b21"/><rect x="359.0" y="168.0" width="6.4" height="6.4" rx="1.2" fill="#0d2b21"/><rect x="359.0" y="176.0" width="6.4" height="6.4" rx="1.2" fill="#0d2b21"/><rect x="359.0" y="184.0" width="6.4" height="6.4" rx="1.2" fill="#0d2b21"/><rect x="367.0" y="136.0" width="6.4" height="6.4" rx="1.2" fill="#0d2b21"/><rect x="367.0" y="144.0" width="6.4" height="6.4" rx="1.2" fill="#0f5c3f"/><rect x="367.0" y="152.0" width="6.4" height="6.4" rx="1.2" fill="#0d2b21"/><rect x="367.0" y="160.0" width="6.4" height="6.4" rx="1.2" fill="#0d2b21"/><rect x="367.0" y="168.0" width="6.4" height="6.4" rx="1.2" fill="#0d2b21"/><rect x="367.0" y="176.0" width="6.4" height="6.4" rx="1.2" fill="#0d2b21"/><rect x="367.0" y="184.0" width="6.4" height="6.4" rx="1.2" fill="#0d2b21"/><rect x="375.0" y="136.0" width="6.4" height="6.4" rx="1.2" fill="#0d2b21"/><rect x="375.0" y="144.0" width="6.4" height="6.4" rx="1.2" fill="#0f5c3f"/><rect x="375.0" y="152.0" width="6.4" height="6.4" rx="1.2" fill="#0d2b21"/><rect x="375.0" y="160.0" width="6.4" height="6.4" rx="1.2" fill="#0d2b21"/><rect x="375.0" y="168.0" width="6.4" height="6.4" rx="1.2" fill="#0f5c3f"/><rect x="375.0" y="176.0" width="6.4" height="6.4" rx="1.2" fill="#22c76e"/><rect x="375.0" y="184.0" width="6.4" height="6.4" rx="1.2" fill="#0d2b21"/><rect x="383.0" y="136.0" width="6.4" height="6.4" rx="1.2" fill="#0d2b21"/><rect x="383.0" y="144.0" width="6.4" height="6.4" rx="1.2" fill="#159a5c"/><rect x="383.0" y="152.0" width="6.4" height="6.4" rx="1.2" fill="#0d2b21"/><rect x="383.0" y="160.0" width="6.4" height="6.4" rx="1.2" fill="#0d2b21"/><rect x="383.0" y="168.0" width="6.4" height="6.4" rx="1.2" fill="#0d2b21"/><rect x="383.0" y="176.0" width="6.4" height="6.4" rx="1.2" fill="#0d2b21"/><rect x="383.0" y="184.0" width="6.4" height="6.4" rx="1.2" fill="#0d2b21"/><rect x="391.0" y="136.0" width="6.4" height="6.4" rx="1.2" fill="#0d2b21"/><rect x="391.0" y="144.0" width="6.4" height="6.4" rx="1.2" fill="#0d2b21"/><rect x="391.0" y="152.0" width="6.4" height="6.4" rx="1.2" fill="#0d2b21"/><rect x="391.0" y="160.0" width="6.4" height="6.4" rx="1.2" fill="#0d2b21"/><rect x="391.0" y="168.0" width="6.4" height="6.4" rx="1.2" fill="#0d2b21"/><rect x="391.0" y="176.0" width="6.4" height="6.4" rx="1.2" fill="#0d2b21"/><rect x="391.0" y="184.0" width="6.4" height="6.4" rx="1.2" fill="#0f5c3f"/><rect x="399.0" y="136.0" width="6.4" height="6.4" rx="1.2" fill="#0d2b21"/><rect x="399.0" y="144.0" width="6.4" height="6.4" rx="1.2" fill="#0d2b21"/><rect x="399.0" y="152.0" width="6.4" height="6.4" rx="1.2" fill="#0d2b21"/><rect x="399.0" y="160.0" width="6.4" height="6.4" rx="1.2" fill="#0d2b21"/><rect x="399.0" y="168.0" width="6.4" height="6.4" rx="1.2" fill="#0d2b21"/><rect x="399.0" y="176.0" width="6.4" height="6.4" rx="1.2" fill="#0f5c3f"/><rect x="399.0" y="184.0" width="6.4" height="6.4" rx="1.2" fill="#0d2b21"/><rect x="407.0" y="136.0" width="6.4" height="6.4" rx="1.2" fill="#0d2b21"/><rect x="407.0" y="144.0" width="6.4" height="6.4" rx="1.2" fill="#159a5c"/><rect x="407.0" y="152.0" width="6.4" height="6.4" rx="1.2" fill="#0d2b21"/><rect x="407.0" y="160.0" width="6.4" height="6.4" rx="1.2" fill="#159a5c"/><rect x="407.0" y="168.0" width="6.4" height="6.4" rx="1.2" fill="#5dffa8"/><rect x="407.0" y="176.0" width="6.4" height="6.4" rx="1.2" fill="#0f5c3f"/><rect x="407.0" y="184.0" width="6.4" height="6.4" rx="1.2" fill="#159a5c"/><rect x="415.0" y="136.0" width="6.4" height="6.4" rx="1.2" fill="#0f5c3f"/><rect x="415.0" y="144.0" width="6.4" height="6.4" rx="1.2" fill="#5dffa8"/><rect x="415.0" y="152.0" width="6.4" height="6.4" rx="1.2" fill="#0d2b21"/><rect x="415.0" y="160.0" width="6.4" height="6.4" rx="1.2" fill="#0d2b21"/><rect x="415.0" y="168.0" width="6.4" height="6.4" rx="1.2" fill="#0d2b21"/><rect x="415.0" y="176.0" width="6.4" height="6.4" rx="1.2" fill="#0d2b21"/><rect x="415.0" y="184.0" width="6.4" height="6.4" rx="1.2" fill="#159a5c"/><rect x="423.0" y="136.0" width="6.4" height="6.4" rx="1.2" fill="#0d2b21"/><rect x="423.0" y="144.0" width="6.4" height="6.4" rx="1.2" fill="#0f5c3f"/><rect x="423.0" y="152.0" width="6.4" height="6.4" rx="1.2" fill="#0f5c3f"/><rect x="423.0" y="160.0" width="6.4" height="6.4" rx="1.2" fill="#0d2b21"/><rect x="423.0" y="168.0" width="6.4" height="6.4" rx="1.2" fill="#0d2b21"/><rect x="423.0" y="176.0" width="6.4" height="6.4" rx="1.2" fill="#22c76e"/><rect x="423.0" y="184.0" width="6.4" height="6.4" rx="1.2" fill="#0d2b21"/><rect x="431.0" y="136.0" width="6.4" height="6.4" rx="1.2" fill="#0d2b21"/><rect x="431.0" y="144.0" width="6.4" height="6.4" rx="1.2" fill="#159a5c"/><rect x="431.0" y="152.0" width="6.4" height="6.4" rx="1.2" fill="#0f5c3f"/><rect x="431.0" y="160.0" width="6.4" height="6.4" rx="1.2" fill="#22c76e"/><rect x="431.0" y="168.0" width="6.4" height="6.4" rx="1.2" fill="#22c76e"/><rect x="431.0" y="176.0" width="6.4" height="6.4" rx="1.2" fill="#0d2b21"/><rect x="431.0" y="184.0" width="6.4" height="6.4" rx="1.2" fill="#0d2b21"/><rect x="439.0" y="136.0" width="6.4" height="6.4" rx="1.2" fill="#0d2b21"/><rect x="439.0" y="144.0" width="6.4" height="6.4" rx="1.2" fill="#0d2b21"/><rect x="439.0" y="152.0" width="6.4" height="6.4" rx="1.2" fill="#0d2b21"/><rect x="439.0" y="160.0" width="6.4" height="6.4" rx="1.2" fill="#22c76e"/><rect x="439.0" y="168.0" width="6.4" height="6.4" rx="1.2" fill="#159a5c"/><rect x="439.0" y="176.0" width="6.4" height="6.4" rx="1.2" fill="#0d2b21"/><rect x="439.0" y="184.0" width="6.4" height="6.4" rx="1.2" fill="#0d2b21"/><rect x="447.0" y="136.0" width="6.4" height="6.4" rx="1.2" fill="#0d2b21"/><rect x="447.0" y="144.0" width="6.4" height="6.4" rx="1.2" fill="#0d2b21"/><rect x="447.0" y="152.0" width="6.4" height="6.4" rx="1.2" fill="#0d2b21"/><rect x="447.0" y="160.0" width="6.4" height="6.4" rx="1.2" fill="#0d2b21"/><rect x="447.0" y="168.0" width="6.4" height="6.4" rx="1.2" fill="#22c76e"/><rect x="447.0" y="176.0" width="6.4" height="6.4" rx="1.2" fill="#0d2b21"/><rect x="447.0" y="184.0" width="6.4" height="6.4" rx="1.2" fill="#0d2b21"/><rect x="455.0" y="136.0" width="6.4" height="6.4" rx="1.2" fill="#0d2b21"/><rect x="455.0" y="144.0" width="6.4" height="6.4" rx="1.2" fill="#159a5c"/><rect x="455.0" y="152.0" width="6.4" height="6.4" rx="1.2" fill="#159a5c"/><rect x="455.0" y="160.0" width="6.4" height="6.4" rx="1.2" fill="#159a5c"/><rect x="455.0" y="168.0" width="6.4" height="6.4" rx="1.2" fill="#0f5c3f"/><rect x="455.0" y="176.0" width="6.4" height="6.4" rx="1.2" fill="#0f5c3f"/><rect x="455.0" y="184.0" width="6.4" height="6.4" rx="1.2" fill="#0d2b21"/><rect x="463.0" y="136.0" width="6.4" height="6.4" rx="1.2" fill="#0d2b21"/><rect x="463.0" y="144.0" width="6.4" height="6.4" rx="1.2" fill="#159a5c"/><rect x="463.0" y="152.0" width="6.4" height="6.4" rx="1.2" fill="#0f5c3f"/><rect x="463.0" y="160.0" width="6.4" height="6.4" rx="1.2" fill="#0f5c3f"/><rect x="463.0" y="168.0" width="6.4" height="6.4" rx="1.2" fill="#5dffa8"/><rect x="463.0" y="176.0" width="6.4" height="6.4" rx="1.2" fill="#0f5c3f"/><rect x="463.0" y="184.0" width="6.4" height="6.4" rx="1.2" fill="#0d2b21"/><rect x="471.0" y="136.0" width="6.4" height="6.4" rx="1.2" fill="#0d2b21"/><rect x="471.0" y="144.0" width="6.4" height="6.4" rx="1.2" fill="#0d2b21"/><rect x="471.0" y="152.0" width="6.4" height="6.4" rx="1.2" fill="#0d2b21"/><rect x="471.0" y="160.0" width="6.4" height="6.4" rx="1.2" fill="#0d2b21"/><rect x="471.0" y="168.0" width="6.4" height="6.4" rx="1.2" fill="#0d2b21"/><rect x="471.0" y="176.0" width="6.4" height="6.4" rx="1.2" fill="#0d2b21"/><rect x="471.0" y="184.0" width="6.4" height="6.4" rx="1.2" fill="#0d2b21"/><rect x="479.0" y="136.0" width="6.4" height="6.4" rx="1.2" fill="#0d2b21"/><rect x="479.0" y="144.0" width="6.4" height="6.4" rx="1.2" fill="#159a5c"/><rect x="479.0" y="152.0" width="6.4" height="6.4" rx="1.2" fill="#0d2b21"/><rect x="479.0" y="160.0" width="6.4" height="6.4" rx="1.2" fill="#159a5c"/><rect x="479.0" y="168.0" width="6.4" height="6.4" rx="1.2" fill="#0f5c3f"/><rect x="479.0" y="176.0" width="6.4" height="6.4" rx="1.2" fill="#22c76e"/><rect x="479.0" y="184.0" width="6.4" height="6.4" rx="1.2" fill="#159a5c"/><rect x="487.0" y="136.0" width="6.4" height="6.4" rx="1.2" fill="#0d2b21"/><rect x="487.0" y="144.0" width="6.4" height="6.4" rx="1.2" fill="#159a5c"/><rect x="487.0" y="152.0" width="6.4" height="6.4" rx="1.2" fill="#0d2b21"/><rect x="487.0" y="160.0" width="6.4" height="6.4" rx="1.2" fill="#0f5c3f"/><rect x="487.0" y="168.0" width="6.4" height="6.4" rx="1.2" fill="#22c76e"/><rect x="487.0" y="176.0" width="6.4" height="6.4" rx="1.2" fill="#22c76e"/><rect x="487.0" y="184.0" width="6.4" height="6.4" rx="1.2" fill="#159a5c"/><rect x="495.0" y="136.0" width="6.4" height="6.4" rx="1.2" fill="#159a5c"/><rect x="495.0" y="144.0" width="6.4" height="6.4" rx="1.2" fill="#0f5c3f"/><rect x="495.0" y="152.0" width="6.4" height="6.4" rx="1.2" fill="#5dffa8"/><rect x="495.0" y="160.0" width="6.4" height="6.4" rx="1.2" fill="#0f5c3f"/><rect x="495.0" y="168.0" width="6.4" height="6.4" rx="1.2" fill="#0f5c3f"/><rect x="495.0" y="176.0" width="6.4" height="6.4" rx="1.2" fill="#159a5c"/><rect x="495.0" y="184.0" width="6.4" height="6.4" rx="1.2" fill="#5dffa8"/><rect x="503.0" y="136.0" width="6.4" height="6.4" rx="1.2" fill="#0d2b21"/><rect x="503.0" y="144.0" width="6.4" height="6.4" rx="1.2" fill="#22c76e"/><rect x="503.0" y="152.0" width="6.4" height="6.4" rx="1.2" fill="#159a5c"/><rect x="503.0" y="160.0" width="6.4" height="6.4" rx="1.2" fill="#159a5c"/><rect x="503.0" y="168.0" width="6.4" height="6.4" rx="1.2" fill="#0d2b21"/><rect x="503.0" y="176.0" width="6.4" height="6.4" rx="1.2" fill="#0f5c3f"/><rect x="503.0" y="184.0" width="6.4" height="6.4" rx="1.2" fill="#0f5c3f"/><rect x="511.0" y="136.0" width="6.4" height="6.4" rx="1.2" fill="#22c76e"/><rect x="511.0" y="144.0" width="6.4" height="6.4" rx="1.2" fill="#5dffa8"/><rect x="511.0" y="152.0" width="6.4" height="6.4" rx="1.2" fill="#22c76e"/><rect x="511.0" y="160.0" width="6.4" height="6.4" rx="1.2" fill="#22c76e"/><rect x="511.0" y="168.0" width="6.4" height="6.4" rx="1.2" fill="#0d2b21"/><rect x="511.0" y="176.0" width="6.4" height="6.4" rx="1.2" fill="#159a5c"/><rect x="511.0" y="184.0" width="6.4" height="6.4" rx="1.2" fill="#0f5c3f"/><rect x="519.0" y="136.0" width="6.4" height="6.4" rx="1.2" fill="#0f5c3f"/><rect x="519.0" y="144.0" width="6.4" height="6.4" rx="1.2" fill="#0f5c3f"/><rect x="519.0" y="152.0" width="6.4" height="6.4" rx="1.2" fill="#0d2b21"/><rect x="519.0" y="160.0" width="6.4" height="6.4" rx="1.2" fill="#159a5c"/><rect x="519.0" y="168.0" width="6.4" height="6.4" rx="1.2" fill="#5dffa8"/><rect x="519.0" y="176.0" width="6.4" height="6.4" rx="1.2" fill="#0d2b21"/><rect x="519.0" y="184.0" width="6.4" height="6.4" rx="1.2" fill="#0d2b21"/><rect x="527.0" y="136.0" width="6.4" height="6.4" rx="1.2" fill="#0d2b21"/><rect x="527.0" y="144.0" width="6.4" height="6.4" rx="1.2" fill="#0d2b21"/><rect x="527.0" y="152.0" width="6.4" height="6.4" rx="1.2" fill="#0d2b21"/><rect x="527.0" y="160.0" width="6.4" height="6.4" rx="1.2" fill="#0d2b21"/><rect x="527.0" y="168.0" width="6.4" height="6.4" rx="1.2" fill="#22c76e"/><rect x="527.0" y="176.0" width="6.4" height="6.4" rx="1.2" fill="#0d2b21"/><rect x="527.0" y="184.0" width="6.4" height="6.4" rx="1.2" fill="#0f5c3f"/><rect x="535.0" y="136.0" width="6.4" height="6.4" rx="1.2" fill="#0d2b21"/><rect x="535.0" y="144.0" width="6.4" height="6.4" rx="1.2" fill="#0f5c3f"/><rect x="535.0" y="152.0" width="6.4" height="6.4" rx="1.2" fill="#0d2b21"/><rect x="535.0" y="160.0" width="6.4" height="6.4" rx="1.2" fill="#0d2b21"/><rect x="535.0" y="168.0" width="6.4" height="6.4" rx="1.2" fill="#0f5c3f"/><rect x="535.0" y="176.0" width="6.4" height="6.4" rx="1.2" fill="#0d2b21"/><rect x="535.0" y="184.0" width="6.4" height="6.4" rx="1.2" fill="#0d2b21"/><rect x="543.0" y="136.0" width="6.4" height="6.4" rx="1.2" fill="#0d2b21"/><rect x="543.0" y="144.0" width="6.4" height="6.4" rx="1.2" fill="#5dffa8"/><rect x="543.0" y="152.0" width="6.4" height="6.4" rx="1.2" fill="#0d2b21"/><rect x="543.0" y="160.0" width="6.4" height="6.4" rx="1.2" fill="#0d2b21"/><rect x="543.0" y="168.0" width="6.4" height="6.4" rx="1.2" fill="#159a5c"/><rect x="543.0" y="176.0" width="6.4" height="6.4" rx="1.2" fill="#0d2b21"/><rect x="543.0" y="184.0" width="6.4" height="6.4" rx="1.2" fill="#0f5c3f"/><rect x="551.0" y="136.0" width="6.4" height="6.4" rx="1.2" fill="#159a5c"/><rect x="551.0" y="144.0" width="6.4" height="6.4" rx="1.2" fill="#0d2b21"/><rect x="551.0" y="152.0" width="6.4" height="6.4" rx="1.2" fill="#5dffa8"/><rect x="551.0" y="160.0" width="6.4" height="6.4" rx="1.2" fill="#0d2b21"/><rect x="551.0" y="168.0" width="6.4" height="6.4" rx="1.2" fill="#0f5c3f"/><rect x="551.0" y="176.0" width="6.4" height="6.4" rx="1.2" fill="#159a5c"/><rect x="551.0" y="184.0" width="6.4" height="6.4" rx="1.2" fill="#159a5c"/><rect x="559.0" y="136.0" width="6.4" height="6.4" rx="1.2" fill="#5dffa8"/><rect x="559.0" y="144.0" width="6.4" height="6.4" rx="1.2" fill="#0d2b21"/><rect x="559.0" y="152.0" width="6.4" height="6.4" rx="1.2" fill="#0d2b21"/><rect x="559.0" y="160.0" width="6.4" height="6.4" rx="1.2" fill="#0d2b21"/><rect x="559.0" y="168.0" width="6.4" height="6.4" rx="1.2" fill="#159a5c"/><rect x="559.0" y="176.0" width="6.4" height="6.4" rx="1.2" fill="#0d2b21"/><rect x="559.0" y="184.0" width="6.4" height="6.4" rx="1.2" fill="#0d2b21"/><rect x="567.0" y="136.0" width="6.4" height="6.4" rx="1.2" fill="#159a5c"/><rect x="567.0" y="144.0" width="6.4" height="6.4" rx="1.2" fill="#0d2b21"/><rect x="567.0" y="152.0" width="6.4" height="6.4" rx="1.2" fill="#0d2b21"/><rect x="567.0" y="160.0" width="6.4" height="6.4" rx="1.2" fill="#22c76e"/><rect x="567.0" y="168.0" width="6.4" height="6.4" rx="1.2" fill="#22c76e"/><rect x="567.0" y="176.0" width="6.4" height="6.4" rx="1.2" fill="#22c76e"/><rect x="567.0" y="184.0" width="6.4" height="6.4" rx="1.2" fill="#5dffa8"/><rect x="575.0" y="136.0" width="6.4" height="6.4" rx="1.2" fill="#5dffa8"/><rect x="575.0" y="144.0" width="6.4" height="6.4" rx="1.2" fill="#5dffa8"/><rect x="575.0" y="152.0" width="6.4" height="6.4" rx="1.2" fill="#5dffa8"/><rect x="575.0" y="160.0" width="6.4" height="6.4" rx="1.2" fill="#5dffa8"/><rect x="575.0" y="168.0" width="6.4" height="6.4" rx="1.2" fill="#5dffa8"/><rect x="575.0" y="176.0" width="6.4" height="6.4" rx="1.2" fill="#5dffa8"/><rect x="575.0" y="184.0" width="6.4" height="6.4" rx="1.2" fill="#0d2b21"/><rect x="583.0" y="136.0" width="6.4" height="6.4" rx="1.2" fill="#0d2b21"/><rect x="583.0" y="144.0" width="6.4" height="6.4" rx="1.2" fill="#159a5c"/><rect x="583.0" y="152.0" width="6.4" height="6.4" rx="1.2" fill="#0f5c3f"/><rect x="583.0" y="160.0" width="6.4" height="6.4" rx="1.2" fill="#0f5c3f"/><rect x="583.0" y="168.0" width="6.4" height="6.4" rx="1.2" fill="#0f5c3f"/><rect x="583.0" y="176.0" width="6.4" height="6.4" rx="1.2" fill="#159a5c"/><rect x="583.0" y="184.0" width="6.4" height="6.4" rx="1.2" fill="#0d2b21"/><rect x="591.0" y="136.0" width="6.4" height="6.4" rx="1.2" fill="#0d2b21"/><rect x="591.0" y="144.0" width="6.4" height="6.4" rx="1.2" fill="#0d2b21"/><rect x="591.0" y="152.0" width="6.4" height="6.4" rx="1.2" fill="#0d2b21"/><rect x="591.0" y="160.0" width="6.4" height="6.4" rx="1.2" fill="#159a5c"/><rect x="591.0" y="168.0" width="6.4" height="6.4" rx="1.2" fill="#0f5c3f"/><rect x="591.0" y="176.0" width="6.4" height="6.4" rx="1.2" fill="#0d2b21"/><rect x="591.0" y="184.0" width="6.4" height="6.4" rx="1.2" fill="#0d2b21"/><rect x="599.0" y="136.0" width="6.4" height="6.4" rx="1.2" fill="#0d2b21"/><rect x="599.0" y="144.0" width="6.4" height="6.4" rx="1.2" fill="#0d2b21"/><rect x="599.0" y="152.0" width="6.4" height="6.4" rx="1.2" fill="#0f5c3f"/><rect x="599.0" y="160.0" width="6.4" height="6.4" rx="1.2" fill="#22c76e"/><rect x="599.0" y="168.0" width="6.4" height="6.4" rx="1.2" fill="#159a5c"/><rect x="599.0" y="176.0" width="6.4" height="6.4" rx="1.2" fill="#0f5c3f"/><rect x="599.0" y="184.0" width="6.4" height="6.4" rx="1.2" fill="#0f5c3f"/><rect x="607.0" y="136.0" width="6.4" height="6.4" rx="1.2" fill="#0d2b21"/><rect x="607.0" y="144.0" width="6.4" height="6.4" rx="1.2" fill="#22c76e"/><rect x="607.0" y="152.0" width="6.4" height="6.4" rx="1.2" fill="#22c76e"/><rect x="607.0" y="160.0" width="6.4" height="6.4" rx="1.2" fill="#159a5c"/><rect x="607.0" y="168.0" width="6.4" height="6.4" rx="1.2" fill="#0d2b21"/><rect x="607.0" y="176.0" width="6.4" height="6.4" rx="1.2" fill="#0d2b21"/><rect x="607.0" y="184.0" width="6.4" height="6.4" rx="1.2" fill="#0d2b21"/><rect x="615.0" y="136.0" width="6.4" height="6.4" rx="1.2" fill="#0d2b21"/><rect x="615.0" y="144.0" width="6.4" height="6.4" rx="1.2" fill="#0d2b21"/><rect x="615.0" y="152.0" width="6.4" height="6.4" rx="1.2" fill="#159a5c"/><rect x="615.0" y="160.0" width="6.4" height="6.4" rx="1.2" fill="#0d2b21"/><rect x="615.0" y="168.0" width="6.4" height="6.4" rx="1.2" fill="#0d2b21"/><rect x="615.0" y="176.0" width="6.4" height="6.4" rx="1.2" fill="#159a5c"/><rect x="615.0" y="184.0" width="6.4" height="6.4" rx="1.2" fill="#0d2b21"/><rect x="623.0" y="136.0" width="6.4" height="6.4" rx="1.2" fill="#0f5c3f"/><rect x="623.0" y="144.0" width="6.4" height="6.4" rx="1.2" fill="#0d2b21"/><rect x="623.0" y="152.0" width="6.4" height="6.4" rx="1.2" fill="#0d2b21"/><rect x="623.0" y="160.0" width="6.4" height="6.4" rx="1.2" fill="#0d2b21"/><rect x="623.0" y="168.0" width="6.4" height="6.4" rx="1.2" fill="#0d2b21"/><rect x="623.0" y="176.0" width="6.4" height="6.4" rx="1.2" fill="#0d2b21"/><rect x="623.0" y="184.0" width="6.4" height="6.4" rx="1.2" fill="#0d2b21"/><rect x="631.0" y="136.0" width="6.4" height="6.4" rx="1.2" fill="#0d2b21"/><rect x="631.0" y="144.0" width="6.4" height="6.4" rx="1.2" fill="#0d2b21"/><rect x="631.0" y="152.0" width="6.4" height="6.4" rx="1.2" fill="#0d2b21"/><rect x="631.0" y="160.0" width="6.4" height="6.4" rx="1.2" fill="#0d2b21"/><rect x="631.0" y="168.0" width="6.4" height="6.4" rx="1.2" fill="#0d2b21"/><rect x="631.0" y="176.0" width="6.4" height="6.4" rx="1.2" fill="#0d2b21"/><rect x="631.0" y="184.0" width="6.4" height="6.4" rx="1.2" fill="#0d2b21"/><rect x="639.0" y="136.0" width="6.4" height="6.4" rx="1.2" fill="#0d2b21"/><rect x="639.0" y="144.0" width="6.4" height="6.4" rx="1.2" fill="#0d2b21"/><rect x="639.0" y="152.0" width="6.4" height="6.4" rx="1.2" fill="#0d2b21"/><rect x="639.0" y="160.0" width="6.4" height="6.4" rx="1.2" fill="#0d2b21"/><rect x="639.0" y="168.0" width="6.4" height="6.4" rx="1.2" fill="#0d2b21"/><rect x="639.0" y="176.0" width="6.4" height="6.4" rx="1.2" fill="#0d2b21"/><rect x="639.0" y="184.0" width="6.4" height="6.4" rx="1.2" fill="#0d2b21"/><rect x="647.0" y="136.0" width="6.4" height="6.4" rx="1.2" fill="#0d2b21"/><rect x="647.0" y="144.0" width="6.4" height="6.4" rx="1.2" fill="#0d2b21"/><rect x="647.0" y="152.0" width="6.4" height="6.4" rx="1.2" fill="#0d2b21"/><rect x="647.0" y="160.0" width="6.4" height="6.4" rx="1.2" fill="#0d2b21"/><rect x="647.0" y="168.0" width="6.4" height="6.4" rx="1.2" fill="#0d2b21"/><rect x="647.0" y="176.0" width="6.4" height="6.4" rx="1.2" fill="#0d2b21"/><rect x="647.0" y="184.0" width="6.4" height="6.4" rx="1.2" fill="#0d2b21"/><rect x="655.0" y="136.0" width="6.4" height="6.4" rx="1.2" fill="#0d2b21"/><rect x="655.0" y="144.0" width="6.4" height="6.4" rx="1.2" fill="#0d2b21"/><rect x="655.0" y="152.0" width="6.4" height="6.4" rx="1.2" fill="#0d2b21"/><rect x="655.0" y="160.0" width="6.4" height="6.4" rx="1.2" fill="#0d2b21"/><rect x="655.0" y="168.0" width="6.4" height="6.4" rx="1.2" fill="#0d2b21"/><rect x="655.0" y="176.0" width="6.4" height="6.4" rx="1.2" fill="#0d2b21"/><rect x="655.0" y="184.0" width="6.4" height="6.4" rx="1.2" fill="#0d2b21"/><rect x="663.0" y="136.0" width="6.4" height="6.4" rx="1.2" fill="#0d2b21"/><rect x="663.0" y="144.0" width="6.4" height="6.4" rx="1.2" fill="#0d2b21"/><rect x="663.0" y="152.0" width="6.4" height="6.4" rx="1.2" fill="#0d2b21"/><rect x="663.0" y="160.0" width="6.4" height="6.4" rx="1.2" fill="#0d2b21"/><rect x="663.0" y="168.0" width="6.4" height="6.4" rx="1.2" fill="#0d2b21"/><rect x="663.0" y="176.0" width="6.4" height="6.4" rx="1.2" fill="#0d2b21"/><rect x="663.0" y="184.0" width="6.4" height="6.4" rx="1.2" fill="#0d2b21"/><rect x="671.0" y="136.0" width="6.4" height="6.4" rx="1.2" fill="#0f5c3f"/><rect x="671.0" y="144.0" width="6.4" height="6.4" rx="1.2" fill="#0d2b21"/><rect x="671.0" y="152.0" width="6.4" height="6.4" rx="1.2" fill="#0f5c3f"/><rect x="671.0" y="160.0" width="6.4" height="6.4" rx="1.2" fill="#159a5c"/><rect x="671.0" y="168.0" width="6.4" height="6.4" rx="1.2" fill="#0d2b21"/><rect x="671.0" y="176.0" width="6.4" height="6.4" rx="1.2" fill="#0f5c3f"/><rect x="671.0" y="184.0" width="6.4" height="6.4" rx="1.2" fill="#0d2b21"/><rect x="679.0" y="136.0" width="6.4" height="6.4" rx="1.2" fill="#159a5c"/><rect x="679.0" y="144.0" width="6.4" height="6.4" rx="1.2" fill="#159a5c"/><rect x="679.0" y="152.0" width="6.4" height="6.4" rx="1.2" fill="#0d2b21"/><rect x="679.0" y="160.0" width="6.4" height="6.4" rx="1.2" fill="#0d2b21"/><rect x="679.0" y="168.0" width="6.4" height="6.4" rx="1.2" fill="#0d2b21"/><rect x="679.0" y="176.0" width="6.4" height="6.4" rx="1.2" fill="#5dffa8"/><rect x="679.0" y="184.0" width="6.4" height="6.4" rx="1.2" fill="#0d2b21"/><rect x="687.0" y="136.0" width="6.4" height="6.4" rx="1.2" fill="#0d2b21"/><rect x="687.0" y="144.0" width="6.4" height="6.4" rx="1.2" fill="#0f5c3f"/><rect x="687.0" y="152.0" width="6.4" height="6.4" rx="1.2" fill="#0f5c3f"/><rect x="687.0" y="160.0" width="6.4" height="6.4" rx="1.2" fill="#22c76e"/><rect x="687.0" y="168.0" width="6.4" height="6.4" rx="1.2" fill="#0f5c3f"/><rect x="687.0" y="176.0" width="6.4" height="6.4" rx="1.2" fill="#0d2b21"/><rect x="687.0" y="184.0" width="6.4" height="6.4" rx="1.2" fill="#0d2b21"/><rect x="695.0" y="136.0" width="6.4" height="6.4" rx="1.2" fill="#0d2b21"/><rect x="695.0" y="144.0" width="6.4" height="6.4" rx="1.2" fill="#0f5c3f"/><rect x="695.0" y="152.0" width="6.4" height="6.4" rx="1.2" fill="#0d2b21"/><rect x="695.0" y="160.0" width="6.4" height="6.4" rx="1.2" fill="#0d2b21"/><rect x="695.0" y="168.0" width="6.4" height="6.4" rx="1.2" fill="#159a5c"/><rect x="695.0" y="176.0" width="6.4" height="6.4" rx="1.2" fill="#0d2b21"/><!--HEATMAP_END--><text x="272" y="212" class="panel-value" font-size="20"><!--CTOTAL_START-->706<!--CTOTAL_END--></text><text x="272" y="228" class="panel-dim" font-size="9.5">CONTRIBUTIONS · LAST 365D (PUBLIC)</text><text x="572" y="228" class="panel-dim" font-size="8.5">LESS</text><rect x="606" y="220" width="7" height="7" rx="1" fill="#0d2b21"/><rect x="617" y="220" width="7" height="7" rx="1" fill="#0f5c3f"/><rect x="628" y="220" width="7" height="7" rx="1" fill="#159a5c"/><rect x="639" y="220" width="7" height="7" rx="1" fill="#22c76e"/><rect x="650" y="220" width="7" height="7" rx="1" fill="#5dffa8"/><text x="665" y="228" class="panel-dim" font-size="8.5">MORE</text><rect x="742" y="96" width="238" height="210" rx="8" fill="#061b14" stroke="#1f5c47" stroke-width="1"/><path d="M742,106 V96 H752" fill="none" stroke="#5dffa8" stroke-width="1.6"/><path d="M970,96 H980 V106" fill="none" stroke="#5dffa8" stroke-width="1.6"/><path d="M980,296 V306 H970" fill="none" stroke="#5dffa8" stroke-width="1.6"/><path d="M752,306 H742 V296" fill="none" stroke="#5dffa8" stroke-width="1.6"/><text x="758" y="118" class="panel-title">LANGUAGE MIX</text><!--LANGMIX_START--><path d="M820.00,140.00 A52,52 0 0 1 870.23,178.54 L848.98,184.24 A30,30 0 0 0 820.00,162.00 Z" fill="#e34c26" opacity="0.92" stroke="#04100b" stroke-width="1"/><path d="M870.23,178.54 A52,52 0 0 1 856.77,228.77 L841.21,213.21 A30,30 0 0 0 848.98,184.24 Z" fill="#563d7c" opacity="0.92" stroke="#04100b" stroke-width="1"/><path d="M856.77,228.77 A52,52 0 0 1 806.54,242.23 L812.24,220.98 A30,30 0 0 0 841.21,213.21 Z" fill="#3572A5" opacity="0.92" stroke="#04100b" stroke-width="1"/><path d="M806.54,242.23 A52,52 0 0 1 769.77,205.46 L791.02,199.76 A30,30 0 0 0 812.24,220.98 Z" fill="#3178c6" opacity="0.92" stroke="#04100b" stroke-width="1"/><path d="M769.77,205.46 A52,52 0 0 1 783.23,155.23 L798.79,170.79 A30,30 0 0 0 791.02,199.76 Z" fill="#f1e05a" opacity="0.92" stroke="#04100b" stroke-width="1"/><path d="M783.23,155.23 A52,52 0 0 1 794.00,146.97 L805.00,166.02 A30,30 0 0 0 798.79,170.79 Z" fill="#4F5D95" opacity="0.92" stroke="#04100b" stroke-width="1"/><path d="M794.00,146.97 A52,52 0 0 1 806.54,141.77 L812.24,163.02 A30,30 0 0 0 805.00,166.02 Z" fill="#89e051" opacity="0.92" stroke="#04100b" stroke-width="1"/><path d="M806.54,141.77 A52,52 0 0 1 820.00,140.00 L820.00,162.00 A30,30 0 0 0 812.24,163.02 Z" fill="#AA6746" opacity="0.92" stroke="#04100b" stroke-width="1"/><text x="820" y="190" text-anchor="middle" class="panel-value" font-size="17">25</text><text x="820" y="204" text-anchor="middle" class="panel-dim" font-size="8">REPOS</text><circle cx="892" cy="148.0" r="3.4" fill="#e34c26"/><text x="902" y="151.5" class="panel-text" font-size="10.5">HTML</text><text x="964" y="151.5" text-anchor="end" class="panel-dim" font-size="10">5</text><circle cx="892" cy="164.5" r="3.4" fill="#563d7c"/><text x="902" y="168.0" class="panel-text" font-size="10.5">CSS</text><text x="964" y="168.0" text-anchor="end" class="panel-dim" font-size="10">4</text><circle cx="892" cy="181.0" r="3.4" fill="#3572A5"/><text x="902" y="184.5" class="panel-text" font-size="10.5">Python</text><text x="964" y="184.5" text-anchor="end" class="panel-dim" font-size="10">4</text><circle cx="892" cy="197.5" r="3.4" fill="#3178c6"/><text x="902" y="201.0" class="panel-text" font-size="10.5">TypeScript</text><text x="964" y="201.0" text-anchor="end" class="panel-dim" font-size="10">4</text><circle cx="892" cy="214.0" r="3.4" fill="#f1e05a"/><text x="902" y="217.5" class="panel-text" font-size="10.5">JavaScript</text><text x="964" y="217.5" text-anchor="end" class="panel-dim" font-size="10">4</text><circle cx="892" cy="230.5" r="3.4" fill="#4F5D95"/><text x="902" y="234.0" class="panel-text" font-size="10.5">PHP</text><text x="964" y="234.0" text-anchor="end" class="panel-dim" font-size="10">1</text><circle cx="892" cy="247.0" r="3.4" fill="#89e051"/><text x="902" y="250.5" class="panel-text" font-size="10.5">Shell</text><text x="964" y="250.5" text-anchor="end" class="panel-dim" font-size="10">1</text><circle cx="892" cy="263.5" r="3.4" fill="#AA6746"/><text x="902" y="267.0" class="panel-text" font-size="10.5">Solidity</text><text x="964" y="267.0" text-anchor="end" class="panel-dim" font-size="10">1</text><!--LANGMIX_END--><rect x="20" y="322" width="220" height="210" rx="8" fill="#061b14" stroke="#1f5c47" stroke-width="1"/><path d="M20,332 V322 H30" fill="none" stroke="#5dffa8" stroke-width="1.6"/><path d="M230,322 H240 V332" fill="none" stroke="#5dffa8" stroke-width="1.6"/><path d="M240,522 V532 H230" fill="none" stroke="#5dffa8" stroke-width="1.6"/><path d="M30,532 H20 V522" fill="none" stroke="#5dffa8" stroke-width="1.6"/><text x="36" y="344" class="panel-title">MONTHLY ACTIVITY</text><!--MONTHLY_START--><rect x="37.0" y="502.0" width="11.5" height="0.0" rx="1.5" fill="#22c76e" opacity="0.50"/><text x="42.2" y="515" text-anchor="middle" class="panel-dim" font-size="7.6">07</text><rect x="51.5" y="502.0" width="11.5" height="0.0" rx="1.5" fill="#22c76e" opacity="0.50"/><text x="56.7" y="515" text-anchor="middle" class="panel-dim" font-size="7.6">08</text><rect x="65.9" y="493.0" width="11.5" height="9.0" rx="1.5" fill="#22c76e" opacity="0.53"/><text x="71.1" y="515" text-anchor="middle" class="panel-dim" font-size="7.6">09</text><rect x="80.3" y="495.0" width="11.5" height="7.0" rx="1.5" fill="#22c76e" opacity="0.53"/><text x="85.5" y="515" text-anchor="middle" class="panel-dim" font-size="7.6">10</text><rect x="94.8" y="450.8" width="11.5" height="51.2" rx="1.5" fill="#22c76e" opacity="0.70"/><text x="100.0" y="515" text-anchor="middle" class="panel-dim" font-size="7.6">11</text><rect x="109.2" y="472.2" width="11.5" height="29.8" rx="1.5" fill="#22c76e" opacity="0.62"/><text x="114.5" y="515" text-anchor="middle" class="panel-dim" font-size="7.6">12</text><rect x="123.7" y="454.3" width="11.5" height="47.7" rx="1.5" fill="#22c76e" opacity="0.69"/><text x="128.9" y="515" text-anchor="middle" class="panel-dim" font-size="7.6">01</text><rect x="138.1" y="464.2" width="11.5" height="37.8" rx="1.5" fill="#22c76e" opacity="0.65"/><text x="143.3" y="515" text-anchor="middle" class="panel-dim" font-size="7.6">02</text><rect x="152.6" y="412.0" width="11.5" height="90.0" rx="1.5" fill="#22c76e" opacity="0.85"/><text x="157.8" y="515" text-anchor="middle" class="panel-dim" font-size="7.6">03</text><rect x="167.0" y="447.8" width="11.5" height="54.2" rx="1.5" fill="#22c76e" opacity="0.71"/><text x="172.2" y="515" text-anchor="middle" class="panel-dim" font-size="7.6">04</text><rect x="181.5" y="497.5" width="11.5" height="4.5" rx="1.5" fill="#22c76e" opacity="0.52"/><text x="186.7" y="515" text-anchor="middle" class="panel-dim" font-size="7.6">05</text><rect x="195.9" y="495.0" width="11.5" height="7.0" rx="1.5" fill="#22c76e" opacity="0.53"/><text x="201.1" y="515" text-anchor="middle" class="panel-dim" font-size="7.6">06</text><rect x="210.4" y="489.1" width="11.5" height="12.9" rx="1.5" fill="#22c76e" opacity="0.55"/><text x="215.6" y="515" text-anchor="middle" class="panel-dim" font-size="7.6">07</text><!--MONTHLY_END--><text x="36" y="524" class="panel-dim" font-size="9">MONTHLY CONTRIBUTIONS · LAST 12M</text><rect x="256" y="322" width="470" height="210" rx="8" fill="#061b14" stroke="#1f5c47" stroke-width="1"/><path d="M256,332 V322 H266" fill="none" stroke="#5dffa8" stroke-width="1.6"/><path d="M716,322 H726 V332" fill="none" stroke="#5dffa8" stroke-width="1.6"/><path d="M726,522 V532 H716" fill="none" stroke="#5dffa8" stroke-width="1.6"/><path d="M266,532 H256 V522" fill="none" stroke="#5dffa8" stroke-width="1.6"/><text x="272" y="344" class="panel-title">GLOBAL REACH</text><g transform="translate(272,362)"><path d="M275.8,62.9L274.4,66.1L271.5,65.8L270.1,64.3L272.9,64.6L275.5,62.4ZM298.5,50.3L294.5,51.2L293.9,53.7L292.4,53.8L292.9,54.6L292.0,54.9L291.6,56.2L288.7,56.8L288.0,58.3L286.6,58.6L281.4,58.3L282.6,57.0L281.3,56.5L281.1,53.5L281.9,52.1L283.6,52.5L287.4,50.0L291.7,50.5L293.6,49.0L294.5,49.6L294.6,50.9L296.7,50.1ZM231.5,44.6L232.7,46.6L231.8,47.6L230.6,46.9L230.5,45.0ZM263.8,48.5L260.4,47.2L260.1,46.2L261.8,46.0ZM236.3,102.2L236.3,104.5L233.8,104.5L233.9,108.0L235.5,109.5L232.3,109.9L221.3,109.1L222.3,105.0L223.8,103.2L223.1,101.0L223.3,99.5L222.0,97.1L226.9,96.8L228.5,99.2L230.6,99.1L231.3,98.0L233.6,98.4L234.1,102.5ZM130.3,114.5L136.5,117.8L135.3,120.0L138.8,120.1L140.7,118.0L141.3,119.5L136.2,123.5L135.4,127.5L137.0,128.7L137.6,130.4L135.8,132.0L130.7,132.4L130.6,134.6L127.4,134.5L127.5,135.9L128.9,136.0L129.1,136.6L127.5,136.6L128.3,136.9L127.1,137.5L126.7,139.1L124.3,140.1L126.4,141.4L126.5,142.3L123.9,144.5L122.6,144.5L123.3,144.7L122.1,146.2L123.2,147.1L118.9,146.6L117.0,144.0L119.3,140.9L119.7,139.3L118.8,138.8L119.9,138.6L119.1,138.4L118.7,136.5L119.2,133.3L120.3,132.1L119.9,130.3L121.5,127.4L120.7,124.1L121.8,121.1L123.4,119.6L123.1,117.2L124.6,116.4L125.0,114.8L126.0,114.0L128.3,115.1L128.8,114.3ZM123.0,149.8L123.0,147.4L125.4,149.2L126.9,149.8ZM227.7,38.0L227.1,39.8L224.7,40.4L218.6,39.5L222.9,39.2L222.6,38.5L225.3,37.6ZM388.4,136.0L388.0,134.5L383.9,134.4L385.0,136.9L386.6,137.6L387.1,136.7L387.9,137.1ZM394.8,121.0L394.0,117.9L391.4,115.8L391.2,114.7L390.0,114.7L388.9,112.4L385.9,110.8L384.6,106.6L382.8,106.0L381.3,102.1L380.2,103.8L379.9,107.8L378.8,109.5L372.6,106.6L374.4,103.8L373.9,103.4L373.4,103.9L373.2,103.3L372.1,103.7L368.3,102.6L369.3,103.6L366.7,103.9L365.2,106.0L365.5,106.8L364.2,106.4L363.6,107.0L363.7,106.4L362.2,105.3L359.1,107.2L359.6,108.2L358.2,108.2L358.1,109.4L357.3,108.2L354.9,111.6L349.7,112.8L346.1,114.6L345.7,116.9L346.6,118.9L345.7,118.1L346.2,119.1L345.4,118.7L348.5,124.7L347.6,127.5L348.8,128.0L350.8,128.4L353.5,127.2L357.6,127.2L361.0,125.3L367.3,124.5L371.1,125.6L372.9,128.2L375.5,125.7L375.6,126.7L374.4,128.5L375.4,128.4L375.8,127.4L376.0,128.9L377.3,128.7L378.7,131.4L382.5,132.4L384.2,131.4L383.9,131.9L386.0,132.7L387.8,131.4L390.3,131.0L392.0,126.7L394.0,124.4ZM266.4,45.4L268.6,47.0L267.6,47.1L266.7,49.0L265.7,48.6L265.7,47.7L263.9,48.5L263.6,47.8L262.0,46.0L263.9,46.2L263.7,45.3L265.4,46.1ZM227.6,41.6L230.6,42.1L230.8,43.4L230.1,43.6L229.5,44.6L228.5,44.2L226.2,42.2ZM320.2,66.8L319.8,68.1L319.3,66.4L318.2,66.2L317.8,65.1L317.7,66.5L316.1,67.1L315.5,64.4L314.6,64.0L315.4,63.4L314.7,62.6L315.1,61.9L316.6,62.3L316.8,63.3L320.0,63.6L318.4,65.0L319.0,65.8L319.8,65.0ZM212.8,35.0L214.7,36.2L214.0,37.0L212.8,36.6L210.0,35.3ZM207.2,74.5L209.7,77.9L208.1,78.7L203.5,78.7L203.5,79.5L203.6,80.4L201.2,80.0L200.2,79.3L200.5,77.8L203.8,75.2ZM241.9,43.3L240.6,44.7L241.2,45.2L237.8,46.0L235.0,45.6L234.3,44.8L235.1,43.9L234.3,43.3L234.7,42.8ZM244.3,93.1L244.6,94.0L243.3,95.3L242.8,94.9L242.5,93.3ZM211.3,77.9L211.6,79.1L210.3,80.8L210.3,83.7L208.9,83.8L208.9,83.2L208.1,78.7L210.4,77.2ZM135.8,112.2L134.7,111.3L131.4,111.7L130.3,114.5L128.8,114.3L128.3,115.1L126.0,114.0L124.0,115.2L122.9,112.5L123.2,111.4L121.8,109.1L122.8,108.1L122.0,107.4L122.5,105.4L122.9,104.0L121.9,102.3L127.0,101.0L127.5,103.4L133.0,105.4L133.4,108.0L135.6,108.1L135.5,109.1L136.6,110.1ZM137.9,88.4L139.7,87.7L142.3,88.1L144.0,85.9L145.9,89.3L142.5,92.2L144.7,91.5L145.3,92.7L146.6,92.4L146.2,93.4L149.0,91.2L152.3,92.4L152.3,94.0L153.9,93.1L158.1,93.6L161.5,95.8L163.6,96.1L164.4,98.4L163.7,100.5L160.2,104.4L159.4,104.3L159.1,109.6L156.8,114.2L155.5,115.2L152.4,115.4L147.4,117.9L147.3,121.3L143.3,125.1L145.1,123.3L144.2,122.9L142.4,126.4L141.5,126.8L142.0,125.8L141.2,125.1L136.5,123.1L141.1,119.8L141.0,118.2L140.2,118.1L140.5,117.0L140.3,116.2L139.2,116.3L138.7,114.6L136.1,114.3L135.9,111.8L136.6,110.1L135.5,109.1L135.6,108.1L133.4,108.0L133.0,105.4L127.5,103.4L127.0,101.0L123.0,102.5L120.6,102.4L120.7,100.7L118.7,101.3L117.4,100.7L116.5,98.7L117.8,96.0L121.4,95.2L122.1,91.8L121.3,89.9L122.4,89.8L121.5,88.7L124.5,88.2L124.9,89.2L126.9,89.8L129.4,88.1L127.7,85.9L130.1,86.6L133.3,84.9L134.1,86.3L134.0,88.6L135.0,89.2ZM146.3,90.8L147.8,90.9L146.5,92.2L145.2,92.4L144.9,91.9L145.0,90.8ZM319.0,60.6L319.5,61.5L316.3,61.6L315.5,61.2L316.9,60.0ZM237.8,109.7L241.2,113.7L242.9,114.4L240.1,115.9L238.2,118.2L237.0,118.3L235.2,117.8L233.5,119.5L232.3,119.4L231.4,114.2L232.6,114.2L232.6,110.3ZM241.4,29.8L244.7,30.4L244.6,31.3L247.0,32.8L245.3,33.1L245.8,34.2L244.3,35.1L241.9,34.8L235.8,34.9L235.3,34.0L236.2,33.5L235.7,32.2L238.4,32.0L239.5,30.4ZM99.0,70.6L98.9,72.6L98.2,73.4L97.9,71.2ZM122.0,0.6L132.0,1.4L122.9,2.5L127.7,2.4L120.5,3.3L118.8,3.8L120.6,3.8L119.6,4.2L112.9,4.5L115.8,5.0L110.8,4.9L115.9,5.3L111.0,6.8L107.1,6.6L111.2,7.6L97.4,7.7L100.8,7.0L99.3,6.3L102.6,6.4L103.9,5.9L99.9,5.9L100.8,5.3L107.0,5.0L103.7,5.0L104.7,4.9L101.2,3.6L108.5,4.3L105.5,3.6L112.9,3.0L110.7,2.9L112.9,2.4L102.8,3.4L101.2,3.1L105.1,2.7L99.7,3.2L97.9,2.9L103.1,2.5L97.3,2.8L99.8,2.3L94.9,2.1L103.1,1.3L109.8,1.9L106.1,1.3L110.6,1.0L108.9,0.8ZM94.6,2.7L102.9,4.7L96.1,5.9L91.8,5.0L95.3,4.6L90.6,4.7L90.0,4.4L91.5,4.2L88.6,3.8L91.7,3.7L89.1,3.6L92.1,3.3L90.1,3.0L92.9,2.7L91.8,2.5ZM80.5,4.7L85.1,5.5L85.7,6.3L83.1,5.9L78.7,5.7L80.5,5.3L78.0,4.7ZM89.3,5.5L90.7,6.1L87.5,6.0L88.4,5.9L86.7,5.3ZM72.6,5.4L70.6,5.8L68.6,5.7ZM71.9,6.0L72.9,6.0L71.4,6.3L72.2,6.6L69.8,6.8L68.5,6.2ZM65.6,6.8L64.7,7.0L65.0,7.6L62.4,7.4L60.8,8.3L57.2,7.8ZM91.6,7.3L97.8,7.9L95.2,8.0L98.2,8.9L108.7,8.7L109.7,9.1L108.6,9.3L109.8,9.4L108.8,9.8L105.4,9.8L95.0,9.7L93.1,7.9L88.5,7.5ZM74.5,8.2L77.8,8.3L77.5,9.1L76.1,9.4L68.7,10.0L67.1,9.7L71.1,9.1L65.7,9.2L63.1,9.1L66.1,8.6L63.7,8.7L66.3,8.4L64.3,8.3L66.6,8.1L65.6,7.8L73.5,8.8L72.0,7.8L73.8,7.4ZM87.5,7.8L87.9,8.9L87.1,9.3L84.4,9.3L83.8,8.9L85.6,8.6L82.3,8.4L83.5,8.5L82.5,7.8L84.8,8.4L83.6,7.7ZM92.5,9.3L89.1,9.4L90.9,8.7ZM60.5,10.3L63.2,10.2L65.8,11.1L61.5,11.9L59.4,13.2L56.4,13.6L55.3,13.0L53.0,12.6L55.5,10.7L54.4,10.1ZM93.0,10.3L96.4,10.6L94.3,11.8L91.7,11.8L92.6,12.1L91.9,12.6L90.5,12.6L90.0,10.8ZM84.6,10.5L88.1,10.6L86.6,11.6L89.0,12.0L88.8,12.8L85.6,13.3L81.3,11.8L84.5,11.6L82.8,11.0ZM101.1,13.7L103.2,13.7L103.4,13.0L101.9,12.6L103.9,12.6L102.2,11.8L103.9,11.8L102.4,11.4L105.9,10.7L108.4,11.4L108.8,11.8L107.6,12.3L108.4,12.1L108.0,12.7L109.3,12.1L110.8,12.7L110.7,12.2L112.1,12.4L111.0,12.0L112.9,11.8L115.1,12.2L114.1,12.9L116.1,12.6L115.0,12.9L115.6,13.0L115.2,13.5L119.3,13.1L119.8,13.4L118.1,13.9L120.5,13.6L119.0,14.3L119.6,14.7L122.4,14.0L123.3,14.3L121.3,14.7L124.8,15.0L122.3,15.3L125.4,15.6L122.2,16.0L126.0,16.7L125.7,17.1L127.6,16.9L128.9,17.4L127.8,17.7L129.9,17.8L129.0,18.2L132.0,18.4L130.5,18.7L131.1,19.1L130.3,19.5L129.3,19.3L129.2,20.3L127.0,19.4L128.1,18.8L126.4,19.1L125.0,18.5L123.9,18.6L124.6,19.2L122.9,18.9L123.6,19.3L128.2,21.6L127.9,22.1L127.2,21.6L127.9,22.5L127.3,22.8L122.7,21.6L125.9,23.6L119.7,22.3L117.3,20.7L111.8,20.9L111.3,20.5L112.4,19.7L114.7,20.4L114.3,19.9L117.0,19.7L115.9,19.0L118.6,17.8L117.3,16.6L115.5,15.8L113.3,16.2L114.3,15.6L110.3,14.1L110.6,14.8L107.2,14.7L108.0,15.1L98.3,14.2L97.5,13.6L100.4,13.7L97.1,13.2L97.8,11.4L102.9,10.7L101.0,11.8L103.0,13.3ZM109.7,10.8L113.9,11.7L109.7,11.8L108.1,10.9ZM78.2,11.6L76.2,11.0L77.9,10.7L79.1,10.9ZM66.9,12.0L69.1,11.5L70.9,11.8L70.4,12.3L72.4,11.5L75.1,13.0L75.7,12.7L74.6,11.4L76.7,11.3L78.0,11.8L79.1,13.6L83.4,14.7L80.9,15.4L82.5,15.7L81.1,16.1L76.5,15.4L68.9,16.4L67.9,15.7L64.5,15.4L63.7,14.7L70.4,14.5L62.2,13.7L65.9,13.2L62.4,13.2L61.4,12.9L62.2,12.0L66.7,11.1L67.5,11.5ZM115.6,41.9L112.7,43.1L110.3,43.2L109.4,43.8L110.4,44.2L106.0,45.3L105.3,45.0L107.0,43.7L107.5,42.3L107.0,41.7L108.0,42.3L109.5,42.1L108.1,40.9L103.6,40.3L103.2,38.7L100.9,37.8L99.0,37.6L97.0,38.7L91.2,37.9L90.6,37.2L56.4,37.6L56.3,36.9L55.3,36.9L55.5,36.4L54.3,36.5L54.2,35.6L52.7,36.0L50.8,35.3L52.0,34.7L50.6,34.7L51.1,34.0L52.0,34.3L51.6,33.4L50.3,34.6L50.3,33.4L49.0,32.7L50.5,33.0L49.8,32.3L48.5,33.0L47.5,32.5L48.4,31.9L47.4,31.7L48.5,30.6L47.8,31.0L47.9,29.9L45.7,29.4L41.8,26.1L38.9,26.9L36.9,25.3L34.5,25.3L34.5,15.2L41.5,16.2L40.7,15.8L42.6,15.1L48.4,14.6L44.1,16.2L49.4,15.1L50.8,14.5L50.4,14.2L53.4,15.5L54.6,14.6L54.9,15.5L57.7,15.0L66.3,16.0L67.6,16.5L66.1,17.2L72.3,17.0L75.8,18.7L74.9,17.2L77.6,16.3L74.0,16.6L77.1,16.0L82.8,17.3L87.8,17.4L86.3,16.6L87.8,16.4L89.6,16.7L89.1,17.5L90.3,18.0L89.0,18.0L89.8,18.5L90.4,17.7L90.2,16.9L92.7,16.3L91.3,16.1L92.6,15.4L88.9,14.6L89.7,14.2L89.0,13.4L91.1,12.6L95.0,14.6L93.3,15.2L96.4,15.4L95.4,15.6L96.6,16.7L97.8,15.6L99.3,16.1L98.9,17.0L100.1,17.9L103.2,16.1L102.4,15.0L107.5,15.7L106.0,16.5L107.4,17.8L105.9,18.5L103.2,18.0L104.5,18.9L100.9,18.6L101.8,19.0L100.0,19.9L95.1,19.2L100.5,20.1L96.6,21.7L92.4,21.2L96.0,22.3L93.0,23.1L91.1,25.1L90.8,26.7L91.6,27.5L93.0,27.0L93.9,28.6L93.5,29.0L96.2,28.7L102.5,31.0L106.2,31.0L106.3,33.2L108.4,34.7L108.1,35.3L110.5,35.2L111.0,34.1L109.5,31.4L113.3,29.6L112.9,28.1L110.9,27.1L112.4,26.1L112.1,24.8L111.3,24.8L112.1,24.0L111.4,23.2L112.3,22.9L116.8,23.0L119.6,24.4L121.9,24.5L121.7,25.6L120.5,25.6L122.1,26.4L121.1,27.0L123.3,27.0L122.5,27.9L126.2,27.4L128.1,25.4L129.4,26.5L128.7,26.7L130.1,27.1L129.2,27.5L130.4,27.3L129.6,27.8L131.2,27.9L130.5,28.4L131.9,28.9L130.5,29.1L133.2,30.2L132.8,31.0L136.7,31.5L133.2,33.0L135.8,31.9L138.5,32.7L138.7,33.6L138.1,33.8L138.8,34.2L133.7,36.2L125.6,36.3L121.7,38.5L120.1,38.2L121.3,39.0ZM87.8,15.2L90.4,16.1L86.0,16.0L85.2,15.8L86.8,15.0ZM114.4,16.6L115.1,16.8L115.0,17.6L113.0,17.8L112.6,17.0ZM103.1,19.9L108.8,21.5L104.7,21.3L102.7,22.2L100.3,21.8L101.5,21.2L102.0,19.3ZM106.7,22.4L104.5,23.2L105.0,22.5ZM139.1,34.8L137.5,36.9L138.2,36.4L139.1,36.5L138.3,36.9L139.3,37.5L141.4,37.2L140.8,38.3L142.1,38.0L141.1,38.9L142.3,38.5L142.3,39.7L140.7,39.9L140.7,38.8L138.7,39.9L139.9,39.0L134.4,39.0L137.2,35.4ZM51.4,35.8L53.5,36.2L56.0,38.0L52.6,37.1L50.0,35.8ZM124.9,41.8L124.0,41.1L124.0,39.7L122.3,39.3L120.3,41.6L115.6,41.9L125.5,37.5L128.4,37.7L127.1,38.7L125.4,38.7L127.6,39.1L127.1,39.7L128.0,40.6L132.3,41.7L128.3,42.4L126.9,43.5L126.1,42.5L129.5,41.5L127.6,41.6L127.9,40.9ZM128.9,40.3L129.9,40.5L128.5,40.4L128.7,39.7ZM132.2,40.9L133.2,40.5L133.8,40.7L133.3,41.1L131.7,40.9L133.1,39.8ZM240.5,85.0L241.4,85.8L243.2,85.6L245.2,88.2L243.6,89.6L242.2,93.2L243.1,97.3L244.6,99.3L242.3,99.7L241.7,100.5L241.7,103.0L242.5,103.8L243.4,103.6L243.4,104.9L240.2,103.0L238.9,103.3L236.8,102.5L234.1,102.5L233.6,98.4L231.3,98.0L230.6,99.1L228.5,99.2L227.0,96.9L221.9,96.7L222.6,95.6L224.5,95.2L224.9,95.8L226.5,94.6L226.8,92.9L228.7,91.1L230.3,85.3L234.4,86.1L238.2,84.8ZM234.9,78.8L235.7,81.0L240.5,85.0L238.2,84.8L234.4,86.1L230.8,85.0L229.7,85.8L229.7,86.8L227.3,86.7L227.1,87.4L226.7,88.1L224.9,85.5L224.6,84.0L225.6,82.7L229.7,81.9L230.1,80.9L231.8,80.7ZM229.7,86.8L228.7,91.1L226.8,92.9L226.4,94.8L224.9,95.8L224.5,95.2L221.7,95.9L220.6,94.7L221.5,94.5L221.1,93.1L222.2,92.6L224.1,93.2L224.6,92.4L224.7,91.1L223.9,90.7L224.6,89.5L223.1,89.2L223.2,88.2L226.6,88.7L227.3,86.7ZM218.6,39.2L219.7,39.9L219.3,40.6L215.7,41.0L214.3,40.7L215.5,39.3ZM200.2,79.3L203.7,80.3L203.9,81.7L203.0,83.4L203.5,84.9L197.7,85.8L197.8,84.2L196.4,83.5L196.9,81.4L197.6,81.5L197.0,79.7ZM124.8,115.1L124.6,116.4L123.1,117.2L123.4,119.6L121.8,121.1L120.7,124.1L121.5,127.4L119.9,130.3L120.3,132.1L119.2,133.3L118.7,136.5L119.1,138.4L119.9,138.6L118.8,138.8L119.7,139.3L119.3,140.9L117.0,144.0L118.9,146.6L123.2,147.0L120.4,147.5L119.8,148.7L118.4,148.1L119.8,147.5L117.6,148.0L119.5,147.3L116.4,147.4L116.1,146.8L118.2,147.0L118.0,146.2L117.0,146.7L115.2,145.3L116.9,145.2L115.7,144.7L116.7,144.1L115.7,142.3L117.2,142.5L115.6,142.0L116.3,141.9L116.1,141.0L114.4,140.9L116.5,139.5L116.0,140.4L116.8,140.0L116.6,140.8L116.8,139.6L117.8,139.6L117.1,139.3L118.1,138.6L117.3,138.2L118.5,135.3L116.8,135.6L116.5,134.7L117.4,132.8L116.9,130.8L119.6,125.7L119.5,121.7L121.2,113.7L120.8,110.3L121.9,109.4L122.4,110.0L123.9,115.1ZM123.0,147.4L123.0,149.8L119.0,149.5L121.0,149.4L120.3,149.0L120.7,148.4L121.0,149.1L122.5,149.3L121.2,148.8L122.1,148.2L120.9,148.2L120.9,147.5ZM225.9,82.4L224.6,84.0L226.6,87.4L226.6,88.7L219.2,88.2L218.8,86.2L217.5,85.5L218.9,83.2L219.9,82.9L220.7,83.6L221.5,82.9L224.8,78.1L224.2,76.4L225.1,77.0L226.1,79.7L224.0,80.1ZM342.6,69.0L341.5,70.7L339.9,70.3L340.6,69.1ZM358.0,32.7L361.1,33.5L362.9,36.7L366.6,37.7L367.1,39.0L371.2,38.3L371.8,39.0L369.8,41.8L367.1,42.1L367.5,43.7L366.6,44.6L365.8,44.1L363.6,45.2L363.7,45.8L361.9,45.5L355.1,48.7L356.5,46.8L356.0,46.3L351.0,48.3L350.9,49.1L352.4,49.5L352.8,50.4L354.6,49.7L357.0,50.2L353.9,51.5L352.7,52.9L354.0,53.5L356.0,56.2L353.8,56.1L356.0,57.2L354.0,57.9L356.3,58.3L355.6,58.7L356.1,58.7L355.7,60.0L352.7,62.4L353.3,63.1L349.4,65.8L346.4,66.3L345.8,65.6L345.8,66.6L342.0,67.5L341.6,68.7L341.4,67.4L338.2,67.2L337.4,66.8L337.5,66.0L335.7,65.4L334.1,66.2L331.3,66.3L331.3,67.7L328.3,66.7L328.6,65.7L327.9,65.5L327.8,64.5L326.4,64.8L326.2,64.1L327.6,62.6L327.6,60.8L326.4,59.8L324.7,59.9L324.4,58.8L319.4,60.6L316.9,60.0L315.7,61.1L315.5,60.3L312.1,60.4L307.3,57.8L306.2,58.1L303.3,56.8L302.8,55.4L303.8,55.5L303.5,53.5L302.4,52.2L300.1,51.9L299.7,51.0L297.9,50.4L298.8,50.2L298.4,49.0L297.2,48.8L297.4,47.4L305.1,45.1L305.8,43.9L305.4,42.2L304.6,42.1L307.9,41.8L308.5,39.6L311.5,39.7L311.8,38.3L314.3,37.4L317.4,39.1L318.3,40.2L318.1,41.7L323.6,42.7L324.8,44.4L331.1,44.6L335.3,45.6L340.8,44.7L343.9,43.3L343.2,42.6L343.8,41.9L345.9,42.2L350.6,40.2L353.6,40.1L351.9,38.7L348.2,38.5L349.7,36.7L352.8,36.4L354.6,34.2L353.8,33.5ZM119.7,77.7L118.1,78.8L117.2,80.6L117.9,80.7L118.9,82.9L124.4,83.9L124.0,85.7L124.6,86.8L124.0,87.5L125.2,89.2L124.5,88.2L121.5,88.7L122.4,89.8L121.3,89.9L122.1,91.8L121.4,95.1L120.4,94.6L121.3,93.4L120.0,92.9L117.7,93.1L115.5,90.7L112.3,90.1L110.3,88.8L112.7,86.3L111.7,82.7L112.3,81.2L113.0,82.0L112.9,81.3L114.4,80.3L115.4,78.6L116.0,78.9L119.2,77.1ZM104.7,78.8L106.0,80.2L105.6,81.8L104.5,80.7L102.7,79.5L102.9,80.2L102.2,79.9L101.9,78.8ZM106.9,65.5L116.2,68.6L112.9,69.0L111.9,69.1L112.6,68.4L110.7,67.2L106.9,66.1L103.1,67.0ZM249.1,52.1L246.9,53.1L246.5,52.7ZM225.1,35.6L230.0,36.9L227.1,37.8L224.1,38.0L222.1,36.8L221.7,36.2ZM218.9,31.3L220.3,32.2L223.7,32.0L225.3,35.2L221.7,36.2L223.9,37.9L222.6,38.6L222.9,39.2L219.4,39.4L216.2,39.1L216.9,37.6L214.7,37.1L214.1,35.4L214.2,34.6L215.5,34.1L215.8,32.5L218.9,32.7L217.5,31.8L217.6,31.2ZM259.8,78.1L258.1,78.7L258.9,77.0L259.7,76.8L260.0,77.5L259.0,78.1ZM218.9,31.3L216.9,30.4L216.9,29.3L218.3,28.9L217.1,29.1L218.6,28.7L219.9,28.1L219.5,29.3L220.3,29.5L218.7,30.6ZM119.2,71.1L119.4,69.1L121.8,69.8L123.3,70.4L123.0,70.9ZM217.4,50.7L216.1,54.0L218.0,55.9L218.9,59.1L218.5,62.3L219.5,64.0L221.6,65.2L214.1,69.5L211.0,70.1L210.8,69.1L200.8,63.4L196.3,61.1L196.3,59.6L202.5,57.1L202.3,56.3L205.5,55.9L204.2,52.6L208.5,51.1ZM114.9,90.6L114.5,92.2L111.1,94.2L110.3,95.9L108.5,95.3L108.8,94.5L109.3,92.7L108.8,93.4L107.9,92.9L109.1,89.6L110.5,89.0ZM248.8,56.7L249.6,58.7L248.8,60.6L246.5,58.6L250.7,64.7L250.6,65.8L252.0,66.8L238.9,66.8L237.5,66.8L237.4,56.6L242.5,57.3L245.0,56.4ZM241.2,26.2L240.4,28.3L237.7,27.8L236.7,28.0L237.0,27.4L236.0,27.4L235.7,26.5ZM196.3,61.1L196.3,62.5L192.3,62.5L192.2,65.2L190.9,65.9L191.0,67.5L190.3,67.5L186.0,68.0L189.3,62.2L190.8,60.7ZM259.7,76.8L258.8,77.1L256.0,74.9L253.3,74.5L252.9,75.3L251.6,75.2L252.0,73.3L252.2,72.1L254.2,71.1L255.6,74.2ZM204.8,43.7L210.9,44.7L210.9,45.2L207.8,46.5L206.6,47.9L207.2,48.7L204.4,50.8L200.1,51.7L198.6,50.3L197.9,50.4L198.4,48.4L197.7,47.7L199.3,45.7L196.1,45.3L195.7,43.9L197.5,43.3ZM254.0,75.0L256.9,75.3L258.8,77.1L258.1,78.7L259.4,78.7L259.3,79.5L260.7,80.8L265.6,81.9L261.9,85.2L254.0,86.6L251.0,85.7L249.4,83.3L247.3,82.0L248.7,81.3L248.9,79.2L251.1,76.8L251.6,75.2L252.9,75.3L253.3,74.5ZM242.4,15.9L241.9,16.6L243.6,17.3L242.5,18.2L243.7,19.4L243.2,20.3L244.3,21.2L243.6,21.6L245.2,22.9L240.9,25.1L235.1,25.9L233.2,25.0L233.4,24.0L232.8,22.8L233.3,22.2L237.9,20.4L238.0,19.7L236.0,18.9L235.9,17.0L232.2,15.8L237.5,16.3L240.9,14.7L242.6,15.1ZM135.0,145.9L136.1,146.0L135.7,146.5L134.1,146.9ZM210.5,35.7L216.9,37.6L216.3,39.1L214.3,40.6L215.2,40.4L215.7,41.5L215.1,41.9L216.1,43.3L214.4,44.0L211.7,43.5L210.2,44.8L205.2,44.0L205.6,41.4L206.3,41.9L205.5,40.5L204.4,40.0L204.8,39.5L201.1,38.2L205.3,38.0L204.7,36.9L206.7,37.3L209.1,35.5ZM223.2,88.2L223.1,89.2L224.6,89.5L223.9,90.7L224.7,91.1L224.5,92.6L224.1,93.2L222.4,92.5L221.1,93.0L221.5,94.5L220.8,94.4L218.7,93.1L217.6,91.2L218.4,90.1L219.2,90.3L218.4,89.9L218.7,89.4L220.8,89.4L220.8,88.0ZM199.2,30.8L200.2,31.7L198.5,31.8L197.0,31.7ZM203.1,27.3L201.9,28.3L204.8,28.4L202.9,29.6L203.7,29.7L202.3,29.9L204.3,30.1L206.8,32.0L207.1,32.6L206.1,32.5L207.3,32.9L207.0,33.4L209.1,33.8L207.5,34.9L208.7,35.2L207.3,35.7L200.1,36.5L204.0,34.6L202.2,34.8L200.5,34.5L201.9,34.0L201.9,33.4L201.2,33.5L201.7,33.1L203.6,32.9L202.6,31.6L203.2,31.1L200.9,31.4L201.3,30.1L200.7,29.8L199.9,30.7L200.6,29.2L199.4,29.2L200.8,27.2ZM263.7,45.3L263.8,46.2L258.0,45.5L257.7,44.5L256.1,43.5ZM143.8,86.1L142.3,88.1L140.6,88.2L140.6,87.6L140.3,85.2L141.0,84.3ZM206.9,78.5L207.6,83.1L208.4,84.0L203.6,85.1L203.0,83.4L203.9,81.7L203.5,78.7ZM170.3,0.0L175.4,0.4L167.8,0.7L180.4,1.0L170.4,1.7L180.9,1.7L178.7,3.1L182.9,2.1L193.0,2.3L182.3,3.9L183.7,4.8L181.1,5.4L180.4,6.4L183.1,6.4L181.9,6.7L184.5,7.3L179.3,7.5L183.1,8.5L183.1,9.2L179.8,9.2L183.4,9.8L179.7,10.1L181.9,11.0L175.7,10.6L176.6,11.0L173.2,11.4L180.0,11.6L179.7,12.5L176.8,11.5L174.3,11.8L176.6,11.6L176.2,12.2L180.1,12.9L179.5,13.3L180.3,13.2L180.6,14.2L173.9,13.0L175.5,13.5L171.4,14.3L179.7,14.8L174.6,16.2L167.4,16.5L167.6,17.0L164.6,18.7L160.8,19.6L161.4,18.8L160.3,18.7L160.8,18.9L159.8,19.1L160.2,19.5L157.8,19.6L158.5,19.9L156.7,20.2L157.8,20.8L156.1,21.0L157.4,21.6L154.4,22.7L155.4,22.9L155.4,23.6L154.3,25.1L153.2,25.0L154.0,25.7L151.5,25.4L152.2,24.9L150.6,25.0L150.8,24.3L147.7,24.4L146.7,23.9L147.2,23.4L145.4,23.0L146.1,22.4L143.9,21.6L145.5,21.1L144.1,20.8L145.7,20.5L144.6,20.0L144.8,20.5L143.3,20.9L142.7,19.9L144.5,19.4L141.9,19.6L141.7,19.1L144.3,18.2L141.4,19.0L142.9,18.2L141.2,17.6L145.0,17.5L141.2,17.5L141.9,16.7L144.3,16.6L142.1,16.3L145.4,15.7L144.5,15.6L145.4,14.8L140.3,14.0L145.0,14.4L143.6,13.7L144.6,13.7L142.1,13.5L143.6,13.0L141.6,13.1L141.3,12.2L141.0,13.2L139.0,13.1L139.9,12.2L139.0,12.1L140.0,11.7L138.9,11.5L139.3,11.2L138.2,10.3L137.0,10.3L138.2,9.9L135.4,8.6L129.5,7.9L123.4,8.2L122.0,7.8L123.6,7.6L119.9,7.1L125.9,6.6L122.1,6.7L118.0,5.7L126.3,4.9L128.5,3.8L125.0,3.5L131.8,2.7L133.0,1.8L137.7,2.4L134.5,1.7L140.2,1.4L141.5,2.1L142.1,1.4L146.4,1.8L144.7,1.3L145.8,1.2L152.2,2.0L152.7,1.2L151.2,0.9L156.4,0.9L150.5,0.6ZM142.5,14.9L143.2,15.3L141.1,15.3L139.9,15.2L140.5,14.9L140.0,14.5ZM186.4,76.4L189.0,75.8L190.0,76.2ZM193.0,77.2L193.9,77.7L195.8,77.1L196.7,78.3L197.6,81.5L195.9,82.7L195.4,81.9L193.9,81.5L193.2,79.8L190.7,80.8L188.5,78.8L190.2,77.9L190.2,76.9ZM220.8,88.2L220.8,89.4L218.7,89.4L218.9,88.0ZM239.1,45.5L238.9,46.5L236.0,46.5L236.7,47.2L236.2,47.4L234.6,46.8L235.5,48.2L234.6,48.6L236.4,49.8L234.7,50.0L235.3,51.2L233.8,50.7L233.1,49.3L235.3,49.4L232.9,49.1L231.8,48.1L231.4,47.7L232.6,46.4ZM236.1,52.2L239.1,52.4L237.3,52.8ZM161.6,148.9L162.8,149.8L160.5,148.8ZM97.9,71.3L97.8,73.4L99.0,73.6L96.8,75.7L94.7,75.2L94.2,74.1L94.8,73.2L96.3,73.2L95.2,71.9L95.7,71.3ZM190.2,76.9L190.2,77.9L188.6,78.7L188.0,78.2L188.5,78.0L186.5,77.2ZM137.0,84.5L136.0,86.1L137.9,88.4L135.0,89.2L133.9,88.4L133.6,85.0L131.9,84.1L133.1,83.0L132.7,82.4L133.5,81.3L135.4,82.5L135.2,83.6L136.0,83.2ZM105.2,74.4L103.0,74.6L100.5,76.5L99.1,75.4L97.7,75.0L99.5,73.4L103.0,73.3ZM227.2,40.3L230.1,40.9L230.7,41.7L226.3,41.7L227.8,43.5L228.5,44.2L226.5,43.5L225.1,41.8L223.9,42.1L223.5,41.4L225.7,41.4ZM119.2,69.3L119.2,71.1L116.3,70.9L116.1,70.4L118.5,70.4L117.2,69.2ZM234.0,38.2L234.9,38.7L232.8,40.5L228.2,40.9L226.6,39.9L227.2,39.0ZM353.7,100.6L354.7,101.3L353.7,101.3L352.4,100.8ZM357.1,99.8L353.6,100.1L354.5,99.4L356.6,99.8L357.2,99.2ZM351.6,99.5L352.6,99.9L350.5,100.2L349.8,99.7ZM338.3,97.0L339.9,97.8L344.6,98.0L345.2,98.8L346.9,98.9L346.7,99.8L337.1,98.5L335.7,97.8L336.7,96.9ZM365.6,93.6L366.9,94.7L364.4,94.1L363.4,94.3L363.7,93.6ZM336.6,92.3L337.4,93.8L336.4,93.0L335.5,92.6ZM370.2,91.3L371.0,91.4L371.1,93.0L372.2,94.1L375.5,92.1L379.4,93.3L379.4,100.3L378.3,99.1L376.8,99.4L377.2,98.3L376.5,97.6L375.8,96.4L370.8,94.6L370.6,93.8L369.5,94.8L368.4,93.5L370.7,92.8L368.8,92.9L367.2,92.0L368.9,90.9ZM359.7,89.4L358.3,90.2L354.1,90.1L353.8,91.0L354.5,92.0L357.9,91.4L355.4,92.5L357.2,95.2L355.7,95.7L354.8,94.3L354.9,93.4L354.0,93.7L354.2,96.5L353.4,96.7L353.1,94.3L352.3,93.9L354.0,89.5L358.5,89.6L359.8,88.7ZM363.2,89.6L364.3,88.8L363.8,89.7L364.6,90.3L363.4,90.2L364.0,91.5L362.8,89.3L363.5,88.2ZM349.5,85.8L350.7,86.0L351.0,86.5L350.1,86.6L352.5,89.5L351.2,89.3L348.8,94.4L347.2,95.0L346.8,94.0L343.7,94.1L341.8,93.7L341.5,91.9L340.4,91.0L340.4,88.9L341.0,88.3L342.1,89.6L347.0,89.0L348.4,86.0ZM325.0,84.9L326.3,84.9L332.9,89.8L332.4,90.3L333.5,90.0L334.9,93.3L336.5,93.6L336.3,96.8L334.9,96.9L332.4,95.0L327.5,88.5L323.7,85.4L323.5,84.5ZM198.1,31.0L197.0,31.7L199.4,32.1L199.2,34.1L195.0,34.9L194.3,34.2L196.2,33.6L194.8,33.7L196.0,33.0L194.6,32.8L195.2,32.4L194.7,31.9ZM250.7,55.2L249.7,55.8L249.6,56.7L250.3,56.6L249.9,58.0L249.6,58.7L248.8,56.9L249.9,54.8L250.8,54.5ZM303.2,56.1L303.3,56.8L306.0,57.9L305.1,59.5L313.0,62.0L314.6,62.1L315.3,60.2L316.0,61.6L319.5,61.6L319.0,60.6L322.7,58.9L324.8,59.0L324.7,59.9L326.0,60.1L325.7,61.3L323.3,61.8L322.1,64.8L321.1,64.6L320.7,66.8L319.8,65.0L319.0,65.7L318.4,65.1L320.0,63.6L316.8,63.3L316.6,62.3L315.0,61.9L314.7,62.6L315.7,63.3L314.6,64.0L315.5,64.4L315.9,67.2L315.3,67.0L314.5,66.4L313.1,68.6L311.2,69.2L307.6,72.7L305.2,73.6L304.6,79.4L303.5,80.3L304.1,80.6L301.8,81.8L301.1,81.5L296.6,72.8L295.8,69.1L295.8,67.4L296.4,67.1L295.2,66.5L295.0,67.7L293.2,68.1L291.3,66.5L293.2,65.6L291.6,65.9L290.3,64.8L293.8,64.2L292.0,61.3L293.1,60.3L294.9,60.4L299.1,55.8L297.5,54.7L297.4,53.1L299.5,53.3L302.4,52.2L303.5,53.5L303.8,55.5L302.8,55.4ZM261.7,50.4L263.5,51.9L262.5,53.9L265.4,56.2L265.3,57.1L266.3,58.2L265.3,58.1L263.9,59.1L261.6,59.0L254.7,55.7L254.4,54.5L257.1,53.4L257.5,51.2L259.3,50.2ZM261.8,47.7L263.4,48.6L265.7,47.7L267.0,49.9L270.3,51.0L273.0,50.8L272.9,50.2L276.3,49.2L281.7,51.0L281.0,54.9L281.3,56.5L282.5,57.2L281.4,58.3L284.4,61.3L282.6,62.2L282.1,63.5L277.1,62.7L276.3,61.3L272.6,61.7L269.7,60.2L268.2,57.9L266.2,58.1L264.9,55.5L262.5,53.9L263.6,51.9L262.4,51.7L261.0,49.6L260.8,48.0ZM187.9,18.9L189.1,18.7L188.5,19.0L190.3,20.2L184.6,21.9L179.2,21.5L180.5,20.6L177.6,20.4L179.6,20.1L177.0,19.7L179.5,19.2L179.0,18.7L180.8,19.1L181.1,19.9L182.2,19.0ZM223.7,40.3L223.9,41.3L222.0,41.5L222.1,42.8L229.4,47.5L227.7,46.9L227.2,47.6L228.0,48.4L226.2,49.6L226.8,48.5L226.1,47.4L220.6,44.8L218.3,42.7L216.1,43.3L215.3,41.1L217.3,40.4L218.0,41.0L218.3,40.3L221.8,39.7ZM218.7,46.4L218.6,48.3L217.5,48.5L217.4,47.5L217.0,46.4ZM226.0,49.3L225.4,50.9L222.6,50.0L222.5,49.3ZM112.5,70.6L113.7,71.2L112.6,71.2L111.1,70.8ZM254.8,55.9L252.2,56.6L253.4,57.6L251.1,59.0L249.7,58.9L250.0,57.4L250.7,55.2L252.0,55.7L254.4,54.5ZM382.9,42.9L384.7,42.7L384.5,43.4L385.3,43.7L382.1,45.2L378.8,44.6L379.5,45.4L378.3,45.8L378.0,44.7L378.7,43.8L379.9,43.8L380.2,41.5ZM379.7,45.9L380.6,48.0L379.4,49.4L378.6,52.6L378.0,52.9L378.0,52.0L376.8,53.2L376.6,52.6L376.0,53.2L374.3,52.7L374.3,53.5L372.9,54.4L372.5,53.1L370.8,53.3L368.6,54.0L367.1,53.5L369.5,52.2L373.0,52.2L374.3,50.2L374.9,50.0L374.8,50.9L376.1,50.4L377.9,48.6L378.1,46.6ZM371.3,53.6L371.7,54.0L371.1,54.7L369.4,55.2L369.0,54.6L368.4,54.6L369.5,53.7ZM367.4,54.3L368.4,55.0L367.6,56.6L366.8,57.1L366.2,56.1L366.7,55.3L366.2,54.7L365.7,55.4L365.5,54.6ZM258.2,86.2L257.1,87.5L257.1,91.5L257.7,92.3L256.1,93.4L255.1,95.5L248.4,91.6L248.7,90.0L249.7,88.5L248.5,86.0L250.1,84.6L253.5,86.6ZM305.1,45.0L300.3,47.0L298.5,46.8L297.1,47.9L291.7,47.9L292.0,47.2L294.7,47.1L296.4,46.5L292.8,45.7L294.3,44.3L296.8,44.7L297.7,43.8ZM334.7,79.3L333.1,78.8L332.1,75.9L333.6,75.0L336.7,75.5L337.3,74.9L338.5,74.7L338.4,77.2L336.4,78.0L336.8,78.9ZM366.6,44.6L365.6,46.4L363.0,47.6L363.7,49.1L360.3,49.8L359.5,49.4L360.5,48.8L360.0,47.8L359.1,47.2L361.9,45.5L363.7,45.8L363.6,45.2L365.8,44.1ZM361.8,49.8L364.0,48.8L365.4,51.6L365.0,52.6L362.3,53.2L361.4,53.1L362.0,51.8L361.3,50.8L362.3,50.7ZM233.3,44.9L232.1,45.3L231.8,44.3L232.4,43.8ZM265.6,58.2L265.7,59.7L263.9,59.1L264.6,58.2ZM313.8,37.5L311.8,38.3L311.5,39.7L308.5,39.6L307.9,41.8L304.6,42.1L305.4,42.2L305.8,43.9L305.0,45.0L297.7,43.8L296.8,44.7L294.1,44.4L290.7,46.7L288.5,46.1L287.8,44.1L286.3,43.3L282.8,43.6L278.6,41.3L275.4,41.9L275.4,45.9L273.1,44.8L271.2,45.4L271.3,44.4L268.4,42.5L270.0,42.4L269.3,42.0L269.8,41.5L272.0,41.6L271.9,39.9L266.3,40.1L266.8,40.0L266.3,39.4L264.0,38.1L265.1,36.1L266.6,36.6L266.4,35.8L269.1,34.6L272.2,34.9L273.7,35.9L277.7,35.3L281.5,35.8L282.2,35.1L280.4,34.4L282.9,33.3L281.8,32.9L281.8,32.2L291.3,30.7L293.5,30.8L293.9,31.9L297.0,32.1L296.7,32.8L300.9,31.7L300.5,32.1L304.8,35.7L305.7,35.1L306.6,35.7L308.9,35.4ZM331.9,66.4L333.1,68.0L334.9,68.3L335.3,68.9L334.0,69.7L338.3,73.2L338.3,74.8L336.7,75.5L335.9,74.9L336.2,73.6L334.1,70.8L330.4,71.6L330.7,69.5L329.8,69.3L329.5,68.3L330.6,67.3L331.5,67.7L331.1,66.5ZM250.8,54.5L249.9,54.8L251.4,53.3ZM304.8,79.9L307.1,82.7L305.7,84.1L304.6,83.2L304.4,81.7L305.3,80.3ZM196.6,82.4L196.4,83.5L197.8,84.2L197.7,85.8L193.1,83.3L193.6,82.4L195.0,81.3L195.4,82.5ZM242.1,123.0L240.9,123.5L240.0,122.5L240.5,122.2L242.0,121.3L242.9,122.1ZM239.5,30.4L238.4,32.0L235.3,31.9L232.9,30.8L233.0,29.8L237.3,29.6ZM240.4,28.3L241.4,29.7L240.7,30.2L235.3,29.6L232.7,29.9L233.5,28.3L235.9,28.9L237.7,27.8ZM237.7,56.4L237.2,57.9L237.5,69.0L236.3,69.5L226.5,65.2L224.4,66.1L221.6,65.2L219.3,63.8L218.5,62.3L218.9,61.4L218.3,58.0L221.0,55.6L221.0,54.7L225.5,55.6L226.2,56.6L230.3,57.9L231.5,57.1L231.6,55.8L233.4,55.0ZM204.2,52.6L205.5,55.9L202.3,56.3L202.5,57.1L198.7,58.6L196.4,59.6L196.3,60.7L190.8,60.7L194.9,58.4L195.6,55.4L198.5,53.9L199.7,51.9ZM241.5,41.4L241.3,39.8L239.5,38.4L242.5,38.7L243.8,40.4L242.4,40.4ZM267.5,103.9L268.7,107.1L268.4,107.7L267.7,107.2L267.3,110.3L264.7,117.2L262.6,118.1L260.8,117.5L259.9,114.5L260.7,113.0L261.3,108.0L264.6,107.2L266.6,103.9ZM230.4,43.5L231.8,44.3L230.6,45.2L229.5,44.6ZM234.3,44.8L235.1,45.5L234.7,46.1L232.2,46.2L232.4,45.1ZM212.1,69.9L212.1,72.6L211.2,74.0L206.1,74.3L203.8,75.2L201.7,76.4L200.2,79.3L197.2,79.6L195.9,77.2L195.3,77.3L192.9,77.4L191.9,74.6L192.9,73.7L193.6,74.2L200.2,73.8L198.9,63.6L201.1,63.6L210.8,69.1L210.9,70.0ZM330.6,67.3L329.4,68.6L326.8,69.2L326.0,70.6L327.9,72.9L327.1,74.4L328.8,77.8L327.5,79.7L327.9,77.9L326.5,72.7L325.4,71.8L323.6,73.6L322.8,72.7L322.2,73.3L322.6,71.6L321.7,70.1L321.6,69.1L319.7,67.6L320.9,66.6L321.1,64.6L322.1,64.8L323.3,61.8L325.7,61.3L326.2,59.8L327.7,61.7L326.3,64.7L327.8,64.5L327.9,65.5L328.7,65.8L328.3,66.7ZM349.7,36.7L348.4,38.8L351.9,38.7L353.6,40.1L350.6,40.2L345.9,42.2L343.8,41.9L343.2,42.6L343.8,43.3L342.0,44.3L335.3,45.6L331.1,44.6L324.8,44.4L323.6,42.7L318.1,41.7L318.1,39.8L315.3,38.4L314.3,37.7L314.8,37.1L319.9,35.6L326.0,36.8L327.1,36.2L326.6,35.4L327.9,34.2L331.8,35.0L333.3,36.3L337.5,36.2L339.8,37.2L342.4,37.4L346.7,36.2ZM201.1,63.6L198.9,63.6L200.2,73.8L193.6,74.2L192.9,73.7L192.2,74.6L189.5,72.7L187.7,72.8L186.7,73.5L187.3,70.9L186.2,67.5L191.0,67.5L190.9,65.9L192.3,65.2L192.3,62.5L196.3,62.5L196.3,61.1ZM249.7,103.0L249.0,103.6L249.2,104.9L250.8,106.6L250.1,109.0L248.8,107.6L249.2,106.2L247.1,105.1L248.1,101.9L247.2,100.7L248.9,101.0ZM88.1,62.5L87.5,67.2L89.6,70.2L91.3,70.9L95.3,70.4L97.0,67.6L100.8,67.4L99.5,70.8L99.2,70.2L97.9,71.3L95.7,71.3L95.2,71.9L96.3,73.2L94.8,73.2L94.1,74.8L91.5,73.0L87.4,73.3L78.6,69.7L77.7,68.5L78.3,67.4L77.6,66.1L73.3,62.9L73.5,62.2L69.8,59.2L68.7,56.9L66.4,56.1L66.9,58.1L73.1,65.3L72.4,65.8L69.9,63.7L69.5,62.3L66.3,60.6L67.4,60.7L67.5,59.9L65.5,58.4L63.7,55.4L66.6,55.2L71.1,56.7L76.8,56.3L80.7,59.2L81.8,58.3L83.0,58.4L85.7,62.0ZM350.7,86.0L348.6,85.9L347.0,88.9L345.9,89.2L341.9,89.4L341.0,88.3L343.0,89.0L343.6,87.4L345.1,87.1L346.4,85.6L347.2,86.2L347.6,85.2L348.0,85.8L349.8,83.0L350.8,83.5L350.7,84.2L352.8,84.7ZM331.8,83.8L333.4,85.3L333.5,87.4L334.5,89.0L333.5,89.1L330.5,86.6L329.5,83.4L330.6,84.4ZM247.2,119.5L246.2,119.5L245.2,114.7L247.3,112.1L247.2,108.5L244.1,107.7L243.9,106.7L247.6,105.6L249.0,106.1L248.8,107.6L250.1,109.0L250.9,106.6L249.2,104.9L249.3,103.0L252.7,103.1L256.4,101.8L256.9,106.4L255.7,108.2L249.3,111.7L250.4,116.5L247.1,118.2ZM235.5,109.5L237.8,109.7L235.9,110.4L232.6,110.3L232.6,114.2L231.4,114.2L231.4,121.2L229.1,121.6L227.8,120.7L227.1,121.3L225.6,119.9L224.6,114.7L221.3,109.1L232.3,109.9ZM225.3,65.7L226.5,68.6L225.9,72.3L223.4,75.0L223.6,75.8L218.7,76.7L215.4,76.5L213.7,75.6L212.0,76.0L211.3,77.9L210.4,77.2L209.8,77.6L208.2,76.5L207.2,74.4L211.6,73.6L212.1,69.9L214.1,69.5L221.6,65.2L224.3,66.1ZM223.6,75.8L224.8,78.1L221.0,83.4L219.4,83.0L217.1,85.6L214.4,85.9L213.5,84.9L212.4,83.7L210.3,83.7L210.3,80.8L211.6,79.3L211.2,78.1L212.0,76.0L213.7,75.6L215.4,76.5L218.7,76.7ZM105.2,74.4L104.6,78.8L102.0,78.5L99.7,76.5L103.2,74.6ZM215.8,33.0L212.8,33.3L211.8,34.5L212.2,34.9L211.2,34.8L214.0,35.4ZM244.7,15.0L242.4,15.9L242.6,15.1L239.4,14.9L237.5,16.3L233.0,15.6L231.6,15.9L231.4,16.6L227.5,17.1L225.9,18.8L224.7,19.0L223.6,20.7L224.2,21.2L221.8,21.8L221.8,23.8L222.7,24.2L221.1,26.9L219.9,25.9L216.9,27.7L213.9,27.3L214.8,26.2L213.4,26.1L215.5,25.1L213.2,26.1L213.9,24.9L213.1,24.5L216.3,24.3L213.2,24.4L213.0,23.6L215.2,23.6L213.3,23.5L214.2,23.0L217.5,22.6L216.9,22.2L217.6,21.7L220.1,21.9L220.9,21.3L218.7,21.5L222.7,19.9L221.8,19.9L222.6,19.0L224.1,18.8L223.1,18.4L225.8,17.8L224.6,17.8L226.0,17.7L225.1,17.2L228.4,16.5L227.2,16.3L230.4,15.1L231.8,14.9L231.5,15.5L233.8,15.0L233.1,14.5L235.5,14.8L237.2,13.7L238.5,13.9L237.6,14.7L240.7,13.6L241.7,13.7L241.4,14.5L242.2,13.9L244.8,14.4L242.2,14.6ZM226.2,16.4L225.3,16.7L224.4,16.7L226.4,15.6ZM314.7,60.5L314.6,62.0L313.7,62.1L305.2,59.6L305.3,58.5L306.8,57.7L312.1,60.4ZM418.9,128.2L420.2,128.5L420.6,130.3L421.6,130.6L421.5,129.9L422.3,131.1L425.3,131.2L424.5,132.8L423.5,132.8L421.8,135.2L420.5,135.1L421.3,134.0L419.5,133.0L420.5,132.4L420.9,130.5ZM418.7,135.1L420.2,134.9L418.0,137.4L418.6,137.9L416.4,138.3L415.8,140.0L414.5,140.8L412.7,140.6L410.6,140.1L411.2,139.2L416.1,136.8L417.9,134.3ZM271.9,72.6L270.5,70.0L274.2,69.0L275.4,63.6L278.8,65.2L280.1,66.6L277.7,68.7L277.7,70.0L274.3,72.2ZM112.3,81.2L111.7,82.7L111.0,81.8L111.8,81.8L110.2,80.8L108.5,81.7L109.0,82.5L108.1,82.7L107.8,82.0L105.6,81.8L105.7,80.2L107.5,81.1L110.2,80.2ZM121.4,95.1L117.8,96.0L116.4,98.7L117.4,100.7L118.7,101.3L120.7,100.7L120.6,102.4L121.9,102.3L122.9,104.0L122.0,107.4L122.8,108.1L121.4,110.1L115.1,107.1L112.8,103.7L109.4,98.1L107.7,97.0L108.1,94.5L108.7,94.2L108.5,95.3L110.3,95.9L111.1,94.2L114.5,92.2L115.0,90.6L117.7,93.1L121.2,93.4L120.4,94.6ZM392.7,95.1L393.3,95.2L392.9,96.4L391.0,97.3L388.4,96.6L390.5,95.9L391.5,96.4ZM383.2,94.6L387.4,97.0L387.8,97.7L386.7,97.9L387.0,98.5L388.7,100.3L391.4,101.5L387.7,101.4L385.6,99.3L382.6,98.6L382.6,99.4L380.9,99.3L382.3,100.2L379.4,100.3L379.4,93.3ZM394.0,95.6L391.3,93.5L394.1,94.9ZM355.1,70.5L356.5,70.6L356.8,72.1L355.4,74.0L355.9,75.3L358.4,75.6L358.3,76.6L356.8,75.5L356.9,76.3L355.9,75.5L354.5,75.6L354.9,74.7L353.8,74.5L353.4,73.0L354.2,73.2L354.4,70.6ZM350.4,81.4L353.1,78.6L353.3,79.2ZM357.5,80.8L356.7,80.1L357.3,78.8L358.1,78.9ZM361.1,80.5L361.8,82.7L361.3,83.7L360.7,82.7L360.4,84.4L358.9,83.8L358.9,82.6L358.0,82.2L356.2,83.1L356.6,81.9L357.9,81.1L358.8,81.7L360.4,80.8L360.4,80.0ZM298.5,50.6L302.1,52.2L299.5,53.3L297.4,53.1L297.5,54.7L299.1,55.7L298.1,56.2L298.2,57.0L294.9,60.4L293.1,60.3L292.0,61.3L293.8,64.2L289.9,64.8L288.1,62.9L282.2,63.4L282.6,62.2L284.4,61.2L281.4,58.3L287.9,58.3L288.7,56.8L291.7,56.1L292.0,54.9L292.9,54.6L292.4,53.8L293.9,53.8L294.5,52.6L294.1,51.5ZM230.9,31.7L235.6,32.0L236.2,33.5L235.3,34.0L236.4,35.9L234.7,36.9L234.8,37.6L229.6,36.6L225.1,35.6L224.3,32.3L228.8,31.3ZM197.0,45.4L199.4,45.7L197.7,47.7L198.4,48.4L197.8,49.8L197.9,50.4L195.9,50.6L196.4,49.1L195.6,48.8L196.2,48.3L195.4,48.7L196.1,45.4ZM135.8,112.2L136.1,114.3L138.6,114.6L139.2,116.3L140.6,116.4L139.5,119.5L137.9,120.2L135.3,120.0L136.5,117.8L130.4,114.5L131.4,111.7L134.7,111.3ZM241.5,41.4L243.3,41.7L242.3,42.0L241.9,43.3L238.1,43.4L235.0,43.2L234.7,42.4L232.4,41.4L231.7,40.7L234.2,39.0L239.6,38.4L241.3,39.8ZM231.1,40.7L234.7,42.4L234.3,43.3L235.0,43.9L234.4,44.8L233.4,44.7L230.4,43.6L230.9,43.0L230.0,41.0ZM270.0,12.5L273.7,14.1L277.4,14.0L274.9,12.9L274.7,12.0L276.0,11.3L274.1,11.1ZM267.0,3.4L264.0,3.6L266.6,3.7L270.2,3.2ZM266.8,15.3L266.0,15.9L267.1,16.1L268.4,15.7ZM279.9,15.1L280.9,14.9L279.1,14.3L278.5,14.5ZM286.7,7.7L275.3,9.2L276.1,9.4L274.9,9.8L275.6,9.9L272.7,10.7L276.6,11.1L282.0,9.0L290.3,8.0L291.3,7.5L290.1,7.2ZM234.7,31.5L232.5,30.8L230.9,31.7ZM326.3,3.7L320.8,4.5L328.7,5.2L328.1,4.7L329.3,4.2ZM329.6,5.4L328.6,6.1L335.2,5.7L335.5,5.2L333.2,4.9L331.3,4.6ZM383.9,37.7L381.6,31.7L380.2,34.0L380.8,36.3L380.7,40.9L381.3,40.1L382.6,40.5L381.3,39.0L382.0,37.4ZM319.0,3.6L325.8,3.7L326.6,3.1L325.0,2.8L320.8,2.8ZM374.5,9.1L377.1,9.7L382.0,9.4L381.0,8.6L384.0,9.0L376.7,8.1ZM386.6,9.3L389.9,9.6L391.4,9.2L390.0,9.1L386.2,8.7L385.7,9.1ZM425.6,13.9L429.8,13.6L429.3,13.2ZM439.6,19.0L434.8,17.9L433.8,18.0L434.4,18.9L432.8,17.3L422.1,14.9L415.5,14.7L415.1,15.2L416.1,15.8L414.4,16.1L412.2,15.1L405.5,15.2L403.7,16.4L404.3,16.0L403.8,15.2L402.4,15.0L401.8,13.9L393.5,13.9L388.5,12.3L384.4,12.9L386.5,12.3L383.4,11.9L379.0,11.7L377.1,12.3L378.4,12.4L377.4,12.7L378.2,13.2L375.7,13.6L369.2,12.7L367.4,14.0L363.2,12.2L365.1,12.5L364.0,12.0L364.8,11.4L359.3,10.7L356.8,11.7L346.5,10.9L345.4,11.7L346.0,11.9L345.2,10.5L341.8,10.4L335.5,11.8L345.1,9.3L346.0,8.9L344.5,8.4L346.2,8.4L342.9,7.5L337.1,7.7L338.3,7.3L334.4,7.1L336.7,6.8L334.4,6.4L330.5,7.2L331.2,7.8L327.9,7.7L329.0,8.1L328.7,8.5L321.0,8.2L313.4,9.2L311.9,9.7L314.1,10.6L312.1,11.0L313.0,11.4L311.9,11.1L313.2,10.6L305.5,10.9L305.8,12.1L309.1,13.0L308.6,13.6L309.4,14.2L308.6,14.7L308.5,13.8L307.4,14.1L308.6,12.9L302.9,12.2L299.9,12.7L303.6,13.8L299.6,13.4L299.0,13.2L299.4,12.0L298.4,11.7L298.7,12.5L296.3,13.2L297.9,14.2L297.2,15.7L301.9,16.0L301.8,17.2L303.5,17.4L301.3,17.2L300.5,15.9L298.8,16.0L297.9,16.5L298.4,17.2L295.1,18.9L291.4,18.3L294.5,18.4L297.0,16.4L295.7,15.9L295.9,13.7L294.9,13.2L296.0,11.9L294.4,11.6L291.8,11.6L288.5,13.6L289.2,14.0L288.8,15.3L291.5,15.9L290.7,16.6L281.4,15.0L280.5,15.2L281.5,15.9L280.0,16.6L279.2,15.9L272.1,16.7L273.6,15.9L272.8,15.9L263.8,18.3L261.9,17.6L264.1,17.1L263.1,16.4L260.0,16.2L261.0,16.7L260.9,19.1L258.6,18.6L255.7,19.6L256.4,20.5L255.6,20.7L252.1,20.0L251.7,20.5L253.5,21.2L252.7,21.5L249.8,20.8L249.4,19.2L246.0,17.9L254.2,19.1L257.3,18.2L257.1,17.3L244.7,15.0L241.7,16.0L243.6,17.3L242.5,18.2L243.8,19.4L243.2,20.3L244.3,21.2L243.6,21.6L245.5,22.5L241.0,25.1L243.9,25.7L241.3,25.9L240.5,27.0L240.8,29.1L241.5,29.9L244.8,30.5L244.6,31.3L247.0,32.8L245.2,33.2L245.8,34.2L248.2,34.0L250.5,36.1L256.0,37.0L255.6,38.8L253.7,39.4L255.0,39.7L253.1,40.2L254.0,40.8L251.7,41.8L255.8,43.6L259.5,44.0L262.9,44.6L265.1,46.0L266.4,45.4L264.1,42.5L265.0,41.2L267.2,40.5L264.0,38.2L265.0,36.1L266.6,36.6L266.4,35.9L269.1,34.6L272.2,34.9L273.7,35.9L277.7,35.3L281.5,35.8L282.2,35.1L280.4,34.4L282.9,33.3L281.8,32.9L281.8,32.2L291.3,30.7L293.5,30.8L293.9,31.9L297.0,32.1L296.7,32.8L300.9,31.7L300.5,32.2L304.8,35.7L305.7,35.1L306.6,35.7L308.9,35.4L313.9,37.5L319.9,35.6L326.0,36.8L327.1,36.2L326.6,35.4L327.9,34.2L331.8,35.0L333.3,36.3L337.5,36.2L339.8,37.2L342.3,37.4L346.7,36.2L351.1,37.0L352.8,36.4L354.5,34.4L353.8,33.5L358.1,32.7L361.1,33.5L362.9,36.7L366.6,37.7L367.1,39.0L371.6,38.4L369.7,41.8L367.1,42.1L367.5,43.7L366.5,44.4L366.8,44.9L368.3,43.8L369.8,44.4L372.2,43.5L378.3,38.2L378.8,35.6L380.0,34.1L379.2,33.2L379.9,32.9L377.8,31.9L374.8,32.7L375.3,31.9L374.3,32.4L374.3,31.5L372.3,31.3L381.0,26.6L390.0,25.9L393.1,26.4L392.0,26.9L396.7,26.5L395.7,25.8L399.1,23.8L403.0,23.6L402.4,24.6L402.8,25.0L406.4,24.0L406.7,22.9L409.2,22.9L407.8,23.2L407.2,24.7L398.8,28.1L397.7,29.2L397.2,30.9L398.7,35.5L400.3,34.6L400.8,33.2L402.7,33.1L402.7,32.0L405.2,31.4L405.2,29.9L406.7,29.8L406.0,28.7L406.6,28.1L405.0,27.7L407.2,25.6L413.9,25.0L415.3,25.7L423.5,22.6L426.0,23.1L426.6,22.6L424.9,20.9L420.4,20.6L426.4,20.4L428.1,18.7L428.9,18.7L428.4,19.1L429.0,19.7L431.9,19.7L435.5,21.0L436.6,20.2L435.9,19.5ZM244.3,91.7L244.7,93.0L242.8,93.4L242.2,93.2L242.7,92.3ZM263.9,59.1L266.2,59.7L271.2,65.8L274.4,66.0L275.0,66.8L274.2,69.0L266.9,70.5L264.6,72.3L262.2,71.7L260.0,71.7L259.3,72.9L256.8,69.2L255.0,67.9L254.0,65.0L249.3,60.2L249.7,58.9L251.1,59.0L253.4,57.6L252.2,56.6L254.8,55.9L261.6,59.0ZM245.4,66.7L252.0,66.8L252.8,70.2L254.2,71.1L252.2,72.1L251.1,76.8L248.6,80.3L247.5,78.9L247.6,77.4L246.2,77.6L246.6,78.6L245.1,80.0L243.6,79.4L242.2,80.5L239.6,80.3L238.5,79.3L235.9,81.1L234.4,77.0L233.6,76.7L235.0,73.8L236.3,73.6L236.3,69.0L237.5,69.0L237.5,66.8ZM236.5,19.4L234.3,19.3L232.3,21.5L228.2,22.9L228.0,24.9L230.2,25.9L226.6,26.2L229.7,26.4L226.8,27.1L227.6,27.3L227.2,28.8L225.7,29.8L222.7,30.6L222.2,29.7L222.7,29.3L220.7,27.4L222.7,24.2L221.8,23.8L221.8,21.8L224.1,21.2L223.6,20.7L224.7,19.0L227.0,18.0L226.8,17.5L229.2,16.4L231.4,16.6L231.5,15.9L235.9,17.0ZM227.2,40.3L225.7,41.4L223.7,41.1L223.7,40.3ZM233.4,5.4L237.4,6.4L234.4,6.8L232.5,6.7L233.4,6.2L231.7,5.6ZM227.5,4.0L233.1,5.3L230.4,5.7L227.4,7.6L224.1,6.6L227.6,6.2L223.7,6.1L227.4,5.4L223.0,5.8L220.0,4.2L225.1,4.2L226.9,5.0L226.3,4.2ZM232.5,3.6L240.2,3.9L235.0,4.8L229.4,4.1ZM234.5,37.5L234.0,38.3L229.1,38.9L227.6,38.3L228.7,37.7L230.7,37.0ZM194.4,81.4L192.9,83.1L191.2,82.1L190.7,80.8L193.2,79.7L193.9,81.5ZM191.9,74.6L193.0,77.2L186.5,77.2L186.5,76.4L188.7,76.0L186.7,75.9L185.5,74.6L187.1,72.7L189.5,72.7ZM257.7,92.3L257.1,91.5L257.1,87.5L258.3,86.1L261.9,85.2L265.6,81.9L260.7,80.8L259.1,79.1L259.8,78.1L261.1,79.2L269.1,77.6L269.8,79.3L265.6,85.7ZM140.7,84.7L140.4,87.9L138.5,87.8L138.4,88.5L137.3,87.9L136.0,86.1L137.2,84.1L140.5,84.2ZM248.5,79.9L248.7,81.3L247.3,82.0L250.1,84.6L247.9,86.5L244.7,86.8L243.1,85.5L241.4,85.8L238.9,83.1L236.5,81.4L237.7,79.4L241.3,80.5L243.6,79.4L245.1,80.0L246.6,78.6L246.2,77.6L247.6,77.4L247.5,78.9ZM97.7,75.0L99.7,75.6L99.5,76.2L96.8,75.7ZM258.8,50.5L257.5,51.3L257.0,53.4L252.0,55.7L250.7,55.2L251.3,53.9L250.7,52.1L251.8,50.8ZM236.3,69.5L236.3,73.6L235.0,73.8L233.6,76.7L234.9,78.8L231.8,80.7L230.1,80.9L229.8,81.7L225.9,82.4L224.0,80.1L226.1,79.7L223.4,75.0L225.9,72.3L226.5,68.6L225.3,65.7L226.5,65.2ZM208.1,78.7L209.1,83.7L207.9,83.6L207.6,82.5L206.9,78.5ZM329.4,68.6L330.7,69.5L330.4,71.6L334.1,70.8L336.2,73.6L335.5,75.2L333.2,75.1L332.1,75.9L332.8,77.9L330.4,76.9L330.4,76.0L329.3,76.1L328.2,80.0L329.4,81.4L329.8,82.8L331.8,83.8L330.6,84.4L327.1,81.4L328.8,77.8L327.1,74.4L327.9,72.9L326.0,70.6L326.8,69.2ZM293.7,47.1L291.7,47.9L297.0,47.9L298.8,50.2L294.7,50.9L294.3,49.6L293.5,49.1L291.7,50.5L290.1,50.6L290.5,49.3L289.3,48.2L291.9,46.5L293.1,46.2ZM359.9,100.8L360.0,99.8L361.8,99.6ZM288.3,50.2L286.2,50.5L283.2,52.6L281.9,52.1L281.7,51.0L276.9,49.3L272.9,50.2L272.8,48.5L271.4,46.9L271.7,46.2L273.5,46.4L272.7,45.0L271.7,45.2L271.6,46.1L271.2,45.4L271.8,45.0L276.7,46.0L276.6,45.3L278.6,44.3L280.3,45.0L280.4,45.8L282.7,46.2L284.9,48.3L288.4,49.5ZM221.0,54.7L221.0,55.6L218.6,57.9L218.0,55.9L216.1,54.0L217.1,51.5L218.1,50.4L220.5,50.5L219.8,51.5L220.5,52.5L219.2,53.8ZM241.2,45.2L242.4,46.3L239.0,47.3L239.7,46.7L239.2,46.3L239.5,45.2ZM257.7,45.7L259.3,45.7L260.4,47.2L261.8,47.7L260.8,48.0L261.7,50.4L251.8,50.8L251.1,51.9L251.0,50.7L248.2,51.5L240.5,50.9L241.5,50.6L240.3,50.6L240.3,49.5L239.1,49.2L240.2,49.0L239.9,47.8L238.9,47.9L239.7,46.9L242.4,46.9L243.5,46.5L242.6,46.0L245.2,46.2L247.8,45.2L253.9,46.4ZM354.9,66.1L354.6,66.9L353.8,65.6L354.7,63.9L356.1,63.6ZM244.7,91.6L248.5,91.6L254.9,95.6L254.4,97.1L255.3,98.1L255.0,99.6L256.4,101.8L252.7,103.1L249.5,102.7L248.9,101.0L244.9,99.8L243.1,97.3L242.9,95.3L244.6,94.0ZM253.7,39.7L250.0,40.4L249.8,41.2L251.5,41.9L248.2,42.6L246.7,41.5L248.0,40.7L245.9,40.5L246.8,40.2L245.8,39.5L245.9,40.1L242.1,41.7L241.5,41.4L242.4,40.4L243.8,40.4L242.6,38.7L240.6,38.2L237.4,39.0L234.2,38.3L234.7,37.0L236.4,35.9L235.9,34.7L244.3,35.1L244.8,34.3L248.2,34.0L250.5,36.1L256.0,37.0L255.6,38.8ZM248.4,91.6L243.1,92.0L243.6,89.6L245.2,88.3L244.6,87.2L245.1,86.4L248.5,86.0L249.1,86.6L249.7,88.7ZM34.5,15.2L34.5,25.3L36.9,25.3L38.9,26.9L41.5,26.0L45.7,29.4L47.8,29.9L47.6,31.1L46.9,31.3L46.7,29.9L45.3,30.4L46.1,29.8L43.7,28.7L44.1,28.0L42.1,27.3L41.4,26.3L41.7,27.6L40.4,26.7L39.4,26.7L40.5,27.3L39.9,27.6L36.0,26.2L37.0,25.8L36.4,25.6L30.7,25.6L26.2,24.3L25.3,24.8L26.0,25.1L25.4,25.7L21.4,26.5L22.2,25.9L21.2,25.9L21.8,24.9L24.6,24.7L23.4,24.4L24.3,24.0L19.8,25.3L20.2,25.7L18.4,26.6L19.3,27.0L14.3,29.3L7.2,31.3L14.4,28.4L15.2,26.6L12.7,26.8L12.6,27.4L10.8,26.7L8.6,27.1L9.3,26.6L8.3,25.4L8.9,24.9L6.8,25.9L4.7,25.1L7.1,24.8L4.5,24.5L3.8,23.7L5.9,22.2L9.9,21.8L9.4,20.8L10.2,20.5L3.8,20.7L2.8,20.1L3.7,19.9L1.4,19.5L5.8,18.5L10.0,18.9L8.4,18.1L11.0,18.6L3.0,16.6L3.7,16.0L15.6,13.3L16.7,13.6L16.2,13.9ZM20.0,28.0L20.6,28.4L18.1,28.8L18.0,28.3ZM43.6,29.6L45.3,30.6L44.7,30.6L45.5,31.4L44.9,31.2L43.5,30.2ZM92.7,38.0L97.4,38.7L94.4,40.1L98.5,39.5L100.1,40.3L103.0,40.0L104.3,40.8L100.6,40.9L99.5,42.0L100.1,42.2L99.4,43.8L100.1,45.6L101.4,44.7L101.5,42.3L103.1,41.1L105.0,41.8L104.3,43.3L105.8,43.1L106.1,44.4L104.9,45.5L106.1,45.8L110.1,44.6L110.3,43.8L113.7,43.5L113.6,42.9L115.2,42.0L120.3,41.6L122.3,39.3L124.0,39.7L124.0,41.2L125.0,42.1L121.0,43.4L120.1,44.8L121.4,45.5L116.5,46.5L116.5,46.0L115.5,48.4L114.6,47.9L115.1,47.4L114.5,47.7L115.2,49.1L114.1,50.4L114.4,49.6L113.6,48.8L114.2,47.9L113.3,48.1L113.6,49.4L112.5,49.1L112.7,48.6L112.4,49.1L113.7,49.6L112.6,49.3L113.5,50.4L112.5,50.2L114.0,50.7L114.6,51.9L114.1,51.0L114.2,51.6L113.1,51.4L114.3,51.9L112.7,52.2L113.5,52.9L108.1,55.5L107.3,56.9L109.0,61.6L108.7,63.2L107.9,63.4L105.8,60.9L105.9,59.4L104.2,58.1L102.6,58.5L101.5,57.6L96.6,57.8L97.6,58.1L97.6,59.3L94.6,58.3L90.7,58.5L87.4,60.9L87.9,62.6L85.7,62.0L83.0,58.4L81.8,58.3L80.7,59.2L76.8,56.3L71.1,56.7L66.6,55.2L63.7,55.4L62.0,53.8L59.4,53.2L57.1,50.0L58.3,49.5L56.5,49.5L54.9,47.1L55.3,40.6L56.3,40.7L55.2,40.5L55.5,39.8L54.4,38.3L56.8,38.5L56.3,39.3L57.1,38.8L56.9,39.6L57.4,38.7L56.8,37.6L90.6,37.2ZM141.7,126.9L139.8,128.2L136.2,127.7L135.5,126.9L136.4,123.1L137.4,123.0L141.2,125.1L142.0,125.8ZM293.7,44.9L292.8,45.7L296.4,46.5L293.4,47.1L293.1,46.2L289.6,47.8L290.5,49.3L289.8,50.4L288.3,50.2L288.4,49.5L283.2,47.0L278.6,44.3L276.6,45.3L276.7,46.0L275.4,45.9L275.4,41.9L277.2,41.6L278.6,41.3L282.8,43.6L286.3,43.3L287.8,44.1L288.5,46.1L290.6,46.7ZM133.5,81.3L132.7,82.4L133.1,83.0L131.9,84.1L132.8,85.2L130.1,86.6L127.7,85.9L129.4,88.1L126.9,89.8L125.7,89.6L124.0,87.5L124.6,86.8L124.0,85.7L124.4,83.9L122.0,83.9L120.4,82.9L118.9,82.9L117.9,80.7L117.2,80.6L118.0,78.8L119.7,77.7L118.9,78.1L119.4,79.0L118.8,79.9L119.8,80.6L119.5,78.7L121.6,78.2L121.3,77.4L123.6,79.2L127.3,79.7L131.3,78.9L130.0,79.2L132.6,80.4L131.6,81.3ZM339.0,67.3L337.4,67.9L336.1,70.1L340.0,73.9L340.5,77.9L337.3,79.2L337.3,79.9L336.8,79.5L337.2,80.2L336.4,79.7L336.8,80.4L335.5,81.2L335.5,79.8L334.7,79.3L336.8,78.9L336.4,78.0L338.4,77.2L338.3,73.2L334.0,69.7L335.3,68.9L334.9,68.3L333.1,68.0L331.9,66.4L335.7,65.4ZM271.9,72.6L270.1,74.0L260.8,76.9L259.1,74.1L259.8,72.4L260.1,71.6L264.6,72.3L266.9,70.5L270.5,70.0ZM245.2,114.7L246.0,118.5L245.1,118.4L244.6,119.4L245.8,120.0L247.2,119.5L246.7,120.9L240.4,126.5L231.0,128.0L229.4,127.4L228.8,125.9L229.2,124.7L228.2,123.3L227.1,121.4L227.8,120.7L229.1,121.6L231.4,121.2L231.4,117.2L232.3,119.4L233.4,119.5L235.2,117.8L238.1,118.2L242.6,114.5ZM242.1,123.0L242.9,122.1L242.0,121.3L240.5,122.2L240.0,122.5L240.9,123.5ZM247.2,100.7L248.1,101.9L247.9,103.8L246.9,105.2L247.6,105.6L243.9,106.7L244.1,107.4L242.3,107.7L239.7,110.0L235.5,109.5L234.0,108.4L233.8,104.5L236.3,104.5L236.3,103.4L236.3,102.2L238.8,103.3L240.2,103.0L243.3,105.0L243.4,103.6L242.5,103.8L241.6,102.9L242.3,99.7L244.6,99.3ZM245.2,114.7L241.3,113.8L240.8,112.6L239.0,111.6L237.8,109.7L239.7,110.0L241.1,108.7L243.3,107.4L247.2,108.5L247.3,112.1Z" fill="#0d2b21" fill-opacity="0.55" stroke="#2a7a5e" stroke-width="0.6" stroke-linejoin="round"/><path d="M296.0,69.8 Q176.6,27.6 57.2,49.6" fill="none" stroke="#5dffa8" stroke-width="0.7" opacity="0.28"/><circle cx="57.2" cy="49.6" r="2.2" fill="#22c76e"/><path d="M296.0,69.8 Q206.2,24.4 116.4,46.4" fill="none" stroke="#5dffa8" stroke-width="0.7" opacity="0.28"/><circle cx="116.4" cy="46.4" r="2.2" fill="#22c76e"/><path d="M296.0,69.8 Q251.4,12.7 206.8,34.7" fill="none" stroke="#5dffa8" stroke-width="0.7" opacity="0.28"/><circle cx="206.8" cy="34.7" r="2.2" fill="#22c76e"/><path d="M296.0,69.8 Q285.3,41.2 274.6,63.2" fill="none" stroke="#5dffa8" stroke-width="0.7" opacity="0.28"/><circle cx="274.6" cy="63.2" r="2.2" fill="#22c76e"/><path d="M296.0,69.8 Q314.9,47.8 333.9,89.0" fill="none" stroke="#5dffa8" stroke-width="0.7" opacity="0.28"/><circle cx="333.9" cy="89.0" r="2.2" fill="#22c76e"/><path d="M296.0,69.8 Q343.9,47.8 391.9,127.2" fill="none" stroke="#5dffa8" stroke-width="0.7" opacity="0.28"/><circle cx="391.9" cy="127.2" r="2.2" fill="#22c76e"/><circle cx="296.0" cy="69.8" r="4" fill="none" stroke="#5dffa8" stroke-width="1.4" opacity="0"><animate attributeName="r" values="4;40" dur="3.9s" repeatCount="indefinite"/><animate attributeName="opacity" values="0.8;0" dur="3.9s" repeatCount="indefinite"/></circle><circle cx="296.0" cy="69.8" r="3.4" fill="#5dffa8"/><text x="303.0" y="72.8" fill="#5dffa8" font-size="7.5" letter-spacing="1">HQ</text></g><text x="272" y="520" class="panel-dim" font-size="9">HQ: MUMBAI, IN · NETWORK NODES ILLUSTRATIVE</text><rect x="742" y="322" width="238" height="210" rx="8" fill="#061b14" stroke="#1f5c47" stroke-width="1"/><path d="M742,332 V322 H752" fill="none" stroke="#5dffa8" stroke-width="1.6"/><path d="M970,322 H980 V332" fill="none" stroke="#5dffa8" stroke-width="1.6"/><path d="M980,522 V532 H970" fill="none" stroke="#5dffa8" stroke-width="1.6"/><path d="M752,532 H742 V522" fill="none" stroke="#5dffa8" stroke-width="1.6"/><text x="758" y="344" class="panel-title">LATEST COMMIT</text><rect x="756" y="356" width="210" height="140" rx="6" fill="#04100b" stroke="#1f5c47" stroke-width="1"/><text x="768" y="378" class="panel-dim" font-size="9.5">REPO</text><text x="768" y="394" class="panel-text" font-size="12" font-weight="700"><!--REPO_START-->Meraki<!--REPO_END--></text><text x="768" y="418" class="panel-dim" font-size="9.5">MESSAGE</text><text x="768" y="434" class="panel-text" font-size="11"><!--MSG_START-->HTML of Website Added<!--MSG_END--></text><text x="768" y="508" class="panel-dim" font-size="9.5"><!--TIME_START-->2026-07-13 13:30<!--TIME_END--></text><text x="964" y="508" text-anchor="end" font-size="8.5" fill="#5dffa8" letter-spacing="1">● AUTO-SYNCED</text><rect x="20" y="548" width="960" height="190" rx="8" fill="#061b14" stroke="#1f5c47" stroke-width="1"/><path d="M20,558 V548 H30" fill="none" stroke="#5dffa8" stroke-width="1.6"/><path d="M970,548 H980 V558" fill="none" stroke="#5dffa8" stroke-width="1.6"/><path d="M980,728 V738 H970" fill="none" stroke="#5dffa8" stroke-width="1.6"/><path d="M30,738 H20 V728" fill="none" stroke="#5dffa8" stroke-width="1.6"/><text x="36" y="570" class="panel-title">REPOSITORY ROSTER · MOST RECENTLY UPDATED</text><text x="964" y="570" text-anchor="end" class="panel-dim" font-size="9"><!--RMORE_START-->+18 MORE NOT SHOWN<!--RMORE_END--></text><text x="36" y="590" text-anchor="start" class="panel-dim" font-size="9" letter-spacing="0.6">REPOSITORY</text><text x="320" y="590" text-anchor="start" class="panel-dim" font-size="9" letter-spacing="0.6">LANGUAGE</text><text x="538" y="590" text-anchor="end" class="panel-dim" font-size="9" letter-spacing="0.6">STARS</text><text x="628" y="590" text-anchor="end" class="panel-dim" font-size="9" letter-spacing="0.6">FORKS</text><text x="962" y="590" text-anchor="end" class="panel-dim" font-size="9" letter-spacing="0.6">UPDATED</text><line x1="36" y1="598" x2="964" y2="598" stroke="#1f5c47" stroke-width="1" opacity="0.6"/><!--ROSTER_START--><text x="36" y="618" class="panel-text" font-size="10.5">rbrth_new</text><circle cx="314" cy="614.5" r="3" fill="#e34c26"/><text x="324" y="618" class="panel-text" font-size="10">HTML</text><text x="538" y="618" text-anchor="end" class="panel-text" font-size="10">1</text><text x="628" y="618" text-anchor="end" class="panel-text" font-size="10">0</text><text x="962" y="618" text-anchor="end" class="panel-dim" font-size="9.5">2026-06-14</text><text x="36" y="640" class="panel-text" font-size="10.5">ktsportfolio</text><circle cx="314" cy="636.5" r="3" fill="#3178c6"/><text x="324" y="640" class="panel-text" font-size="10">TypeScript</text><text x="538" y="640" text-anchor="end" class="panel-text" font-size="10">1</text><text x="628" y="640" text-anchor="end" class="panel-text" font-size="10">0</text><text x="962" y="640" text-anchor="end" class="panel-dim" font-size="9.5">2026-05-08</text><text x="36" y="662" class="panel-text" font-size="10.5">SpotterAI</text><circle cx="314" cy="658.5" r="3" fill="#e34c26"/><text x="324" y="662" class="panel-text" font-size="10">HTML</text><text x="538" y="662" text-anchor="end" class="panel-text" font-size="10">0</text><text x="628" y="662" text-anchor="end" class="panel-text" font-size="10">0</text><text x="962" y="662" text-anchor="end" class="panel-dim" font-size="9.5">2026-05-04</text><text x="36" y="684" class="panel-text" font-size="10.5">LIAT.AI---Frontend-Assignment</text><circle cx="314" cy="680.5" r="3" fill="#3178c6"/><text x="324" y="684" class="panel-text" font-size="10">TypeScript</text><text x="538" y="684" text-anchor="end" class="panel-text" font-size="10">0</text><text x="628" y="684" text-anchor="end" class="panel-text" font-size="10">0</text><text x="962" y="684" text-anchor="end" class="panel-dim" font-size="9.5">2026-04-28</text><text x="36" y="706" class="panel-text" font-size="10.5">nofeeswap</text><circle cx="314" cy="702.5" r="3" fill="#3572A5"/><text x="324" y="706" class="panel-text" font-size="10">Python</text><text x="538" y="706" text-anchor="end" class="panel-text" font-size="10">0</text><text x="628" y="706" text-anchor="end" class="panel-text" font-size="10">0</text><text x="962" y="706" text-anchor="end" class="panel-dim" font-size="9.5">2026-04-09</text><text x="36" y="728" class="panel-text" font-size="10.5">cloxide1</text><circle cx="314" cy="724.5" r="3" fill="#3178c6"/><text x="324" y="728" class="panel-text" font-size="10">TypeScript</text><text x="538" y="728" text-anchor="end" class="panel-text" font-size="10">0</text><text x="628" y="728" text-anchor="end" class="panel-text" font-size="10">0</text><text x="962" y="728" text-anchor="end" class="panel-dim" font-size="9.5">2026-03-18</text><!--ROSTER_END--><line x1="20" y1="748" x2="980" y2="748" stroke="#1f5c47" stroke-width="1"/>
  <text x="20" y="770" class="panel-text" font-size="10.5"><!--STATS_START-->25 REPOS · 7 STARS · 1 FORK · 706 CONTRIB/YR (PUBLIC) · 15 FOLLOWERS<!--STATS_END--></text>
  <text x="20" y="788" class="panel-dim" font-size="9.5">krishank.kmats.in &#160;·&#160; /in/krishank-shah-546989230 &#160;·&#160; @krishankshh &#160;·&#160; github.com/krishankshh</text>
  <text x="980" y="788" text-anchor="end" class="panel-dim" font-size="9">LAST SYNC: <!--SYNC_START-->Jul 16, 2026 20:47 UTC<!--SYNC_END--></text>


  <rect x="0" y="0" width="180" height="800" fill="url(#sweepGrad)">
    <animateTransform attributeName="transform" type="translate" values="-180,0; 1180,0" dur="7s" repeatCount="indefinite"/>
  </rect>
</svg>
